<svg width="12" height="12" viewBox="0 0 12 12" fill="none" xmlns="http://www.w3.org/2000/svg">
<path d="M4.09894 11.0526C4.09894 10.3124 4.21452 9.58738 4.44127 8.90021C4.55685 8.56484 4.46779 8.184 4.24294 7.96359L3.2141 6.60127C4.04841 5.03811 5.04821 4.03769 6.6 3.21475L7.9301 4.21579C8.1821 4.46779 8.55095 4.55812 8.89642 4.45012C9.588 4.22148 10.3137 4.10528 11.0526 4.10528C11.575 4.10528 12 3.68023 12 3.15791L12 0.947369C12 0.425043 11.575 -1.85792e-08 11.0526 -4.14108e-08C4.95853 -3.07792e-07 8.37324e-07 4.95853 5.70942e-07 11.0526C5.4811e-07 11.575 0.425044 12 0.94737 12L3.15157 12C3.6739 12 4.09894 11.575 4.09894 11.0526Z" fill="#0099DA"/>
</svg>
