<svg width="31" height="27" viewBox="0 0 31 27" fill="none" xmlns="http://www.w3.org/2000/svg">
<path d="M15.4201 6.41935C15.4188 6.89988 15.5128 7.37579 15.6966 7.81903C15.8805 8.26227 16.1505 8.66381 16.4907 8.99996C16.8179 9.35099 17.2128 9.63076 17.6511 9.82197C18.0895 10.0132 18.5619 10.1118 19.0394 10.1118C19.5169 10.1118 19.9894 10.0132 20.4277 9.82197C20.8661 9.63076 21.261 9.35099 21.5882 8.99996C21.9317 8.66053 22.2046 8.2553 22.3909 7.808C22.5773 7.36071 22.6733 6.88036 22.6733 6.39514C22.6733 5.90991 22.5773 5.42957 22.3909 4.98227C22.2046 4.53498 21.9317 4.12975 21.5882 3.79031C21.2692 3.43945 20.8815 3.1593 20.4496 2.96772C20.0177 2.77613 19.5511 2.67729 19.0794 2.67741C18.109 2.67855 17.1784 3.06699 16.4907 3.75802C16.1291 4.09465 15.8456 4.50784 15.6606 4.9679C15.4755 5.42795 15.3934 5.92355 15.4201 6.41935ZM8.6448 16.4032C8.38254 16.1307 8.23392 15.767 8.22942 15.3871C8.22316 15.2118 8.25737 15.0374 8.32949 14.8778C8.4016 14.7183 8.50956 14.5779 8.6448 14.4677L13.7422 9.32256C13.1958 8.4126 12.9032 7.37048 12.8954 6.30644C12.8812 5.48436 13.0341 4.66806 13.3447 3.90795C13.6553 3.14785 14.1169 2.46009 14.7011 1.8871C15.2398 1.28722 15.9063 0.818514 16.6505 0.516171C17.4034 0.215824 18.206 0.0625229 19.0155 0.0645109C19.83 0.0501919 20.6387 0.204568 21.3917 0.518042C22.1448 0.831515 22.8262 1.29744 23.3938 1.8871C23.9481 2.48559 24.3919 3.17933 24.7042 3.93552C25.0189 4.6857 25.1818 5.49177 25.1835 6.30644C25.1988 7.12723 25.048 7.94256 24.7402 8.70246C24.4325 9.46236 23.9744 10.1508 23.3938 10.7258C22.8678 11.3219 22.2112 11.7858 21.4763 12.0807C20.7284 12.379 19.9314 12.5322 19.1273 12.5322C18.014 12.5539 16.9137 12.2874 15.9314 11.7581L13.5345 14.1774C11.7932 14.6076 10.1389 15.3389 8.6448 16.3387V16.4032ZM31.0159 22.1613V23.9839C31.0035 24.1818 30.9431 24.3735 30.84 24.5423C30.7369 24.711 30.5943 24.8515 30.4247 24.9516C30.0793 25.1323 29.7148 25.273 29.3381 25.371L28.7469 25.4839H28.3314C28.1661 25.9366 27.8714 26.3296 27.4846 26.6129C27.1002 26.9115 26.6272 27.0706 26.1422 27.0645C25.6488 27.0585 25.169 26.901 24.7665 26.6128C24.364 26.3247 24.058 25.9196 23.8892 25.4516H7.79795C7.63871 25.9032 7.34931 26.2964 6.96699 26.5806C6.57625 26.8727 6.10296 27.0303 5.61678 27.0303C5.13059 27.0303 4.6572 26.8727 4.26647 26.5806C3.8796 26.2973 3.58489 25.9043 3.41961 25.4516H3.24386C2.62121 25.4669 1.9989 25.4074 1.3902 25.2742C1.03869 25.2124 0.695466 25.1096 0.367495 24.9677L0 24.8548V22.7258L0.303612 22.129L0.431475 21.6452C0.591268 21.3226 0.751043 21.0161 0.910836 20.7419C1.05371 20.4188 1.30981 20.1603 1.62993 20.0161C2.49291 19.5667 3.42025 19.2565 4.37833 19.0967C5.2572 18.9032 6.24797 18.7419 7.31858 18.6129L8.6448 18.5L9.23613 17.9517C9.80117 17.5275 10.4058 17.1601 11.0417 16.8548C11.9972 16.3602 13.005 15.9761 14.0458 15.7097C15.3735 15.3428 16.7442 15.1583 18.1207 15.1613C19.9583 15.1613 21.7799 15.1613 23.5696 15.2903C24.8479 15.4032 26.0464 15.5484 27.1649 15.7097L28.4913 15.9516V16.0968L28.1877 16.4032L29.2104 17.4355C29.6177 17.8793 29.9766 18.3659 30.2809 18.8871L30.5846 19.4355V21.2419L31.0159 22.1613Z" fill="#808890"/>
</svg>
