<svg width="18" height="18" viewBox="0 0 18 18" fill="none" xmlns="http://www.w3.org/2000/svg">
<path d="M15.3459 4.20867C15.4457 4.11457 15.5244 4.0004 15.577 3.87366C15.6296 3.74692 15.6548 3.61048 15.651 3.47329C15.647 3.18592 15.5338 2.91087 15.3346 2.70397C15.1861 2.55735 14.9978 2.45772 14.7931 2.41754C14.5885 2.37737 14.3766 2.39841 14.1838 2.47803C13.991 2.55766 13.8258 2.69236 13.709 2.86532C13.5922 3.03828 13.5288 3.24184 13.5267 3.45064C13.5243 3.58868 13.5513 3.72567 13.6058 3.85246C13.6604 3.97926 13.7412 4.09297 13.8431 4.18606C13.9385 4.28872 14.0539 4.37077 14.1821 4.42719C14.3103 4.48361 14.4488 4.51319 14.5889 4.51413C14.7294 4.51903 14.8693 4.49438 14.9997 4.44176C15.1301 4.38915 15.2481 4.30975 15.3459 4.20867ZM11.2781 9.39031L10.555 8.66625L5.42504 13.8479L6.10298 14.572L11.2781 9.39031ZM4.28379 12.7052L10.9391 6.07542L10.216 5.36265L3.56061 12.0264L4.28379 12.7052ZM17.9787 1.0861C18.0125 1.19285 18.0125 1.30745 17.9787 1.4142L17.3007 7.81773L7.25555 17.785C7.21639 17.8381 7.16521 17.8811 7.1063 17.9105C7.0474 17.94 6.98237 17.9552 6.91651 17.9547C6.84421 17.9548 6.77273 17.9397 6.70658 17.9105C6.64042 17.8813 6.58109 17.8385 6.53237 17.785L0.17078 11.4155C0.114814 11.3849 0.0689527 11.3386 0.0388474 11.2824C0.00874209 11.2261 -0.00432734 11.1623 0.00126077 11.0987C0.000161662 11.0228 0.0146582 10.9475 0.043813 10.8774C0.0729678 10.8074 0.116187 10.7441 0.17078 10.6914L10.3403 0.667499L16.747 -0.0452659C16.9366 -0.0467514 17.1192 0.0264065 17.2555 0.158406L17.8883 0.803257L17.9787 1.0861Z" fill="#808890"/>
</svg>
