<svg width="44" height="44" viewBox="0 0 44 44" fill="none" xmlns="http://www.w3.org/2000/svg">
<path d="M22 41.9727C11.0613 41.9727 2.08934 32.9387 2.08934 22C2.07984 19.6174 2.50649 17.2532 3.34821 15.0242L14.9901 38.4631C15.1453 38.7736 15.3269 39.0157 15.6963 39.0157C16.0658 39.0157 16.2676 38.7658 16.4026 38.4631L21.7517 26.4549C21.8137 26.3323 21.8758 26.2097 21.9985 26.2097C22.1211 26.2097 22.1832 26.3323 22.2437 26.4549L27.5912 38.4693C27.7247 38.772 27.9281 39.0219 28.2975 39.0219C28.6669 39.0219 28.8501 38.7782 29.0038 38.4693L40.6456 15.0304C41.4886 17.2591 41.9158 19.6234 41.906 22.0062C41.906 32.9449 32.9341 41.979 21.9954 41.979L22 41.9727ZM21.9954 17.4892C21.8727 17.4892 21.8106 17.3665 21.7486 17.2439L15.4852 3.16503C19.6954 1.64794 24.3031 1.64794 28.5132 3.16503L22.2453 17.2377C22.1847 17.3603 22.1226 17.483 22 17.483L21.9954 17.4892ZM15.6358 31.9189C15.5132 31.9189 15.4511 31.7947 15.3905 31.672L5.25437 11.246C7.06334 8.45993 9.51953 6.15285 12.4133 4.52169L19.6949 20.7458C19.7284 20.8631 19.8025 20.9648 19.904 21.0324C20.0056 21.1001 20.1279 21.1295 20.2491 21.1152H23.751C23.8721 21.1292 23.9943 21.0997 24.0957 21.032C24.1972 20.9644 24.2714 20.863 24.3051 20.7458L31.5867 4.52169C34.4812 6.1546 36.9375 8.46387 38.7457 11.2522L28.6064 31.686C28.5443 31.8086 28.4838 31.9328 28.3596 31.9328C28.2354 31.9328 28.1764 31.8086 28.1143 31.686L24.3051 22.9593C24.2711 22.8424 24.1968 22.7413 24.0953 22.674C23.9939 22.6066 23.8719 22.5774 23.751 22.5914H20.2491C20.1281 22.5774 20.0061 22.6066 19.9047 22.674C19.8033 22.7413 19.729 22.8424 19.6949 22.9593L15.8857 31.686C15.8236 31.8086 15.7615 31.9328 15.6389 31.9328L15.6358 31.9189ZM22.0031 44.0077C26.3538 44.0071 30.6067 42.7165 34.224 40.2991C37.8413 37.8817 40.6606 34.446 42.3255 30.4264C43.9904 26.4069 44.4261 21.9839 43.5775 17.7167C42.7289 13.4496 40.6341 9.52981 37.558 6.45306C34.4819 3.3763 30.5626 1.2807 26.2956 0.431205C22.0286 -0.418295 17.6056 0.0164522 13.5856 1.68048C9.56571 3.34451 6.12943 6.1631 3.71124 9.77989C1.29305 13.3967 0.00154726 17.6493 1.23485e-05 22C-0.00305109 24.8899 0.563904 27.7521 1.66842 30.4226C2.77294 33.0932 4.39333 35.5197 6.43683 37.5632C8.48033 39.6067 10.9068 41.2271 13.5774 42.3316C16.2479 43.4361 19.1101 44.003 22 44" fill="#002F62"/>
</svg>
