<svg width="21" height="21" viewBox="0 0 21 21" fill="none" xmlns="http://www.w3.org/2000/svg">
<path d="M13.6833 0.496125C13.671 0.490875 13.6596 0.486486 13.6474 0.483C12.6534 0.169764 11.5964 0 10.5 0C5.78025 0 1.77975 3.13076 0.462 7.42436C0.457611 7.43925 0.454125 7.45324 0.450639 7.46812C0.160125 8.42887 0 9.44561 0 10.5C0 13.2125 1.04299 15.68 2.73701 17.5455C2.76765 17.5971 2.80703 17.6409 2.85514 17.6759C4.77225 19.7164 7.48564 21 10.5 21C15.8217 21 20.2204 17.0179 20.8985 11.879C20.909 11.8449 20.9125 11.8116 20.9142 11.7766C20.9659 11.3575 21 10.9331 21 10.5C21 5.82049 17.9209 1.848 13.6833 0.496125ZM10.5 20.125C7.77611 20.125 5.31739 18.9823 3.56475 17.157C3.63214 16.4876 3.80014 14.4498 3.47989 13.4313C3.32149 12.9281 2.97937 12.5851 2.6775 12.2832C2.46139 12.0671 2.25664 11.8632 2.14639 11.6261C1.89176 11.0845 1.5225 8.96175 1.3239 7.59937C2.55761 3.70564 6.20374 0.874986 10.5 0.874986C11.2271 0.874986 11.9324 0.962473 12.6131 1.11649C12.3541 1.43497 12.1485 1.79111 12.0164 2.06411C11.5071 1.87688 10.7923 1.66425 10.3941 1.7631C9.7344 1.92761 9.04751 2.77635 8.39475 3.68197C8.29676 3.81761 8.15936 4.09324 8.05526 4.31808C7.56263 4.28047 7.0665 4.5027 6.66401 4.9341C6.2694 5.35672 5.96925 6.01035 6.18889 6.51611C6.32363 6.82324 6.61853 6.99997 7.00001 6.99997C7.40078 6.99997 7.77701 6.78033 8.17601 6.54671C8.5269 6.34196 8.89001 6.12933 9.19365 6.12495C10.7748 6.09082 11.5815 6.48896 11.8195 6.85646C11.8843 6.95621 11.9061 7.0542 11.8851 7.15485C11.5675 7.21436 10.6671 7.12249 10.0538 7.06035C9.0195 6.95711 7.95026 6.84949 7.32637 7.01396C6.552 7.21785 6.10136 7.75158 5.32087 8.94772C4.97089 9.48499 5.06801 10.6059 5.28589 11.1099C5.43551 11.4572 5.96839 12.0811 6.42953 12.2281C6.80576 12.3462 7.29229 12.2797 7.80765 12.2089C8.19615 12.1538 8.78329 12.0741 8.95301 12.1809C9.35464 12.4381 9.62501 13.5205 9.62501 14.8715C9.61976 14.9441 9.51562 15.1558 9.45439 15.2828C9.29426 15.6082 9.12975 15.946 9.19714 16.275C9.46751 17.6059 10.4737 18.3785 11.3006 18.3785C11.3391 18.3785 11.3767 18.3767 11.4135 18.3732C12.6228 18.2656 14.6125 16.7081 14.8671 15.3956C14.9293 15.0727 14.9004 14.5871 14.8689 14.0735C14.84 13.5966 14.8077 13.0558 14.8654 12.7776C14.9232 12.4993 15.3808 11.6664 15.6862 11.1658C15.7956 10.9856 15.7623 10.7537 15.6048 10.6128C15.3309 10.3661 14.8978 9.95396 14.7919 9.80696C14.6922 9.66783 14.5259 9.34844 14.3606 9.00371C14.4918 9.0501 14.595 9.0921 14.6449 9.12269C15.1376 9.4272 16.317 10.7423 16.7309 11.2227C16.8333 11.3426 16.9908 11.3977 17.1474 11.3671C17.7984 11.2393 17.8824 10.5682 17.9367 10.1237C17.9568 9.96356 17.9936 9.66693 18.0408 9.61267C18.3978 9.53129 18.8598 10.254 19.2291 10.8403C19.4846 11.2463 19.7313 11.6278 20.0096 11.9078C19.3253 16.548 15.3274 20.125 10.5 20.125Z" fill="#808890"/>
</svg>
