<svg width="21" height="18" viewBox="0 0 21 18" fill="none" xmlns="http://www.w3.org/2000/svg">
<path d="M9.25857 12.0332C9.14642 11.9372 9.07135 11.8053 9.04622 11.6603V10.8647H11.857V11.6603C11.8596 11.7305 11.8463 11.8005 11.8182 11.865C11.7901 11.9295 11.7479 11.987 11.6946 12.0332C11.5814 12.1236 11.44 12.172 11.2949 12.1699H9.65834C9.51317 12.172 9.37181 12.1236 9.25857 12.0332ZM20.8642 6.79976V17.4904C20.8643 17.5615 20.8487 17.6318 20.8185 17.6962C20.7882 17.7607 20.7442 17.8177 20.6893 17.8633C20.581 17.9538 20.4435 18.0024 20.302 18H0.513777C0.445078 18.0057 0.37598 17.9964 0.311261 17.9728C0.246542 17.9492 0.187759 17.9118 0.139016 17.8633C0.0902724 17.8148 0.0527219 17.7563 0.0289889 17.6919C0.00525597 17.6275 -0.00406052 17.5587 0.00161568 17.4904V6.79976L2.71248 10.8647H7.63455V11.6603C7.63713 11.9214 7.69269 12.1793 7.79788 12.4186C7.90307 12.6578 8.0557 12.8734 8.24668 13.0525C8.42719 13.2452 8.64579 13.3988 8.88869 13.5036C9.13159 13.6084 9.39359 13.6623 9.65834 13.6617H11.2949C11.5657 13.6659 11.8345 13.6139 12.084 13.509C12.3335 13.4042 12.5583 13.2487 12.744 13.0525C12.9374 12.8753 13.0916 12.66 13.197 12.4204C13.3023 12.1807 13.3565 11.9219 13.3562 11.6603V10.8647H18.2782L20.8642 6.79976ZM13.0314 2.00143H8.03433V3.49312H13.0314V2.00143ZM17.5286 9.37297H3.66193L0.15152 4.18929V4.0028C0.145844 3.93444 0.155161 3.86568 0.178894 3.80128C0.202627 3.73688 0.240177 3.67839 0.28892 3.62988C0.337664 3.58138 0.396447 3.54402 0.461166 3.5204C0.525885 3.49678 0.594983 3.48748 0.663682 3.49312H6.01054V1.62848C6.00367 1.41374 6.03991 1.1998 6.11713 0.999158C6.19435 0.79852 6.31099 0.615253 6.46025 0.460009C6.59971 0.309482 6.77001 0.190499 6.95968 0.111147C7.14934 0.0317954 7.35395 -0.00610601 7.5596 3.21766e-05H13.556C13.7672 -0.00251352 13.9765 0.0393603 14.1703 0.122908C14.364 0.206455 14.5379 0.329809 14.6804 0.484857C14.8317 0.634698 14.9515 0.812961 15.033 1.00929C15.1145 1.20561 15.156 1.41607 15.1551 1.62848V3.49312H20.4519C20.5968 3.49308 20.7375 3.54123 20.8517 3.62988C20.9025 3.67808 20.943 3.73593 20.9709 3.79999C20.9988 3.86404 21.0135 3.93299 21.0141 4.0028V4.18929L17.5286 9.37297Z" fill="#808890"/>
</svg>
