<svg width="17" height="23" viewBox="0 0 17 23" fill="none" xmlns="http://www.w3.org/2000/svg">
<path d="M9.88966 5.93268C9.69294 5.76674 9.44274 5.6746 9.18343 5.67259L9.70046 6.36618C9.76139 6.42382 9.80963 6.49314 9.84216 6.56983C9.8747 6.64653 9.89088 6.72896 9.88966 6.81204C9.8937 6.88958 9.88117 6.9671 9.85294 7.03962C9.82471 7.11214 9.78139 7.17804 9.72571 7.23315C9.61759 7.33626 9.47284 7.39401 9.32213 7.39416C9.24863 7.39465 9.17605 7.37807 9.1103 7.34578C9.04456 7.3135 8.98752 7.26643 8.94381 7.20839C8.62798 6.92231 8.35608 6.59271 8.13667 6.22992C8.04552 6.36054 7.98375 6.50873 7.95548 6.66463C7.92721 6.82053 7.93309 6.98058 7.97272 7.13408C8.0588 7.44 8.26118 7.70179 8.53809 7.86543C8.815 8.02906 9.1453 8.08204 9.46084 8.01344C9.62105 7.97665 9.77098 7.90533 9.89966 7.80465C10.0284 7.70397 10.1326 7.57645 10.2049 7.43132C10.3694 7.15034 10.4274 6.82134 10.3689 6.5024C10.262 6.27501 10.0969 6.07872 9.88966 5.93268ZM16.8259 6.34138C16.9752 7.03719 17.0304 7.74936 16.9898 8.45934C17.0078 9.4602 16.7784 10.4504 16.3214 11.3452C16.1034 11.6551 15.8163 11.9122 15.482 12.0967C15.1476 12.2813 14.7748 12.3886 14.3919 12.4103L14.2279 14.0328L13.4713 14.8751L13.9379 15.7544L13.4713 16.4976L13.9379 17.3769L13.1308 18.1325L13.61 19.0118L12.8029 19.8417L13.2821 20.6343L12.8029 21.4766V22.3064L12.0966 23.0124L11.2012 22.1701V13.2526C12.1694 12.6257 12.9662 11.7751 13.5217 10.7754C13.9606 10.1265 14.3085 9.42245 14.5558 8.68227C14.8428 7.98703 14.9087 7.22275 14.745 6.49C14.485 5.57551 13.9378 4.76496 13.1812 4.17391C13.7913 4.15572 14.4004 4.2352 14.9846 4.40924V4.03769C14.9942 3.64026 14.9209 3.24509 14.7691 2.87658C14.6172 2.50806 14.3902 2.17398 14.1019 1.89497C13.8197 1.60493 13.4784 1.37669 13.1003 1.22515C12.7221 1.07361 12.3156 1.0022 11.9074 1.0156C11.2213 1.02754 10.5583 1.26076 10.0204 1.67929C9.4826 2.09783 9.09987 2.67845 8.93119 3.3317C9.64074 3.60801 10.3208 3.95237 10.9616 4.35972C11.7439 4.78033 12.434 5.34853 12.9921 6.03174C13.1783 6.28219 13.3101 6.56751 13.3795 6.87002C13.449 7.17254 13.4544 7.48584 13.3956 7.79051C13.1838 8.66788 12.8259 9.50485 12.3362 10.2676C11.8126 11.1492 11.0926 11.9029 10.2302 12.4723C9.88141 12.6425 9.49722 12.731 9.10776 12.731C8.7183 12.731 8.33412 12.6425 7.98534 12.4723L6.93859 13.7851L5.85403 14.1072V15.0237L4.99648 15.4819V16.4109L3.86151 16.6957V17.7237L2.77688 18.0458V18.9747L1.91932 19.4329L1.45271 20.1389L0.405954 20.3619L0.078125 19.1233L5.12264 10.7135C4.76744 10.4669 4.47076 10.1477 4.25307 9.7778C4.03538 9.40794 3.90183 8.99618 3.86151 8.57081C3.97962 7.54388 4.37105 6.56562 4.99648 5.7345C5.3808 5.11102 5.84258 4.53688 6.37114 4.02529C6.71952 3.68325 7.15508 3.43942 7.63227 3.3193C7.82127 2.39311 8.33984 1.56329 9.09514 0.978449C9.85588 0.358197 10.8057 0.00512666 11.794 -0.0247796C12.3585 -0.0370742 12.9195 0.066755 13.4407 0.280059C13.962 0.493364 14.432 0.811424 14.8206 1.21378C15.2235 1.59535 15.5431 2.05347 15.7599 2.56025C15.9767 3.06703 16.0862 3.61187 16.0818 4.16155C16.0992 4.45442 16.0992 4.74804 16.0818 5.04091C16.467 5.38862 16.728 5.84899 16.8259 6.35378V6.34138Z" fill="#808890"/>
</svg>
