<svg width="28" height="19" viewBox="0 0 28 19" fill="none" xmlns="http://www.w3.org/2000/svg">
<path d="M26.0987 8.72281C26.2073 8.61779 26.2931 8.49182 26.3509 8.35264C26.4087 8.21347 26.4372 8.06402 26.4348 7.91348C26.4163 7.59919 26.2824 7.3026 26.0584 7.07999C25.8344 6.85738 25.5359 6.72425 25.2197 6.7059H24.8835H24.6896L23.2806 7.52808L22.9962 9.01828H25.323C25.6072 9.00727 25.8799 8.90342 26.0987 8.72281ZM27.3914 4.77892H26.4606L26.6157 5.30563C26.9281 6.1451 27.1872 7.00322 27.3914 7.87494L27.5336 8.50442V11.9087C27.5231 12.0245 27.4925 12.1375 27.4431 12.2427C27.3585 12.5033 27.1847 12.726 26.9518 12.8722V14.5551L26.8485 14.7735L26.6157 14.8891H25.0387L24.8447 14.7735L24.7543 14.5551V13.2705C23.9787 13.2705 22.2981 13.2705 19.7127 13.2705V12.3969L19.1698 10.1359C19.3305 10.0668 19.4659 9.95016 19.5576 9.80192C19.7638 9.64967 19.9027 9.42412 19.9454 9.17243C20.5068 9.19543 21.0691 9.16965 21.6259 9.09535C21.8534 9.00029 22.0344 8.82044 22.1301 8.59434C22.275 8.37111 22.3881 8.12901 22.4662 7.87494L22.5696 7.4767H19.7386C19.5748 7.15817 19.3609 6.86762 19.1051 6.61598C18.5947 6.24687 17.9898 6.02865 17.36 5.9865L17.166 5.6011C16.8817 5.12578 16.649 4.76608 16.4939 4.54769H24.8319C24.5832 4.01993 24.307 3.50538 24.0045 3.00612C23.6555 2.38948 23.3323 1.87561 23.035 1.45168C22.1689 1.36175 20.7857 1.31037 18.9113 1.31037H17.9029H16.0027C15.0073 1.31037 14.3609 1.37461 14.0636 1.4003L13.9214 1.78568C13.7491 2.11113 13.6197 2.36806 13.5336 2.55648H13.0036C12.6158 2.55648 12.3055 2.55648 12.0728 2.55648C12.3862 1.7625 12.785 1.00446 13.2621 0.295499C13.469 0.0642619 15.2012 -0.0256779 18.433 1.51778e-05H20.2298C21.4727 -0.0435693 22.7167 0.0468934 23.9399 0.269801C24.2504 0.677617 24.5311 1.10692 24.7801 1.55445C25.2326 2.29955 25.6204 2.96757 25.9436 3.5842C26.2711 3.5842 26.5942 3.5842 26.9131 3.5842C27.1209 3.58734 27.3248 3.64022 27.5077 3.73836C27.6778 3.8697 27.8224 4.03077 27.9343 4.21367C27.9871 4.27435 28.0161 4.35187 28.0161 4.43206C28.0161 4.51226 27.9871 4.58979 27.9343 4.65047C27.7866 4.7285 27.6231 4.7724 27.456 4.77892H27.3914ZM16.4293 12.8209C16.5391 12.7122 16.6262 12.5831 16.6857 12.4409C16.7452 12.2987 16.7758 12.1462 16.7758 11.9922C16.7758 11.8383 16.7452 11.6858 16.6857 11.5436C16.6262 11.4014 16.5391 11.2723 16.4293 11.1636C16.3195 11.0488 16.187 10.9576 16.0402 10.8957C15.8935 10.8338 15.7355 10.8026 15.576 10.8039H15.1883H14.9943L13.7016 11.6261L13.4043 13.1934H15.7829C16.0537 13.1474 16.3028 13.017 16.4939 12.8209H16.4293ZM12.7838 11.8574C12.7838 11.7032 12.7838 11.6133 12.8872 11.6133H5.64808V11.9987C5.72525 12.2492 5.82025 12.4939 5.93244 12.7309C5.99136 12.8552 6.07986 12.9634 6.19021 13.0462C6.30055 13.129 6.42949 13.1839 6.56593 13.2062C8.30496 13.4117 10.0623 13.4117 11.8014 13.2062C12.2754 13.1463 12.6244 12.7138 12.8485 11.9087L12.7838 11.8574ZM5.11811 13.142L4.78199 11.6518L3.48928 10.8296C3.29946 10.7778 3.10427 10.7476 2.90755 10.7397C2.74813 10.7384 2.59015 10.7696 2.44338 10.8315C2.29661 10.8934 2.16414 10.9846 2.05432 11.0994C1.9415 11.208 1.8515 11.3376 1.78937 11.4809C1.72725 11.6243 1.69428 11.7784 1.6924 11.9344C1.68728 12.0861 1.7133 12.2372 1.76886 12.3786C1.82442 12.5199 1.90837 12.6486 2.01558 12.7566C2.12307 12.8728 2.25268 12.9667 2.39691 13.0329C2.54113 13.099 2.69714 13.1361 2.85587 13.142H5.11811ZM3.33417 7.88778L3.03679 8.56864H15.3046C15.1494 8.25176 14.878 7.75075 14.4902 7.0656C14.1024 6.38045 13.7792 5.8666 13.5207 5.52402C12.6417 5.4341 11.2714 5.38271 9.39696 5.38271H8.32399H6.47543C5.44127 5.38271 4.79491 5.44695 4.53637 5.47264C4.35539 5.94797 4.00636 6.77013 3.39879 7.95201L3.33417 7.88778ZM17.5539 7.88778H17.6573C17.775 8.02737 17.879 8.17795 17.9676 8.33741L17.89 8.65858H17.6961H16.6361L16.7783 9.13389C17.085 9.97522 17.344 10.833 17.5539 11.7032L17.6573 12.3198V15.8012V16.1352C17.5769 16.3979 17.402 16.622 17.166 16.7647V18.4476L17.0498 18.6403L16.83 18.7431H15.1366L14.891 18.6403L14.7875 18.4476V17.3043C13.4948 17.3685 11.6462 17.4071 9.0479 17.4071C6.44956 17.4071 4.51052 17.407 3.24367 17.3043V18.7045L3.15317 18.8973L2.90755 19H1.21411L1.02017 18.8973L0.916813 18.7045V17.0474C0.684025 16.9041 0.51338 16.6796 0.43844 16.4179L0.33508 16.0839V12.6024L0.477259 11.9087C0.632383 11.2921 0.890893 10.4314 1.25285 9.33944L1.44679 8.86413H0.37382C0.293515 8.88663 0.208508 8.88663 0.128203 8.86413C-0.00106763 8.76135 -0.00106763 8.62003 0.128203 8.42733C0.237506 8.2574 0.377812 8.10926 0.541878 7.99055C0.980748 7.75523 1.48075 7.65674 1.97676 7.70793L2.1707 7.36108C2.59222 6.34706 3.09359 5.36767 3.6702 4.43206C3.90289 4.20082 5.6265 4.08522 8.84102 4.08522L10.5862 4.18799C11.8456 4.15199 13.1054 4.23803 14.348 4.44492C14.653 4.85653 14.9335 5.28548 15.1883 5.72957C15.6407 6.46182 16.0285 7.12983 16.3517 7.70793C17.0239 7.66939 17.4376 7.78501 17.6056 8.05479L17.5539 7.88778Z" fill="#808890"/>
</svg>
