<svg width="34" height="13" viewBox="0 0 34 13" fill="none" xmlns="http://www.w3.org/2000/svg">
<path d="M34 7.64875V9.5682C33.9885 9.7819 33.9228 9.98905 33.8091 10.1698C33.6955 10.3506 33.5377 10.4989 33.3509 10.6006C32.9531 10.8143 32.5319 10.9802 32.0959 11.095L31.4467 11.1968H31.014C30.8387 11.7022 30.5171 12.1428 30.0908 12.4619C29.6461 12.7734 29.1176 12.9404 28.5762 12.9404C28.0347 12.9404 27.5062 12.7734 27.0615 12.4619C26.6395 12.1386 26.3189 11.6993 26.1383 11.1968H8.55408C8.38998 11.7198 8.06702 12.1776 7.63086 12.5056C7.19205 12.8315 6.6613 13.0074 6.11624 13.0074C5.57117 13.0074 5.04042 12.8315 4.60162 12.5056C4.18032 12.1693 3.86055 11.721 3.67839 11.2114H3.40431C2.73726 11.2207 2.07079 11.1672 1.41363 11.0514C1.0424 10.9587 0.680282 10.8321 0.331749 10.6734L0 10.5134V8.09953L0.331749 7.50332L0.490493 7.00892C0.584328 6.66372 0.730269 6.33512 0.923229 6.03465C1.08199 5.69038 1.34443 5.4054 1.67327 5.22034C2.65622 4.77199 3.69454 4.45897 4.76027 4.28969C5.7985 4.05176 6.84808 3.86732 7.90494 3.73711L9.34745 3.57715L9.9966 3.03913C10.6427 2.61802 11.3122 2.23446 12.0017 1.89035C13.0367 1.37 14.1251 0.965279 15.2474 0.683411C16.7167 0.286881 18.2274 0.0672342 19.748 0.0290527C21.6954 0.0290527 23.6428 0.0290554 25.5901 0.145386C27.0327 0.247176 28.3165 0.392595 29.5426 0.581633L30.9851 0.843367V1.01788L30.6101 1.27961C31.0668 1.59019 31.4752 1.96755 31.8218 2.39931C32.2777 2.91995 32.6879 3.47945 33.0479 4.07156L33.322 4.66776V6.68901L34 7.64875Z" fill="#808890"/>
</svg>
