<svg width="22" height="22" viewBox="0 0 22 22" fill="none" xmlns="http://www.w3.org/2000/svg">
<path d="M21.6249 7.33942C21.3295 8.04099 20.9051 8.68138 20.3738 9.22767C19.6479 9.96532 18.7121 10.4628 17.6931 10.6528C16.6841 10.853 15.6392 10.7729 14.6728 10.4212L3.68166 21.3766C3.5005 21.5685 3.28172 21.7214 3.03886 21.8256C2.79599 21.9298 2.53425 21.9831 2.26984 21.9823C2.01609 21.982 1.76532 21.9278 1.53421 21.8233C1.3031 21.7189 1.09695 21.5666 0.92947 21.3766L0.536237 21.0559C0.190776 20.668 0 20.1674 0 19.6487C0 19.13 0.190776 18.6293 0.536237 18.2414L11.5273 7.28593C11.1762 6.31632 11.1092 5.26715 11.3338 4.26093C11.5585 3.25472 12.0657 2.33297 12.7963 1.60333C13.3033 1.08282 13.9114 0.670681 14.5834 0.392007C15.2798 0.128506 16.0189 -0.00441943 16.7637 4.7938e-05L17.5143 0.730473L14.4941 3.741L15.2982 6.68021L18.1757 7.48185L21.196 4.47132L21.9287 5.14825C21.9963 5.89215 21.8924 6.64169 21.6249 7.33942Z" fill="#808890"/>
</svg>
