<svg width="20" height="20" viewBox="0 0 20 20" fill="none" xmlns="http://www.w3.org/2000/svg">
<path d="M19.7495 9.76576C20.112 9.36703 20.077 8.75589 19.6713 8.4011L10.733 0.580074C10.3273 0.225284 9.67688 0.232716 9.27971 0.596829L0.311057 8.81809C-0.0861094 9.1822 -0.105603 9.79255 0.267898 10.1808L0.492755 10.415C0.8658 10.8032 1.46879 10.8495 1.8387 10.518L2.50897 9.9178V18.7055C2.50897 19.2447 2.94584 19.6812 3.48461 19.6812H6.98061C7.51938 19.6812 7.95625 19.2447 7.95625 18.7055V12.5577H12.4154V18.7055C12.4077 19.2443 12.7932 19.6808 13.332 19.6808H17.0368C17.5756 19.6808 18.0125 19.2443 18.0125 18.7051V10.0415C18.0125 10.0415 18.1976 10.2037 18.426 10.4045C18.654 10.6048 19.1329 10.4442 19.4954 10.0451L19.7495 9.76576Z" fill="#808890"/>
</svg>
