<svg width="24" height="24" viewBox="0 0 24 24" fill="none" xmlns="http://www.w3.org/2000/svg">
<path d="M14.7537 16.8396C15.6047 16.343 16.3129 15.6292 16.8079 14.7692C17.3072 13.9059 17.5678 12.9219 17.562 11.9209C17.6003 10.908 17.3618 9.90393 16.8729 9.0198C16.3818 8.15674 15.6727 7.44207 14.8187 6.94947C13.9704 6.44007 13.0028 6.17133 12.017 6.17133C11.0312 6.17133 10.0635 6.44007 9.21523 6.94947C8.36423 7.44608 7.65614 8.15981 7.16112 9.0198C6.65875 9.8819 6.39799 10.8668 6.40704 11.8682C6.40125 12.8691 6.66178 13.8531 7.16112 14.7165C7.65945 15.5739 8.36678 16.2869 9.21523 16.7869C10.0662 17.2883 11.0329 17.5524 12.017 17.5524C13.0012 17.5524 13.9677 17.2883 14.8187 16.7869L14.7537 16.8396ZM23.9975 13.0022L23.4125 16.1275L20.0971 16.9715L18.797 18.7912L18.9401 22.2594C18.5241 22.4572 18.069 22.6945 17.5749 22.9846L16.2748 23.7495L13.4926 21.5736C12.7625 21.6456 12.029 21.6764 11.2955 21.666L8.69524 23.9868C7.65515 23.4989 6.68007 23.0506 5.77 22.6682L5.67898 19.2L4.20985 17.4726L0.894588 16.8264L0.0625 13.6615L2.66272 11.433L3.10471 9.2176L1.44061 6.19781L3.35173 3.56044L6.66707 4.29894C7.31713 4.00883 7.96718 3.67916 8.61724 3.30993L9.91734 0.0923462C11.0224 0.0923462 12.0885 0.0923462 13.0896 0.0923462L14.5977 3.20441L16.6519 4.10111L19.9672 3.20441L22.0214 5.68354L20.7212 8.79561L20.9683 9.89014C21.0983 10.3121 21.1892 10.655 21.2543 10.9187L23.9975 13.0022Z" fill="#808890"/>
</svg>
