<svg width="9" height="13" viewBox="0 0 9 13" fill="none" xmlns="http://www.w3.org/2000/svg">
<path d="M4.5 0.40625C3.31481 0.40625 2.17817 0.877063 1.34012 1.71512C0.502063 2.55317 0.03125 3.68981 0.03125 4.875C0.03125 7.23531 4.0125 12.2281 4.18313 12.4434C4.22119 12.4909 4.26943 12.5292 4.32427 12.5555C4.37912 12.5818 4.43917 12.5955 4.5 12.5955C4.56083 12.5955 4.62088 12.5818 4.67573 12.5555C4.73057 12.5292 4.77881 12.4909 4.81688 12.4434C4.9875 12.2281 8.96875 7.23531 8.96875 4.875C8.96875 3.68981 8.49794 2.55317 7.65988 1.71512C6.82183 0.877063 5.68519 0.40625 4.5 0.40625V0.40625ZM4.5 6.09375C4.17861 6.09375 3.86443 5.99845 3.5972 5.81989C3.32997 5.64133 3.12169 5.38754 2.9987 5.09061C2.8757 4.79368 2.84352 4.46695 2.90622 4.15173C2.96892 3.83651 3.12369 3.54696 3.35095 3.3197C3.57821 3.09244 3.86776 2.93767 4.18298 2.87497C4.4982 2.81227 4.82493 2.84445 5.12186 2.96745C5.41879 3.09044 5.67258 3.29872 5.85114 3.56595C6.0297 3.83318 6.125 4.14736 6.125 4.46875C6.125 4.89973 5.95379 5.31305 5.64905 5.6178C5.3443 5.92255 4.93098 6.09375 4.5 6.09375Z" fill="#0099DA"/>
</svg>
