<svg width="160" height="30" viewBox="0 0 160 30" fill="none" xmlns="http://www.w3.org/2000/svg">
<path d="M11.59 6.60232L18.3105 11.146C19.6287 12.0569 21.1945 12.8098 23.5835 12.8098C27.2962 12.8098 30.6645 10.3668 30.6645 10.3668L15.3296 0C15.3296 0 13.6562 1.80063 8.40462 5.00175C2.88943 8.36083 0 9.34012 0 9.34012L19.8547 22.7606L18.9723 23.3292L12.354 18.854C11.0358 17.9431 9.47 17.1902 7.08097 17.1902C3.3683 17.1902 0 19.6332 0 19.6332L15.3349 30C15.3349 30 17.0083 28.1994 22.2599 24.9982C27.7751 21.6392 30.6645 20.6599 30.6645 20.6599L10.7076 7.17094L11.59 6.60232Z" fill="#DE0039"/>
<path d="M50.8844 12.8308C47.9735 12.4623 45.38 12.3886 45.31 11.3514C45.224 10.0456 47.3493 9.90876 48.0434 9.90876C49.2003 9.90876 51.0781 10.1667 51.514 11.8726H58.9501C58.9501 8.5925 55.7701 5.99686 48.0649 5.9758C39.4935 5.95474 38.0461 9.65603 38.0461 11.7568C38.0461 15.6529 41.1346 16.8006 47.8228 17.4904C50.3033 17.7431 51.8852 17.7378 51.8852 18.9488C51.8852 20.1913 49.9966 20.3177 49.2057 20.3177C48.4793 20.3177 46.4185 20.3229 45.7459 18.2748H37.6641C38.0138 22.1025 40.4836 24.3507 49.1949 24.3243C57.4004 24.3033 59.5527 21.0442 59.5527 18.5539C59.5527 16.153 57.8686 13.7048 50.8844 12.8308Z" fill="#00368F"/>
<path d="M83.8834 10.9144H93.7139L83.5391 20.2124V23.9189H104.201V19.4805H93.9184L104.234 10.2036V6.49176H83.8834V10.9144Z" fill="#00368F"/>
<path d="M159.998 6.49176H153.277V23.9189H159.998V6.49176Z" fill="#00368F"/>
<path d="M143.087 6.49176L135.937 12.4939V6.49176H129.211V23.9189H135.937V17.7431L142.576 23.9189H151.627L141.785 14.9842L151.944 6.49176H143.087Z" fill="#00368F"/>
<path d="M75.2125 13.7996C75.2125 14.0576 75.2125 14.4051 75.2125 16.5479C75.2125 18.6908 74.4161 20.1123 71.4406 20.1123C68.4651 20.1123 67.6688 18.6908 67.6688 16.5479C67.6688 14.4051 67.6688 14.0628 67.6688 13.7996C67.6688 13.5416 67.6688 6.49176 67.6688 6.49176H61.2227C61.2227 6.49176 61.2227 12.0042 61.2227 12.8414C61.2227 13.6785 61.2389 16.49 61.255 18.0642C61.2765 20.3071 61.8415 24.5876 71.4353 24.5876C81.029 24.5876 81.594 20.3071 81.6155 18.0642C81.6316 16.49 81.6478 13.6785 81.6478 12.8414C81.6478 12.0042 81.6478 6.49176 81.6478 6.49176H75.2017C75.2125 6.49176 75.2125 13.5416 75.2125 13.7996Z" fill="#00368F"/>
<path d="M120.451 13.7996C120.451 14.0576 120.451 14.4051 120.451 16.5479C120.451 18.6908 119.655 20.1123 116.679 20.1123C113.704 20.1123 112.907 18.6908 112.907 16.5479C112.907 14.4051 112.907 14.0628 112.907 13.7996C112.907 13.5416 112.907 6.49176 112.907 6.49176H106.461C106.461 6.49176 106.461 12.0042 106.461 12.8414C106.461 13.6785 106.477 16.49 106.493 18.0642C106.515 20.3071 107.08 24.5876 116.674 24.5876C126.267 24.5876 126.832 20.3071 126.854 18.0642C126.87 16.49 126.886 13.6785 126.886 12.8414C126.886 12.0042 126.886 6.49176 126.886 6.49176H120.44C120.451 6.49176 120.451 13.5416 120.451 13.7996Z" fill="#00368F"/>
</svg>
