<svg width="10" height="13" viewBox="0 0 10 13" fill="none" xmlns="http://www.w3.org/2000/svg">
<g clip-path="url(#clip0_2565_14319)">
<path d="M5.00976 -0.0297099C5.20686 -0.0288859 5.39575 0.0487937 5.53569 0.186611L9.78811 4.44623C9.9112 4.58894 9.97549 4.77249 9.96819 4.96024C9.96089 5.14799 9.88252 5.32609 9.74872 5.45895C9.61491 5.5918 9.43554 5.66965 9.24645 5.67691C9.05736 5.68416 8.8725 5.62027 8.72878 5.49806L4.9722 1.80544L1.25318 5.49806C1.18334 5.56798 1.10023 5.62351 1.00868 5.66138C0.917123 5.69925 0.818917 5.71875 0.719734 5.71875C0.620552 5.71875 0.522346 5.69925 0.430792 5.66138C0.339237 5.62351 0.256129 5.56798 0.186285 5.49806C0.0463514 5.35829 -0.0321761 5.16925 -0.0321761 4.97217C-0.0321761 4.77509 0.0463513 4.586 0.186285 4.44623L4.43875 0.223947C4.50999 0.143424 4.59789 0.0790777 4.69642 0.0353093C4.79495 -0.00845912 4.90182 -0.0306425 5.00976 -0.0297099Z" fill="#1D1F20"/>
</g>
<g clip-path="url(#clip1_2565_14319)">
<path d="M5.00976 6.39876C5.20686 6.39958 5.39575 6.47726 5.53569 6.61508L9.78811 10.8747C9.9112 11.0174 9.97549 11.201 9.96819 11.3887C9.96089 11.5765 9.88252 11.7546 9.74872 11.8874C9.61491 12.0203 9.43554 12.0981 9.24645 12.1054C9.05736 12.1126 8.8725 12.0487 8.72878 11.9265L4.9722 8.23391L1.25318 11.9265C1.18334 11.9964 1.10023 12.052 1.00868 12.0898C0.917123 12.1277 0.818917 12.1472 0.719734 12.1472C0.620552 12.1472 0.522346 12.1277 0.430792 12.0898C0.339237 12.052 0.256129 11.9964 0.186285 11.9265C0.0463514 11.7868 -0.0321761 11.5977 -0.0321761 11.4006C-0.0321761 11.2036 0.0463513 11.0145 0.186285 10.8747L4.43875 6.65241C4.50999 6.57189 4.59789 6.50754 4.69642 6.46378C4.79495 6.42001 4.90182 6.39782 5.00976 6.39876Z" fill="#1D1F20"/>
</g>
<defs>
<clipPath id="clip0_2565_14319">
<rect width="10" height="5.71429" fill="white" transform="translate(10 5.71436) rotate(180)"/>
</clipPath>
<clipPath id="clip1_2565_14319">
<rect width="10" height="5.71429" fill="white" transform="translate(10 12.1428) rotate(180)"/>
</clipPath>
</defs>
</svg>
