<svg width="49" height="49" viewBox="0 0 49 49" fill="none" xmlns="http://www.w3.org/2000/svg">
<g clip-path="url(#clip0_1156_3605)">
<path d="M24.3139 28.8631C16.8861 28.8631 10.7937 22.6507 10.7937 15.1286C10.7873 13.4902 11.077 11.8644 11.6486 10.3316L19.5538 26.4497C19.6592 26.6632 19.7826 26.8297 20.0334 26.8297C20.2843 26.8297 20.4213 26.6578 20.513 26.4497L24.1452 18.1921C24.1874 18.1078 24.2295 18.0235 24.3128 18.0235C24.3961 18.0235 24.4382 18.1078 24.4793 18.1921L28.1105 26.454C28.2011 26.6621 28.3392 26.834 28.5901 26.834C28.8409 26.834 28.9653 26.6664 29.0697 26.454L36.9749 10.3359C37.5473 11.8685 37.8374 13.4943 37.8308 15.1329C37.8308 22.655 31.7385 28.8674 24.3107 28.8674L24.3139 28.8631ZM24.3107 12.0267C24.2274 12.0267 24.1853 11.9424 24.1431 11.858L19.8901 2.17651C22.7489 1.13327 25.8777 1.13327 28.7366 2.17651L24.4804 11.8538C24.4393 11.9381 24.3971 12.0224 24.3139 12.0224L24.3107 12.0267ZM19.9923 21.9494C19.909 21.9494 19.8669 21.864 19.8258 21.7797L12.9429 7.73351C14.1713 5.81761 15.8391 4.23112 17.8041 3.10944L22.7486 14.2661C22.7713 14.3468 22.8217 14.4167 22.8906 14.4633C22.9596 14.5098 23.0426 14.53 23.1249 14.5202H25.5028C25.5851 14.5298 25.668 14.5095 25.7369 14.463C25.8058 14.4165 25.8562 14.3467 25.8791 14.2661L30.8236 3.10944C32.7891 4.23233 34.457 5.82032 35.6848 7.73778L28.7998 21.7893C28.7577 21.8736 28.7166 21.959 28.6322 21.959C28.5479 21.959 28.5079 21.8736 28.4657 21.7893L25.8791 15.7883C25.856 15.7079 25.8055 15.6384 25.7366 15.5921C25.6678 15.5458 25.5849 15.5257 25.5028 15.5353H23.1249C23.0428 15.5257 22.9599 15.5458 22.8911 15.5921C22.8222 15.6384 22.7717 15.7079 22.7486 15.7883L20.162 21.7893C20.1198 21.8736 20.0777 21.959 19.9944 21.959L19.9923 21.9494ZM24.316 30.2625C27.2703 30.2621 30.1581 29.3746 32.6144 27.7122C35.0707 26.0499 36.9851 23.6873 38.1156 20.9232C39.2462 18.159 39.542 15.1175 38.9658 12.1832C38.3895 9.2488 36.9671 6.55333 34.8783 4.43756C32.7895 2.3218 30.1282 0.880733 27.2307 0.296564C24.3333 -0.287605 21.3299 0.0113542 18.6002 1.15564C15.8705 2.29993 13.5371 4.23817 11.8951 6.7253C10.253 9.21244 9.37605 12.1368 9.37501 15.1286C9.37293 17.1159 9.75791 19.0841 10.5079 20.9206C11.2579 22.757 12.3582 24.4256 13.7459 25.8308C15.1335 27.2361 16.7811 28.3503 18.5945 29.1099C20.4079 29.8694 22.3515 30.2593 24.3139 30.2572" fill="#002F67"/>
<path d="M1.0045 39.722V41.9476H0V36.9745H1.0045V39.3826H1.01925L2.81111 36.9745H3.92523V37.0471L2.04588 39.5139L4.01904 41.8782V41.9519H2.85327L1.01925 39.722H1.0045Z" fill="#002F67"/>
<path d="M6.00597 42.0618C4.81386 42.0618 4.1709 41.2079 4.1709 40.1874C4.1709 39.167 4.81386 38.3141 6.00597 38.3141C7.22022 38.3141 7.84948 39.1627 7.84948 40.1874C7.84948 41.2121 7.22022 42.0618 6.00597 42.0618ZM6.00597 41.2495C6.51929 41.2495 6.8492 40.8972 6.8492 40.1874C6.8492 39.4776 6.51613 39.1264 6.00597 39.1264C5.49582 39.1264 5.17223 39.4776 5.17223 40.1874C5.17223 40.8972 5.50742 41.2495 6.00597 41.2495Z" fill="#002F67"/>
<path d="M10.5951 40.261L11.6871 38.424H12.6052V41.9518H11.6565V39.9354H11.6439L10.9693 41.1096H10.1977L9.53265 39.9354H9.51894V41.956H8.57031V38.424H9.49365L10.5856 40.261H10.5951Z" fill="#002F67"/>
<path d="M15.5386 40.261L16.6306 38.424H17.5487V41.9518H16.6V39.9354H16.5853L15.9139 41.1096H15.1402L14.4751 39.9354H14.4604V41.956H13.5117V38.424H14.4298L15.5207 40.261H15.5386Z" fill="#002F67"/>
<path d="M19.2681 40.4692C19.3039 40.9666 19.6222 41.2666 20.1429 41.2666C20.5238 41.2602 20.9006 41.1857 21.256 41.0467L21.4794 41.7576C21.0364 41.9589 20.5557 42.0612 20.0702 42.0575C18.8633 42.0575 18.2783 41.2153 18.2783 40.1757C18.2783 39.1734 18.8854 38.3098 20.0196 38.3098C21.1537 38.3098 21.646 39.0047 21.646 39.832C21.6445 40.0464 21.6276 40.2605 21.5954 40.4724L19.2681 40.4692ZM20.75 39.8544C20.7559 39.8191 20.7584 39.7834 20.7574 39.7476C20.7574 39.3516 20.5761 39.0303 20.027 39.0303C19.5358 39.0303 19.2891 39.4327 19.2681 39.8576L20.75 39.8544Z" fill="#002F67"/>
<path d="M23.0693 38.424L23.2063 38.7442H23.2211C23.5332 38.4776 23.9259 38.327 24.3341 38.3173C25.3386 38.3173 25.8519 39.1659 25.8519 40.1906C25.8519 41.2153 25.3386 42.065 24.3341 42.065C23.8419 42.065 23.5678 41.8515 23.3433 41.6989H23.3286V43.4067H22.3525V38.424H23.0693ZM23.3286 41.0371C23.5395 41.1704 23.7819 41.2441 24.0306 41.2505C24.6082 41.2505 24.8538 40.8182 24.8538 40.1885C24.8538 39.5587 24.6082 39.1274 24.0306 39.1274C23.7819 39.1334 23.5394 39.2071 23.3286 39.3409V41.0371Z" fill="#002F67"/>
<path d="M27.3769 38.424V39.8724C27.3769 40.0774 27.5139 40.2247 27.8617 40.2247C28.1779 40.2247 28.3677 40.1799 28.4942 40.0998V38.424H29.4428V41.9518H28.4942V40.8395C28.2034 40.9602 27.89 41.0148 27.5761 40.9996C26.8467 40.9996 26.4346 40.5172 26.4346 39.9461V38.424H27.3769Z" fill="#002F67"/>
<path d="M31.1558 40.4692C31.1916 40.9666 31.5099 41.2666 32.0306 41.2666C32.4115 41.2603 32.7883 41.1858 33.1437 41.0467L33.3671 41.7576C32.9241 41.9589 32.4434 42.0612 31.9579 42.0575C30.751 42.0575 30.166 41.2153 30.166 40.1757C30.166 39.1734 30.7731 38.3098 31.9073 38.3098C33.0414 38.3098 33.5337 39.0047 33.5337 39.832C33.5322 40.0464 33.5153 40.2605 33.4831 40.4724L31.1558 40.4692ZM32.6377 39.8544C32.6436 39.8191 32.6461 39.7834 32.6451 39.7476C32.6451 39.3516 32.4638 39.0303 31.9147 39.0303C31.4235 39.0303 31.1768 39.4327 31.1558 39.8576L32.6377 39.8544Z" fill="#002F67"/>
<path d="M35.9124 38.3141C36.2829 38.3227 36.6493 38.3949 36.996 38.5276L36.801 39.2812C36.5534 39.1878 36.2924 39.1359 36.0284 39.1275C35.5013 39.1275 35.0597 39.4199 35.0597 40.1885C35.0597 40.957 35.4813 41.2506 36.0284 41.2506C36.2924 41.2416 36.5532 41.1897 36.801 41.0969L36.996 41.8505C36.6491 41.9826 36.2829 42.0548 35.9124 42.0639C34.7266 42.0639 34.0615 41.3317 34.0615 40.1895C34.0615 39.0474 34.7266 38.3141 35.9124 38.3141Z" fill="#002F67"/>
<path d="M38.6654 40.4072V41.9518H37.7041V38.424H38.6654V40.1073H38.6801L39.9155 38.424H40.9642V38.4752L39.6045 40.2097L41.0285 41.9005V41.9518H39.9555L38.6801 40.4072H38.6654Z" fill="#002F67"/>
<path d="M42.5312 40.6346L43.8329 38.424H44.9027V41.9518H43.9541V39.7411H43.933L42.6323 41.9518H41.5625V38.424H42.5111V40.6346H42.5312Z" fill="#002F67"/>
<path d="M46.6226 40.4692C46.6584 40.9666 46.9767 41.2666 47.4974 41.2666C47.8783 41.2603 48.2551 41.1858 48.6105 41.0467L48.8339 41.7576C48.3909 41.9589 47.9102 42.0612 47.4247 42.0575C46.2178 42.0575 45.6328 41.2153 45.6328 40.1757C45.6328 39.1734 46.2399 38.3098 47.3741 38.3098C48.5082 38.3098 49.0005 39.0047 49.0005 39.832C48.999 40.0464 48.9821 40.2605 48.9499 40.4724L46.6226 40.4692ZM48.1045 39.8544C48.1104 39.8191 48.1129 39.7834 48.1119 39.7476C48.1119 39.3516 47.9306 39.0303 47.3815 39.0303C46.8903 39.0303 46.6436 39.4327 46.6226 39.8576L48.1045 39.8544Z" fill="#002F67"/>
<path d="M6.97427 48.1215C6.97427 48.2283 6.98164 48.2528 7.09021 48.2528H7.34318V48.9264C7.17675 48.9612 7.00719 48.9784 6.83724 48.9776C6.46095 48.9776 6.26595 48.8314 6.14263 48.5603H6.12893C5.89704 48.7577 5.43432 49 5.00849 49C4.22745 49 3.83008 48.5314 3.83008 47.8867C3.83008 47.1043 4.32126 46.7307 5.55026 46.7307H6.02036V46.5695C6.02036 46.1308 5.63669 46.0646 5.428 46.0646C5.02853 46.071 4.63433 46.1581 4.26856 46.3208L4.03772 45.5672C4.49113 45.3641 4.98073 45.257 5.47648 45.2523C6.48098 45.2523 6.97216 45.7722 6.97216 46.6795L6.97427 48.1215ZM5.65145 47.368C5.00849 47.368 4.7629 47.5355 4.7629 47.7949C4.7629 48.0874 4.92838 48.2219 5.22457 48.2219C5.50672 48.2173 5.78213 48.1338 6.02036 47.9806V47.3658L5.65145 47.368Z" fill="#002F67"/>
<path d="M9.68492 45.3622C10.4586 45.3622 10.9498 45.6472 10.9498 46.3133C10.9588 46.4765 10.917 46.6386 10.8302 46.7765C10.7434 46.9144 10.616 47.0212 10.466 47.0818V47.0871C10.8201 47.1939 11.1089 47.4533 11.1089 47.892C11.1089 48.5879 10.6314 48.8879 9.75765 48.8879H7.97949V45.3622H9.68492ZM8.92602 46.7819H9.46779C9.90943 46.7819 9.98848 46.6132 9.98848 46.4157C9.98848 46.2183 9.91681 46.0421 9.46779 46.0421H8.92602V46.7819ZM8.92602 48.1876H9.62695C10.0391 48.1876 10.1476 48.0115 10.1476 47.7991C10.1476 47.5867 10.0422 47.4042 9.62695 47.4042H8.92602V48.1876Z" fill="#002F67"/>
<path d="M14.5264 45.3622V46.1158H13.4787V48.8911H12.5301V46.1158H11.4961V45.3622H14.5264Z" fill="#002F67"/>
<path d="M16.7092 49C15.516 49 14.873 48.1461 14.873 47.1256C14.873 46.1052 15.516 45.2523 16.7092 45.2523C17.9234 45.2523 18.5516 46.1009 18.5516 47.1256C18.5516 48.1504 17.9255 49 16.7092 49ZM16.7092 48.1877C17.2225 48.1877 17.5524 47.8355 17.5524 47.1256C17.5524 46.4158 17.2204 46.0646 16.7092 46.0646C16.198 46.0646 15.8659 46.4158 15.8659 47.1256C15.8659 47.8355 16.2106 48.1877 16.7092 48.1877Z" fill="#002F67"/>
<path d="M21.2985 47.1992L22.3894 45.3622H23.3075V48.89H22.3588V46.8737H22.3441L21.6716 48.0478H20.899L20.2339 46.8737H20.2191V48.8943H19.2705V45.3622H20.1886L21.2795 47.1992H21.2985Z" fill="#002F67"/>
<path d="M25.8664 49C24.6743 49 24.0303 48.1461 24.0303 47.1256C24.0303 46.1052 24.6743 45.2523 25.8664 45.2523C27.0807 45.2523 27.7099 46.1009 27.7099 47.1256C27.7099 48.1504 27.0807 49 25.8664 49ZM25.8664 48.1877C26.3797 48.1877 26.7096 47.8355 26.7096 47.1256C26.7096 46.4158 26.3776 46.0646 25.8664 46.0646C25.3552 46.0646 25.0232 46.4158 25.0232 47.1256C25.0232 47.8355 25.3678 48.1877 25.8664 48.1877Z" fill="#002F67"/>
<path d="M29.2919 46.0496C29.5164 45.7934 29.9138 45.5885 30.4345 45.5885C31.4316 45.5885 31.9955 46.2844 31.9955 47.2718C31.9955 48.2165 31.381 48.9999 30.1668 48.9999C28.923 48.9999 28.3232 48.2165 28.3232 46.8918C28.3232 44.9224 28.7712 44.1101 29.8779 43.8763C30.4271 43.7589 31.4969 43.7226 31.8142 43.6628V44.5552C31.5254 44.6363 30.6147 44.6363 30.1668 44.7164C29.4289 44.8552 29.2845 45.2949 29.2634 46.0485L29.2919 46.0496ZM30.1668 46.4008C29.6461 46.4008 29.3235 46.7157 29.3235 47.2718C29.3235 47.8279 29.6482 48.1876 30.1668 48.1876C30.6853 48.1876 30.9963 47.8343 30.9963 47.2718C30.9963 46.7093 30.6801 46.4008 30.1668 46.4008Z" fill="#002F67"/>
<path d="M33.7069 47.5728L35.0086 45.3622H36.0784V48.89H35.1298V46.6794H35.1066L33.8049 48.89H32.7393V45.3622H33.6879V47.5728H33.7069Z" fill="#002F67"/>
<path d="M39.4288 46.1158H38.3547L38.2757 47.0967C38.1597 48.6114 37.6538 48.9412 36.6777 48.9412V48.1428C37.0688 48.1428 37.3355 47.9827 37.3934 47.0156L37.4809 45.3622H40.3774V48.89H39.4288V46.1158Z" fill="#002F67"/>
<path d="M42.2577 47.5728L43.5584 45.3622H44.6282V48.89H43.6796V46.6794H43.6575L42.3589 48.89H41.2891V45.3622H42.2377V47.5728H42.2577Z" fill="#002F67"/>
</g>
<defs>
<clipPath id="clip0_1156_3605">
<rect width="49" height="49" fill="white"/>
</clipPath>
</defs>
</svg>
