<svg width="50" height="12" viewBox="0 0 50 12" fill="none" xmlns="http://www.w3.org/2000/svg">
<path d="M50.0013 1.0224C50.0084 0.902836 49.9905 0.7831 49.9487 0.671143C49.907 0.559186 49.8424 0.457573 49.7592 0.373051C49.6761 0.288529 49.5763 0.223032 49.4664 0.180911C49.3565 0.13879 49.2391 0.121009 49.122 0.128747H45.6977C45.377 0.119417 45.062 0.216404 44.7998 0.405175L29.2177 10.7352C29.1825 10.7629 29.1397 10.7788 29.0953 10.7807C29.0434 10.7807 29.0137 10.7277 29.0137 10.633V1.0224C29.0208 0.902836 29.0029 0.7831 28.9611 0.671143C28.9194 0.559186 28.8548 0.457573 28.7716 0.373051C28.6885 0.288529 28.5886 0.223032 28.4788 0.180911C28.3689 0.13879 28.2515 0.121009 28.1344 0.128747H20.5326C20.2017 0.112226 19.8747 0.206648 19.6014 0.397601L5.47729 9.05774C5.44045 9.08626 5.39698 9.10453 5.35115 9.11076C5.29179 9.11076 5.26953 9.06911 5.26953 8.97823V0.215841C5.26953 0.0681602 5.23243 0 5.16936 0C5.12946 0.00144658 5.09082 0.0145925 5.05806 0.0378663L0.876856 2.60145C0.175662 3.03313 -0.00241755 3.49511 -0.00241755 4.30167V10.8526C-0.00944798 10.9724 0.00847833 11.0922 0.0501792 11.2044C0.0918802 11.3165 0.156408 11.4183 0.239502 11.5032C0.322596 11.588 0.42237 11.6538 0.532234 11.6964C0.642099 11.739 0.759554 11.7573 0.876856 11.7501H5.8891C6.20209 11.7533 6.50868 11.6596 6.76838 11.4812L12.211 8.14516C12.2403 8.12334 12.275 8.11024 12.3112 8.10729C12.33 8.10866 12.3483 8.1141 12.365 8.12324C12.3816 8.13238 12.3961 8.14501 12.4076 8.1603L15.6613 11.4812C15.7827 11.5839 15.9231 11.6606 16.0742 11.7068C16.2252 11.753 16.3838 11.7677 16.5406 11.7501H21.4007C21.4898 11.7501 21.5714 11.7198 21.5714 11.6554C21.5714 11.591 21.5194 11.5418 21.4489 11.4699L16.0768 5.99053C16.0249 5.93752 16.0138 5.90723 16.0138 5.87315C16.0138 5.83907 16.0323 5.79741 16.1065 5.75197L23.6267 1.14736C23.6621 1.11933 23.7046 1.10224 23.7492 1.09814C23.8011 1.09814 23.8308 1.1663 23.8308 1.23446V10.8526C23.8238 10.9724 23.8417 11.0922 23.8834 11.2044C23.9251 11.3165 23.9896 11.4183 24.0727 11.5032C24.1558 11.588 24.2556 11.6538 24.3654 11.6964C24.4753 11.739 24.5928 11.7573 24.7101 11.7501H32.2637C32.5766 11.7532 32.8827 11.6566 33.1392 11.4737L44.529 3.923C44.5649 3.8965 44.6073 3.88076 44.6514 3.87756C44.7071 3.87756 44.7368 3.94194 44.7368 4.02524V11.8069C44.7368 11.9508 44.7813 11.9886 44.8332 11.9886C44.8825 11.9849 44.9298 11.968 44.9705 11.9394L49.1257 9.39097C49.8269 8.95929 50.005 8.49353 50.005 7.68697L50.0013 1.0224Z" fill="#05141F"/>
</svg>
