<svg width="13" height="13" viewBox="0 0 13 13" fill="none" xmlns="http://www.w3.org/2000/svg">
<path d="M10.2725 8.05304C10.0063 7.77593 9.6853 7.62776 9.34507 7.62776C9.00759 7.62776 8.68383 7.77318 8.40671 8.0503L7.53969 8.91458C7.46835 8.87616 7.39702 8.8405 7.32842 8.80483C7.22965 8.75544 7.13636 8.7088 7.05679 8.65941C6.24465 8.14359 5.50658 7.47137 4.7987 6.6016C4.45573 6.16809 4.22525 5.80318 4.05789 5.43277C4.28287 5.22699 4.4914 5.01298 4.69443 4.8072C4.77126 4.73037 4.84808 4.65081 4.92491 4.57398C5.50109 3.9978 5.50109 3.2515 4.92491 2.67531L4.17587 1.92627C4.09081 1.84122 4.00301 1.75342 3.9207 1.66562C3.75608 1.49551 3.58322 1.31991 3.40488 1.15528C3.13873 0.891884 2.82046 0.751953 2.48572 0.751953C2.15099 0.751953 1.82723 0.891884 1.55285 1.15528C1.55011 1.15803 1.55011 1.15803 1.54737 1.16077L0.614494 2.10187C0.263295 2.45307 0.0630024 2.88109 0.0191026 3.37771C-0.0467472 4.17888 0.189214 4.92518 0.370301 5.41357C0.814787 6.61258 1.47877 7.72379 2.46926 8.91458C3.67102 10.3496 5.11697 11.4827 6.7687 12.2811C7.39976 12.5802 8.24209 12.9342 9.18319 12.9945C9.24081 12.9973 9.30117 13 9.35605 13C9.98985 13 10.5221 12.7723 10.9392 12.3196C10.9419 12.3141 10.9474 12.3113 10.9502 12.3058C11.0928 12.133 11.2575 11.9766 11.4303 11.8092C11.5483 11.6967 11.669 11.5787 11.787 11.4553C12.0586 11.1727 12.2013 10.8434 12.2013 10.5059C12.2013 10.1657 12.0559 9.83922 11.7788 9.56484L10.2725 8.05304ZM11.2547 10.9422C11.252 10.9422 11.252 10.9449 11.2547 10.9422C11.1477 11.0574 11.038 11.1617 10.92 11.2769C10.7416 11.447 10.5605 11.6254 10.3904 11.8257C10.1133 12.122 9.78681 12.2619 9.35879 12.2619C9.31763 12.2619 9.27373 12.2619 9.23258 12.2592C8.41769 12.2071 7.66042 11.8888 7.09246 11.6172C5.53951 10.8654 4.17587 9.79806 3.0427 8.4454C2.10709 7.31772 1.48152 6.2751 1.06721 5.15565C0.812043 4.47246 0.718756 3.94018 0.759912 3.43807C0.78735 3.11706 0.910818 2.85091 1.13855 2.62318L2.07416 1.68757C2.20861 1.56136 2.35128 1.49276 2.49121 1.49276C2.66407 1.49276 2.804 1.59702 2.8918 1.68482C2.89454 1.68757 2.89728 1.69031 2.90003 1.69306C3.0674 1.84945 3.22653 2.01133 3.3939 2.18419C3.47896 2.27198 3.56676 2.35978 3.65456 2.45033L4.4036 3.19937C4.69443 3.4902 4.69443 3.75909 4.4036 4.04993C4.32403 4.1295 4.2472 4.20906 4.16764 4.28589C3.93716 4.52185 3.71766 4.74135 3.47896 4.95536C3.47347 4.96085 3.46798 4.96359 3.46524 4.96908C3.22928 5.20504 3.27318 5.43552 3.32256 5.59191C3.32531 5.60014 3.32805 5.60837 3.3308 5.6166C3.5256 6.08853 3.79997 6.53301 4.21702 7.06255L4.21977 7.0653C4.97704 7.99817 5.77547 8.72526 6.65621 9.28224C6.7687 9.35357 6.88394 9.41119 6.99369 9.46607C7.09246 9.51546 7.18575 9.5621 7.26532 9.61149C7.27629 9.61697 7.28727 9.62521 7.29824 9.63069C7.39153 9.67734 7.47933 9.69929 7.56987 9.69929C7.7976 9.69929 7.94028 9.55661 7.98692 9.50997L8.92528 8.57161C9.01857 8.47832 9.16673 8.36583 9.33958 8.36583C9.5097 8.36583 9.64963 8.47283 9.73468 8.56612C9.73743 8.56887 9.73743 8.56887 9.74017 8.57161L11.252 10.0834C11.5346 10.3633 11.5346 10.6514 11.2547 10.9422Z" fill="white"/>
<path d="M7.02364 3.09246C7.7425 3.21318 8.39551 3.55341 8.91682 4.07472C9.43813 4.59603 9.77561 5.24904 9.89908 5.9679C9.92926 6.14898 10.0857 6.2752 10.264 6.2752C10.2859 6.2752 10.3052 6.27245 10.3271 6.26971C10.5301 6.23678 10.6646 6.04472 10.6317 5.84169C10.4835 4.97192 10.0719 4.17898 9.44362 3.55066C8.8153 2.92235 8.02236 2.51079 7.1526 2.36262C6.94956 2.3297 6.76024 2.46414 6.72457 2.66444C6.6889 2.86473 6.8206 3.05953 7.02364 3.09246Z" fill="white"/>
<path d="M12.9834 5.73457C12.7392 4.30234 12.0642 2.99907 11.0271 1.96193C9.98996 0.9248 8.68669 0.24984 7.25445 0.00564702C7.05416 -0.0300216 6.86484 0.107165 6.82917 0.307458C6.79625 0.510495 6.93069 0.699813 7.13373 0.735482C8.41231 0.952237 9.5784 1.5586 10.5058 2.48324C11.4332 3.41063 12.0368 4.57672 12.2535 5.8553C12.2837 6.03639 12.4401 6.1626 12.6185 6.1626C12.6404 6.1626 12.6596 6.15985 12.6816 6.15711C12.8819 6.12693 13.0191 5.93487 12.9834 5.73457Z" fill="white"/>
</svg>
