<svg width="0" height="0" class="hidden">
    <symbol fill="none" xmlns="http://www.w3.org/2000/svg" viewBox="0 0 129 41" id="ya-logo-black">
        <g clip-path="url(#clip0_2816_15912)">
            <path d="M77.9714 21.2046H73.9453V23.9288H77.9714V21.2046Z" fill="#333333"></path>
            <path d="M105.001 22.3154C104.608 21.9624 104.154 21.6906 103.662 21.5146C104.153 21.3242 104.579 20.989 104.887 20.5507C105.277 20.0261 105.477 19.3778 105.456 18.7169C105.461 18.3113 105.388 17.9087 105.24 17.5332C105.091 17.1577 104.871 16.8171 104.592 16.532C104.048 15.9912 103.091 15.4725 101.569 15.4725H95.418V28.359H101.184C102.276 28.359 103.524 28.1929 104.365 27.6992C105.181 27.2305 105.954 26.3356 105.954 24.7134C105.958 23.7966 105.681 22.9737 105.001 22.3154ZM98.7241 17.994H100.684C101.069 17.994 101.569 18.0439 101.912 18.3261C102.036 18.4399 102.133 18.5813 102.196 18.7397C102.259 18.898 102.286 19.0691 102.276 19.24C102.286 19.395 102.264 19.5504 102.213 19.6963C102.161 19.8422 102.081 19.9756 101.978 20.0878C101.638 20.3935 101.049 20.4405 100.546 20.4405H98.7241V17.994ZM102.132 25.332C101.725 25.8243 101.045 25.8507 100.702 25.8507H98.7141V22.912H100.702C101.201 22.912 101.611 22.984 101.908 23.1721C102.317 23.4321 102.451 23.8068 102.451 24.3241C102.47 24.6869 102.358 25.0443 102.137 25.3262L102.132 25.332Z" fill="#333333"></path>
            <path d="M84.4987 11.9695L78.5 28.3869H82.546L83.7971 24.2285H89.0872L90.3369 28.3869H94.3701L88.3714 11.9695H84.4987ZM84.6137 21.5029L86.44 15.4329L88.2677 21.5029H84.6137Z" fill="#333333"></path>
            <path d="M57.6039 11.6463C52.5936 11.6463 49.7931 13.9796 49.225 18.4436H47.3235V12.018H43.8711V28.359H47.3235V21.2266H49.1498C49.4963 26.1564 52.3337 28.7292 57.6053 28.7292C63.229 28.7292 66.0821 25.8066 66.1006 20.2186V20.1613C66.0807 14.5718 63.2276 11.6463 57.6039 11.6463ZM57.6039 25.67C54.1614 25.67 52.9174 23.2749 52.9174 20.1892C52.9174 17.1035 54.1671 14.704 57.6039 14.704C61.0406 14.704 62.2903 17.0991 62.3045 20.1892C62.3187 23.2793 61.0506 25.67 57.6039 25.67Z" fill="#333333"></path>
            <path d="M76.6931 15.4725H68.1055V28.359H71.4968V18.0586H76.1051L76.6931 15.4725Z" fill="#333333"></path>
            <path d="M106.496 18.0116H109.432V28.359H112.838V18.0116H115.794L116.541 15.4725H106.496V18.0116Z" fill="#333333"></path>
            <path d="M127.274 16.8082C126.294 15.8663 124.65 15.2316 122.809 15.2316C120.969 15.2316 119.32 15.8663 118.344 16.8082C116.869 18.2658 116.617 20.2598 116.617 21.9055C116.617 23.5482 116.869 25.5466 118.344 27.0027C119.32 27.9417 120.966 28.5779 122.809 28.5779C124.652 28.5779 126.294 27.9417 127.274 27.0027C128.747 25.5466 128.998 23.5482 128.999 21.9055C128.998 20.2598 128.747 18.2658 127.274 16.8082ZM124.907 24.9941C124.338 25.886 123.332 25.9801 122.809 25.9801C122.286 25.9801 121.277 25.886 120.71 24.9941C120.413 24.5533 120.115 23.9508 120.115 21.9084C120.115 19.866 120.413 19.2635 120.71 18.8227C121.278 17.9264 122.282 17.8338 122.809 17.8338C123.336 17.8338 124.343 17.9264 124.907 18.8227C125.203 19.2635 125.496 19.8645 125.5 21.9084C125.504 23.9523 125.203 24.5489 124.907 24.9941Z" fill="#333333"></path>
            <path d="M35.1914 28.0371L37.5346 27.9122L35.9611 26.1078C35.741 26.7659 35.484 27.4101 35.1914 28.0371V28.0371Z" fill="#333333"></path>
            <path d="M35.3673 22.8429C35.5041 21.9654 35.5735 21.0781 35.5746 20.1892C35.5737 19.3003 35.5039 18.4129 35.3658 17.5355L33.977 17.2108L35.14 16.363C34.7437 14.6295 34.079 12.9737 33.1717 11.4597L31.7743 11.7095L32.5312 10.4723C31.522 9.02766 30.2961 7.75926 28.8999 6.71506L27.7042 7.49824L27.947 6.05384C26.4843 5.11407 24.8838 4.42627 23.208 4.01729L22.3886 5.21923L22.0747 3.78072C21.2271 3.63966 20.3699 3.56842 19.5114 3.56766C18.6514 3.56842 17.7929 3.63966 16.9438 3.78072L16.6328 5.21923L15.8119 4.01729C14.136 4.42731 12.5352 5.11504 11.0715 6.05384L11.3143 7.49824L10.12 6.71506C8.72443 7.76004 7.49865 9.02833 6.48868 10.4723L7.24419 11.7095L5.8482 11.4597C4.94037 12.9733 4.27564 14.6293 3.87988 16.363L5.04297 17.2108L3.65266 17.5355C3.5158 18.413 3.44646 19.3004 3.44531 20.1892C3.44646 21.0781 3.5158 21.9654 3.65266 22.8429L5.04297 23.1662L3.87988 24.014C4.27629 25.7478 4.94046 27.404 5.84678 28.9188L7.24419 28.6675L6.48868 29.9048C7.49821 31.3491 8.72405 32.6174 10.12 33.6619L11.3143 32.8788L11.0715 34.3246C12.5359 35.2631 14.1371 35.9508 15.8133 36.3612L16.6328 35.1578L16.9438 36.5948C17.7926 36.7383 18.6513 36.8106 19.5114 36.8108C20.37 36.8103 21.2272 36.7386 22.0747 36.5963L22.3886 35.1578L23.208 36.3612C24.8834 35.9508 26.4836 35.2631 27.947 34.3246L27.7042 32.8788L28.9014 33.6619C30.2981 32.6168 31.5249 31.348 32.5355 29.9033L31.7786 28.6661L33.176 28.9173C34.0807 27.4041 34.7439 25.7499 35.14 24.0184L33.977 23.1706L35.3673 22.8429ZM19.5114 32.5893C16.3337 32.5866 13.2868 31.2796 11.0394 28.9551C8.79202 26.6306 7.52772 23.4786 7.52396 20.1907C7.52735 16.9023 8.79139 13.7496 11.0387 11.4243C13.2861 9.09907 16.3332 7.7912 19.5114 7.7877C22.6891 7.79198 25.7355 9.10019 27.9822 11.4254C30.2289 13.7505 31.4926 16.9028 31.496 20.1907C31.4918 23.4778 30.2278 26.629 27.981 28.9531C25.7343 31.2772 22.6884 32.5843 19.5114 32.5878V32.5893Z" fill="#333333"></path>
            <path d="M19.5122 9.19242C16.8327 9.19591 14.2532 10.2455 12.2891 12.1313C10.3251 14.0172 9.12114 16.6005 8.91797 19.3649L14.4168 19.1768C14.431 19.096 14.4523 19.0196 14.4707 18.9403L10.7145 17.177C10.8572 16.7314 11.0314 16.2973 11.2356 15.8781L15.0927 17.3798C15.1638 17.2622 15.2348 17.1491 15.3143 17.0374L12.4996 13.9267C12.7962 13.5714 13.1175 13.2389 13.461 12.932L16.4674 15.8443C16.5754 15.7635 16.6876 15.6885 16.7983 15.6165L15.3526 11.6242C15.7584 11.4133 16.1785 11.2331 16.6095 11.085L18.3136 14.97C18.4429 14.9377 18.5721 14.9098 18.7042 14.8892L18.8462 10.628C19.0706 10.6104 19.2964 10.6001 19.5264 10.6001C19.7565 10.6001 19.9809 10.6104 20.2038 10.628L20.3458 14.8892C20.4779 14.9098 20.6086 14.9377 20.7378 14.97L22.442 11.085C22.8725 11.2331 23.2921 11.4133 23.6974 11.6242L22.2446 15.618C22.3582 15.69 22.469 15.7649 22.5769 15.8458L25.5833 12.9334C25.9268 13.2403 26.2482 13.5728 26.5448 13.9282L23.73 17.0389C23.8067 17.1506 23.8806 17.2637 23.9502 17.3812L27.8087 15.8795C28.0134 16.2987 28.188 16.7329 28.3313 17.1785L24.5736 18.9417C24.5907 19.0211 24.612 19.0975 24.629 19.1783L30.1264 19.3664C29.9236 16.598 28.7171 14.0113 26.7487 12.1245C24.7803 10.2377 22.1955 9.19041 19.5122 9.19242Z" fill="#333333"></path>
            <path d="M2.08619 20.1878C2.08619 19.8381 2.09897 19.4898 2.11743 19.1445L0 20.1863L2.11743 21.231C2.09897 20.8857 2.08619 20.5375 2.08619 20.1878Z" fill="#333333"></path>
            <path d="M1.48438 27.9122L3.82761 28.0371C3.53348 27.4104 3.27551 26.7662 3.05505 26.1078L1.48438 27.9122Z" fill="#333333"></path>
            <path d="M24.5523 21.4353L28.3086 23.1985C28.1653 23.6437 27.9907 24.0773 27.786 24.496L23.9275 22.9899C23.8579 23.1074 23.7855 23.2206 23.7074 23.3337L26.5221 26.4444C26.2254 26.7993 25.9041 27.1313 25.5606 27.4377L22.5542 24.5254C22.4463 24.6062 22.3355 24.6811 22.2219 24.7546L23.6747 28.7469C23.2694 28.9583 22.8498 29.139 22.4193 29.2876L20.7151 25.3997C20.6384 25.4202 20.5632 25.4393 20.4865 25.4555L20.3047 31.1449C22.8396 30.9456 25.2216 29.8134 27.0192 27.9535C28.8168 26.0936 29.911 23.629 30.1037 21.0062L24.6063 21.1928C24.5836 21.2766 24.5694 21.3559 24.5523 21.4353Z" fill="#333333"></path>
            <path d="M6.50302 32.1631L5.71484 34.4613L7.93453 33.6457C7.4304 33.1802 6.95244 32.6852 6.50302 32.1631Z" fill="#333333"></path>
            <path d="M31.0859 33.6457L33.3056 34.4613L32.5174 32.1631C32.0684 32.6856 31.5904 33.1806 31.0859 33.6457Z" fill="#333333"></path>
            <path d="M36.9389 20.1878C36.9389 20.5375 36.929 20.8857 36.9062 21.231L39.0265 20.1863L36.9062 19.1445C36.9233 19.4898 36.9389 19.8381 36.9389 20.1878Z" fill="#333333"></path>
            <path d="M26.9783 38.8385L27.099 36.4126C26.4931 36.7162 25.8705 36.9826 25.2344 37.2105L26.9783 38.8385Z" fill="#333333"></path>
            <path d="M18.3026 25.4026L16.5984 29.2906C16.1703 29.1416 15.7532 28.9609 15.3501 28.7498L16.7959 24.7531C16.6851 24.6797 16.5729 24.6062 16.4664 24.5239L13.4585 27.4362C13.1147 27.1302 12.7933 26.7982 12.4971 26.4429L15.3118 23.3322C15.2351 23.2191 15.1613 23.106 15.0903 22.9884L11.2317 24.4945C11.0269 24.0761 10.8527 23.6424 10.7105 23.1971L14.4654 21.4338C14.4469 21.3545 14.4271 21.2751 14.4129 21.1958L8.91406 21.0092C9.10726 23.6317 10.2017 26.096 11.9992 27.9558C13.7967 29.8156 16.1784 30.948 18.713 31.1479L18.5327 25.4584C18.4546 25.4423 18.3793 25.4217 18.3026 25.4026Z" fill="#333333"></path>
            <path d="M3.82761 12.3369L1.48438 12.4632L3.05505 14.2662C3.27551 13.6079 3.53348 12.9636 3.82761 12.3369V12.3369Z" fill="#333333"></path>
            <path d="M18.5 38.1818L19.5083 40.3755L20.5152 38.1818C20.1829 38.2023 19.8477 38.2156 19.5097 38.2156C19.1717 38.2156 18.8337 38.2023 18.5 38.1818Z" fill="#333333"></path>
            <path d="M12.0451 38.8385L13.7904 37.2105C13.1544 36.9823 12.5318 36.7159 11.9258 36.4126L12.0451 38.8385Z" fill="#333333"></path>
            <path d="M32.5174 8.21088L33.3056 5.91278L31.0859 6.72828C31.5904 7.19342 32.0684 7.68845 32.5174 8.21088V8.21088Z" fill="#333333"></path>
            <path d="M7.93453 6.72828L5.71484 5.91278L6.50302 8.21088C6.95245 7.68882 7.4304 7.19381 7.93453 6.72828V6.72828Z" fill="#333333"></path>
            <path d="M37.5346 12.4632L35.1914 12.3369C35.484 12.964 35.741 13.6081 35.9611 14.2662L37.5346 12.4632Z" fill="#333333"></path>
            <path d="M23.3406 20.1892C23.3406 19.137 22.9367 18.1279 22.2176 17.3839C21.4985 16.6399 20.5232 16.2219 19.5063 16.2219C18.4893 16.2219 17.514 16.6399 16.7949 17.3839C16.0759 18.1279 15.6719 19.137 15.6719 20.1892C15.6719 21.2414 16.0759 22.2505 16.7949 22.9946C17.514 23.7386 18.4893 24.1566 19.5063 24.1566C20.5232 24.1566 21.4985 23.7386 22.2176 22.9946C22.9367 22.2505 23.3406 21.2414 23.3406 20.1892ZM19.5063 21.3368C19.3604 21.337 19.216 21.3075 19.0812 21.2499C18.9464 21.1924 18.8238 21.1079 18.7206 21.0013C18.6173 20.8947 18.5354 20.7682 18.4794 20.6289C18.4234 20.4895 18.3945 20.3401 18.3943 20.1892C18.3941 20.0381 18.4227 19.8884 18.4786 19.7487C18.5344 19.6091 18.6163 19.4821 18.7196 19.3753C18.8228 19.2684 18.9455 19.1837 19.0805 19.1259C19.2155 19.0682 19.3602 19.0385 19.5063 19.0387C19.6521 19.0389 19.7965 19.0688 19.9311 19.1267C20.0658 19.1847 20.1881 19.2695 20.2911 19.3763C20.3941 19.4831 20.4758 19.6099 20.5314 19.7494C20.587 19.8889 20.6156 20.0383 20.6154 20.1892C20.615 20.4925 20.4988 20.7832 20.2921 20.9982C20.0854 21.2132 19.805 21.3349 19.5119 21.3368H19.5063Z" fill="#333333"></path>
            <path d="M26.9783 1.53696L25.2344 3.16356C25.8705 3.39143 26.4931 3.65784 27.099 3.96143L26.9783 1.53696Z" fill="#333333"></path>
            <path d="M12.044 1.53696L11.9219 3.96143C12.5288 3.65799 13.1524 3.39158 13.7894 3.16356L12.044 1.53696Z" fill="#333333"></path>
            <path d="M20.5152 2.19231L19.5083 0L18.5 2.19231C18.8337 2.17321 19.1703 2.15998 19.5097 2.15998C19.8491 2.15998 20.1786 2.17321 20.5152 2.19231Z" fill="#333333"></path>
            <path d="M19.5104 19.0387C19.3643 19.0385 19.2197 19.0681 19.0847 19.1259C18.9497 19.1836 18.827 19.2684 18.7237 19.3752C18.6204 19.4821 18.5385 19.609 18.4827 19.7487C18.4269 19.8884 18.3983 20.0381 18.3984 20.1892C18.3986 20.3401 18.4275 20.4895 18.4835 20.6288C18.5395 20.7682 18.6215 20.8947 18.7247 21.0013C18.828 21.1079 18.9505 21.1923 19.0853 21.2499C19.2201 21.3075 19.3646 21.337 19.5104 21.3368C19.8044 21.3364 20.0863 21.2154 20.2943 21.0003C20.5022 20.7851 20.6192 20.4935 20.6195 20.1892C20.6197 20.0383 20.5912 19.8889 20.5355 19.7494C20.4799 19.6099 20.3983 19.4831 20.2953 19.3763C20.1923 19.2695 20.07 19.1846 19.9353 19.1267C19.8006 19.0688 19.6562 19.0389 19.5104 19.0387Z" fill="white"></path>
            <path d="M19.5109 7.78622C16.3326 7.78972 13.2856 9.09759 11.0382 11.4228C8.79087 13.7481 7.52682 16.9008 7.52344 20.1892C7.5272 23.4771 8.79149 26.6291 11.0389 28.9536C13.2863 31.2781 16.3331 32.5851 19.5109 32.5878C22.6881 32.5843 25.7342 31.277 27.981 28.9526C30.2278 26.6282 31.4917 23.4766 31.4954 20.1892C31.492 16.9013 30.2284 13.7491 27.9817 11.4239C25.7349 9.09871 22.6886 7.7905 19.5109 7.78622V7.78622ZM8.9166 21.0106L14.4154 21.1972C14.4296 21.2766 14.4495 21.3559 14.4679 21.4353L10.7131 23.1985C10.8552 23.6439 11.0295 24.0776 11.2343 24.496L15.0914 22.9899C15.1624 23.1074 15.2334 23.2206 15.3129 23.3337L12.4982 26.4444C12.7945 26.7996 13.1158 27.1316 13.4596 27.4377L16.4675 24.5254C16.574 24.6062 16.6862 24.6811 16.797 24.7546L15.3513 28.7498C15.757 28.9612 16.1771 29.1419 16.6081 29.2905L18.3123 25.4026C18.3889 25.4217 18.4642 25.4422 18.5423 25.4584L18.7227 31.1478C16.187 30.9497 13.8037 29.8182 12.0048 27.9586C10.2059 26.0989 9.11034 23.6341 8.9166 21.0106V21.0106ZM15.6807 20.1892C15.6807 19.137 16.0847 18.1279 16.8038 17.3839C17.5229 16.6399 18.4982 16.2219 19.5151 16.2219C20.5321 16.2219 21.5073 16.6399 22.2264 17.3839C22.9455 18.1279 23.3495 19.137 23.3495 20.1892C23.3495 21.2414 22.9455 22.2505 22.2264 22.9945C21.5073 23.7386 20.5321 24.1565 19.5151 24.1565C18.4982 24.1565 17.5229 23.7386 16.8038 22.9945C16.0847 22.2505 15.6807 21.2414 15.6807 20.1892V20.1892ZM20.3047 31.1478L20.4865 25.4584C20.5632 25.4422 20.6385 25.4231 20.7151 25.4026L22.4193 29.2905C22.8499 29.1419 23.2694 28.9612 23.6747 28.7498L22.2205 24.7531C22.3341 24.6796 22.4449 24.6062 22.5528 24.5239L25.5592 27.4362C25.9027 27.1298 26.224 26.7978 26.5207 26.4429L23.706 23.3322C23.7826 23.2191 23.8565 23.1059 23.9261 22.9884L27.7846 24.4901C27.9893 24.0714 28.1639 23.6378 28.3072 23.1926L24.5509 21.4294C24.568 21.35 24.5879 21.2707 24.6049 21.1913L30.1023 21.0047C29.9107 23.628 28.817 26.0935 27.0196 27.9543C25.2222 29.8151 22.84 30.9481 20.3047 31.1478V31.1478ZM24.6049 19.1768C24.5879 19.096 24.5666 19.0196 24.5495 18.9403L28.3072 17.177C28.1639 16.7314 27.9893 16.2972 27.7846 15.8781L23.9261 17.3798C23.8565 17.2622 23.7841 17.1491 23.706 17.0374L26.5207 13.9267C26.2241 13.5714 25.9027 13.2389 25.5592 12.932L22.5528 15.8443C22.4449 15.7635 22.3341 15.6885 22.2205 15.6165L23.6733 11.6228C23.268 11.4118 22.8484 11.2316 22.4179 11.0835L20.7137 14.9685C20.5845 14.9362 20.4538 14.9083 20.3218 14.8877L20.1797 10.6265C19.9568 10.6089 19.7296 10.5986 19.5023 10.5986C19.2751 10.5986 19.0465 10.6089 18.8221 10.6265L18.6801 14.8877C18.548 14.9083 18.4188 14.9362 18.2895 14.9685L16.5854 11.0835C16.1544 11.2316 15.7343 11.4118 15.3285 11.6228L16.7799 15.6165C16.6692 15.6885 16.557 15.7635 16.449 15.8443L13.4426 12.932C13.0991 13.2389 12.7778 13.5714 12.4811 13.9267L15.2959 17.0374C15.2192 17.1491 15.1453 17.2622 15.0743 17.3798L11.2328 15.8795C11.0286 16.2987 10.8544 16.7329 10.7117 17.1785L14.4679 18.9417C14.4495 19.0211 14.4282 19.0975 14.414 19.1783L8.91517 19.3664C9.11834 16.602 10.3223 14.0187 12.2863 12.1328C14.2504 10.2469 16.8299 9.19738 19.5094 9.19389C22.1885 9.19778 24.7676 10.2476 26.7311 12.1334C28.6946 14.0193 29.898 16.6023 30.1009 19.3664L24.6049 19.1768Z" fill="white"></path>
        </g>
    </symbol>
    <symbol fill="none" xmlns="http://www.w3.org/2000/svg" viewBox="0 0 120 43" id="genesis-logo">
        <g clip-path="url(#clip0_2779_15196)">
            <path d="M68.1202 22.7452C72.5336 21.9862 75.8439 21.2272 82.1109 19.6144C82.3316 19.6144 82.3316 19.6144 82.1109 19.4721L75.3583 18.9741C74.9831 18.9741 74.939 18.7844 75.1156 18.5472C75.2921 18.3101 76.0424 17.8356 77.3223 17.8356H83.9423C89.9479 17.6095 95.8764 16.311 101.485 13.9934C92.107 14.2305 80.6984 14.3492 78.8668 14.3492C78.58 14.3492 78.602 14.1357 78.8668 13.8985C79.1316 13.6614 79.7718 13.0921 81.3165 12.9735C83.5232 12.8075 102.037 11.8351 105.061 11.7166C108.261 11.8471 111.397 10.7264 113.887 8.56208C114.959 7.69471 115.969 6.74338 116.91 5.71594C117.087 5.54991 117.087 5.43136 116.778 5.45508C111.151 6.00058 82.4859 8.87044 81.1398 9.03646C80.2593 9.03686 79.3932 9.27611 78.6217 9.73218C77.8502 10.1882 77.1982 10.8463 76.7264 11.6453C74.5027 15.8461 71.5249 19.5303 67.9659 22.4843C67.7894 22.6503 67.7895 22.7926 68.0984 22.7214L68.1202 22.7452ZM59.9777 23.9073C59.8845 23.9399 59.784 23.9399 59.6908 23.9073C54.1961 20.3734 48.6572 14.9422 47.4435 8.60956C47.0684 6.2378 47.9071 5.78706 49.2974 5.24156C52.5759 3.34212 56.2421 2.34779 59.9666 2.34779C63.6912 2.34779 67.3573 3.34212 70.6359 5.24156C72.0261 5.78706 72.8428 6.2378 72.4897 8.60956C71.3422 14.9422 65.7371 20.4682 60.2425 23.9073C60.1652 23.9395 60.0811 23.9478 59.9998 23.931L59.9777 23.9073ZM51.8348 22.7214C52.1438 22.7214 52.1439 22.7215 51.9674 22.4843C48.5527 19.4658 45.7192 15.7599 43.626 11.5743C43.1542 10.7752 42.5025 10.1172 41.731 9.6611C40.9595 9.20503 40.0931 8.96564 39.2126 8.96524C37.8886 8.79921 9.20153 5.92936 3.57446 5.38386C3.26552 5.38386 3.26566 5.38397 3.4422 5.64486C4.38332 6.6723 5.39378 7.62348 6.46536 8.49086C8.95581 10.6551 12.0917 11.7759 15.2921 11.6453C18.3153 11.6453 36.8516 12.7364 39.0362 12.9024C40.6029 12.9024 41.0663 13.3055 41.4856 13.8273C41.9048 14.3491 41.7062 14.278 41.4856 14.278C39.654 14.278 28.2454 14.278 18.867 13.9223C18.867 13.9223 18.7566 13.9223 18.867 13.9223C24.476 16.2399 30.4045 17.5384 36.4101 17.7645H43.0302C44.1997 17.7645 44.6852 17.8831 45.2368 18.476C45.7885 19.069 45.3693 18.8555 44.9941 18.9029L38.2418 19.401C37.9991 19.401 37.9991 19.401 38.2418 19.5433C44.1337 21.2273 47.4435 21.9862 51.8569 22.7452L51.8348 22.7214ZM59.9777 25.7811C60.0866 25.8076 60.1998 25.8076 60.3087 25.7811C66.1992 22.9268 71.0586 18.0788 74.1448 11.9774C74.6355 10.7018 75.4502 9.60033 76.4961 8.7992C77.542 7.99807 78.7765 7.52956 80.0585 7.44728C85.6856 6.59344 111.107 4.67236 116.116 3.93712C116.823 3.93552 117.521 3.77174 118.164 3.4568C118.807 3.14186 119.38 2.68296 119.845 2.11082C120.022 1.92107 120.022 1.7789 119.713 1.80262C119.073 1.80262 93.7181 3.03584 78.4919 3.62878C75.8006 3.99501 73.0669 3.65321 70.5257 2.63268C67.2269 0.946205 63.6197 0.0711365 59.9666 0.0711365C56.3136 0.0711365 52.7064 0.946205 49.4075 2.63268C46.8664 3.65321 44.1327 3.99501 41.4414 3.62878C26.2152 3.03584 0.860451 1.87377 0.22051 1.80262C-0.0884276 1.80262 -0.0885569 1.80249 0.0879786 2.11082C0.552854 2.68296 1.126 3.14186 1.76913 3.4568C2.41226 3.77174 3.11069 3.93552 3.81743 3.93712C8.82663 4.67236 34.2477 6.59344 39.8747 7.44728C41.1567 7.52956 42.3913 7.99807 43.4372 8.7992C44.483 9.60033 45.2978 10.7018 45.7885 11.9774C48.8747 18.0788 53.7341 22.9268 59.6245 25.7811C59.7457 25.8231 59.8749 25.8312 59.9998 25.8048L59.9777 25.7811Z" fill="white"></path>
            <path d="M68.9157 9.15501C68.5406 8.94155 68.1211 8.79925 68.1211 8.41977C68.1211 8.04029 68.2978 8.08769 68.6288 8.08769C68.9518 8.10065 69.268 8.18968 69.5555 8.34855V7.85057C69.2465 7.71964 68.9167 7.65514 68.5847 7.66079C67.7682 7.66079 67.3267 8.04031 67.3267 8.58581C67.3267 9.13131 67.6798 9.39221 68.1653 9.62939C68.6507 9.86657 68.9375 9.9851 68.9375 10.3171C68.9375 10.6492 68.761 10.744 68.3859 10.744C68.0504 10.7194 67.7218 10.6311 67.4151 10.4832V11.0761C67.7603 11.1036 68.1069 11.1036 68.4521 11.0761C69.1141 11.0761 69.7101 10.744 69.7101 10.1274C69.7101 9.51071 69.2908 9.27363 68.8715 9.03645L68.9157 9.15501ZM55.852 8.04021V7.61331H53.6453V7.82683H53.7776C53.8205 7.83814 53.8581 7.86635 53.8826 7.90587C53.9071 7.94539 53.9169 7.99327 53.9101 8.04021V10.9338H56.1168V10.6255H54.6382V9.51083H55.9183V9.08379H54.6382V8.25373L55.852 8.04021ZM64.3477 9.03645C63.9505 8.82299 63.5313 8.68069 63.5313 8.30121C63.5313 7.92173 63.7077 7.96913 64.0387 7.96913C64.3687 7.98243 64.6924 8.07135 64.9877 8.22999V7.73201C64.671 7.60154 64.3338 7.5371 63.9946 7.54223C63.1781 7.54223 62.759 7.92175 62.759 8.46725C62.759 9.01276 63.09 9.27366 63.5754 9.51083C64.0609 9.74801 64.3698 9.86654 64.3698 10.1986C64.3698 10.5306 64.1712 10.6255 63.8181 10.6255C63.4752 10.6036 63.1389 10.5153 62.8252 10.3646V10.9576C63.1778 10.9847 63.5318 10.9847 63.8844 10.9576C64.5464 10.9576 65.12 10.6255 65.12 10.0088C65.12 9.39215 64.7891 9.39219 64.3919 9.15501L64.3477 9.03645ZM65.6496 7.82683H65.7821C65.825 7.83814 65.8624 7.86635 65.8869 7.90587C65.9114 7.94539 65.9212 7.99327 65.9144 8.04021V10.9338H66.6207V7.54223H65.7379L65.6496 7.82683ZM62.3616 8.04021V7.61331H60.1549V7.82683H60.3096C60.327 7.85928 60.3362 7.89605 60.3362 7.93352C60.3362 7.97099 60.327 8.00776 60.3096 8.04021V10.9338H62.5163V10.6255H61.0377V9.51083H62.3175V9.08379H61.0377V8.25373L62.3616 8.04021ZM58.7868 9.91399L57.0876 7.54223H56.4258V7.75561H56.558C56.6009 7.76692 56.6386 7.79513 56.6631 7.83465C56.6876 7.87417 56.6974 7.9222 56.6906 7.96913V10.8626H57.1981V8.68063L58.8089 10.8626H59.3827V7.47101H58.8752L58.7868 9.91399ZM51.8139 9.39213L52.1226 9.53443C52.1226 9.53443 52.233 9.53449 52.233 9.74795V10.6255C52.0673 10.6775 51.8912 10.6775 51.7255 10.6255C51.5765 10.6167 51.4307 10.5754 51.2969 10.5043C51.1631 10.4332 51.0442 10.3337 50.9473 10.2118C50.8503 10.0898 50.7774 9.94811 50.7329 9.795C50.6884 9.64189 50.6733 9.48063 50.6884 9.32105C50.6884 8.53837 51.0856 7.96913 51.7697 7.96913C52.11 7.97716 52.4372 8.11113 52.6963 8.34855L52.8509 7.80309C52.5039 7.63198 52.1291 7.53532 51.7476 7.51849C51.5141 7.49034 51.2775 7.51751 51.0548 7.59796C50.832 7.67842 50.6284 7.81017 50.4581 7.98418C50.2878 8.1582 50.1549 8.37018 50.0689 8.60521C49.9828 8.84024 49.9457 9.0927 49.96 9.34479C49.9498 9.58123 49.9868 9.81732 50.0683 10.0372C50.1499 10.257 50.2742 10.4556 50.4331 10.6196C50.5919 10.7835 50.7816 10.9091 50.9893 10.9878C51.197 11.0666 51.4177 11.0967 51.6371 11.0761C52.0705 11.0984 52.5004 10.9829 52.873 10.744V9.20249H51.8798L51.8139 9.39213Z" fill="white"></path>
            <path d="M35.174 38.4223C35.1561 37.824 35.251 37.2281 35.4531 36.6703C35.6552 36.1125 35.9604 35.6044 36.3501 35.1767C36.7398 34.749 37.206 34.4105 37.7207 34.1816C38.2353 33.9527 38.7878 33.8382 39.3447 33.8449C40.0642 33.8214 40.7761 34.0075 41.4054 34.3832C42.0347 34.759 42.5579 35.3105 42.9195 35.9795L42.081 36.6435C41.7837 36.1576 41.3745 35.7627 40.893 35.4972C40.4116 35.2317 39.8743 35.1047 39.3336 35.1286C38.793 35.1525 38.2674 35.3266 37.8079 35.6337C37.3484 35.9408 36.9707 36.3704 36.7116 36.8809C36.4525 37.3915 36.3208 37.9655 36.3293 38.547C36.3379 39.1285 36.4866 39.6977 36.7606 40.1991C37.0346 40.7006 37.4247 41.1173 37.893 41.4086C38.3614 41.6999 38.8917 41.8559 39.4328 41.8614C39.8906 41.8783 40.3471 41.7968 40.7753 41.6217C41.2035 41.4466 41.5948 41.1814 41.9264 40.8416V39.0865H40.2934V37.9955H43.0518V41.4583C42.0876 42.5004 40.7784 43.089 39.411 43.0948C38.8494 43.1079 38.2909 42.9981 37.7699 42.7724C37.249 42.5467 36.7762 42.2097 36.38 41.7817C35.9838 41.3536 35.6725 40.8437 35.4652 40.2825C35.2579 39.7214 35.1589 39.1208 35.174 38.5173" fill="white"></path>
            <path d="M45.4375 34.011H49.7185V35.0546H46.5408V37.8533H49.4757V38.9206H46.5408V41.7667H49.7185V42.834H45.4375V34.011Z" fill="white"></path>
            <path d="M53.2699 36.5488V42.834H52.1445V34.011H52.4314L58.0585 40.2962V34.011H59.1839V43H58.897L53.2699 36.5488Z" fill="white"></path>
            <path d="M61.9844 34.011H66.2654V35.0546H63.0877V37.8533H66.0226V38.9206H63.0877V41.7667H66.2654V42.834H61.9844V34.011Z" fill="white"></path>
            <path d="M67.9648 40.7469L68.8255 40.2013C68.9712 40.701 69.2665 41.135 69.6657 41.4354C70.0648 41.7357 70.5454 41.8855 71.0322 41.8615C72.0693 41.8615 72.6651 41.2212 72.6651 40.3673C72.6651 39.5135 72.2679 39.1815 71.3191 38.8968L70.4805 38.6597C69.9383 38.5952 69.4373 38.3172 69.0747 37.8792C68.712 37.4412 68.5132 36.8743 68.5165 36.288C68.5212 35.9378 68.5933 35.5924 68.7282 35.2736C68.8631 34.9548 69.0579 34.6694 69.3004 34.4355C69.5429 34.2015 69.8279 34.0241 70.1373 33.9143C70.4468 33.8045 70.774 33.7649 71.0984 33.7976C71.6396 33.7816 72.1734 33.9342 72.6355 34.2373C73.0976 34.5403 73.468 34.9807 73.7022 35.5052L72.8636 36.0982C72.6956 35.7451 72.4394 35.4494 72.1237 35.2441C71.808 35.0388 71.4453 34.9322 71.0764 34.936C70.9018 34.909 70.7237 34.9224 70.5543 34.9754C70.3849 35.0284 70.228 35.1196 70.0942 35.2432C69.9604 35.3668 69.8527 35.5198 69.7785 35.6918C69.7043 35.8638 69.6654 36.0509 69.664 36.2405C69.664 36.8334 70.0612 37.2604 70.7232 37.4738L71.5397 37.711C72.952 38.1142 73.7464 38.9206 73.7464 40.2725C73.7386 40.6486 73.6593 41.019 73.5131 41.3608C73.3669 41.7026 73.1568 42.0087 72.8962 42.2599C72.6356 42.5111 72.3299 42.7022 71.9979 42.8213C71.6659 42.9405 71.3146 42.9851 70.9659 42.9526C70.3097 42.9723 69.6654 42.7635 69.1285 42.3575C68.5917 41.9515 68.1912 41.3699 67.9869 40.6994" fill="white"></path>
            <path d="M77.0565 34.011H75.9531V42.8577H77.0565V34.011Z" fill="white"></path>
            <path d="M79 40.7469L79.8827 40.2013C80.0284 40.701 80.3237 41.135 80.7229 41.4354C81.1221 41.7357 81.6027 41.8855 82.0894 41.8615C82.2901 41.8917 82.4945 41.8759 82.689 41.8151C82.8836 41.7542 83.0638 41.6499 83.2181 41.5088C83.3724 41.3676 83.497 41.1929 83.5839 40.9962C83.6708 40.7994 83.7181 40.585 83.7224 40.3673C83.7224 39.6558 83.3031 39.1815 82.3542 38.8968L81.5157 38.6597C80.9734 38.5952 80.4725 38.3172 80.1098 37.8792C79.7471 37.4412 79.5484 36.8743 79.5517 36.288C79.5563 35.9378 79.6285 35.5924 79.7634 35.2736C79.8983 34.9548 80.093 34.6694 80.3355 34.4355C80.5781 34.2015 80.8631 34.0241 81.1725 33.9143C81.4819 33.8045 81.8092 33.7649 82.1336 33.7976C82.6747 33.7816 83.2085 33.9342 83.6706 34.2373C84.1327 34.5403 84.5031 34.9807 84.7373 35.5052L83.8988 36.0982C83.7344 35.747 83.482 35.4522 83.1701 35.2468C82.8582 35.0415 82.4994 34.9339 82.1336 34.936C81.2509 34.936 80.6992 35.4578 80.6992 36.2405C80.6992 37.0232 81.0964 37.2604 81.7805 37.4738L82.5969 37.711C84.0092 38.1142 84.8036 38.9206 84.8036 40.2725C84.7961 40.6508 84.716 41.0235 84.5685 41.367C84.4209 41.7106 84.209 42.0176 83.9459 42.2692C83.6829 42.5207 83.3744 42.7112 83.0398 42.8288C82.7051 42.9464 82.3515 42.9886 82.0011 42.9526C81.3457 42.9685 80.7028 42.7582 80.1666 42.3527C79.6305 41.9472 79.2294 41.3678 79.0221 40.6994" fill="white"></path>
        </g>
        <defs>
            <clipPath id="clip0_2779_15196">
                <rect width="120" height="43" fill="white"></rect>
            </clipPath>
        </defs>
    </symbol>
    <symbol fill="none" xmlns="http://www.w3.org/2000/svg" viewBox="0 0 111 34" id="ya-logo">
        <path d="M1.81366 17.4281L0 16.5746L1.81366 15.7172C1.81366 15.9978 1.78618 16.2862 1.78618 16.5746C1.78618 16.863 1.78618 17.1475 1.81366 17.4281ZM17.5556 31.3448L16.6919 33.1414L15.8322 31.3448C16.1149 31.3448 16.4054 31.372 16.6919 31.372C16.9785 31.372 17.269 31.372 17.5556 31.3448ZM31.5702 17.4281C31.5898 17.1475 31.5977 16.8591 31.5977 16.5746C31.5977 16.2901 31.5977 15.9978 31.5702 15.7172L33.3839 16.5746L31.5702 17.4281ZM16.6919 1.7732C16.9824 1.7732 17.269 1.7732 17.5556 1.80048L16.6919 0L15.8322 1.80048C16.1149 1.80048 16.4054 1.7732 16.6919 1.7732ZM30.259 18.7531L29.0813 19.0181L30.0745 19.7118C29.7349 21.1349 29.1662 22.4943 28.3904 23.7375L27.2127 23.5349L27.8605 24.5481C26.9968 25.7328 25.9486 26.7734 24.7553 27.6308L23.7032 26.9722L23.9112 28.1608C22.6592 28.9306 21.2897 29.4939 19.856 29.8288L19.1533 28.8467L18.8864 30.0158C17.4329 30.2496 15.951 30.2496 14.4975 30.0158L14.2305 28.8467L13.5278 29.8288C12.0942 29.4939 10.7247 28.9306 9.47264 28.1608L9.68069 26.9722L8.6561 27.6152C7.4636 26.7568 6.41555 25.7164 5.55089 24.5325L6.19862 23.5193L5.02093 23.7219C4.24352 22.4795 3.67473 21.1198 3.33682 19.6962L4.33001 19.0025L3.15231 18.7375C2.91672 17.2933 2.91672 15.8208 3.15231 14.3766L4.33001 14.1116L3.33682 13.4179C3.67546 11.9932 4.24418 10.6324 5.02093 9.38823L6.19862 9.59478L5.55089 8.58152C6.41555 7.39768 7.4636 6.35725 8.6561 5.49887L9.68069 6.13801L9.47264 4.96886C10.7247 4.19902 12.0942 3.63573 13.5278 3.30089L14.2305 4.28686L14.4975 3.11772C15.951 2.88392 17.4329 2.88392 18.8864 3.11772L19.1533 4.28686L19.856 3.30089C21.2897 3.63573 22.6592 4.19902 23.9112 4.96886L23.7032 6.13801L24.7278 5.49887C25.9211 6.35624 26.9693 7.39683 27.833 8.58152L27.1852 9.59478L28.3629 9.38823C29.1381 10.6332 29.7067 11.9938 30.047 13.4179L29.0696 14.1116L30.2473 14.3766C30.4829 15.8208 30.4829 17.2933 30.2473 18.7375L30.259 18.7531Z" fill="#003375"></path>
        <path d="M10.2082 29.891L10.3103 31.8824L11.8021 30.5457C11.2585 30.3581 10.7264 30.1395 10.2082 29.891ZM5.56809 26.3836L4.89289 28.2698L6.79683 27.5995C6.36312 27.2189 5.95281 26.8129 5.56809 26.3836ZM2.61992 21.4147L1.27734 22.8956L3.27944 22.9969C3.03075 22.4818 2.81058 21.9536 2.61992 21.4147ZM30.0996 22.9969L32.1017 22.8956L30.7591 21.4147C30.5684 21.9536 30.3483 22.4818 30.0996 22.9969ZM26.5861 27.5995L28.4822 28.2698L27.8109 26.3836C27.4255 26.811 27.0166 27.2169 26.5861 27.5995ZM21.5927 30.5457L23.0844 31.8824L23.1904 29.891C22.6706 30.1388 22.1372 30.3574 21.5927 30.5457ZM23.1904 3.26568L23.0844 1.27423L21.5927 2.61095C22.1379 2.79751 22.6714 3.01615 23.1904 3.26568ZM27.8266 6.75362L28.4979 4.8674L26.5979 5.53771C27.0294 5.91929 27.4383 6.32527 27.8227 6.75362H27.8266ZM30.7748 11.7225L32.1174 10.2416L30.1153 10.1402C30.364 10.6553 30.5841 11.1835 30.7748 11.7225ZM11.8021 2.61095L10.3103 1.27423L10.2082 3.26568C10.7256 3.01552 11.2579 2.79686 11.8021 2.61095ZM3.28336 10.1402L1.27734 10.2416L2.61992 11.7225C2.81022 11.1828 3.03174 10.6545 3.28336 10.1402ZM5.56809 6.75362L4.89289 4.8674L6.79291 5.53771C6.35825 5.91725 5.94788 6.32334 5.56417 6.75362H5.56809ZM16.6974 18.6828C17.116 18.6828 17.5253 18.5595 17.8733 18.3285C18.2214 18.0975 18.4926 17.7692 18.6526 17.3852C18.8126 17.0011 18.8543 16.5786 18.7723 16.171C18.6904 15.7634 18.4885 15.3891 18.1922 15.0955C17.8958 14.8019 17.5185 14.6022 17.1077 14.5216C16.697 14.4409 16.2715 14.4831 15.8849 14.6427C15.4983 14.8023 15.1681 15.0721 14.9361 15.4181C14.7041 15.764 14.5807 16.1705 14.5814 16.5861C14.5825 17.1426 14.8059 17.6758 15.2026 18.0689C15.5993 18.462 16.1369 18.6828 16.6974 18.6828ZM20.4267 18.8699C20.3679 18.9556 20.3129 19.0452 20.2501 19.131L22.6958 21.7226C22.4433 22.0142 22.169 22.2864 21.8753 22.5371L19.2608 20.1092C19.1745 20.1715 19.0881 20.23 18.9978 20.2845L20.2579 23.6127C19.9116 23.7854 19.5534 23.9338 19.1862 24.057L17.7063 20.8184C17.3757 20.8967 17.0372 20.9372 16.6974 20.9392C16.3576 20.9368 16.0191 20.8962 15.6885 20.8184L14.2085 24.057C13.8415 23.9331 13.4835 23.7847 13.1368 23.6127L14.3969 20.2845C14.3066 20.23 14.2203 20.1715 14.1339 20.1092L11.5233 22.5371C11.2284 22.2865 10.9528 22.0142 10.6989 21.7226L13.1446 19.131L12.9719 18.8699L9.61939 20.1208C9.44214 19.7772 9.29251 19.4201 9.17186 19.053L12.4341 17.5877C12.2718 16.9284 12.2718 16.24 12.4341 15.5807L9.16794 14.1114C9.28858 13.7444 9.43822 13.3873 9.61546 13.0436L12.968 14.2985C13.0229 14.2089 13.0818 14.1192 13.1407 14.0374L10.695 11.4419C10.9489 11.1503 11.2244 10.878 11.5194 10.6274L14.13 13.0553C14.2163 12.993 14.3027 12.9345 14.393 12.8799L13.1329 9.55177C13.4788 9.37815 13.837 9.22968 14.2046 9.1075L15.6845 12.346L15.9947 12.2837L16.1124 8.73338C16.3048 8.73338 16.505 8.71 16.6934 8.71C16.8819 8.71 17.086 8.71 17.2744 8.73338L17.3922 12.2837L17.7023 12.346L19.1823 9.1075C19.5502 9.22896 19.9084 9.37746 20.254 9.55177L18.9939 12.8799C19.0842 12.9345 19.1705 12.993 19.2569 13.0553L21.8675 10.604C22.1634 10.8536 22.439 11.1259 22.6919 11.4185L20.2462 14.014C20.3051 14.0959 20.3639 14.1855 20.4228 14.2751L23.7753 13.0202C23.9496 13.3648 24.0979 13.7217 24.2189 14.0881L20.9606 15.5534C21.1177 16.2133 21.1177 16.9005 20.9606 17.5604L24.2189 19.0257C24.0979 19.3921 23.9496 19.749 23.7753 20.0936L20.415 18.8582L20.4267 18.8699ZM16.6974 26.7187C18.7161 26.7187 20.6894 26.1244 22.3679 25.0111C24.0464 23.8977 25.3546 22.3152 26.1272 20.4637C26.8997 18.6122 27.1018 16.5749 26.708 14.6094C26.3141 12.6438 25.3421 10.8384 23.9146 9.4213C22.4872 8.00424 20.6685 7.0392 18.6886 6.64824C16.7087 6.25727 14.6565 6.45793 12.7914 7.22484C10.9264 7.99175 9.3323 9.29047 8.21077 10.9568C7.08924 12.6231 6.49063 14.5821 6.49063 16.5861C6.49063 19.2735 7.56598 21.8507 9.48011 23.751C11.3942 25.6512 13.9904 26.7187 16.6974 26.7187ZM16.6974 27.919C14.4384 27.9198 12.23 27.2555 10.3514 26.0101C8.47283 24.7647 7.00852 22.9941 6.1437 20.9224C5.27888 18.8507 5.0524 16.571 5.49291 14.3715C5.93342 12.172 7.02113 10.1516 8.61845 8.5659C10.2158 6.98019 12.2509 5.90038 14.4665 5.46307C16.6821 5.02576 18.9786 5.25059 21.0654 6.10913C23.1523 6.96767 24.9357 8.42134 26.1903 10.2863C27.4448 12.1512 28.114 14.3436 28.1132 16.5861C28.1101 19.5909 26.9063 22.4716 24.7661 24.5963C22.6259 26.7209 19.7241 27.9159 16.6974 27.919Z" fill="#FDBA4D"></path>
        <path d="M17.6375 16.5745C17.6375 16.7611 17.5817 16.9434 17.4773 17.0985C17.373 17.2536 17.2246 17.3745 17.051 17.4458C16.8774 17.5172 16.6864 17.5359 16.5021 17.4995C16.3178 17.4631 16.1485 17.3733 16.0157 17.2414C15.8828 17.1095 15.7923 16.9415 15.7557 16.7585C15.719 16.5756 15.7378 16.3859 15.8097 16.2136C15.8816 16.0413 16.0034 15.894 16.1596 15.7903C16.3159 15.6867 16.4995 15.6314 16.6874 15.6314C16.9394 15.6314 17.181 15.7308 17.3592 15.9076C17.5374 16.0845 17.6375 16.3244 17.6375 16.5745ZM16.6874 19.8247C16.039 19.8247 15.405 19.6338 14.8659 19.2761C14.3268 18.9183 13.9066 18.4099 13.6587 17.815C13.4107 17.2202 13.346 16.5657 13.4728 15.9343C13.5996 15.303 13.9122 14.7232 14.371 14.2682C14.8298 13.8133 15.4142 13.5037 16.0504 13.3786C16.6865 13.2534 17.3457 13.3184 17.9446 13.5653C18.5435 13.8122 19.0551 14.2299 19.4149 14.7656C19.7746 15.3012 19.9661 15.9308 19.9654 16.5745C19.9633 17.4366 19.6172 18.2627 19.0028 18.8719C18.3884 19.4811 17.5558 19.8237 16.6874 19.8247ZM17.3666 25.5692L17.5236 20.8926C18.3988 20.7269 19.2037 20.3039 19.8337 19.6785C20.4638 19.053 20.8899 18.254 21.0567 17.3851L25.7675 17.2292C25.6012 19.3818 24.6643 21.4041 23.1263 22.9303C21.5882 24.4564 19.5506 25.3856 17.3823 25.5497L17.3666 25.5692ZM7.62307 17.2487L12.3339 17.4046C12.5007 18.2735 12.9268 19.0725 13.5568 19.698C14.1869 20.3234 14.9917 20.7464 15.867 20.9121L16.024 25.5886C13.8557 25.4246 11.8181 24.4954 10.28 22.9692C8.74197 21.4431 7.80504 19.4207 7.63878 17.2682L7.62307 17.2487ZM16.6874 7.54872C18.9797 7.55099 21.1866 8.41197 22.8671 9.95959C24.5475 11.5072 25.5778 13.6274 25.7518 15.8964L21.041 15.7444C20.8476 14.7377 20.3067 13.8295 19.5113 13.1762C18.7159 12.523 17.7158 12.1655 16.6835 12.1655C15.6512 12.1655 14.6512 12.523 13.8558 13.1762C13.0604 13.8295 12.5194 14.7377 12.326 15.7444L7.61523 15.8964C7.78832 13.6277 8.81772 11.5076 10.4976 9.95988C12.1774 8.41219 14.3839 7.55106 16.6757 7.54872H16.6874ZM16.6874 6.37958C14.6596 6.37958 12.6773 6.97648 10.9911 8.09483C9.30497 9.21318 7.99071 10.8028 7.2145 12.6626C6.4383 14.5224 6.23501 16.5689 6.63034 18.5434C7.02566 20.5179 8.00186 22.3317 9.4355 23.7554C10.8691 25.1792 12.6958 26.149 14.6846 26.5422C16.6734 26.9354 18.735 26.7344 20.6087 25.9646C22.4824 25.1947 24.0841 23.8906 25.2113 22.2171C26.3385 20.5436 26.9405 18.576 26.9413 16.5628C26.9382 13.8637 25.857 11.2759 23.9348 9.36697C22.0126 7.45802 19.4063 6.3837 16.6874 6.37958Z" fill="white"></path>
        <path d="M62.9336 19.891H66.3882V17.6501H62.9336V19.891Z" fill="#FDBA4D"></path>
        <path d="M72.0007 17.6502L73.571 12.6657L75.1413 17.6502H72.0007ZM75.2158 9.82469H71.8986L66.7639 23.3088H70.2263L71.298 19.891H75.8282L76.896 23.3088H80.3506L75.2158 9.82469ZM104.698 21.3408C104.354 21.364 104.01 21.3017 103.696 21.1595C103.383 21.0172 103.111 20.7996 102.904 20.5263C102.648 20.1599 102.393 19.6728 102.393 17.9931C102.393 16.3134 102.648 15.8224 102.904 15.4561C103.128 15.2013 103.404 14.9972 103.714 14.8573C104.024 14.7174 104.361 14.645 104.702 14.645C105.042 14.645 105.379 14.7174 105.689 14.8573C105.999 14.9972 106.275 15.2013 106.499 15.4561C106.751 15.8224 107.002 16.3134 107.002 17.9931C107.002 19.6728 106.751 20.1599 106.499 20.5263C106.291 20.7997 106.017 21.0173 105.702 21.1594C105.388 21.3016 105.042 21.3639 104.698 21.3408ZM110.001 17.9931C110.001 16.6447 109.785 15.004 108.521 13.8076C107.427 12.9686 106.083 12.5135 104.7 12.5135C103.317 12.5135 101.973 12.9686 100.878 13.8076C99.6139 15.004 99.3979 16.6447 99.3979 17.9931C99.3979 19.3454 99.6139 20.9861 100.878 22.1826C101.973 23.0216 103.317 23.4767 104.7 23.4767C106.083 23.4767 107.427 23.0216 108.521 22.1826C109.785 20.9861 110.001 19.3454 110.001 17.9931ZM98.6913 14.7936H96.1789V23.2932H93.2582V14.7858H90.7497V12.7008H99.3194L98.6756 14.7858L98.6913 14.7936ZM85.7719 21.2239C85.9954 21.2443 86.2208 21.217 86.4327 21.1437C86.6447 21.0705 86.8384 20.9529 87.0007 20.7991C87.1934 20.5663 87.2901 20.2697 87.2716 19.969C87.291 19.7835 87.2575 19.5964 87.1749 19.4289C87.0923 19.2614 86.9639 19.1204 86.8044 19.022C86.4852 18.8619 86.1288 18.7892 85.7719 18.8115H84.0761V21.2239H85.7719ZM85.6385 16.785C86.068 16.8238 86.4985 16.7211 86.8633 16.4927C86.9516 16.4007 87.0198 16.2916 87.0638 16.1723C87.1077 16.0529 87.1263 15.9258 87.1185 15.799C87.1272 15.6576 87.1035 15.5161 87.0491 15.3851C86.9947 15.2541 86.911 15.1372 86.8044 15.043C86.4935 14.8431 86.1257 14.7488 85.7563 14.7741H84.0761V16.785H85.6385ZM86.5139 12.7086C87.4575 12.6514 88.3862 12.9633 89.1009 13.5776C89.3402 13.8118 89.5291 14.0918 89.656 14.4006C89.7828 14.7095 89.8451 15.0407 89.8389 15.3742C89.8574 15.9165 89.6853 16.4484 89.3522 16.8785C89.087 17.2345 88.7226 17.5055 88.304 17.658C88.7262 17.8 89.1159 18.0239 89.4503 18.3166C89.7204 18.5675 89.9331 18.873 90.074 19.2125C90.2148 19.5521 90.2806 19.9177 90.2668 20.2846C90.2979 20.78 90.1863 21.274 89.9451 21.7087C89.7039 22.1435 89.343 22.5011 88.9046 22.7398C88.053 23.1336 87.1189 23.3193 86.1802 23.2816H81.2614V12.7008L86.5139 12.7086ZM65.2172 12.7086L64.7147 14.8325H60.7694V23.2932H57.8644V12.7008L65.2172 12.7086ZM48.8707 21.0836C45.9225 21.0836 44.8587 19.1155 44.8508 16.5784C44.843 14.0414 45.9225 12.0772 48.8707 12.0772C51.8189 12.0772 52.8866 14.0258 52.8945 16.5784C52.9023 19.1311 51.8228 21.0836 48.8707 21.0836ZM56.1371 16.5473C56.1371 11.9564 53.6796 9.55579 48.8628 9.55579C44.5721 9.55579 42.1696 11.4732 41.6867 15.1404H40.0576V9.85976H37.1055V23.2854H40.0576V17.4397H41.6278C41.9262 21.4928 44.3523 23.605 48.8668 23.605C53.6836 23.605 56.1253 21.2005 56.141 16.6135C56.141 16.6135 56.141 16.6135 56.141 16.5862C56.141 16.559 56.141 16.5862 56.141 16.5629L56.1371 16.5473Z" fill="#003375"></path>
    </symbol>
    <symbol xmlns="http://www.w3.org/2000/svg" viewBox="0 0 27 21" id="burger">
        <path d="M1.00659 19.0811H11.5066M1.00659 1.08105H25.0066H1.00659ZM1.00659 10.0811H25.0066H1.00659Z" stroke-width="2" stroke-linecap="round" stroke-linejoin="round"></path>
    </symbol>
    <symbol xmlns="http://www.w3.org/2000/svg" viewBox="0 0 26 26" id="close">
        <path d="M24.1488 0.322754L25.4373 1.61121L1.72571 25.3209L0.437256 24.0334L24.1488 0.322754Z"></path>
        <path d="M1.72571 0.322754L25.4373 24.0325L24.1488 25.3218L0.437256 1.61212L1.72571 0.322754Z"></path>
    </symbol>
</svg>