<svg width="0" height="0" class="hidden">
    <symbol fill="none" xmlns="http://www.w3.org/2000/svg" viewBox="0 0 140 43" id="ya-logo">
        <path d="M2.30826 22.1809L0 21.0946L2.30826 20.0035C2.30826 20.3606 2.27329 20.7276 2.27329 21.0946C2.27329 21.4617 2.27329 21.8238 2.30826 22.1809ZM22.3432 39.8928L21.244 42.1794L20.1498 39.8928C20.5096 39.8928 20.8793 39.9275 21.244 39.9275C21.6087 39.9275 21.9785 39.9275 22.3432 39.8928ZM40.1798 22.1809C40.2047 21.8238 40.2147 21.4567 40.2147 21.0946C40.2147 20.7326 40.2147 20.3606 40.1798 20.0035L42.488 21.0946L40.1798 22.1809ZM21.244 2.25677C21.6137 2.25677 21.9785 2.25677 22.3432 2.29149L21.244 0L20.1498 2.29149C20.5096 2.29149 20.8793 2.25677 21.244 2.25677ZM38.511 23.8673L37.0121 24.2045L38.2762 25.0874C37.8439 26.8986 37.1202 28.6287 36.1328 30.211L34.6339 29.9531L35.4583 31.2427C34.3591 32.7505 33.0251 34.0748 31.5063 35.166L30.1673 34.3278L30.4321 35.8406C28.8386 36.8203 27.0956 37.5373 25.271 37.9634L24.3767 36.7135L24.0369 38.2015C22.187 38.4991 20.301 38.4991 18.4511 38.2015L18.1114 36.7135L17.217 37.9634C15.3924 37.5373 13.6495 36.8203 12.0559 35.8406L12.3207 34.3278L11.0167 35.1462C9.49901 34.0537 8.16514 32.7295 7.06468 31.2228L7.88906 29.9333L6.39019 30.1912C5.40077 28.6099 4.67687 26.8794 4.2468 25.0676L5.51085 24.1847L4.01198 23.8474C3.71214 22.0093 3.71214 20.1353 4.01198 18.2972L5.51085 17.96L4.2468 17.0771C4.67779 15.2639 5.40162 13.532 6.39019 11.9485L7.88906 12.2114L7.06468 10.9218C8.16514 9.41512 9.49901 8.09094 11.0167 6.99848L12.3207 7.81191L12.0559 6.32393C13.6495 5.34414 15.3924 4.62723 17.217 4.20107L18.1114 5.45594L18.4511 3.96796C20.301 3.6704 22.187 3.6704 24.0369 3.96796L24.3767 5.45594L25.271 4.20107C27.0956 4.62723 28.8386 5.34414 30.4321 6.32393L30.1673 7.81191L31.4713 6.99848C32.9901 8.08966 34.3242 9.41402 35.4233 10.9218L34.599 12.2114L36.0978 11.9485C37.0844 13.533 37.8081 15.2646 38.2412 17.0771L36.9972 17.96L38.496 18.2972C38.7959 20.1353 38.7959 22.0093 38.496 23.8474L38.511 23.8673Z" fill="#003375"></path>
        <path d="M12.9914 38.0426L13.1213 40.5772L15.0199 38.8759C14.3282 38.6372 13.6509 38.3589 12.9914 38.0426ZM7.08589 33.5787L6.22654 35.9793L8.64971 35.1262C8.09773 34.6419 7.57551 34.1251 7.08589 33.5787ZM3.33371 27.2548L1.625 29.1395L4.17309 29.2685C3.85658 28.6129 3.57637 27.9407 3.33371 27.2548ZM38.3074 29.2685L40.8555 29.1395L39.1468 27.2548C38.9041 27.9407 38.6239 28.6129 38.3074 29.2685ZM33.8358 35.1262L36.249 35.9793L35.3946 33.5787C34.9041 34.1227 34.3837 34.6393 33.8358 35.1262ZM27.4805 38.8759L29.3791 40.5772L29.514 38.0426C28.8525 38.3581 28.1736 38.6363 27.4805 38.8759ZM29.514 4.15631L29.3791 1.62177L27.4805 3.32302C28.1744 3.56046 28.8535 3.83872 29.514 4.15631ZM35.4146 8.59545L36.2689 6.19484L33.8508 7.04795C34.3999 7.53359 34.9204 8.05028 35.4096 8.59545H35.4146ZM39.1668 14.9194L40.8755 13.0346L38.3274 12.9056C38.6439 13.5612 38.9241 14.2335 39.1668 14.9194ZM15.0199 3.32302L13.1213 1.62177L12.9914 4.15631C13.6499 3.83792 14.3273 3.55963 15.0199 3.32302ZM4.17808 12.9056L1.625 13.0346L3.33371 14.9194C3.57591 14.2326 3.85783 13.5602 4.17808 12.9056ZM7.08589 8.59545L6.22654 6.19484L8.64472 7.04795C8.09153 7.53099 7.56924 8.04783 7.08089 8.59545H7.08589ZM21.2502 23.7779C21.7831 23.7779 22.3039 23.6209 22.7469 23.3269C23.1899 23.033 23.535 22.6152 23.7387 22.1264C23.9424 21.6376 23.9954 21.0998 23.8911 20.5811C23.7868 20.0623 23.5298 19.586 23.1527 19.2123C22.7756 18.8386 22.2953 18.5844 21.7725 18.4818C21.2498 18.3792 20.7082 18.4328 20.2162 18.6359C19.7242 18.8391 19.304 19.1825 19.0087 19.6228C18.7134 20.0631 18.5563 20.5804 18.5573 21.1094C18.5586 21.8176 18.8429 22.4963 19.3478 22.9966C19.8527 23.4969 20.5369 23.7779 21.2502 23.7779ZM25.9967 24.0159C25.9217 24.125 25.8518 24.2391 25.7718 24.3482L28.8845 27.6466C28.5631 28.0177 28.2141 28.3642 27.8403 28.6832L24.5128 25.5932C24.4029 25.6726 24.2929 25.7469 24.178 25.8164L25.7818 30.0522C25.341 30.2719 24.8852 30.4609 24.4178 30.6176L22.5343 26.4959C22.1136 26.5955 21.6827 26.6471 21.2502 26.6497C20.8178 26.6465 20.387 26.5949 19.9662 26.4959L18.0826 30.6176C17.6156 30.46 17.1599 30.2711 16.7186 30.0522L18.3224 25.8164C18.2075 25.7469 18.0976 25.6726 17.9877 25.5932L14.6652 28.6832C14.2898 28.3643 13.939 28.0178 13.616 27.6466L16.7286 24.3482L16.5088 24.0159L12.242 25.6081C12.0164 25.1706 11.826 24.7162 11.6724 24.249L15.8243 22.3841C15.6178 21.545 15.6178 20.6688 15.8243 19.8297L11.6674 17.9598C11.821 17.4927 12.0114 17.0382 12.237 16.6008L16.5038 18.1979C16.5738 18.0838 16.6487 17.9697 16.7236 17.8656L13.611 14.5623C13.9341 14.1911 14.2848 13.8446 14.6602 13.5256L17.9827 16.6157C18.0926 16.5363 18.2025 16.4619 18.3174 16.3925L16.7136 12.1567C17.1539 11.9357 17.6098 11.7468 18.0776 11.5913L19.9612 15.713L20.3559 15.6336L20.5058 11.1151C20.7506 11.1151 21.0054 11.0854 21.2452 11.0854C21.4851 11.0854 21.7449 11.0854 21.9847 11.1151L22.1346 15.6336L22.5293 15.713L24.4129 11.5913C24.881 11.7458 25.3369 11.9348 25.7768 12.1567L24.173 16.3925C24.288 16.4619 24.3979 16.5363 24.5078 16.6157L27.8303 13.4959C28.2069 13.8135 28.5577 14.1602 28.8795 14.5325L25.7668 17.8358C25.8418 17.94 25.9167 18.0541 25.9917 18.1682L30.2585 16.5711C30.4802 17.0096 30.669 17.4638 30.823 17.9301L26.6762 19.795C26.876 20.6349 26.876 21.5095 26.6762 22.3494L30.823 24.2143C30.669 24.6806 30.4802 25.1348 30.2585 25.5733L25.9817 24.001L25.9967 24.0159ZM21.2502 34.0052C23.8195 34.0052 26.331 33.2489 28.4672 31.8319C30.6034 30.4149 32.2684 28.4008 33.2516 26.0444C34.2348 23.688 34.4921 21.0951 33.9909 18.5935C33.4896 16.092 32.2524 13.7942 30.4357 11.9906C28.619 10.1871 26.3044 8.95891 23.7845 8.46132C21.2646 7.96373 18.6527 8.21912 16.2791 9.19517C13.9054 10.1712 11.8766 11.8241 10.4493 13.9448C9.02187 16.0656 8.26001 18.5588 8.26001 21.1094C8.26001 24.5296 9.62861 27.8097 12.0648 30.2282C14.5009 32.6466 17.805 34.0052 21.2502 34.0052ZM21.2502 35.5329C18.3752 35.5339 15.5645 34.6884 13.1737 33.1033C10.7828 31.5183 8.91914 29.2649 7.81847 26.6283C6.7178 23.9916 6.42955 21.0901 6.9902 18.2908C7.55084 15.4915 8.93518 12.9201 10.9681 10.902C13.001 8.8838 15.5912 7.50952 18.411 6.95295C21.2308 6.39638 24.1535 6.68253 26.8095 7.7752C29.4654 8.86787 31.7353 10.718 33.332 13.0915C34.9286 15.465 35.7803 18.2553 35.7793 21.1094C35.7753 24.9335 34.2433 28.5999 31.5195 31.304C28.7956 34.0081 25.1024 35.529 21.2502 35.5329Z" fill="#FDBA4D"></path>
        <path d="M22.4507 21.0946C22.4507 21.332 22.3798 21.5641 22.2469 21.7615C22.1141 21.9589 21.9252 22.1127 21.7043 22.2036C21.4834 22.2944 21.2403 22.3182 21.0057 22.2719C20.7712 22.2256 20.5557 22.1112 20.3866 21.9434C20.2175 21.7755 20.1024 21.5616 20.0557 21.3288C20.0091 21.096 20.033 20.8546 20.1245 20.6353C20.2161 20.416 20.371 20.2285 20.5699 20.0966C20.7687 19.9647 21.0025 19.8943 21.2416 19.8943C21.5623 19.8943 21.8698 20.0208 22.0966 20.2459C22.3233 20.471 22.4507 20.7763 22.4507 21.0946ZM21.2416 25.2312C20.4163 25.2312 19.6095 24.9882 18.9233 24.5329C18.2371 24.0776 17.7024 23.4305 17.3868 22.6734C17.0712 21.9164 16.9889 21.0834 17.1503 20.2799C17.3116 19.4763 17.7095 18.7384 18.2934 18.1594C18.8774 17.5804 19.6212 17.1863 20.4308 17.0271C21.2404 16.8679 22.0793 16.9506 22.8416 17.2648C23.6038 17.579 24.255 18.1106 24.7128 18.7924C25.1706 19.4741 25.4144 20.2753 25.4135 21.0946C25.4108 22.1918 24.9703 23.2432 24.1883 24.0185C23.4064 24.7938 22.3468 25.2299 21.2416 25.2312ZM22.1059 32.5422L22.3058 26.5903C23.4197 26.3794 24.4441 25.8411 25.2459 25.0451C26.0478 24.2491 26.5901 23.2321 26.8024 22.1263L32.7979 21.9279C32.5863 24.6674 31.3939 27.2413 29.4363 29.1836C27.4788 31.126 24.8856 32.3086 22.1259 32.5174L22.1059 32.5422ZM9.70527 21.9527L15.7008 22.1511C15.9131 23.2569 16.4554 24.2739 17.2572 25.0699C18.0591 25.8659 19.0835 26.4043 20.1974 26.6151L20.3972 32.567C17.6376 32.3582 15.0443 31.1756 13.0868 29.2333C11.1293 27.2909 9.93686 24.717 9.72526 21.9775L9.70527 21.9527ZM21.2416 9.6074C24.1589 9.61028 26.9677 10.7061 29.1065 12.6757C31.2452 14.6454 32.5564 17.3438 32.7779 20.2316L26.7824 20.0382C26.5363 18.7569 25.8478 17.601 24.8355 16.7696C23.8232 15.9382 22.5505 15.4832 21.2366 15.4832C19.9227 15.4832 18.65 15.9382 17.6377 16.7696C16.6254 17.601 15.9369 18.7569 15.6908 20.0382L9.69528 20.2316C9.91559 17.3442 11.2257 14.6459 13.3637 12.6761C15.5016 10.7063 18.3098 9.61038 21.2266 9.6074H21.2416ZM21.2416 8.11942C18.6607 8.11942 16.1378 8.8791 13.9918 10.3024C11.8458 11.7258 10.1732 13.7488 9.18528 16.1158C8.19739 18.4828 7.93866 21.0875 8.4418 23.6004C8.94494 26.1134 10.1874 28.4218 12.012 30.2339C13.8366 32.0459 16.1614 33.2802 18.6926 33.7806C21.2237 34.2811 23.8475 34.0252 26.2322 33.0454C28.6169 32.0656 30.6554 30.4059 32.09 28.276C33.5246 26.1462 34.2908 23.6419 34.2918 21.0798C34.2878 17.6445 32.9118 14.351 30.4654 11.9215C28.019 9.49197 24.702 8.12467 21.2416 8.11942Z" fill="white"></path>
        <path d="M80.0977 25.3154H84.4943V22.4634H80.0977V25.3154Z" fill="#FDBA4D"></path>
        <path d="M91.6342 22.4636L93.6327 16.1198L95.6312 22.4636H91.6342ZM95.7262 12.504H91.5043L84.9693 29.6654H89.3759L90.7399 25.3156H96.5056L97.8645 29.6654H102.261L95.7262 12.504ZM133.248 27.1607C132.81 27.1903 132.373 27.111 131.974 26.9299C131.575 26.7489 131.228 26.4719 130.965 26.124C130.64 25.6578 130.315 25.0378 130.315 22.9001C130.315 20.7623 130.64 20.1374 130.965 19.6712C131.25 19.347 131.601 19.0871 131.996 18.909C132.391 18.731 132.819 18.6389 133.253 18.6389C133.686 18.6389 134.115 18.731 134.51 18.909C134.904 19.0871 135.256 19.347 135.541 19.6712C135.861 20.1374 136.181 20.7623 136.181 22.9001C136.181 25.0378 135.861 25.6578 135.541 26.124C135.275 26.472 134.927 26.749 134.526 26.9299C134.126 27.1109 133.687 27.1902 133.248 27.1607ZM139.998 22.9001C139.998 21.1839 139.723 19.0958 138.114 17.5731C136.721 16.5053 135.011 15.9261 133.25 15.9261C131.49 15.9261 129.78 16.5053 128.387 17.5731C126.778 19.0958 126.503 21.1839 126.503 22.9001C126.503 24.6212 126.778 26.7093 128.387 28.232C129.78 29.2999 131.49 29.8791 133.25 29.8791C135.011 29.8791 136.721 29.2999 138.114 28.232C139.723 26.7093 139.998 24.6212 139.998 22.9001ZM125.604 18.828H122.406V29.6456H118.689V18.8181H115.496V16.1645H126.403L125.584 18.8181L125.604 18.828ZM109.161 27.0119C109.445 27.038 109.732 27.0032 110.002 26.9099C110.272 26.8167 110.518 26.6671 110.725 26.4713C110.97 26.175 111.093 25.7975 111.07 25.4148C111.094 25.1787 111.052 24.9405 110.947 24.7274C110.842 24.5143 110.678 24.3348 110.475 24.2095C110.069 24.0058 109.615 23.9133 109.161 23.9417H107.003V27.0119H109.161ZM108.991 21.3625C109.538 21.4119 110.086 21.2812 110.55 20.9905C110.662 20.8734 110.749 20.7346 110.805 20.5827C110.861 20.4308 110.885 20.2691 110.875 20.1076C110.886 19.9277 110.856 19.7476 110.786 19.5809C110.717 19.4142 110.611 19.2653 110.475 19.1454C110.079 18.8911 109.611 18.771 109.141 18.8032H107.003V21.3625H108.991ZM110.105 16.1744C111.306 16.1016 112.488 16.4986 113.398 17.2805C113.702 17.5784 113.943 17.9348 114.104 18.3279C114.266 18.721 114.345 19.1426 114.337 19.567C114.361 20.2572 114.142 20.9341 113.718 21.4815C113.38 21.9346 112.916 22.2794 112.384 22.4735C112.921 22.6543 113.417 22.9393 113.843 23.3118C114.186 23.6311 114.457 24.0199 114.636 24.452C114.816 24.8842 114.899 25.3495 114.882 25.8165C114.921 26.447 114.779 27.0757 114.472 27.629C114.165 28.1823 113.706 28.6375 113.148 28.9413C112.064 29.4424 110.875 29.6788 109.681 29.6307H103.42V16.1645L110.105 16.1744ZM83.0007 16.1744L82.3612 18.8776H77.34V29.6456H73.6428V16.1645L83.0007 16.1744ZM62.1964 26.8333C58.4442 26.8333 57.0902 24.3285 57.0802 21.0996C57.0702 17.8707 58.4442 15.3709 62.1964 15.3709C65.9486 15.3709 67.3075 17.8509 67.3175 21.0996C67.3275 24.3484 65.9536 26.8333 62.1964 26.8333ZM71.4444 21.0599C71.4444 15.2171 68.3168 12.1618 62.1864 12.1618C56.7255 12.1618 53.6678 14.6021 53.0533 19.2694H50.9798V12.5487H47.2227V29.6357H50.9798V22.1958H52.9783C53.358 27.3541 56.4457 30.0424 62.1914 30.0424C68.3218 30.0424 71.4294 26.9821 71.4494 21.1443C71.4494 21.1443 71.4494 21.1443 71.4494 21.1096C71.4494 21.0748 71.4494 21.1096 71.4494 21.0798L71.4444 21.0599Z" fill="#003375"></path>
    </symbol>
    <symbol fill="none" xmlns="http://www.w3.org/2000/svg" viewBox="0 0 61 54" id="opel-logo">
        <g clip-path="url(#clip0_2929_4587)">
            <path d="M60.9994 53.8511V52.1745H56.0698V45.651H54.2201V53.8607L60.9994 53.8511ZM36.1655 53.8511H43.1786V52.2274H38.0106V50.4548H42.6541V48.9416H38.0106V47.265H43.1404V45.651H36.1561L36.1655 53.8511ZM20.9096 49.7438V47.1978H23.589C23.8971 47.183 24.205 47.2304 24.4947 47.3371C24.6922 47.4146 24.8538 47.5636 24.9477 47.755C25.041 47.9748 25.085 48.2127 25.0765 48.4516C25.0947 48.6333 25.0723 48.8169 25.0113 48.9889C24.9503 49.1609 24.852 49.3171 24.7236 49.446C24.3913 49.6753 23.9901 49.7806 23.589 49.7438H20.9096ZM19.0551 45.6413V53.8511H20.9096V51.3147H23.6986C24.5449 51.3734 25.3858 51.1396 26.0823 50.6518C26.6163 50.2098 26.8785 49.4892 26.8785 48.49C26.9084 47.903 26.7851 47.3183 26.5209 46.7943C26.2844 46.3824 25.9114 46.0677 25.4673 45.9056C24.89 45.7112 24.2831 45.6218 23.6747 45.6413H19.0551ZM3.10308 52.0641C2.71852 51.9006 2.40766 51.5994 2.2306 51.2186C2.04277 50.7624 1.95336 50.2711 1.96836 49.7774C1.95234 49.2846 2.03841 48.7938 2.22105 48.3363C2.396 47.9545 2.70516 47.6516 3.08877 47.486C3.6166 47.2713 4.18394 47.173 4.75262 47.1978C5.32783 47.1721 5.9022 47.2653 6.44033 47.4716C6.82212 47.6341 7.12874 47.9361 7.2985 48.3171C7.48631 48.7833 7.57407 49.2842 7.55596 49.7871C7.57533 50.2915 7.48754 50.7943 7.2985 51.2619C7.12104 51.6402 6.80992 51.9382 6.42601 52.0977C5.89378 52.3082 5.32389 52.4047 4.75262 52.3811C4.18996 52.4047 3.62851 52.3115 3.10308 52.1073V52.0641ZM7.432 53.5725C8.10259 53.2863 8.6559 52.7778 9.00041 52.1313C9.36641 51.3979 9.5435 50.5835 9.51533 49.7631C9.54352 48.9442 9.3664 48.1313 9.00041 47.3996C8.65317 46.7608 8.09986 46.2608 7.432 45.9824C6.5818 45.6361 5.66917 45.4725 4.75262 45.502C3.84066 45.4718 2.93257 45.6355 2.08755 45.9824C1.42542 46.2642 0.877573 46.7638 0.533344 47.3996C0.16735 48.1313 -0.00965328 48.9442 0.0185344 49.7631C-0.00963622 50.5835 0.167345 51.3979 0.533344 52.1313C0.874845 52.7749 1.4227 53.2829 2.08755 53.5725C2.93802 53.9178 3.85045 54.0814 4.76693 54.0529C5.67862 54.0792 6.58593 53.9157 7.432 53.5725Z" fill="#1A171B"></path>
            <path d="M53.536 20.4211L49.0735 20.1329L48.5301 20.0993C48.573 19.6189 48.5968 19.0953 48.5968 18.586C48.588 13.6608 46.6413 8.94001 43.1837 5.45866C39.726 1.97731 35.0394 0.019483 30.1514 0.0144043C25.9801 0.0186537 21.9331 1.4452 18.6688 4.0619C15.4045 6.6786 13.1151 10.3314 12.1732 14.4259H8.097C7.98758 14.4255 7.87958 14.4505 7.78122 14.4988C7.68287 14.5471 7.59681 14.6175 7.5297 14.7046L6.4903 16.1457C6.44151 16.2089 6.41474 16.2866 6.41406 16.3667C6.41406 16.4622 6.45176 16.5539 6.51882 16.6214C6.58587 16.689 6.67679 16.727 6.77162 16.727L11.215 17.0056L11.7727 17.0392C11.7298 17.5196 11.706 18.048 11.706 18.562C11.7123 23.4894 13.6577 28.2132 17.1155 31.6974C20.5734 35.1815 25.2613 37.1418 30.1514 37.1481C34.3266 37.1424 38.3766 35.7117 41.6414 33.0893C44.9063 30.467 47.1933 26.8076 48.1296 22.7078H52.2058C52.3152 22.7078 52.423 22.6827 52.5213 22.6344C52.6196 22.5861 52.7058 22.5159 52.7731 22.4291L53.8172 20.988C53.8628 20.9234 53.8878 20.8463 53.8887 20.767C53.8894 20.7199 53.8807 20.6732 53.8633 20.6295C53.8458 20.5858 53.82 20.5461 53.7871 20.5125C53.7543 20.479 53.7151 20.4524 53.672 20.4342C53.6289 20.4161 53.5827 20.4067 53.536 20.4067V20.4211ZM30.1753 2.15212C34.4993 2.15721 38.6448 3.89026 41.7023 6.97112C44.7599 10.052 46.4798 14.2291 46.4848 18.586C46.4848 19.0664 46.4848 19.5084 46.4228 19.9648L32.7878 19.0905L38.7042 15.0072C38.7455 14.9779 38.7793 14.9391 38.8025 14.8939C38.8257 14.8488 38.8378 14.7986 38.8377 14.7478C38.8365 14.6658 38.8033 14.5876 38.7453 14.5301C38.6874 14.4726 38.6093 14.4403 38.5279 14.4404H14.3996C15.3137 10.9236 17.3577 7.81066 20.2124 5.58764C23.0672 3.36463 26.5721 2.1566 30.18 2.15212H30.1753ZM30.18 35.02C25.856 35.0149 21.7105 33.2819 18.653 30.201C15.5954 27.1201 13.8755 22.943 13.8705 18.586C13.8705 18.1057 13.8704 17.6541 13.9324 17.1978L27.5675 18.0528L21.6653 22.1649C21.6241 22.1931 21.5904 22.2311 21.5671 22.2755C21.5439 22.3199 21.5317 22.3693 21.5317 22.4195C21.5317 22.4605 21.5398 22.5011 21.5554 22.539C21.5709 22.5769 21.5938 22.6113 21.6225 22.6403C21.6513 22.6693 21.6855 22.6923 21.7231 22.708C21.7607 22.7237 21.801 22.7318 21.8417 22.7318H45.9651C45.0494 26.2485 43.0043 29.3611 40.1489 31.584C37.2935 33.8068 33.7883 35.0149 30.18 35.02Z" fill="#1A171B"></path>
        </g>
    </symbol>
    <symbol xmlns="http://www.w3.org/2000/svg" viewBox="0 0 27 21" id="burger">
        <path d="M1.00659 19.0811H11.5066M1.00659 1.08105H25.0066H1.00659ZM1.00659 10.0811H25.0066H1.00659Z" stroke-width="2" stroke-linecap="round" stroke-linejoin="round"></path>
    </symbol>
    <symbol xmlns="http://www.w3.org/2000/svg" viewBox="0 0 26 26" id="close">
        <path d="M24.1488 0.322754L25.4373 1.61121L1.72571 25.3209L0.437256 24.0334L24.1488 0.322754Z"></path>
        <path d="M1.72571 0.322754L25.4373 24.0325L24.1488 25.3218L0.437256 1.61212L1.72571 0.322754Z"></path>
    </symbol>
</svg>