<svg width="0" height="0" class="hidden">
    <symbol fill="none" xmlns="http://www.w3.org/2000/svg" viewBox="0 0 129 41" id="ya-logo">
        <g clip-path="url(#clip0_2816_15912)">
            <path d="M77.9714 21.2046H73.9453V23.9288H77.9714V21.2046Z" fill="#333333"></path>
            <path d="M105.001 22.3154C104.608 21.9624 104.154 21.6906 103.662 21.5146C104.153 21.3242 104.579 20.989 104.887 20.5507C105.277 20.0261 105.477 19.3778 105.456 18.7169C105.461 18.3113 105.388 17.9087 105.24 17.5332C105.091 17.1577 104.871 16.8171 104.592 16.532C104.048 15.9912 103.091 15.4725 101.569 15.4725H95.418V28.359H101.184C102.276 28.359 103.524 28.1929 104.365 27.6992C105.181 27.2305 105.954 26.3356 105.954 24.7134C105.958 23.7966 105.681 22.9737 105.001 22.3154ZM98.7241 17.994H100.684C101.069 17.994 101.569 18.0439 101.912 18.3261C102.036 18.4399 102.133 18.5813 102.196 18.7397C102.259 18.898 102.286 19.0691 102.276 19.24C102.286 19.395 102.264 19.5504 102.213 19.6963C102.161 19.8422 102.081 19.9756 101.978 20.0878C101.638 20.3935 101.049 20.4405 100.546 20.4405H98.7241V17.994ZM102.132 25.332C101.725 25.8243 101.045 25.8507 100.702 25.8507H98.7141V22.912H100.702C101.201 22.912 101.611 22.984 101.908 23.1721C102.317 23.4321 102.451 23.8068 102.451 24.3241C102.47 24.6869 102.358 25.0443 102.137 25.3262L102.132 25.332Z" fill="#333333"></path>
            <path d="M84.4987 11.9695L78.5 28.3869H82.546L83.7971 24.2285H89.0872L90.3369 28.3869H94.3701L88.3714 11.9695H84.4987ZM84.6137 21.5029L86.44 15.4329L88.2677 21.5029H84.6137Z" fill="#333333"></path>
            <path d="M57.6039 11.6463C52.5936 11.6463 49.7931 13.9796 49.225 18.4436H47.3235V12.018H43.8711V28.359H47.3235V21.2266H49.1498C49.4963 26.1564 52.3337 28.7292 57.6053 28.7292C63.229 28.7292 66.0821 25.8066 66.1006 20.2186V20.1613C66.0807 14.5718 63.2276 11.6463 57.6039 11.6463ZM57.6039 25.67C54.1614 25.67 52.9174 23.2749 52.9174 20.1892C52.9174 17.1035 54.1671 14.704 57.6039 14.704C61.0406 14.704 62.2903 17.0991 62.3045 20.1892C62.3187 23.2793 61.0506 25.67 57.6039 25.67Z" fill="#333333"></path>
            <path d="M76.6931 15.4725H68.1055V28.359H71.4968V18.0586H76.1051L76.6931 15.4725Z" fill="#333333"></path>
            <path d="M106.496 18.0116H109.432V28.359H112.838V18.0116H115.794L116.541 15.4725H106.496V18.0116Z" fill="#333333"></path>
            <path d="M127.274 16.8082C126.294 15.8663 124.65 15.2316 122.809 15.2316C120.969 15.2316 119.32 15.8663 118.344 16.8082C116.869 18.2658 116.617 20.2598 116.617 21.9055C116.617 23.5482 116.869 25.5466 118.344 27.0027C119.32 27.9417 120.966 28.5779 122.809 28.5779C124.652 28.5779 126.294 27.9417 127.274 27.0027C128.747 25.5466 128.998 23.5482 128.999 21.9055C128.998 20.2598 128.747 18.2658 127.274 16.8082ZM124.907 24.9941C124.338 25.886 123.332 25.9801 122.809 25.9801C122.286 25.9801 121.277 25.886 120.71 24.9941C120.413 24.5533 120.115 23.9508 120.115 21.9084C120.115 19.866 120.413 19.2635 120.71 18.8227C121.278 17.9264 122.282 17.8338 122.809 17.8338C123.336 17.8338 124.343 17.9264 124.907 18.8227C125.203 19.2635 125.496 19.8645 125.5 21.9084C125.504 23.9523 125.203 24.5489 124.907 24.9941Z" fill="#333333"></path>
            <path d="M35.1914 28.0371L37.5346 27.9122L35.9611 26.1078C35.741 26.7659 35.484 27.4101 35.1914 28.0371V28.0371Z" fill="#333333"></path>
            <path d="M35.3673 22.8429C35.5041 21.9654 35.5735 21.0781 35.5746 20.1892C35.5737 19.3003 35.5039 18.4129 35.3658 17.5355L33.977 17.2108L35.14 16.363C34.7437 14.6295 34.079 12.9737 33.1717 11.4597L31.7743 11.7095L32.5312 10.4723C31.522 9.02766 30.2961 7.75926 28.8999 6.71506L27.7042 7.49824L27.947 6.05384C26.4843 5.11407 24.8838 4.42627 23.208 4.01729L22.3886 5.21923L22.0747 3.78072C21.2271 3.63966 20.3699 3.56842 19.5114 3.56766C18.6514 3.56842 17.7929 3.63966 16.9438 3.78072L16.6328 5.21923L15.8119 4.01729C14.136 4.42731 12.5352 5.11504 11.0715 6.05384L11.3143 7.49824L10.12 6.71506C8.72443 7.76004 7.49865 9.02833 6.48868 10.4723L7.24419 11.7095L5.8482 11.4597C4.94037 12.9733 4.27564 14.6293 3.87988 16.363L5.04297 17.2108L3.65266 17.5355C3.5158 18.413 3.44646 19.3004 3.44531 20.1892C3.44646 21.0781 3.5158 21.9654 3.65266 22.8429L5.04297 23.1662L3.87988 24.014C4.27629 25.7478 4.94046 27.404 5.84678 28.9188L7.24419 28.6675L6.48868 29.9048C7.49821 31.3491 8.72405 32.6174 10.12 33.6619L11.3143 32.8788L11.0715 34.3246C12.5359 35.2631 14.1371 35.9508 15.8133 36.3612L16.6328 35.1578L16.9438 36.5948C17.7926 36.7383 18.6513 36.8106 19.5114 36.8108C20.37 36.8103 21.2272 36.7386 22.0747 36.5963L22.3886 35.1578L23.208 36.3612C24.8834 35.9508 26.4836 35.2631 27.947 34.3246L27.7042 32.8788L28.9014 33.6619C30.2981 32.6168 31.5249 31.348 32.5355 29.9033L31.7786 28.6661L33.176 28.9173C34.0807 27.4041 34.7439 25.7499 35.14 24.0184L33.977 23.1706L35.3673 22.8429ZM19.5114 32.5893C16.3337 32.5866 13.2868 31.2796 11.0394 28.9551C8.79202 26.6306 7.52772 23.4786 7.52396 20.1907C7.52735 16.9023 8.79139 13.7496 11.0387 11.4243C13.2861 9.09907 16.3332 7.7912 19.5114 7.7877C22.6891 7.79198 25.7355 9.10019 27.9822 11.4254C30.2289 13.7505 31.4926 16.9028 31.496 20.1907C31.4918 23.4778 30.2278 26.629 27.981 28.9531C25.7343 31.2772 22.6884 32.5843 19.5114 32.5878V32.5893Z" fill="#333333"></path>
            <path d="M19.5122 9.19242C16.8327 9.19591 14.2532 10.2455 12.2891 12.1313C10.3251 14.0172 9.12114 16.6005 8.91797 19.3649L14.4168 19.1768C14.431 19.096 14.4523 19.0196 14.4707 18.9403L10.7145 17.177C10.8572 16.7314 11.0314 16.2973 11.2356 15.8781L15.0927 17.3798C15.1638 17.2622 15.2348 17.1491 15.3143 17.0374L12.4996 13.9267C12.7962 13.5714 13.1175 13.2389 13.461 12.932L16.4674 15.8443C16.5754 15.7635 16.6876 15.6885 16.7983 15.6165L15.3526 11.6242C15.7584 11.4133 16.1785 11.2331 16.6095 11.085L18.3136 14.97C18.4429 14.9377 18.5721 14.9098 18.7042 14.8892L18.8462 10.628C19.0706 10.6104 19.2964 10.6001 19.5264 10.6001C19.7565 10.6001 19.9809 10.6104 20.2038 10.628L20.3458 14.8892C20.4779 14.9098 20.6086 14.9377 20.7378 14.97L22.442 11.085C22.8725 11.2331 23.2921 11.4133 23.6974 11.6242L22.2446 15.618C22.3582 15.69 22.469 15.7649 22.5769 15.8458L25.5833 12.9334C25.9268 13.2403 26.2482 13.5728 26.5448 13.9282L23.73 17.0389C23.8067 17.1506 23.8806 17.2637 23.9502 17.3812L27.8087 15.8795C28.0134 16.2987 28.188 16.7329 28.3313 17.1785L24.5736 18.9417C24.5907 19.0211 24.612 19.0975 24.629 19.1783L30.1264 19.3664C29.9236 16.598 28.7171 14.0113 26.7487 12.1245C24.7803 10.2377 22.1955 9.19041 19.5122 9.19242Z" fill="#333333"></path>
            <path d="M2.08619 20.1878C2.08619 19.8381 2.09897 19.4898 2.11743 19.1445L0 20.1863L2.11743 21.231C2.09897 20.8857 2.08619 20.5375 2.08619 20.1878Z" fill="#333333"></path>
            <path d="M1.48438 27.9122L3.82761 28.0371C3.53348 27.4104 3.27551 26.7662 3.05505 26.1078L1.48438 27.9122Z" fill="#333333"></path>
            <path d="M24.5523 21.4353L28.3086 23.1985C28.1653 23.6437 27.9907 24.0773 27.786 24.496L23.9275 22.9899C23.8579 23.1074 23.7855 23.2206 23.7074 23.3337L26.5221 26.4444C26.2254 26.7993 25.9041 27.1313 25.5606 27.4377L22.5542 24.5254C22.4463 24.6062 22.3355 24.6811 22.2219 24.7546L23.6747 28.7469C23.2694 28.9583 22.8498 29.139 22.4193 29.2876L20.7151 25.3997C20.6384 25.4202 20.5632 25.4393 20.4865 25.4555L20.3047 31.1449C22.8396 30.9456 25.2216 29.8134 27.0192 27.9535C28.8168 26.0936 29.911 23.629 30.1037 21.0062L24.6063 21.1928C24.5836 21.2766 24.5694 21.3559 24.5523 21.4353Z" fill="#333333"></path>
            <path d="M6.50302 32.1631L5.71484 34.4613L7.93453 33.6457C7.4304 33.1802 6.95244 32.6852 6.50302 32.1631Z" fill="#333333"></path>
            <path d="M31.0859 33.6457L33.3056 34.4613L32.5174 32.1631C32.0684 32.6856 31.5904 33.1806 31.0859 33.6457Z" fill="#333333"></path>
            <path d="M36.9389 20.1878C36.9389 20.5375 36.929 20.8857 36.9062 21.231L39.0265 20.1863L36.9062 19.1445C36.9233 19.4898 36.9389 19.8381 36.9389 20.1878Z" fill="#333333"></path>
            <path d="M26.9783 38.8385L27.099 36.4126C26.4931 36.7162 25.8705 36.9826 25.2344 37.2105L26.9783 38.8385Z" fill="#333333"></path>
            <path d="M18.3026 25.4026L16.5984 29.2906C16.1703 29.1416 15.7532 28.9609 15.3501 28.7498L16.7959 24.7531C16.6851 24.6797 16.5729 24.6062 16.4664 24.5239L13.4585 27.4362C13.1147 27.1302 12.7933 26.7982 12.4971 26.4429L15.3118 23.3322C15.2351 23.2191 15.1613 23.106 15.0903 22.9884L11.2317 24.4945C11.0269 24.0761 10.8527 23.6424 10.7105 23.1971L14.4654 21.4338C14.4469 21.3545 14.4271 21.2751 14.4129 21.1958L8.91406 21.0092C9.10726 23.6317 10.2017 26.096 11.9992 27.9558C13.7967 29.8156 16.1784 30.948 18.713 31.1479L18.5327 25.4584C18.4546 25.4423 18.3793 25.4217 18.3026 25.4026Z" fill="#333333"></path>
            <path d="M3.82761 12.3369L1.48438 12.4632L3.05505 14.2662C3.27551 13.6079 3.53348 12.9636 3.82761 12.3369V12.3369Z" fill="#333333"></path>
            <path d="M18.5 38.1818L19.5083 40.3755L20.5152 38.1818C20.1829 38.2023 19.8477 38.2156 19.5097 38.2156C19.1717 38.2156 18.8337 38.2023 18.5 38.1818Z" fill="#333333"></path>
            <path d="M12.0451 38.8385L13.7904 37.2105C13.1544 36.9823 12.5318 36.7159 11.9258 36.4126L12.0451 38.8385Z" fill="#333333"></path>
            <path d="M32.5174 8.21088L33.3056 5.91278L31.0859 6.72828C31.5904 7.19342 32.0684 7.68845 32.5174 8.21088V8.21088Z" fill="#333333"></path>
            <path d="M7.93453 6.72828L5.71484 5.91278L6.50302 8.21088C6.95245 7.68882 7.4304 7.19381 7.93453 6.72828V6.72828Z" fill="#333333"></path>
            <path d="M37.5346 12.4632L35.1914 12.3369C35.484 12.964 35.741 13.6081 35.9611 14.2662L37.5346 12.4632Z" fill="#333333"></path>
            <path d="M23.3406 20.1892C23.3406 19.137 22.9367 18.1279 22.2176 17.3839C21.4985 16.6399 20.5232 16.2219 19.5063 16.2219C18.4893 16.2219 17.514 16.6399 16.7949 17.3839C16.0759 18.1279 15.6719 19.137 15.6719 20.1892C15.6719 21.2414 16.0759 22.2505 16.7949 22.9946C17.514 23.7386 18.4893 24.1566 19.5063 24.1566C20.5232 24.1566 21.4985 23.7386 22.2176 22.9946C22.9367 22.2505 23.3406 21.2414 23.3406 20.1892ZM19.5063 21.3368C19.3604 21.337 19.216 21.3075 19.0812 21.2499C18.9464 21.1924 18.8238 21.1079 18.7206 21.0013C18.6173 20.8947 18.5354 20.7682 18.4794 20.6289C18.4234 20.4895 18.3945 20.3401 18.3943 20.1892C18.3941 20.0381 18.4227 19.8884 18.4786 19.7487C18.5344 19.6091 18.6163 19.4821 18.7196 19.3753C18.8228 19.2684 18.9455 19.1837 19.0805 19.1259C19.2155 19.0682 19.3602 19.0385 19.5063 19.0387C19.6521 19.0389 19.7965 19.0688 19.9311 19.1267C20.0658 19.1847 20.1881 19.2695 20.2911 19.3763C20.3941 19.4831 20.4758 19.6099 20.5314 19.7494C20.587 19.8889 20.6156 20.0383 20.6154 20.1892C20.615 20.4925 20.4988 20.7832 20.2921 20.9982C20.0854 21.2132 19.805 21.3349 19.5119 21.3368H19.5063Z" fill="#333333"></path>
            <path d="M26.9783 1.53696L25.2344 3.16356C25.8705 3.39143 26.4931 3.65784 27.099 3.96143L26.9783 1.53696Z" fill="#333333"></path>
            <path d="M12.044 1.53696L11.9219 3.96143C12.5288 3.65799 13.1524 3.39158 13.7894 3.16356L12.044 1.53696Z" fill="#333333"></path>
            <path d="M20.5152 2.19231L19.5083 0L18.5 2.19231C18.8337 2.17321 19.1703 2.15998 19.5097 2.15998C19.8491 2.15998 20.1786 2.17321 20.5152 2.19231Z" fill="#333333"></path>
            <path d="M19.5104 19.0387C19.3643 19.0385 19.2197 19.0681 19.0847 19.1259C18.9497 19.1836 18.827 19.2684 18.7237 19.3752C18.6204 19.4821 18.5385 19.609 18.4827 19.7487C18.4269 19.8884 18.3983 20.0381 18.3984 20.1892C18.3986 20.3401 18.4275 20.4895 18.4835 20.6288C18.5395 20.7682 18.6215 20.8947 18.7247 21.0013C18.828 21.1079 18.9505 21.1923 19.0853 21.2499C19.2201 21.3075 19.3646 21.337 19.5104 21.3368C19.8044 21.3364 20.0863 21.2154 20.2943 21.0003C20.5022 20.7851 20.6192 20.4935 20.6195 20.1892C20.6197 20.0383 20.5912 19.8889 20.5355 19.7494C20.4799 19.6099 20.3983 19.4831 20.2953 19.3763C20.1923 19.2695 20.07 19.1846 19.9353 19.1267C19.8006 19.0688 19.6562 19.0389 19.5104 19.0387Z" fill="white"></path>
            <path d="M19.5109 7.78622C16.3326 7.78972 13.2856 9.09759 11.0382 11.4228C8.79087 13.7481 7.52682 16.9008 7.52344 20.1892C7.5272 23.4771 8.79149 26.6291 11.0389 28.9536C13.2863 31.2781 16.3331 32.5851 19.5109 32.5878C22.6881 32.5843 25.7342 31.277 27.981 28.9526C30.2278 26.6282 31.4917 23.4766 31.4954 20.1892C31.492 16.9013 30.2284 13.7491 27.9817 11.4239C25.7349 9.09871 22.6886 7.7905 19.5109 7.78622V7.78622ZM8.9166 21.0106L14.4154 21.1972C14.4296 21.2766 14.4495 21.3559 14.4679 21.4353L10.7131 23.1985C10.8552 23.6439 11.0295 24.0776 11.2343 24.496L15.0914 22.9899C15.1624 23.1074 15.2334 23.2206 15.3129 23.3337L12.4982 26.4444C12.7945 26.7996 13.1158 27.1316 13.4596 27.4377L16.4675 24.5254C16.574 24.6062 16.6862 24.6811 16.797 24.7546L15.3513 28.7498C15.757 28.9612 16.1771 29.1419 16.6081 29.2905L18.3123 25.4026C18.3889 25.4217 18.4642 25.4422 18.5423 25.4584L18.7227 31.1478C16.187 30.9497 13.8037 29.8182 12.0048 27.9586C10.2059 26.0989 9.11034 23.6341 8.9166 21.0106V21.0106ZM15.6807 20.1892C15.6807 19.137 16.0847 18.1279 16.8038 17.3839C17.5229 16.6399 18.4982 16.2219 19.5151 16.2219C20.5321 16.2219 21.5073 16.6399 22.2264 17.3839C22.9455 18.1279 23.3495 19.137 23.3495 20.1892C23.3495 21.2414 22.9455 22.2505 22.2264 22.9945C21.5073 23.7386 20.5321 24.1565 19.5151 24.1565C18.4982 24.1565 17.5229 23.7386 16.8038 22.9945C16.0847 22.2505 15.6807 21.2414 15.6807 20.1892V20.1892ZM20.3047 31.1478L20.4865 25.4584C20.5632 25.4422 20.6385 25.4231 20.7151 25.4026L22.4193 29.2905C22.8499 29.1419 23.2694 28.9612 23.6747 28.7498L22.2205 24.7531C22.3341 24.6796 22.4449 24.6062 22.5528 24.5239L25.5592 27.4362C25.9027 27.1298 26.224 26.7978 26.5207 26.4429L23.706 23.3322C23.7826 23.2191 23.8565 23.1059 23.9261 22.9884L27.7846 24.4901C27.9893 24.0714 28.1639 23.6378 28.3072 23.1926L24.5509 21.4294C24.568 21.35 24.5879 21.2707 24.6049 21.1913L30.1023 21.0047C29.9107 23.628 28.817 26.0935 27.0196 27.9543C25.2222 29.8151 22.84 30.9481 20.3047 31.1478V31.1478ZM24.6049 19.1768C24.5879 19.096 24.5666 19.0196 24.5495 18.9403L28.3072 17.177C28.1639 16.7314 27.9893 16.2972 27.7846 15.8781L23.9261 17.3798C23.8565 17.2622 23.7841 17.1491 23.706 17.0374L26.5207 13.9267C26.2241 13.5714 25.9027 13.2389 25.5592 12.932L22.5528 15.8443C22.4449 15.7635 22.3341 15.6885 22.2205 15.6165L23.6733 11.6228C23.268 11.4118 22.8484 11.2316 22.4179 11.0835L20.7137 14.9685C20.5845 14.9362 20.4538 14.9083 20.3218 14.8877L20.1797 10.6265C19.9568 10.6089 19.7296 10.5986 19.5023 10.5986C19.2751 10.5986 19.0465 10.6089 18.8221 10.6265L18.6801 14.8877C18.548 14.9083 18.4188 14.9362 18.2895 14.9685L16.5854 11.0835C16.1544 11.2316 15.7343 11.4118 15.3285 11.6228L16.7799 15.6165C16.6692 15.6885 16.557 15.7635 16.449 15.8443L13.4426 12.932C13.0991 13.2389 12.7778 13.5714 12.4811 13.9267L15.2959 17.0374C15.2192 17.1491 15.1453 17.2622 15.0743 17.3798L11.2328 15.8795C11.0286 16.2987 10.8544 16.7329 10.7117 17.1785L14.4679 18.9417C14.4495 19.0211 14.4282 19.0975 14.414 19.1783L8.91517 19.3664C9.11834 16.602 10.3223 14.0187 12.2863 12.1328C14.2504 10.2469 16.8299 9.19738 19.5094 9.19389C22.1885 9.19778 24.7676 10.2476 26.7311 12.1334C28.6946 14.0193 29.898 16.6023 30.1009 19.3664L24.6049 19.1768Z" fill="white"></path>
        </g>
    </symbol>
    <symbol xmlns="http://www.w3.org/2000/svg" viewBox="0 0 50 12" id="kia-logo">
        <path d="M50.0013 1.0224C50.0084 0.902836 49.9905 0.7831 49.9487 0.671143C49.907 0.559186 49.8424 0.457573 49.7592 0.373051C49.6761 0.288529 49.5763 0.223032 49.4664 0.180911C49.3565 0.13879 49.2391 0.121009 49.122 0.128747H45.6977C45.377 0.119417 45.062 0.216404 44.7998 0.405175L29.2177 10.7352C29.1825 10.7629 29.1397 10.7788 29.0953 10.7807C29.0434 10.7807 29.0137 10.7277 29.0137 10.633V1.0224C29.0208 0.902836 29.0029 0.7831 28.9611 0.671143C28.9194 0.559186 28.8548 0.457573 28.7716 0.373051C28.6885 0.288529 28.5886 0.223032 28.4788 0.180911C28.3689 0.13879 28.2515 0.121009 28.1344 0.128747H20.5326C20.2017 0.112226 19.8747 0.206648 19.6014 0.397601L5.47729 9.05774C5.44045 9.08626 5.39698 9.10453 5.35115 9.11076C5.29179 9.11076 5.26953 9.06911 5.26953 8.97823V0.215841C5.26953 0.0681602 5.23243 0 5.16936 0C5.12946 0.00144658 5.09082 0.0145925 5.05806 0.0378663L0.876856 2.60145C0.175662 3.03313 -0.00241755 3.49511 -0.00241755 4.30167V10.8526C-0.00944798 10.9724 0.00847833 11.0922 0.0501792 11.2044C0.0918802 11.3165 0.156408 11.4183 0.239502 11.5032C0.322596 11.588 0.42237 11.6538 0.532234 11.6964C0.642099 11.739 0.759554 11.7573 0.876856 11.7501H5.8891C6.20209 11.7533 6.50868 11.6596 6.76838 11.4812L12.211 8.14516C12.2403 8.12334 12.275 8.11024 12.3112 8.10729C12.33 8.10866 12.3483 8.1141 12.365 8.12324C12.3816 8.13238 12.3961 8.14501 12.4076 8.1603L15.6613 11.4812C15.7827 11.5839 15.9231 11.6606 16.0742 11.7068C16.2252 11.753 16.3838 11.7677 16.5406 11.7501H21.4007C21.4898 11.7501 21.5714 11.7198 21.5714 11.6554C21.5714 11.591 21.5194 11.5418 21.4489 11.4699L16.0768 5.99053C16.0249 5.93752 16.0138 5.90723 16.0138 5.87315C16.0138 5.83907 16.0323 5.79741 16.1065 5.75197L23.6267 1.14736C23.6621 1.11933 23.7046 1.10224 23.7492 1.09814C23.8011 1.09814 23.8308 1.1663 23.8308 1.23446V10.8526C23.8238 10.9724 23.8417 11.0922 23.8834 11.2044C23.9251 11.3165 23.9896 11.4183 24.0727 11.5032C24.1558 11.588 24.2556 11.6538 24.3654 11.6964C24.4753 11.739 24.5928 11.7573 24.7101 11.7501H32.2637C32.5766 11.7532 32.8827 11.6566 33.1392 11.4737L44.529 3.923C44.5649 3.8965 44.6073 3.88076 44.6514 3.87756C44.7071 3.87756 44.7368 3.94194 44.7368 4.02524V11.8069C44.7368 11.9508 44.7813 11.9886 44.8332 11.9886C44.8825 11.9849 44.9298 11.968 44.9705 11.9394L49.1257 9.39097C49.8269 8.95929 50.005 8.49353 50.005 7.68697L50.0013 1.0224Z"></path>
    </symbol>
    <symbol xmlns="http://www.w3.org/2000/svg" viewBox="0 0 13 13" id="phone">
        <path d="M10.2725 8.05304C10.0063 7.77593 9.6853 7.62776 9.34507 7.62776C9.00759 7.62776 8.68383 7.77318 8.40671 8.0503L7.53969 8.91458C7.46835 8.87616 7.39702 8.8405 7.32842 8.80483C7.22965 8.75544 7.13636 8.7088 7.05679 8.65941C6.24465 8.14359 5.50658 7.47137 4.7987 6.6016C4.45573 6.16809 4.22525 5.80318 4.05789 5.43277C4.28287 5.22699 4.4914 5.01298 4.69443 4.8072C4.77126 4.73037 4.84808 4.65081 4.92491 4.57398C5.50109 3.9978 5.50109 3.2515 4.92491 2.67531L4.17587 1.92627C4.09081 1.84122 4.00301 1.75342 3.9207 1.66562C3.75608 1.49551 3.58322 1.31991 3.40488 1.15528C3.13873 0.891884 2.82046 0.751953 2.48572 0.751953C2.15099 0.751953 1.82723 0.891884 1.55285 1.15528C1.55011 1.15803 1.55011 1.15803 1.54737 1.16077L0.614494 2.10187C0.263295 2.45307 0.0630024 2.88109 0.0191026 3.37771C-0.0467472 4.17888 0.189214 4.92518 0.370301 5.41357C0.814787 6.61258 1.47877 7.72379 2.46926 8.91458C3.67102 10.3496 5.11697 11.4827 6.7687 12.2811C7.39976 12.5802 8.24209 12.9342 9.18319 12.9945C9.24081 12.9973 9.30117 13 9.35605 13C9.98985 13 10.5221 12.7723 10.9392 12.3196C10.9419 12.3141 10.9474 12.3113 10.9502 12.3058C11.0928 12.133 11.2575 11.9766 11.4303 11.8092C11.5483 11.6967 11.669 11.5787 11.787 11.4553C12.0586 11.1727 12.2013 10.8434 12.2013 10.5059C12.2013 10.1657 12.0559 9.83922 11.7788 9.56484L10.2725 8.05304ZM11.2547 10.9422C11.252 10.9422 11.252 10.9449 11.2547 10.9422C11.1477 11.0574 11.038 11.1617 10.92 11.2769C10.7416 11.447 10.5605 11.6254 10.3904 11.8257C10.1133 12.122 9.78681 12.2619 9.35879 12.2619C9.31763 12.2619 9.27373 12.2619 9.23258 12.2592C8.41769 12.2071 7.66042 11.8888 7.09246 11.6172C5.53951 10.8654 4.17587 9.79806 3.0427 8.4454C2.10709 7.31772 1.48152 6.2751 1.06721 5.15565C0.812043 4.47246 0.718756 3.94018 0.759912 3.43807C0.78735 3.11706 0.910818 2.85091 1.13855 2.62318L2.07416 1.68757C2.20861 1.56136 2.35128 1.49276 2.49121 1.49276C2.66407 1.49276 2.804 1.59702 2.8918 1.68482C2.89454 1.68757 2.89728 1.69031 2.90003 1.69306C3.0674 1.84945 3.22653 2.01133 3.3939 2.18419C3.47896 2.27198 3.56676 2.35978 3.65456 2.45033L4.4036 3.19937C4.69443 3.4902 4.69443 3.75909 4.4036 4.04993C4.32403 4.1295 4.2472 4.20906 4.16764 4.28589C3.93716 4.52185 3.71766 4.74135 3.47896 4.95536C3.47347 4.96085 3.46798 4.96359 3.46524 4.96908C3.22928 5.20504 3.27318 5.43552 3.32256 5.59191C3.32531 5.60014 3.32805 5.60837 3.3308 5.6166C3.5256 6.08853 3.79997 6.53301 4.21702 7.06255L4.21977 7.0653C4.97704 7.99817 5.77547 8.72526 6.65621 9.28224C6.7687 9.35357 6.88394 9.41119 6.99369 9.46607C7.09246 9.51546 7.18575 9.5621 7.26532 9.61149C7.27629 9.61697 7.28727 9.62521 7.29824 9.63069C7.39153 9.67734 7.47933 9.69929 7.56987 9.69929C7.7976 9.69929 7.94028 9.55661 7.98692 9.50997L8.92528 8.57161C9.01857 8.47832 9.16673 8.36583 9.33958 8.36583C9.5097 8.36583 9.64963 8.47283 9.73468 8.56612C9.73743 8.56887 9.73743 8.56887 9.74017 8.57161L11.252 10.0834C11.5346 10.3633 11.5346 10.6514 11.2547 10.9422Z"></path>
        <path d="M7.02364 3.09246C7.7425 3.21318 8.39551 3.55341 8.91682 4.07472C9.43813 4.59603 9.77561 5.24904 9.89908 5.9679C9.92926 6.14898 10.0857 6.2752 10.264 6.2752C10.2859 6.2752 10.3052 6.27245 10.3271 6.26971C10.5301 6.23678 10.6646 6.04472 10.6317 5.84169C10.4835 4.97192 10.0719 4.17898 9.44362 3.55066C8.8153 2.92235 8.02236 2.51079 7.1526 2.36262C6.94956 2.3297 6.76024 2.46414 6.72457 2.66444C6.6889 2.86473 6.8206 3.05953 7.02364 3.09246Z"></path>
        <path d="M12.9834 5.73457C12.7392 4.30234 12.0642 2.99907 11.0271 1.96193C9.98996 0.9248 8.68669 0.24984 7.25445 0.00564702C7.05416 -0.0300216 6.86484 0.107165 6.82917 0.307458C6.79625 0.510495 6.93069 0.699813 7.13373 0.735482C8.41231 0.952237 9.5784 1.5586 10.5058 2.48324C11.4332 3.41063 12.0368 4.57672 12.2535 5.8553C12.2837 6.03639 12.4401 6.1626 12.6185 6.1626C12.6404 6.1626 12.6596 6.15985 12.6816 6.15711C12.8819 6.12693 13.0191 5.93487 12.9834 5.73457Z"></path>
    </symbol>
    <symbol xmlns="http://www.w3.org/2000/svg" viewBox="0 0 27 21" id="burger">
        <path d="M1.00659 19.0811H11.5066M1.00659 1.08105H25.0066H1.00659ZM1.00659 10.0811H25.0066H1.00659Z" stroke-width="2" stroke-linecap="round" stroke-linejoin="round"></path>
    </symbol>
    <symbol xmlns="http://www.w3.org/2000/svg" viewBox="0 0 26 26" id="close">
        <path d="M24.1488 0.322754L25.4373 1.61121L1.72571 25.3209L0.437256 24.0334L24.1488 0.322754Z"></path>
        <path d="M1.72571 0.322754L25.4373 24.0325L24.1488 25.3218L0.437256 1.61212L1.72571 0.322754Z"></path>
    </symbol>
</svg>