<svg width="120" height="43" viewBox="0 0 120 43" fill="none" xmlns="http://www.w3.org/2000/svg">
<g clip-path="url(#clip0_2779_15196)">
<path d="M68.1202 22.7452C72.5336 21.9862 75.8439 21.2272 82.1109 19.6144C82.3316 19.6144 82.3316 19.6144 82.1109 19.4721L75.3583 18.9741C74.9831 18.9741 74.939 18.7844 75.1156 18.5472C75.2921 18.3101 76.0424 17.8356 77.3223 17.8356H83.9423C89.9479 17.6095 95.8764 16.311 101.485 13.9934C92.107 14.2305 80.6984 14.3492 78.8668 14.3492C78.58 14.3492 78.602 14.1357 78.8668 13.8985C79.1316 13.6614 79.7718 13.0921 81.3165 12.9735C83.5232 12.8075 102.037 11.8351 105.061 11.7166C108.261 11.8471 111.397 10.7264 113.887 8.56208C114.959 7.69471 115.969 6.74338 116.91 5.71594C117.087 5.54991 117.087 5.43136 116.778 5.45508C111.151 6.00058 82.4859 8.87044 81.1398 9.03646C80.2593 9.03686 79.3932 9.27611 78.6217 9.73218C77.8502 10.1882 77.1982 10.8463 76.7264 11.6453C74.5027 15.8461 71.5249 19.5303 67.9659 22.4843C67.7894 22.6503 67.7895 22.7926 68.0984 22.7214L68.1202 22.7452ZM59.9777 23.9073C59.8845 23.9399 59.784 23.9399 59.6908 23.9073C54.1961 20.3734 48.6572 14.9422 47.4435 8.60956C47.0684 6.2378 47.9071 5.78706 49.2974 5.24156C52.5759 3.34212 56.2421 2.34779 59.9666 2.34779C63.6912 2.34779 67.3573 3.34212 70.6359 5.24156C72.0261 5.78706 72.8428 6.2378 72.4897 8.60956C71.3422 14.9422 65.7371 20.4682 60.2425 23.9073C60.1652 23.9395 60.0811 23.9478 59.9998 23.931L59.9777 23.9073ZM51.8348 22.7214C52.1438 22.7214 52.1439 22.7215 51.9674 22.4843C48.5527 19.4658 45.7192 15.7599 43.626 11.5743C43.1542 10.7752 42.5025 10.1172 41.731 9.6611C40.9595 9.20503 40.0931 8.96564 39.2126 8.96524C37.8886 8.79921 9.20153 5.92936 3.57446 5.38386C3.26552 5.38386 3.26566 5.38397 3.4422 5.64486C4.38332 6.6723 5.39378 7.62348 6.46536 8.49086C8.95581 10.6551 12.0917 11.7759 15.2921 11.6453C18.3153 11.6453 36.8516 12.7364 39.0362 12.9024C40.6029 12.9024 41.0663 13.3055 41.4856 13.8273C41.9048 14.3491 41.7062 14.278 41.4856 14.278C39.654 14.278 28.2454 14.278 18.867 13.9223C18.867 13.9223 18.7566 13.9223 18.867 13.9223C24.476 16.2399 30.4045 17.5384 36.4101 17.7645H43.0302C44.1997 17.7645 44.6852 17.8831 45.2368 18.476C45.7885 19.069 45.3693 18.8555 44.9941 18.9029L38.2418 19.401C37.9991 19.401 37.9991 19.401 38.2418 19.5433C44.1337 21.2273 47.4435 21.9862 51.8569 22.7452L51.8348 22.7214ZM59.9777 25.7811C60.0866 25.8076 60.1998 25.8076 60.3087 25.7811C66.1992 22.9268 71.0586 18.0788 74.1448 11.9774C74.6355 10.7018 75.4502 9.60033 76.4961 8.7992C77.542 7.99807 78.7765 7.52956 80.0585 7.44728C85.6856 6.59344 111.107 4.67236 116.116 3.93712C116.823 3.93552 117.521 3.77174 118.164 3.4568C118.807 3.14186 119.38 2.68296 119.845 2.11082C120.022 1.92107 120.022 1.7789 119.713 1.80262C119.073 1.80262 93.7181 3.03584 78.4919 3.62878C75.8006 3.99501 73.0669 3.65321 70.5257 2.63268C67.2269 0.946205 63.6197 0.0711365 59.9666 0.0711365C56.3136 0.0711365 52.7064 0.946205 49.4075 2.63268C46.8664 3.65321 44.1327 3.99501 41.4414 3.62878C26.2152 3.03584 0.860451 1.87377 0.22051 1.80262C-0.0884276 1.80262 -0.0885569 1.80249 0.0879786 2.11082C0.552854 2.68296 1.126 3.14186 1.76913 3.4568C2.41226 3.77174 3.11069 3.93552 3.81743 3.93712C8.82663 4.67236 34.2477 6.59344 39.8747 7.44728C41.1567 7.52956 42.3913 7.99807 43.4372 8.7992C44.483 9.60033 45.2978 10.7018 45.7885 11.9774C48.8747 18.0788 53.7341 22.9268 59.6245 25.7811C59.7457 25.8231 59.8749 25.8312 59.9998 25.8048L59.9777 25.7811Z" fill="white"/>
<path d="M68.9157 9.15501C68.5406 8.94155 68.1211 8.79925 68.1211 8.41977C68.1211 8.04029 68.2978 8.08769 68.6288 8.08769C68.9518 8.10065 69.268 8.18968 69.5555 8.34855V7.85057C69.2465 7.71964 68.9167 7.65514 68.5847 7.66079C67.7682 7.66079 67.3267 8.04031 67.3267 8.58581C67.3267 9.13131 67.6798 9.39221 68.1653 9.62939C68.6507 9.86657 68.9375 9.9851 68.9375 10.3171C68.9375 10.6492 68.761 10.744 68.3859 10.744C68.0504 10.7194 67.7218 10.6311 67.4151 10.4832V11.0761C67.7603 11.1036 68.1069 11.1036 68.4521 11.0761C69.1141 11.0761 69.7101 10.744 69.7101 10.1274C69.7101 9.51071 69.2908 9.27363 68.8715 9.03645L68.9157 9.15501ZM55.852 8.04021V7.61331H53.6453V7.82683H53.7776C53.8205 7.83814 53.8581 7.86635 53.8826 7.90587C53.9071 7.94539 53.9169 7.99327 53.9101 8.04021V10.9338H56.1168V10.6255H54.6382V9.51083H55.9183V9.08379H54.6382V8.25373L55.852 8.04021ZM64.3477 9.03645C63.9505 8.82299 63.5313 8.68069 63.5313 8.30121C63.5313 7.92173 63.7077 7.96913 64.0387 7.96913C64.3687 7.98243 64.6924 8.07135 64.9877 8.22999V7.73201C64.671 7.60154 64.3338 7.5371 63.9946 7.54223C63.1781 7.54223 62.759 7.92175 62.759 8.46725C62.759 9.01276 63.09 9.27366 63.5754 9.51083C64.0609 9.74801 64.3698 9.86654 64.3698 10.1986C64.3698 10.5306 64.1712 10.6255 63.8181 10.6255C63.4752 10.6036 63.1389 10.5153 62.8252 10.3646V10.9576C63.1778 10.9847 63.5318 10.9847 63.8844 10.9576C64.5464 10.9576 65.12 10.6255 65.12 10.0088C65.12 9.39215 64.7891 9.39219 64.3919 9.15501L64.3477 9.03645ZM65.6496 7.82683H65.7821C65.825 7.83814 65.8624 7.86635 65.8869 7.90587C65.9114 7.94539 65.9212 7.99327 65.9144 8.04021V10.9338H66.6207V7.54223H65.7379L65.6496 7.82683ZM62.3616 8.04021V7.61331H60.1549V7.82683H60.3096C60.327 7.85928 60.3362 7.89605 60.3362 7.93352C60.3362 7.97099 60.327 8.00776 60.3096 8.04021V10.9338H62.5163V10.6255H61.0377V9.51083H62.3175V9.08379H61.0377V8.25373L62.3616 8.04021ZM58.7868 9.91399L57.0876 7.54223H56.4258V7.75561H56.558C56.6009 7.76692 56.6386 7.79513 56.6631 7.83465C56.6876 7.87417 56.6974 7.9222 56.6906 7.96913V10.8626H57.1981V8.68063L58.8089 10.8626H59.3827V7.47101H58.8752L58.7868 9.91399ZM51.8139 9.39213L52.1226 9.53443C52.1226 9.53443 52.233 9.53449 52.233 9.74795V10.6255C52.0673 10.6775 51.8912 10.6775 51.7255 10.6255C51.5765 10.6167 51.4307 10.5754 51.2969 10.5043C51.1631 10.4332 51.0442 10.3337 50.9473 10.2118C50.8503 10.0898 50.7774 9.94811 50.7329 9.795C50.6884 9.64189 50.6733 9.48063 50.6884 9.32105C50.6884 8.53837 51.0856 7.96913 51.7697 7.96913C52.11 7.97716 52.4372 8.11113 52.6963 8.34855L52.8509 7.80309C52.5039 7.63198 52.1291 7.53532 51.7476 7.51849C51.5141 7.49034 51.2775 7.51751 51.0548 7.59796C50.832 7.67842 50.6284 7.81017 50.4581 7.98418C50.2878 8.1582 50.1549 8.37018 50.0689 8.60521C49.9828 8.84024 49.9457 9.0927 49.96 9.34479C49.9498 9.58123 49.9868 9.81732 50.0683 10.0372C50.1499 10.257 50.2742 10.4556 50.4331 10.6196C50.5919 10.7835 50.7816 10.9091 50.9893 10.9878C51.197 11.0666 51.4177 11.0967 51.6371 11.0761C52.0705 11.0984 52.5004 10.9829 52.873 10.744V9.20249H51.8798L51.8139 9.39213Z" fill="white"/>
<path d="M35.174 38.4223C35.1561 37.824 35.251 37.2281 35.4531 36.6703C35.6552 36.1125 35.9604 35.6044 36.3501 35.1767C36.7398 34.749 37.206 34.4105 37.7207 34.1816C38.2353 33.9527 38.7878 33.8382 39.3447 33.8449C40.0642 33.8214 40.7761 34.0075 41.4054 34.3832C42.0347 34.759 42.5579 35.3105 42.9195 35.9795L42.081 36.6435C41.7837 36.1576 41.3745 35.7627 40.893 35.4972C40.4116 35.2317 39.8743 35.1047 39.3336 35.1286C38.793 35.1525 38.2674 35.3266 37.8079 35.6337C37.3484 35.9408 36.9707 36.3704 36.7116 36.8809C36.4525 37.3915 36.3208 37.9655 36.3293 38.547C36.3379 39.1285 36.4866 39.6977 36.7606 40.1991C37.0346 40.7006 37.4247 41.1173 37.893 41.4086C38.3614 41.6999 38.8917 41.8559 39.4328 41.8614C39.8906 41.8783 40.3471 41.7968 40.7753 41.6217C41.2035 41.4466 41.5948 41.1814 41.9264 40.8416V39.0865H40.2934V37.9955H43.0518V41.4583C42.0876 42.5004 40.7784 43.089 39.411 43.0948C38.8494 43.1079 38.2909 42.9981 37.7699 42.7724C37.249 42.5467 36.7762 42.2097 36.38 41.7817C35.9838 41.3536 35.6725 40.8437 35.4652 40.2825C35.2579 39.7214 35.1589 39.1208 35.174 38.5173" fill="white"/>
<path d="M45.4375 34.011H49.7185V35.0546H46.5408V37.8533H49.4757V38.9206H46.5408V41.7667H49.7185V42.834H45.4375V34.011Z" fill="white"/>
<path d="M53.2699 36.5488V42.834H52.1445V34.011H52.4314L58.0585 40.2962V34.011H59.1839V43H58.897L53.2699 36.5488Z" fill="white"/>
<path d="M61.9844 34.011H66.2654V35.0546H63.0877V37.8533H66.0226V38.9206H63.0877V41.7667H66.2654V42.834H61.9844V34.011Z" fill="white"/>
<path d="M67.9648 40.7469L68.8255 40.2013C68.9712 40.701 69.2665 41.135 69.6657 41.4354C70.0648 41.7357 70.5454 41.8855 71.0322 41.8615C72.0693 41.8615 72.6651 41.2212 72.6651 40.3673C72.6651 39.5135 72.2679 39.1815 71.3191 38.8968L70.4805 38.6597C69.9383 38.5952 69.4373 38.3172 69.0747 37.8792C68.712 37.4412 68.5132 36.8743 68.5165 36.288C68.5212 35.9378 68.5933 35.5924 68.7282 35.2736C68.8631 34.9548 69.0579 34.6694 69.3004 34.4355C69.5429 34.2015 69.8279 34.0241 70.1373 33.9143C70.4468 33.8045 70.774 33.7649 71.0984 33.7976C71.6396 33.7816 72.1734 33.9342 72.6355 34.2373C73.0976 34.5403 73.468 34.9807 73.7022 35.5052L72.8636 36.0982C72.6956 35.7451 72.4394 35.4494 72.1237 35.2441C71.808 35.0388 71.4453 34.9322 71.0764 34.936C70.9018 34.909 70.7237 34.9224 70.5543 34.9754C70.3849 35.0284 70.228 35.1196 70.0942 35.2432C69.9604 35.3668 69.8527 35.5198 69.7785 35.6918C69.7043 35.8638 69.6654 36.0509 69.664 36.2405C69.664 36.8334 70.0612 37.2604 70.7232 37.4738L71.5397 37.711C72.952 38.1142 73.7464 38.9206 73.7464 40.2725C73.7386 40.6486 73.6593 41.019 73.5131 41.3608C73.3669 41.7026 73.1568 42.0087 72.8962 42.2599C72.6356 42.5111 72.3299 42.7022 71.9979 42.8213C71.6659 42.9405 71.3146 42.9851 70.9659 42.9526C70.3097 42.9723 69.6654 42.7635 69.1285 42.3575C68.5917 41.9515 68.1912 41.3699 67.9869 40.6994" fill="white"/>
<path d="M77.0565 34.011H75.9531V42.8577H77.0565V34.011Z" fill="white"/>
<path d="M79 40.7469L79.8827 40.2013C80.0284 40.701 80.3237 41.135 80.7229 41.4354C81.1221 41.7357 81.6027 41.8855 82.0894 41.8615C82.2901 41.8917 82.4945 41.8759 82.689 41.8151C82.8836 41.7542 83.0638 41.6499 83.2181 41.5088C83.3724 41.3676 83.497 41.1929 83.5839 40.9962C83.6708 40.7994 83.7181 40.585 83.7224 40.3673C83.7224 39.6558 83.3031 39.1815 82.3542 38.8968L81.5157 38.6597C80.9734 38.5952 80.4725 38.3172 80.1098 37.8792C79.7471 37.4412 79.5484 36.8743 79.5517 36.288C79.5563 35.9378 79.6285 35.5924 79.7634 35.2736C79.8983 34.9548 80.093 34.6694 80.3355 34.4355C80.5781 34.2015 80.8631 34.0241 81.1725 33.9143C81.4819 33.8045 81.8092 33.7649 82.1336 33.7976C82.6747 33.7816 83.2085 33.9342 83.6706 34.2373C84.1327 34.5403 84.5031 34.9807 84.7373 35.5052L83.8988 36.0982C83.7344 35.747 83.482 35.4522 83.1701 35.2468C82.8582 35.0415 82.4994 34.9339 82.1336 34.936C81.2509 34.936 80.6992 35.4578 80.6992 36.2405C80.6992 37.0232 81.0964 37.2604 81.7805 37.4738L82.5969 37.711C84.0092 38.1142 84.8036 38.9206 84.8036 40.2725C84.7961 40.6508 84.716 41.0235 84.5685 41.367C84.4209 41.7106 84.209 42.0176 83.9459 42.2692C83.6829 42.5207 83.3744 42.7112 83.0398 42.8288C82.7051 42.9464 82.3515 42.9886 82.0011 42.9526C81.3457 42.9685 80.7028 42.7582 80.1666 42.3527C79.6305 41.9472 79.2294 41.3678 79.0221 40.6994" fill="white"/>
</g>
<defs>
<clipPath id="clip0_2779_15196">
<rect width="120" height="43" fill="white"/>
</clipPath>
</defs>
</svg>
