<svg width="86" height="94" viewBox="0 0 86 94" fill="none" xmlns="http://www.w3.org/2000/svg">
<g clip-path="url(#clip0_2929_5)">
<path d="M23.126 57.329C22.8407 57.329 22.6886 57.2346 22.6505 57.0458C22.5554 56.5548 22.2702 54.8365 22.1751 54.3455C22.08 53.8545 22.1751 53.9112 22.4603 53.8357C23.6965 53.4391 25.7505 52.7404 27.4051 52.1551C27.5815 52.1096 27.7452 52.0247 27.8836 51.9069C28.022 51.7891 28.1315 51.6415 28.2038 51.4753C28.9075 50.3612 30.6191 47.3776 31.4179 45.8103C31.4745 45.7025 31.5041 45.5827 31.5041 45.461C31.5041 45.3394 31.4745 45.2195 31.4179 45.1117L31.0375 44.5074C30.8863 44.2738 30.6575 44.1002 30.3909 44.0164L25.4082 42.7891C25.1782 42.7235 24.9344 42.7235 24.7045 42.7891H24.5143C26.1308 43.3367 27.5002 43.8276 29.2498 44.4885C29.4148 44.5635 29.5442 44.6988 29.6112 44.8662L29.7633 45.3949C29.8105 45.4921 29.835 45.5986 29.835 45.7065C29.835 45.8144 29.8105 45.9209 29.7633 46.0181C28.9034 47.6432 27.8841 49.1801 26.7204 50.6066C26.5653 50.7872 26.3699 50.9294 26.1499 51.0221C25.1419 51.3809 23.3542 51.9851 22.5554 52.1739C22.4994 52.2021 22.4375 52.2168 22.3748 52.2168C22.312 52.2168 22.2501 52.2021 22.1941 52.1739C21.6235 51.7774 20.4444 50.6633 20.4444 50.6633C20.4444 50.6633 20.4444 51.8718 20.4444 52.4005C20.4352 52.4568 20.4352 52.5142 20.4444 52.5705C20.6536 53.0426 21.015 53.9301 21.1481 54.4588L21.2622 54.7987L22.0039 57.8955C22.0039 58.2543 22.2702 58.3676 22.5935 58.311C22.9168 58.2543 24.2671 57.8578 24.7996 57.6878C24.8828 57.6696 24.9569 57.6228 25.0088 57.5556L25.9216 56.7437L23.126 57.329Z" fill="white"/>
<path d="M26.015 50.229C26.837 49.201 27.5929 48.1225 28.2782 47L22.9531 51.3998C23.847 51.1165 25.0261 50.72 25.7488 50.4556C25.8563 50.4051 25.9483 50.3268 26.015 50.229Z" fill="white"/>
<path d="M26.1513 32.5356H25.2004C25.1614 32.5397 25.1251 32.5569 25.0974 32.5844C25.0697 32.6119 25.0523 32.648 25.0482 32.6866L24.9531 33.8196H25.0672L26.0372 33.6119C26.1021 33.5937 26.1625 33.5626 26.2149 33.5204C26.2672 33.4782 26.3103 33.4258 26.3414 33.3664C26.403 33.2331 26.4348 33.0882 26.4348 32.9415C26.4348 32.7949 26.403 32.65 26.3414 32.5167C26.3115 32.5007 26.2773 32.4939 26.2435 32.4973C26.2096 32.5007 26.1775 32.514 26.1513 32.5356Z" fill="white"/>
<path d="M16.8125 46.679L18.2579 48.3785L18.6953 45.4516C18.3069 45.4965 17.9344 45.6308 17.6075 45.8439C17.2806 46.057 17.0084 46.3429 16.8125 46.679Z" fill="white"/>
<path d="M64.3007 46.358C62.1505 43.1963 59.7192 40.2324 57.0358 37.5018C56.9024 37.3575 56.7406 37.2418 56.5604 37.1619L55.9708 36.9164C55.9708 36.9164 57.0358 41.5806 57.5303 44.1298C57.5837 44.4607 57.7439 44.7655 57.9867 44.9984C59.3453 46.2817 60.5687 47.6989 61.6382 49.2282C62.0213 49.7912 62.2566 50.4403 62.3229 51.1165C62.5663 55.0015 62.4645 58.9002 62.0186 62.7674C62.0135 62.9804 61.9574 63.1892 61.8549 63.3763C61.7523 63.5635 61.6064 63.7237 61.429 63.8437C57.8346 66.714 51.9199 71.7935 49.3715 74.2861C49.1715 74.4686 48.9986 74.6784 48.858 74.9092C48.6005 75.3115 48.3656 75.7275 48.1543 76.1555C47.841 75.2232 47.5932 74.2705 47.4126 73.3042C47.3555 72.954 47.3555 72.5969 47.4126 72.2467C47.9957 69.6294 48.7194 67.0451 49.5807 64.5046C49.5897 64.4357 49.5897 64.3659 49.5807 64.2969V63.8437C48.0979 66.9592 46.7775 70.1483 45.6249 73.3986C45.558 73.5537 45.5234 73.7207 45.5234 73.8895C45.5234 74.0583 45.558 74.2253 45.6249 74.3805C45.9863 75.4191 47.0513 78.006 47.5267 79.0446C47.5267 79.0446 48.6869 76.9108 49.4286 75.8156C49.6194 75.5159 49.8496 75.2428 50.1132 75.0036C52.015 73.1153 59.299 67.2049 62.6462 64.7124C63.0138 64.4726 63.273 64.1001 63.3689 63.6738C64.8025 58.2375 65.2278 52.5875 64.6241 47C64.5728 46.7623 64.4615 46.5413 64.3007 46.358Z" fill="white"/>
<path d="M49.58 31.2515C49.7176 31.018 49.7649 30.7428 49.7132 30.4773C49.5991 29.8164 49.4279 29.0611 49.2948 28.589C49.2865 28.5355 49.2647 28.4849 49.2315 28.442C49.1982 28.399 49.1546 28.3652 49.1046 28.3435L48.0776 27.8525C47.9407 27.8147 47.7961 27.8147 47.6592 27.8525C45.2059 28.2869 42.6384 28.7778 40.6986 29.231C40.5439 29.2709 40.4089 29.3648 40.3182 29.4954L39.7096 30.5339C39.6829 30.562 39.668 30.5992 39.668 30.6378C39.668 30.6764 39.6829 30.7136 39.7096 30.7417L41.6114 31.0815C41.7661 31.1307 41.9323 31.1307 42.0869 31.0815C43.3231 30.5717 45.339 29.7975 46.8414 29.1932C46.9589 29.1557 47.0853 29.1557 47.2028 29.1932L47.8874 29.4198C47.9393 29.4332 47.9879 29.4569 48.0304 29.4893C48.0729 29.5217 48.1083 29.5623 48.1347 29.6087C48.3058 29.9297 48.515 30.2885 48.6291 30.5339C48.6644 30.6359 48.6724 30.7451 48.6524 30.851C48.6324 30.9569 48.585 31.0559 48.515 31.1382C48.0206 31.8558 47.1457 33.0265 46.6132 33.7441C46.5448 33.8197 46.4967 33.9113 46.4735 34.0104C46.4502 34.1094 46.4525 34.2126 46.4801 34.3106C46.8414 35.5002 47.6022 37.9739 48.0015 39.1635C48.0547 39.3006 48.1394 39.4234 48.2488 39.5223L48.8193 40.0321C48.8193 40.0321 47.9064 35.859 47.6972 34.6504C47.6594 34.5674 47.6399 34.4773 47.6399 34.3861C47.6399 34.2949 47.6594 34.2048 47.6972 34.1217C48.2868 33.3286 49.1616 32.0257 49.58 31.2515Z" fill="white"/>
<path d="M71.4128 34.7449C71.3923 34.6124 71.3424 34.4861 71.2667 34.3751C71.1911 34.2641 71.0916 34.1711 70.9754 34.1028C67.6542 31.735 64.1135 29.6864 60.4013 27.9847C60.0147 27.8431 59.5898 27.8431 59.2032 27.9847C57.8149 28.4946 55.5897 29.4198 53.2695 30.515L54.772 30.6472C54.9657 30.6937 55.1678 30.6937 55.3615 30.6472L58.3283 29.9297C58.5667 29.8757 58.8139 29.8731 59.0534 29.9219C59.2929 29.9708 59.5191 30.07 59.7167 30.2129C61.086 31.2326 63.2731 32.9887 64.6804 34.1406C64.9222 34.3503 65.1989 34.5164 65.4982 34.6316C67.6282 35.4813 68.5791 35.9156 69.0546 36.1611C69.2173 36.2464 69.3605 36.3642 69.4751 36.5072C69.5897 36.6503 69.6731 36.8153 69.7202 36.9919C70.2855 39.5417 70.6605 42.1294 70.8423 44.734C70.8819 45.1693 70.8234 45.608 70.6711 46.0181C69.8602 48.0466 68.8806 50.0047 67.7423 51.8718C67.6581 51.9992 67.5556 52.1137 67.438 52.2117L66.2399 53.1747C66.2033 53.2 66.1737 53.234 66.1537 53.2736C66.1338 53.3132 66.1242 53.3571 66.1258 53.4013C66.1258 54.3266 65.9356 56.0827 65.9356 56.0827C68.169 53.1452 70.0816 49.9802 71.641 46.6412C71.774 46.4237 71.8523 46.1775 71.8693 45.9236C72.2716 42.1954 72.1178 38.4286 71.4128 34.7449Z" fill="white"/>
<path d="M44.1593 80.3476C43.6839 79.2712 41.1735 73.3797 40.4888 71.1137C40.271 70.509 40.2121 69.8591 40.3177 69.2254C40.9991 63.9786 41.9641 58.772 43.2084 53.628C43.266 53.4371 43.266 53.2335 43.2084 53.0426C43.2084 52.5894 42.8471 51.0032 42.8471 51.0032C40.7323 56.1463 38.9536 61.4193 37.522 66.7895C37.3052 67.3486 37.3052 67.9677 37.522 68.5267C39.5385 73.2357 41.8506 77.8144 44.4446 82.2359L44.2734 80.8385C44.2649 80.6695 44.2262 80.5032 44.1593 80.3476Z" fill="white"/>
<path d="M40.2615 80.7818L39.0253 79.9699C38.8284 79.8493 38.6437 79.7102 38.4738 79.5545C34.3535 75.236 30.6479 70.5452 27.4052 65.5432C27.0896 65.0907 26.9417 64.5434 26.9868 63.9948C26.9868 63.2961 27.177 61.9176 27.3101 61.1057C27.3564 60.6327 27.5805 60.1944 27.9377 59.8783C29.1359 58.8019 31.0567 56.8947 32.0457 55.8939C32.404 55.553 32.7057 55.1579 32.9395 54.7232C33.8524 53.0237 36.7431 46.9622 37.599 44.4886C37.7586 44.1664 37.799 43.7987 37.7131 43.45C37.3895 41.8815 36.9832 40.331 36.4959 38.8047V39.9377C36.4866 40.013 36.4866 40.0891 36.4959 40.1643C36.6985 41.294 36.8255 42.4358 36.8763 43.5822C36.8933 43.8738 36.8203 44.1637 36.6671 44.413C33.5939 49.367 30.1212 54.0654 26.2832 58.462C25.9643 58.8184 25.7534 59.257 25.6746 59.7272C25.5034 60.5581 25.2942 62.4653 25.1611 63.9948C25.114 64.3277 25.1353 64.6665 25.2235 64.991C25.3117 65.3155 25.4652 65.619 25.6746 65.8831C29.0669 70.8065 32.94 75.3858 37.2376 79.5545C37.3873 79.6828 37.5536 79.7908 37.7321 79.8755C38.5499 80.3287 40.775 81.4239 40.775 81.4239L40.4327 80.8196C40.408 80.8024 40.3802 80.7902 40.3509 80.7838C40.3215 80.7773 40.2911 80.7766 40.2615 80.7818Z" fill="white"/>
<path d="M29.8954 31.4025L34.3647 30.0241C34.6292 29.9457 34.8536 29.7701 34.9923 29.5331L37.3125 25.5866C37.3259 25.5635 37.3329 25.5373 37.3328 25.5107C37.3328 25.4841 37.3256 25.4579 37.3121 25.4349C37.2986 25.4119 37.2792 25.3928 37.2559 25.3797C37.2326 25.3665 37.2062 25.3597 37.1793 25.36H35.1634C34.9737 25.3415 34.7826 25.3415 34.5929 25.36C32.6381 26.0438 30.732 26.8576 28.8874 27.7959C28.7228 27.8831 28.5799 28.0057 28.469 28.1547L26.377 30.7794C26.3013 30.8588 26.2109 30.9229 26.1108 30.9682L24.7225 31.5536C24.6582 31.5884 24.6053 31.6408 24.5703 31.7047V31.8369C24.5703 31.8369 27.4801 31.7424 28.3739 31.6669C28.8898 31.6386 29.4005 31.5498 29.8954 31.4025Z" fill="white"/>
<path d="M38.0174 21.81C43.6087 21.3945 50.0178 21.5078 51.5773 21.5456C51.8102 21.5463 52.0414 21.5845 52.262 21.6589L53.4031 22.0366C50.6074 22.1876 43.894 22.7919 41.0983 23.264L42.0492 23.3961H42.2584C44.2934 23.264 48.2491 23.1507 49.9988 23.1129C50.3712 23.1008 50.7417 23.1717 51.0828 23.3206C52.0908 23.6983 54.1257 24.6235 54.8865 25.039C55.2534 25.2416 55.6648 25.3519 56.0846 25.36C56.9975 25.36 58.3858 25.4922 59.4318 25.6055C59.7105 25.6277 59.982 25.7047 60.2306 25.8321C62.4236 26.9718 64.5507 28.2326 66.6016 29.6087C66.7055 29.6753 66.822 29.7203 66.944 29.7409L67.7998 29.9108C67.7998 29.9108 65.0421 27.1161 63.9962 26.1342C63.8393 26.0041 63.6742 25.8842 63.5017 25.7754C60.3079 23.9154 57.0197 22.22 53.6503 20.6959C53.3245 20.5566 52.9772 20.4736 52.6233 20.4504C46.6859 19.9925 40.7217 19.9925 34.7843 20.4504C34.6262 20.4554 34.4715 20.4974 34.3327 20.5729C34.1939 20.6483 34.075 20.7551 33.9855 20.8847C33.7954 21.1491 33.472 21.6589 33.2058 22.1121C33.0555 22.3301 32.8835 22.5326 32.6923 22.7163C31.7984 23.4717 30.315 24.718 29.3831 25.4166L29.193 25.5488L27.2911 26.814C27.2911 26.814 27.177 26.814 27.12 26.9839L26.6445 27.5693C30.4482 25.3977 35.507 22.6786 37.1996 21.9044C37.4666 21.8363 37.7417 21.8045 38.0174 21.81Z" fill="white"/>
<path d="M19.8364 34.1406C19.7932 34.2046 19.7343 34.2566 19.6652 34.2917C16.2039 36.7465 14.2641 38.3138 13.4843 38.9558L12.6095 39.8433C12.3623 40.0888 12.3052 40.1832 12.2862 40.3909C12.2672 40.5986 12.2862 40.7875 12.2862 40.9196C12.2692 40.9815 12.2692 41.0467 12.2862 41.1085L12.6665 41.5428H12.7806L14.6825 40.1643C14.7597 40.109 14.8245 40.0382 14.8726 39.9566C14.9867 39.7678 15.1199 39.5034 15.215 39.3335C15.2329 39.2838 15.2606 39.2381 15.2966 39.1992C15.3325 39.1603 15.3759 39.1289 15.4242 39.1069L15.9567 38.767C15.8318 39.3217 15.6601 39.8649 15.4432 40.3909C15.4313 40.4967 15.399 40.5993 15.3481 40.693C14.8346 41.2218 13.9217 42.2415 13.4463 42.8079C13.3814 42.8955 13.3464 43.0014 13.3464 43.1101C13.3464 43.2188 13.3814 43.3246 13.4463 43.4122C14.026 44.2168 14.6614 44.9803 15.3481 45.6971C15.4495 45.8306 15.5794 45.9403 15.7285 46.0181L16.1088 46.2069C16.1088 46.2069 16.5462 44.092 16.7364 43.4311C16.7679 43.3152 16.8306 43.2101 16.9177 43.1269C17.0048 43.0438 17.1131 42.9857 17.2309 42.959C19.4941 42.4114 24.4007 41.5994 24.4007 41.5994C23.498 40.6206 22.5458 39.6879 21.548 38.8047C21.4031 38.6805 21.2245 38.6017 21.0345 38.5781C20.4069 38.5781 18.3339 38.3704 18.3339 38.3704L18.6382 38.0305C18.7337 37.9214 18.8593 37.8426 18.9996 37.8039C21.548 36.9164 24.9523 35.6513 26.9301 34.8204C27.3129 34.691 27.6542 34.4629 27.9191 34.1595L28.5467 33.4608C28.5551 33.4431 28.5595 33.4238 28.5595 33.4042C28.5595 33.3846 28.5551 33.3652 28.5467 33.3475L28.6608 33.1398L27.4626 33.9895C27.213 34.191 26.9203 34.333 26.6068 34.405L23.7921 35.0281C23.6259 35.0857 23.4449 35.0857 23.2787 35.0281L22.7652 34.8204C22.7055 34.7932 22.6406 34.7792 22.575 34.7792C22.5093 34.7792 22.4445 34.7932 22.3848 34.8204L19.7983 35.4247C19.7983 35.4247 20.6542 34.6505 20.7302 34.6127C20.8189 34.5293 20.9323 34.4763 21.0535 34.4616L23.2026 33.6497C23.2665 33.6273 23.3222 33.5867 23.3628 33.533C23.4035 33.4792 23.4271 33.4146 23.4308 33.3475C23.4308 32.8377 23.621 31.8935 23.7161 31.4592C23.7218 31.3951 23.7419 31.333 23.7748 31.2774C23.8076 31.2219 23.8526 31.1744 23.9063 31.1382L26.0553 29.3632L26.4547 28.8911C25.4087 29.4954 23.5259 30.5906 22.6511 31.1949C22.2925 31.4103 21.9494 31.6501 21.6241 31.9124L21.491 32.0257L19.8364 34.1406Z" fill="white"/>
<path d="M18.2773 14.9365V9.00723C20.8258 8.78063 23.3742 8.5918 25.8846 8.44073V9.40377C23.6785 9.53595 21.4534 9.7059 19.2473 9.87585V11.3676C21.2125 11.204 23.1713 11.0529 25.1239 10.9144V11.8963C23.2221 12.0096 21.2061 12.1607 19.2473 12.3306V13.8791C21.4534 13.6902 23.6785 13.5392 25.8846 13.3881V14.37C23.3742 14.5211 20.8258 14.7099 18.2773 14.9365Z" fill="white"/>
<path d="M7.91016 16.0318V10.1025C9.81197 9.85699 11.923 9.63039 13.9389 9.42268C14.2285 9.37408 14.5242 9.37408 14.8137 9.42268C15.0412 9.4856 15.25 9.60221 15.4223 9.76257C15.5749 9.91956 15.6803 10.1158 15.7266 10.3291C15.7472 10.5237 15.7472 10.7199 15.7266 10.9144V11.6131C15.7454 11.8204 15.7454 12.029 15.7266 12.2363C15.6679 12.4562 15.5644 12.6619 15.4223 12.8405C15.2532 13.0354 15.0374 13.1848 14.7947 13.2748C14.5236 13.3925 14.2341 13.4628 13.9389 13.4825C12.2463 13.6525 10.5727 13.8413 8.88008 14.049V15.9373L7.91016 16.0318ZM8.88008 13.1049C10.6678 12.8783 12.4555 12.6895 14.2432 12.5006C14.3963 12.4868 14.539 12.4176 14.6442 12.3062C14.7494 12.1948 14.8097 12.049 14.8137 11.8964V10.8578C14.8142 10.7858 14.7993 10.7145 14.77 10.6487C14.7407 10.5828 14.6977 10.5238 14.6438 10.4757C14.5899 10.4275 14.5263 10.3912 14.4573 10.3692C14.3882 10.3472 14.3153 10.3399 14.2432 10.3479L8.88008 10.9522V13.1049Z" fill="white"/>
<path d="M62 14.4833C61.6851 14.4777 61.3721 14.4333 61.0681 14.3511C60.8105 14.2927 60.5698 14.1764 60.3645 14.0112C60.1671 13.856 60.0213 13.6455 59.9461 13.407C59.9149 13.1751 59.9149 12.9402 59.9461 12.7083V10.0647C59.9138 9.83921 59.9138 9.61034 59.9461 9.38488C60.0178 9.1549 60.1651 8.95544 60.3645 8.81839C60.5533 8.69587 60.7681 8.61832 60.9921 8.59179C61.302 8.56185 61.6141 8.56185 61.924 8.59179L65.8987 8.89392C66.2145 8.90565 66.5275 8.95639 66.8306 9.04498C67.0926 9.10172 67.3352 9.22539 67.5343 9.40376C67.7283 9.56981 67.8729 9.78526 67.9527 10.0269C67.9838 10.2588 67.9838 10.4937 67.9527 10.7256V13.3692C67.984 13.5947 67.984 13.8235 67.9527 14.049C67.876 14.2714 67.7293 14.4634 67.5343 14.5966C67.3231 14.7307 67.0809 14.8087 66.8306 14.8232C66.5212 14.8611 66.2082 14.8611 65.8987 14.8232L62 14.4833ZM61.4105 9.49818C61.3399 9.49297 61.269 9.5023 61.2023 9.52558C61.1355 9.54887 61.0743 9.5856 61.0225 9.63347C60.9707 9.68134 60.9295 9.73932 60.9013 9.80378C60.8732 9.86823 60.8587 9.93777 60.8589 10.008V12.8971C60.8629 13.0448 60.9213 13.1858 61.0229 13.2937C61.1245 13.4015 61.2624 13.4687 61.4105 13.4825H61.9049H62.019L65.9558 13.7846H66.4883C66.5595 13.7929 66.6317 13.7857 66.6998 13.7636C66.7679 13.7414 66.8303 13.7048 66.8828 13.6563C66.9353 13.6078 66.9765 13.5486 67.0036 13.4827C67.0307 13.4168 67.0431 13.3459 67.0398 13.2748V10.4801C67.0405 10.3292 66.9843 10.1835 66.8822 10.0717C66.7802 9.95984 66.6396 9.88999 66.4883 9.87584C64.7957 9.72477 63.1221 9.61147 61.4105 9.49818Z" fill="white"/>
<path d="M73.5814 15.5219V10.4801L70.082 10.1213V9.1394C72.7446 9.40377 75.4071 9.7059 78.0506 10.0269V11.0088C76.8905 10.8578 75.7304 10.7067 74.5513 10.5934V15.5408L73.5814 15.5219Z" fill="white"/>
<path d="M49.6758 13.9357V7.98755C52.2115 8.06308 54.7473 8.1575 57.283 8.27079V9.25272C55.0579 9.13942 52.8518 9.045 50.6267 8.98835V10.4801L56.5223 10.7067V11.6697C54.6205 11.5753 52.5856 11.4998 50.6267 11.462V13.0104C52.8518 13.0104 55.0579 13.1426 57.283 13.2559V14.2567C54.76 14.1057 52.2242 13.9987 49.6758 13.9357Z" fill="white"/>
<path d="M41.2315 13.8602C40.9154 13.8929 40.5967 13.8929 40.2806 13.8602C40.0293 13.8137 39.7899 13.7174 39.5769 13.5769C39.3862 13.4273 39.2467 13.2229 39.1776 12.9916C39.114 12.7705 39.0819 12.5417 39.0825 12.3118V9.61149C39.0661 9.37936 39.0963 9.14631 39.1714 8.92587C39.2465 8.70544 39.3649 8.50202 39.5199 8.32744C39.9633 8.01818 40.501 7.87135 41.0413 7.91201H46.7468V8.89393C44.7308 8.89393 42.7149 8.89393 40.68 8.89393C40.6059 8.89389 40.5326 8.90865 40.4644 8.93735C40.3963 8.96604 40.3346 9.00807 40.2831 9.06094C40.2316 9.11381 40.1914 9.17643 40.1649 9.24506C40.1383 9.3137 40.1259 9.38694 40.1285 9.46042V12.3684C40.1258 12.441 40.1382 12.5134 40.165 12.5811C40.1918 12.6487 40.2323 12.7101 40.2841 12.7615C40.3358 12.8129 40.3977 12.8532 40.4658 12.8797C40.5339 12.9063 40.6068 12.9187 40.68 12.916H46.1572V11.3676H42.9622V10.4046H47.1081V13.8791C45.1683 13.8413 43.1904 13.8413 41.2315 13.8602Z" fill="white"/>
<path d="M30.5618 14.1057C30.2519 14.1356 29.9398 14.1356 29.6299 14.1057C29.3785 14.0705 29.1381 13.9802 28.9262 13.8413C28.7289 13.7022 28.5821 13.5035 28.5078 13.2748C28.4766 13.0493 28.4766 12.8206 28.5078 12.595V8.28969H29.4778V12.6895C29.4776 12.7597 29.492 12.8292 29.5201 12.8937C29.5483 12.9581 29.5895 13.0161 29.6413 13.064C29.6931 13.1119 29.7543 13.1486 29.8211 13.1719C29.8878 13.1952 29.9587 13.2045 30.0293 13.1993C31.7029 13.1993 33.3574 13.0671 35.031 13.0293C35.1807 13.0197 35.3211 12.9538 35.4236 12.8451C35.526 12.7363 35.5829 12.5929 35.5826 12.444V8.02533H36.5715V12.3684C36.6046 12.5938 36.6046 12.8228 36.5715 13.0482C36.5034 13.2901 36.3562 13.5027 36.1531 13.6525C35.946 13.8109 35.7054 13.9206 35.4494 13.9735C35.1419 14.0303 34.8303 14.0619 34.5176 14.0679L30.5618 14.1057Z" fill="white"/>
<path d="M85.714 3.66333C57.4437 -1.22266 28.5358 -1.22266 0.265517 3.66333C0.056318 9.44155 -0.190918 18.3921 0.265517 25.9831C1.19741 42.9779 4.963 56.045 12.0948 67.3371C19.5873 78.994 30.3126 88.253 42.9802 94C55.6794 88.2706 66.4338 79.0093 73.9418 67.3371C81.0736 56.0072 84.8391 42.9213 85.752 25.9831C86.1704 18.3921 85.9232 9.44155 85.714 3.66333ZM84.1165 25.8887C83.2036 42.5814 79.5331 55.4219 72.5534 66.4685C65.3596 77.6639 55.1012 86.5918 42.9802 92.2061C30.8733 86.5859 20.6287 77.6585 13.4451 66.4685C6.44641 55.4219 2.77591 42.5814 1.86304 25.8887C1.55875 20.4693 1.55875 13.6336 1.86304 5.11733C29.0888 0.560298 56.8907 0.560298 84.1165 5.11733C84.4208 13.6336 84.4208 20.4693 84.1165 25.8887Z" fill="white"/>
</g>
<defs>
<clipPath id="clip0_2929_5">
<rect width="86" height="94" fill="white"/>
</clipPath>
</defs>
</svg>
