<svg width="61" height="54" viewBox="0 0 61 54" fill="none" xmlns="http://www.w3.org/2000/svg">
<g clip-path="url(#clip0_2929_4587)">
<path d="M60.9994 53.8511V52.1745H56.0698V45.651H54.2201V53.8607L60.9994 53.8511ZM36.1655 53.8511H43.1786V52.2274H38.0106V50.4548H42.6541V48.9416H38.0106V47.265H43.1404V45.651H36.1561L36.1655 53.8511ZM20.9096 49.7438V47.1978H23.589C23.8971 47.183 24.205 47.2304 24.4947 47.3371C24.6922 47.4146 24.8538 47.5636 24.9477 47.755C25.041 47.9748 25.085 48.2127 25.0765 48.4516C25.0947 48.6333 25.0723 48.8169 25.0113 48.9889C24.9503 49.1609 24.852 49.3171 24.7236 49.446C24.3913 49.6753 23.9901 49.7806 23.589 49.7438H20.9096ZM19.0551 45.6413V53.8511H20.9096V51.3147H23.6986C24.5449 51.3734 25.3858 51.1396 26.0823 50.6518C26.6163 50.2098 26.8785 49.4892 26.8785 48.49C26.9084 47.903 26.7851 47.3183 26.5209 46.7943C26.2844 46.3824 25.9114 46.0677 25.4673 45.9056C24.89 45.7112 24.2831 45.6218 23.6747 45.6413H19.0551ZM3.10308 52.0641C2.71852 51.9006 2.40766 51.5994 2.2306 51.2186C2.04277 50.7624 1.95336 50.2711 1.96836 49.7774C1.95234 49.2846 2.03841 48.7938 2.22105 48.3363C2.396 47.9545 2.70516 47.6516 3.08877 47.486C3.6166 47.2713 4.18394 47.173 4.75262 47.1978C5.32783 47.1721 5.9022 47.2653 6.44033 47.4716C6.82212 47.6341 7.12874 47.9361 7.2985 48.3171C7.48631 48.7833 7.57407 49.2842 7.55596 49.7871C7.57533 50.2915 7.48754 50.7943 7.2985 51.2619C7.12104 51.6402 6.80992 51.9382 6.42601 52.0977C5.89378 52.3082 5.32389 52.4047 4.75262 52.3811C4.18996 52.4047 3.62851 52.3115 3.10308 52.1073V52.0641ZM7.432 53.5725C8.10259 53.2863 8.6559 52.7778 9.00041 52.1313C9.36641 51.3979 9.5435 50.5835 9.51533 49.7631C9.54352 48.9442 9.3664 48.1313 9.00041 47.3996C8.65317 46.7608 8.09986 46.2608 7.432 45.9824C6.5818 45.6361 5.66917 45.4725 4.75262 45.502C3.84066 45.4718 2.93257 45.6355 2.08755 45.9824C1.42542 46.2642 0.877573 46.7638 0.533344 47.3996C0.16735 48.1313 -0.00965328 48.9442 0.0185344 49.7631C-0.00963622 50.5835 0.167345 51.3979 0.533344 52.1313C0.874845 52.7749 1.4227 53.2829 2.08755 53.5725C2.93802 53.9178 3.85045 54.0814 4.76693 54.0529C5.67862 54.0792 6.58593 53.9157 7.432 53.5725Z" fill="#1A171B"/>
<path d="M53.536 20.4211L49.0735 20.1329L48.5301 20.0993C48.573 19.6189 48.5968 19.0953 48.5968 18.586C48.588 13.6608 46.6413 8.94001 43.1837 5.45866C39.726 1.97731 35.0394 0.019483 30.1514 0.0144043C25.9801 0.0186537 21.9331 1.4452 18.6688 4.0619C15.4045 6.6786 13.1151 10.3314 12.1732 14.4259H8.097C7.98758 14.4255 7.87958 14.4505 7.78122 14.4988C7.68287 14.5471 7.59681 14.6175 7.5297 14.7046L6.4903 16.1457C6.44151 16.2089 6.41474 16.2866 6.41406 16.3667C6.41406 16.4622 6.45176 16.5539 6.51882 16.6214C6.58587 16.689 6.67679 16.727 6.77162 16.727L11.215 17.0056L11.7727 17.0392C11.7298 17.5196 11.706 18.048 11.706 18.562C11.7123 23.4894 13.6577 28.2132 17.1155 31.6974C20.5734 35.1815 25.2613 37.1418 30.1514 37.1481C34.3266 37.1424 38.3766 35.7117 41.6414 33.0893C44.9063 30.467 47.1933 26.8076 48.1296 22.7078H52.2058C52.3152 22.7078 52.423 22.6827 52.5213 22.6344C52.6196 22.5861 52.7058 22.5159 52.7731 22.4291L53.8172 20.988C53.8628 20.9234 53.8878 20.8463 53.8887 20.767C53.8894 20.7199 53.8807 20.6732 53.8633 20.6295C53.8458 20.5858 53.82 20.5461 53.7871 20.5125C53.7543 20.479 53.7151 20.4524 53.672 20.4342C53.6289 20.4161 53.5827 20.4067 53.536 20.4067V20.4211ZM30.1753 2.15212C34.4993 2.15721 38.6448 3.89026 41.7023 6.97112C44.7599 10.052 46.4798 14.2291 46.4848 18.586C46.4848 19.0664 46.4848 19.5084 46.4228 19.9648L32.7878 19.0905L38.7042 15.0072C38.7455 14.9779 38.7793 14.9391 38.8025 14.8939C38.8257 14.8488 38.8378 14.7986 38.8377 14.7478C38.8365 14.6658 38.8033 14.5876 38.7453 14.5301C38.6874 14.4726 38.6093 14.4403 38.5279 14.4404H14.3996C15.3137 10.9236 17.3577 7.81066 20.2124 5.58764C23.0672 3.36463 26.5721 2.1566 30.18 2.15212H30.1753ZM30.18 35.02C25.856 35.0149 21.7105 33.2819 18.653 30.201C15.5954 27.1201 13.8755 22.943 13.8705 18.586C13.8705 18.1057 13.8704 17.6541 13.9324 17.1978L27.5675 18.0528L21.6653 22.1649C21.6241 22.1931 21.5904 22.2311 21.5671 22.2755C21.5439 22.3199 21.5317 22.3693 21.5317 22.4195C21.5317 22.4605 21.5398 22.5011 21.5554 22.539C21.5709 22.5769 21.5938 22.6113 21.6225 22.6403C21.6513 22.6693 21.6855 22.6923 21.7231 22.708C21.7607 22.7237 21.801 22.7318 21.8417 22.7318H45.9651C45.0494 26.2485 43.0043 29.3611 40.1489 31.584C37.2935 33.8068 33.7883 35.0149 30.18 35.02Z" fill="#1A171B"/>
</g>
<defs>
<clipPath id="clip0_2929_4587">
<rect width="61" height="54" fill="white"/>
</clipPath>
</defs>
</svg>
