<svg width="111" height="34" viewBox="0 0 111 34" fill="none" xmlns="http://www.w3.org/2000/svg">
<path d="M1.81366 17.4281L0 16.5746L1.81366 15.7172C1.81366 15.9978 1.78618 16.2862 1.78618 16.5746C1.78618 16.863 1.78618 17.1475 1.81366 17.4281ZM17.5556 31.3448L16.6919 33.1414L15.8322 31.3448C16.1149 31.3448 16.4054 31.372 16.6919 31.372C16.9785 31.372 17.269 31.372 17.5556 31.3448ZM31.5702 17.4281C31.5898 17.1475 31.5977 16.8591 31.5977 16.5746C31.5977 16.2901 31.5977 15.9978 31.5702 15.7172L33.3839 16.5746L31.5702 17.4281ZM16.6919 1.7732C16.9824 1.7732 17.269 1.7732 17.5556 1.80048L16.6919 0L15.8322 1.80048C16.1149 1.80048 16.4054 1.7732 16.6919 1.7732ZM30.259 18.7531L29.0813 19.0181L30.0745 19.7118C29.7349 21.1349 29.1662 22.4943 28.3904 23.7375L27.2127 23.5349L27.8605 24.5481C26.9968 25.7328 25.9486 26.7734 24.7553 27.6308L23.7032 26.9722L23.9112 28.1608C22.6592 28.9306 21.2897 29.4939 19.856 29.8288L19.1533 28.8467L18.8864 30.0158C17.4329 30.2496 15.951 30.2496 14.4975 30.0158L14.2305 28.8467L13.5278 29.8288C12.0942 29.4939 10.7247 28.9306 9.47264 28.1608L9.68069 26.9722L8.6561 27.6152C7.4636 26.7568 6.41555 25.7164 5.55089 24.5325L6.19862 23.5193L5.02093 23.7219C4.24352 22.4795 3.67473 21.1198 3.33682 19.6962L4.33001 19.0025L3.15231 18.7375C2.91672 17.2933 2.91672 15.8208 3.15231 14.3766L4.33001 14.1116L3.33682 13.4179C3.67546 11.9932 4.24418 10.6324 5.02093 9.38823L6.19862 9.59478L5.55089 8.58152C6.41555 7.39768 7.4636 6.35725 8.6561 5.49887L9.68069 6.13801L9.47264 4.96886C10.7247 4.19902 12.0942 3.63573 13.5278 3.30089L14.2305 4.28686L14.4975 3.11772C15.951 2.88392 17.4329 2.88392 18.8864 3.11772L19.1533 4.28686L19.856 3.30089C21.2897 3.63573 22.6592 4.19902 23.9112 4.96886L23.7032 6.13801L24.7278 5.49887C25.9211 6.35624 26.9693 7.39683 27.833 8.58152L27.1852 9.59478L28.3629 9.38823C29.1381 10.6332 29.7067 11.9938 30.047 13.4179L29.0696 14.1116L30.2473 14.3766C30.4829 15.8208 30.4829 17.2933 30.2473 18.7375L30.259 18.7531Z" fill="#003375"/>
<path d="M10.2082 29.891L10.3103 31.8824L11.8021 30.5457C11.2585 30.3581 10.7264 30.1395 10.2082 29.891ZM5.56809 26.3836L4.89289 28.2698L6.79683 27.5995C6.36312 27.2189 5.95281 26.8129 5.56809 26.3836ZM2.61992 21.4147L1.27734 22.8956L3.27944 22.9969C3.03075 22.4818 2.81058 21.9536 2.61992 21.4147ZM30.0996 22.9969L32.1017 22.8956L30.7591 21.4147C30.5684 21.9536 30.3483 22.4818 30.0996 22.9969ZM26.5861 27.5995L28.4822 28.2698L27.8109 26.3836C27.4255 26.811 27.0166 27.2169 26.5861 27.5995ZM21.5927 30.5457L23.0844 31.8824L23.1904 29.891C22.6706 30.1388 22.1372 30.3574 21.5927 30.5457ZM23.1904 3.26568L23.0844 1.27423L21.5927 2.61095C22.1379 2.79751 22.6714 3.01615 23.1904 3.26568ZM27.8266 6.75362L28.4979 4.8674L26.5979 5.53771C27.0294 5.91929 27.4383 6.32527 27.8227 6.75362H27.8266ZM30.7748 11.7225L32.1174 10.2416L30.1153 10.1402C30.364 10.6553 30.5841 11.1835 30.7748 11.7225ZM11.8021 2.61095L10.3103 1.27423L10.2082 3.26568C10.7256 3.01552 11.2579 2.79686 11.8021 2.61095ZM3.28336 10.1402L1.27734 10.2416L2.61992 11.7225C2.81022 11.1828 3.03174 10.6545 3.28336 10.1402ZM5.56809 6.75362L4.89289 4.8674L6.79291 5.53771C6.35825 5.91725 5.94788 6.32334 5.56417 6.75362H5.56809ZM16.6974 18.6828C17.116 18.6828 17.5253 18.5595 17.8733 18.3285C18.2214 18.0975 18.4926 17.7692 18.6526 17.3852C18.8126 17.0011 18.8543 16.5786 18.7723 16.171C18.6904 15.7634 18.4885 15.3891 18.1922 15.0955C17.8958 14.8019 17.5185 14.6022 17.1077 14.5216C16.697 14.4409 16.2715 14.4831 15.8849 14.6427C15.4983 14.8023 15.1681 15.0721 14.9361 15.4181C14.7041 15.764 14.5807 16.1705 14.5814 16.5861C14.5825 17.1426 14.8059 17.6758 15.2026 18.0689C15.5993 18.462 16.1369 18.6828 16.6974 18.6828ZM20.4267 18.8699C20.3679 18.9556 20.3129 19.0452 20.2501 19.131L22.6958 21.7226C22.4433 22.0142 22.169 22.2864 21.8753 22.5371L19.2608 20.1092C19.1745 20.1715 19.0881 20.23 18.9978 20.2845L20.2579 23.6127C19.9116 23.7854 19.5534 23.9338 19.1862 24.057L17.7063 20.8184C17.3757 20.8967 17.0372 20.9372 16.6974 20.9392C16.3576 20.9368 16.0191 20.8962 15.6885 20.8184L14.2085 24.057C13.8415 23.9331 13.4835 23.7847 13.1368 23.6127L14.3969 20.2845C14.3066 20.23 14.2203 20.1715 14.1339 20.1092L11.5233 22.5371C11.2284 22.2865 10.9528 22.0142 10.6989 21.7226L13.1446 19.131L12.9719 18.8699L9.61939 20.1208C9.44214 19.7772 9.29251 19.4201 9.17186 19.053L12.4341 17.5877C12.2718 16.9284 12.2718 16.24 12.4341 15.5807L9.16794 14.1114C9.28858 13.7444 9.43822 13.3873 9.61546 13.0436L12.968 14.2985C13.0229 14.2089 13.0818 14.1192 13.1407 14.0374L10.695 11.4419C10.9489 11.1503 11.2244 10.878 11.5194 10.6274L14.13 13.0553C14.2163 12.993 14.3027 12.9345 14.393 12.8799L13.1329 9.55177C13.4788 9.37815 13.837 9.22968 14.2046 9.1075L15.6845 12.346L15.9947 12.2837L16.1124 8.73338C16.3048 8.73338 16.505 8.71 16.6934 8.71C16.8819 8.71 17.086 8.71 17.2744 8.73338L17.3922 12.2837L17.7023 12.346L19.1823 9.1075C19.5502 9.22896 19.9084 9.37746 20.254 9.55177L18.9939 12.8799C19.0842 12.9345 19.1705 12.993 19.2569 13.0553L21.8675 10.604C22.1634 10.8536 22.439 11.1259 22.6919 11.4185L20.2462 14.014C20.3051 14.0959 20.3639 14.1855 20.4228 14.2751L23.7753 13.0202C23.9496 13.3648 24.0979 13.7217 24.2189 14.0881L20.9606 15.5534C21.1177 16.2133 21.1177 16.9005 20.9606 17.5604L24.2189 19.0257C24.0979 19.3921 23.9496 19.749 23.7753 20.0936L20.415 18.8582L20.4267 18.8699ZM16.6974 26.7187C18.7161 26.7187 20.6894 26.1244 22.3679 25.0111C24.0464 23.8977 25.3546 22.3152 26.1272 20.4637C26.8997 18.6122 27.1018 16.5749 26.708 14.6094C26.3141 12.6438 25.3421 10.8384 23.9146 9.4213C22.4872 8.00424 20.6685 7.0392 18.6886 6.64824C16.7087 6.25727 14.6565 6.45793 12.7914 7.22484C10.9264 7.99175 9.3323 9.29047 8.21077 10.9568C7.08924 12.6231 6.49063 14.5821 6.49063 16.5861C6.49063 19.2735 7.56598 21.8507 9.48011 23.751C11.3942 25.6512 13.9904 26.7187 16.6974 26.7187ZM16.6974 27.919C14.4384 27.9198 12.23 27.2555 10.3514 26.0101C8.47283 24.7647 7.00852 22.9941 6.1437 20.9224C5.27888 18.8507 5.0524 16.571 5.49291 14.3715C5.93342 12.172 7.02113 10.1516 8.61845 8.5659C10.2158 6.98019 12.2509 5.90038 14.4665 5.46307C16.6821 5.02576 18.9786 5.25059 21.0654 6.10913C23.1523 6.96767 24.9357 8.42134 26.1903 10.2863C27.4448 12.1512 28.114 14.3436 28.1132 16.5861C28.1101 19.5909 26.9063 22.4716 24.7661 24.5963C22.6259 26.7209 19.7241 27.9159 16.6974 27.919Z" fill="#FDBA4D"/>
<path d="M17.6375 16.5745C17.6375 16.7611 17.5817 16.9434 17.4773 17.0985C17.373 17.2536 17.2246 17.3745 17.051 17.4458C16.8774 17.5172 16.6864 17.5359 16.5021 17.4995C16.3178 17.4631 16.1485 17.3733 16.0157 17.2414C15.8828 17.1095 15.7923 16.9415 15.7557 16.7585C15.719 16.5756 15.7378 16.3859 15.8097 16.2136C15.8816 16.0413 16.0034 15.894 16.1596 15.7903C16.3159 15.6867 16.4995 15.6314 16.6874 15.6314C16.9394 15.6314 17.181 15.7308 17.3592 15.9076C17.5374 16.0845 17.6375 16.3244 17.6375 16.5745ZM16.6874 19.8247C16.039 19.8247 15.405 19.6338 14.8659 19.2761C14.3268 18.9183 13.9066 18.4099 13.6587 17.815C13.4107 17.2202 13.346 16.5657 13.4728 15.9343C13.5996 15.303 13.9122 14.7232 14.371 14.2682C14.8298 13.8133 15.4142 13.5037 16.0504 13.3786C16.6865 13.2534 17.3457 13.3184 17.9446 13.5653C18.5435 13.8122 19.0551 14.2299 19.4149 14.7656C19.7746 15.3012 19.9661 15.9308 19.9654 16.5745C19.9633 17.4366 19.6172 18.2627 19.0028 18.8719C18.3884 19.4811 17.5558 19.8237 16.6874 19.8247ZM17.3666 25.5692L17.5236 20.8926C18.3988 20.7269 19.2037 20.3039 19.8337 19.6785C20.4638 19.053 20.8899 18.254 21.0567 17.3851L25.7675 17.2292C25.6012 19.3818 24.6643 21.4041 23.1263 22.9303C21.5882 24.4564 19.5506 25.3856 17.3823 25.5497L17.3666 25.5692ZM7.62307 17.2487L12.3339 17.4046C12.5007 18.2735 12.9268 19.0725 13.5568 19.698C14.1869 20.3234 14.9917 20.7464 15.867 20.9121L16.024 25.5886C13.8557 25.4246 11.8181 24.4954 10.28 22.9692C8.74197 21.4431 7.80504 19.4207 7.63878 17.2682L7.62307 17.2487ZM16.6874 7.54872C18.9797 7.55099 21.1866 8.41197 22.8671 9.95959C24.5475 11.5072 25.5778 13.6274 25.7518 15.8964L21.041 15.7444C20.8476 14.7377 20.3067 13.8295 19.5113 13.1762C18.7159 12.523 17.7158 12.1655 16.6835 12.1655C15.6512 12.1655 14.6512 12.523 13.8558 13.1762C13.0604 13.8295 12.5194 14.7377 12.326 15.7444L7.61523 15.8964C7.78832 13.6277 8.81772 11.5076 10.4976 9.95988C12.1774 8.41219 14.3839 7.55106 16.6757 7.54872H16.6874ZM16.6874 6.37958C14.6596 6.37958 12.6773 6.97648 10.9911 8.09483C9.30497 9.21318 7.99071 10.8028 7.2145 12.6626C6.4383 14.5224 6.23501 16.5689 6.63034 18.5434C7.02566 20.5179 8.00186 22.3317 9.4355 23.7554C10.8691 25.1792 12.6958 26.149 14.6846 26.5422C16.6734 26.9354 18.735 26.7344 20.6087 25.9646C22.4824 25.1947 24.0841 23.8906 25.2113 22.2171C26.3385 20.5436 26.9405 18.576 26.9413 16.5628C26.9382 13.8637 25.857 11.2759 23.9348 9.36697C22.0126 7.45802 19.4063 6.3837 16.6874 6.37958Z" fill="white"/>
<path d="M62.9336 19.891H66.3882V17.6501H62.9336V19.891Z" fill="#FDBA4D"/>
<path d="M72.0007 17.6502L73.571 12.6657L75.1413 17.6502H72.0007ZM75.2158 9.82469H71.8986L66.7639 23.3088H70.2263L71.298 19.891H75.8282L76.896 23.3088H80.3506L75.2158 9.82469ZM104.698 21.3408C104.354 21.364 104.01 21.3017 103.696 21.1595C103.383 21.0172 103.111 20.7996 102.904 20.5263C102.648 20.1599 102.393 19.6728 102.393 17.9931C102.393 16.3134 102.648 15.8224 102.904 15.4561C103.128 15.2013 103.404 14.9972 103.714 14.8573C104.024 14.7174 104.361 14.645 104.702 14.645C105.042 14.645 105.379 14.7174 105.689 14.8573C105.999 14.9972 106.275 15.2013 106.499 15.4561C106.751 15.8224 107.002 16.3134 107.002 17.9931C107.002 19.6728 106.751 20.1599 106.499 20.5263C106.291 20.7997 106.017 21.0173 105.702 21.1594C105.388 21.3016 105.042 21.3639 104.698 21.3408ZM110.001 17.9931C110.001 16.6447 109.785 15.004 108.521 13.8076C107.427 12.9686 106.083 12.5135 104.7 12.5135C103.317 12.5135 101.973 12.9686 100.878 13.8076C99.6139 15.004 99.3979 16.6447 99.3979 17.9931C99.3979 19.3454 99.6139 20.9861 100.878 22.1826C101.973 23.0216 103.317 23.4767 104.7 23.4767C106.083 23.4767 107.427 23.0216 108.521 22.1826C109.785 20.9861 110.001 19.3454 110.001 17.9931ZM98.6913 14.7936H96.1789V23.2932H93.2582V14.7858H90.7497V12.7008H99.3194L98.6756 14.7858L98.6913 14.7936ZM85.7719 21.2239C85.9954 21.2443 86.2208 21.217 86.4327 21.1437C86.6447 21.0705 86.8384 20.9529 87.0007 20.7991C87.1934 20.5663 87.2901 20.2697 87.2716 19.969C87.291 19.7835 87.2575 19.5964 87.1749 19.4289C87.0923 19.2614 86.9639 19.1204 86.8044 19.022C86.4852 18.8619 86.1288 18.7892 85.7719 18.8115H84.0761V21.2239H85.7719ZM85.6385 16.785C86.068 16.8238 86.4985 16.7211 86.8633 16.4927C86.9516 16.4007 87.0198 16.2916 87.0638 16.1723C87.1077 16.0529 87.1263 15.9258 87.1185 15.799C87.1272 15.6576 87.1035 15.5161 87.0491 15.3851C86.9947 15.2541 86.911 15.1372 86.8044 15.043C86.4935 14.8431 86.1257 14.7488 85.7563 14.7741H84.0761V16.785H85.6385ZM86.5139 12.7086C87.4575 12.6514 88.3862 12.9633 89.1009 13.5776C89.3402 13.8118 89.5291 14.0918 89.656 14.4006C89.7828 14.7095 89.8451 15.0407 89.8389 15.3742C89.8574 15.9165 89.6853 16.4484 89.3522 16.8785C89.087 17.2345 88.7226 17.5055 88.304 17.658C88.7262 17.8 89.1159 18.0239 89.4503 18.3166C89.7204 18.5675 89.9331 18.873 90.074 19.2125C90.2148 19.5521 90.2806 19.9177 90.2668 20.2846C90.2979 20.78 90.1863 21.274 89.9451 21.7087C89.7039 22.1435 89.343 22.5011 88.9046 22.7398C88.053 23.1336 87.1189 23.3193 86.1802 23.2816H81.2614V12.7008L86.5139 12.7086ZM65.2172 12.7086L64.7147 14.8325H60.7694V23.2932H57.8644V12.7008L65.2172 12.7086ZM48.8707 21.0836C45.9225 21.0836 44.8587 19.1155 44.8508 16.5784C44.843 14.0414 45.9225 12.0772 48.8707 12.0772C51.8189 12.0772 52.8866 14.0258 52.8945 16.5784C52.9023 19.1311 51.8228 21.0836 48.8707 21.0836ZM56.1371 16.5473C56.1371 11.9564 53.6796 9.55579 48.8628 9.55579C44.5721 9.55579 42.1696 11.4732 41.6867 15.1404H40.0576V9.85976H37.1055V23.2854H40.0576V17.4397H41.6278C41.9262 21.4928 44.3523 23.605 48.8668 23.605C53.6836 23.605 56.1253 21.2005 56.141 16.6135C56.141 16.6135 56.141 16.6135 56.141 16.5862C56.141 16.559 56.141 16.5862 56.141 16.5629L56.1371 16.5473Z" fill="#003375"/>
</svg>
