<svg width="0" height="0" class="hidden">
    <symbol fill="none" xmlns="http://www.w3.org/2000/svg" viewBox="0 0 129 41" id="ya-logo-black">
        <g clip-path="url(#clip0_2816_15912)">
            <path d="M77.9714 21.2046H73.9453V23.9288H77.9714V21.2046Z" fill="#333333"></path>
            <path d="M105.001 22.3154C104.608 21.9624 104.154 21.6906 103.662 21.5146C104.153 21.3242 104.579 20.989 104.887 20.5507C105.277 20.0261 105.477 19.3778 105.456 18.7169C105.461 18.3113 105.388 17.9087 105.24 17.5332C105.091 17.1577 104.871 16.8171 104.592 16.532C104.048 15.9912 103.091 15.4725 101.569 15.4725H95.418V28.359H101.184C102.276 28.359 103.524 28.1929 104.365 27.6992C105.181 27.2305 105.954 26.3356 105.954 24.7134C105.958 23.7966 105.681 22.9737 105.001 22.3154ZM98.7241 17.994H100.684C101.069 17.994 101.569 18.0439 101.912 18.3261C102.036 18.4399 102.133 18.5813 102.196 18.7397C102.259 18.898 102.286 19.0691 102.276 19.24C102.286 19.395 102.264 19.5504 102.213 19.6963C102.161 19.8422 102.081 19.9756 101.978 20.0878C101.638 20.3935 101.049 20.4405 100.546 20.4405H98.7241V17.994ZM102.132 25.332C101.725 25.8243 101.045 25.8507 100.702 25.8507H98.7141V22.912H100.702C101.201 22.912 101.611 22.984 101.908 23.1721C102.317 23.4321 102.451 23.8068 102.451 24.3241C102.47 24.6869 102.358 25.0443 102.137 25.3262L102.132 25.332Z" fill="#333333"></path>
            <path d="M84.4987 11.9695L78.5 28.3869H82.546L83.7971 24.2285H89.0872L90.3369 28.3869H94.3701L88.3714 11.9695H84.4987ZM84.6137 21.5029L86.44 15.4329L88.2677 21.5029H84.6137Z" fill="#333333"></path>
            <path d="M57.6039 11.6463C52.5936 11.6463 49.7931 13.9796 49.225 18.4436H47.3235V12.018H43.8711V28.359H47.3235V21.2266H49.1498C49.4963 26.1564 52.3337 28.7292 57.6053 28.7292C63.229 28.7292 66.0821 25.8066 66.1006 20.2186V20.1613C66.0807 14.5718 63.2276 11.6463 57.6039 11.6463ZM57.6039 25.67C54.1614 25.67 52.9174 23.2749 52.9174 20.1892C52.9174 17.1035 54.1671 14.704 57.6039 14.704C61.0406 14.704 62.2903 17.0991 62.3045 20.1892C62.3187 23.2793 61.0506 25.67 57.6039 25.67Z" fill="#333333"></path>
            <path d="M76.6931 15.4725H68.1055V28.359H71.4968V18.0586H76.1051L76.6931 15.4725Z" fill="#333333"></path>
            <path d="M106.496 18.0116H109.432V28.359H112.838V18.0116H115.794L116.541 15.4725H106.496V18.0116Z" fill="#333333"></path>
            <path d="M127.274 16.8082C126.294 15.8663 124.65 15.2316 122.809 15.2316C120.969 15.2316 119.32 15.8663 118.344 16.8082C116.869 18.2658 116.617 20.2598 116.617 21.9055C116.617 23.5482 116.869 25.5466 118.344 27.0027C119.32 27.9417 120.966 28.5779 122.809 28.5779C124.652 28.5779 126.294 27.9417 127.274 27.0027C128.747 25.5466 128.998 23.5482 128.999 21.9055C128.998 20.2598 128.747 18.2658 127.274 16.8082ZM124.907 24.9941C124.338 25.886 123.332 25.9801 122.809 25.9801C122.286 25.9801 121.277 25.886 120.71 24.9941C120.413 24.5533 120.115 23.9508 120.115 21.9084C120.115 19.866 120.413 19.2635 120.71 18.8227C121.278 17.9264 122.282 17.8338 122.809 17.8338C123.336 17.8338 124.343 17.9264 124.907 18.8227C125.203 19.2635 125.496 19.8645 125.5 21.9084C125.504 23.9523 125.203 24.5489 124.907 24.9941Z" fill="#333333"></path>
            <path d="M35.1914 28.0371L37.5346 27.9122L35.9611 26.1078C35.741 26.7659 35.484 27.4101 35.1914 28.0371V28.0371Z" fill="#333333"></path>
            <path d="M35.3673 22.8429C35.5041 21.9654 35.5735 21.0781 35.5746 20.1892C35.5737 19.3003 35.5039 18.4129 35.3658 17.5355L33.977 17.2108L35.14 16.363C34.7437 14.6295 34.079 12.9737 33.1717 11.4597L31.7743 11.7095L32.5312 10.4723C31.522 9.02766 30.2961 7.75926 28.8999 6.71506L27.7042 7.49824L27.947 6.05384C26.4843 5.11407 24.8838 4.42627 23.208 4.01729L22.3886 5.21923L22.0747 3.78072C21.2271 3.63966 20.3699 3.56842 19.5114 3.56766C18.6514 3.56842 17.7929 3.63966 16.9438 3.78072L16.6328 5.21923L15.8119 4.01729C14.136 4.42731 12.5352 5.11504 11.0715 6.05384L11.3143 7.49824L10.12 6.71506C8.72443 7.76004 7.49865 9.02833 6.48868 10.4723L7.24419 11.7095L5.8482 11.4597C4.94037 12.9733 4.27564 14.6293 3.87988 16.363L5.04297 17.2108L3.65266 17.5355C3.5158 18.413 3.44646 19.3004 3.44531 20.1892C3.44646 21.0781 3.5158 21.9654 3.65266 22.8429L5.04297 23.1662L3.87988 24.014C4.27629 25.7478 4.94046 27.404 5.84678 28.9188L7.24419 28.6675L6.48868 29.9048C7.49821 31.3491 8.72405 32.6174 10.12 33.6619L11.3143 32.8788L11.0715 34.3246C12.5359 35.2631 14.1371 35.9508 15.8133 36.3612L16.6328 35.1578L16.9438 36.5948C17.7926 36.7383 18.6513 36.8106 19.5114 36.8108C20.37 36.8103 21.2272 36.7386 22.0747 36.5963L22.3886 35.1578L23.208 36.3612C24.8834 35.9508 26.4836 35.2631 27.947 34.3246L27.7042 32.8788L28.9014 33.6619C30.2981 32.6168 31.5249 31.348 32.5355 29.9033L31.7786 28.6661L33.176 28.9173C34.0807 27.4041 34.7439 25.7499 35.14 24.0184L33.977 23.1706L35.3673 22.8429ZM19.5114 32.5893C16.3337 32.5866 13.2868 31.2796 11.0394 28.9551C8.79202 26.6306 7.52772 23.4786 7.52396 20.1907C7.52735 16.9023 8.79139 13.7496 11.0387 11.4243C13.2861 9.09907 16.3332 7.7912 19.5114 7.7877C22.6891 7.79198 25.7355 9.10019 27.9822 11.4254C30.2289 13.7505 31.4926 16.9028 31.496 20.1907C31.4918 23.4778 30.2278 26.629 27.981 28.9531C25.7343 31.2772 22.6884 32.5843 19.5114 32.5878V32.5893Z" fill="#333333"></path>
            <path d="M19.5122 9.19242C16.8327 9.19591 14.2532 10.2455 12.2891 12.1313C10.3251 14.0172 9.12114 16.6005 8.91797 19.3649L14.4168 19.1768C14.431 19.096 14.4523 19.0196 14.4707 18.9403L10.7145 17.177C10.8572 16.7314 11.0314 16.2973 11.2356 15.8781L15.0927 17.3798C15.1638 17.2622 15.2348 17.1491 15.3143 17.0374L12.4996 13.9267C12.7962 13.5714 13.1175 13.2389 13.461 12.932L16.4674 15.8443C16.5754 15.7635 16.6876 15.6885 16.7983 15.6165L15.3526 11.6242C15.7584 11.4133 16.1785 11.2331 16.6095 11.085L18.3136 14.97C18.4429 14.9377 18.5721 14.9098 18.7042 14.8892L18.8462 10.628C19.0706 10.6104 19.2964 10.6001 19.5264 10.6001C19.7565 10.6001 19.9809 10.6104 20.2038 10.628L20.3458 14.8892C20.4779 14.9098 20.6086 14.9377 20.7378 14.97L22.442 11.085C22.8725 11.2331 23.2921 11.4133 23.6974 11.6242L22.2446 15.618C22.3582 15.69 22.469 15.7649 22.5769 15.8458L25.5833 12.9334C25.9268 13.2403 26.2482 13.5728 26.5448 13.9282L23.73 17.0389C23.8067 17.1506 23.8806 17.2637 23.9502 17.3812L27.8087 15.8795C28.0134 16.2987 28.188 16.7329 28.3313 17.1785L24.5736 18.9417C24.5907 19.0211 24.612 19.0975 24.629 19.1783L30.1264 19.3664C29.9236 16.598 28.7171 14.0113 26.7487 12.1245C24.7803 10.2377 22.1955 9.19041 19.5122 9.19242Z" fill="#333333"></path>
            <path d="M2.08619 20.1878C2.08619 19.8381 2.09897 19.4898 2.11743 19.1445L0 20.1863L2.11743 21.231C2.09897 20.8857 2.08619 20.5375 2.08619 20.1878Z" fill="#333333"></path>
            <path d="M1.48438 27.9122L3.82761 28.0371C3.53348 27.4104 3.27551 26.7662 3.05505 26.1078L1.48438 27.9122Z" fill="#333333"></path>
            <path d="M24.5523 21.4353L28.3086 23.1985C28.1653 23.6437 27.9907 24.0773 27.786 24.496L23.9275 22.9899C23.8579 23.1074 23.7855 23.2206 23.7074 23.3337L26.5221 26.4444C26.2254 26.7993 25.9041 27.1313 25.5606 27.4377L22.5542 24.5254C22.4463 24.6062 22.3355 24.6811 22.2219 24.7546L23.6747 28.7469C23.2694 28.9583 22.8498 29.139 22.4193 29.2876L20.7151 25.3997C20.6384 25.4202 20.5632 25.4393 20.4865 25.4555L20.3047 31.1449C22.8396 30.9456 25.2216 29.8134 27.0192 27.9535C28.8168 26.0936 29.911 23.629 30.1037 21.0062L24.6063 21.1928C24.5836 21.2766 24.5694 21.3559 24.5523 21.4353Z" fill="#333333"></path>
            <path d="M6.50302 32.1631L5.71484 34.4613L7.93453 33.6457C7.4304 33.1802 6.95244 32.6852 6.50302 32.1631Z" fill="#333333"></path>
            <path d="M31.0859 33.6457L33.3056 34.4613L32.5174 32.1631C32.0684 32.6856 31.5904 33.1806 31.0859 33.6457Z" fill="#333333"></path>
            <path d="M36.9389 20.1878C36.9389 20.5375 36.929 20.8857 36.9062 21.231L39.0265 20.1863L36.9062 19.1445C36.9233 19.4898 36.9389 19.8381 36.9389 20.1878Z" fill="#333333"></path>
            <path d="M26.9783 38.8385L27.099 36.4126C26.4931 36.7162 25.8705 36.9826 25.2344 37.2105L26.9783 38.8385Z" fill="#333333"></path>
            <path d="M18.3026 25.4026L16.5984 29.2906C16.1703 29.1416 15.7532 28.9609 15.3501 28.7498L16.7959 24.7531C16.6851 24.6797 16.5729 24.6062 16.4664 24.5239L13.4585 27.4362C13.1147 27.1302 12.7933 26.7982 12.4971 26.4429L15.3118 23.3322C15.2351 23.2191 15.1613 23.106 15.0903 22.9884L11.2317 24.4945C11.0269 24.0761 10.8527 23.6424 10.7105 23.1971L14.4654 21.4338C14.4469 21.3545 14.4271 21.2751 14.4129 21.1958L8.91406 21.0092C9.10726 23.6317 10.2017 26.096 11.9992 27.9558C13.7967 29.8156 16.1784 30.948 18.713 31.1479L18.5327 25.4584C18.4546 25.4423 18.3793 25.4217 18.3026 25.4026Z" fill="#333333"></path>
            <path d="M3.82761 12.3369L1.48438 12.4632L3.05505 14.2662C3.27551 13.6079 3.53348 12.9636 3.82761 12.3369V12.3369Z" fill="#333333"></path>
            <path d="M18.5 38.1818L19.5083 40.3755L20.5152 38.1818C20.1829 38.2023 19.8477 38.2156 19.5097 38.2156C19.1717 38.2156 18.8337 38.2023 18.5 38.1818Z" fill="#333333"></path>
            <path d="M12.0451 38.8385L13.7904 37.2105C13.1544 36.9823 12.5318 36.7159 11.9258 36.4126L12.0451 38.8385Z" fill="#333333"></path>
            <path d="M32.5174 8.21088L33.3056 5.91278L31.0859 6.72828C31.5904 7.19342 32.0684 7.68845 32.5174 8.21088V8.21088Z" fill="#333333"></path>
            <path d="M7.93453 6.72828L5.71484 5.91278L6.50302 8.21088C6.95245 7.68882 7.4304 7.19381 7.93453 6.72828V6.72828Z" fill="#333333"></path>
            <path d="M37.5346 12.4632L35.1914 12.3369C35.484 12.964 35.741 13.6081 35.9611 14.2662L37.5346 12.4632Z" fill="#333333"></path>
            <path d="M23.3406 20.1892C23.3406 19.137 22.9367 18.1279 22.2176 17.3839C21.4985 16.6399 20.5232 16.2219 19.5063 16.2219C18.4893 16.2219 17.514 16.6399 16.7949 17.3839C16.0759 18.1279 15.6719 19.137 15.6719 20.1892C15.6719 21.2414 16.0759 22.2505 16.7949 22.9946C17.514 23.7386 18.4893 24.1566 19.5063 24.1566C20.5232 24.1566 21.4985 23.7386 22.2176 22.9946C22.9367 22.2505 23.3406 21.2414 23.3406 20.1892ZM19.5063 21.3368C19.3604 21.337 19.216 21.3075 19.0812 21.2499C18.9464 21.1924 18.8238 21.1079 18.7206 21.0013C18.6173 20.8947 18.5354 20.7682 18.4794 20.6289C18.4234 20.4895 18.3945 20.3401 18.3943 20.1892C18.3941 20.0381 18.4227 19.8884 18.4786 19.7487C18.5344 19.6091 18.6163 19.4821 18.7196 19.3753C18.8228 19.2684 18.9455 19.1837 19.0805 19.1259C19.2155 19.0682 19.3602 19.0385 19.5063 19.0387C19.6521 19.0389 19.7965 19.0688 19.9311 19.1267C20.0658 19.1847 20.1881 19.2695 20.2911 19.3763C20.3941 19.4831 20.4758 19.6099 20.5314 19.7494C20.587 19.8889 20.6156 20.0383 20.6154 20.1892C20.615 20.4925 20.4988 20.7832 20.2921 20.9982C20.0854 21.2132 19.805 21.3349 19.5119 21.3368H19.5063Z" fill="#333333"></path>
            <path d="M26.9783 1.53696L25.2344 3.16356C25.8705 3.39143 26.4931 3.65784 27.099 3.96143L26.9783 1.53696Z" fill="#333333"></path>
            <path d="M12.044 1.53696L11.9219 3.96143C12.5288 3.65799 13.1524 3.39158 13.7894 3.16356L12.044 1.53696Z" fill="#333333"></path>
            <path d="M20.5152 2.19231L19.5083 0L18.5 2.19231C18.8337 2.17321 19.1703 2.15998 19.5097 2.15998C19.8491 2.15998 20.1786 2.17321 20.5152 2.19231Z" fill="#333333"></path>
            <path d="M19.5104 19.0387C19.3643 19.0385 19.2197 19.0681 19.0847 19.1259C18.9497 19.1836 18.827 19.2684 18.7237 19.3752C18.6204 19.4821 18.5385 19.609 18.4827 19.7487C18.4269 19.8884 18.3983 20.0381 18.3984 20.1892C18.3986 20.3401 18.4275 20.4895 18.4835 20.6288C18.5395 20.7682 18.6215 20.8947 18.7247 21.0013C18.828 21.1079 18.9505 21.1923 19.0853 21.2499C19.2201 21.3075 19.3646 21.337 19.5104 21.3368C19.8044 21.3364 20.0863 21.2154 20.2943 21.0003C20.5022 20.7851 20.6192 20.4935 20.6195 20.1892C20.6197 20.0383 20.5912 19.8889 20.5355 19.7494C20.4799 19.6099 20.3983 19.4831 20.2953 19.3763C20.1923 19.2695 20.07 19.1846 19.9353 19.1267C19.8006 19.0688 19.6562 19.0389 19.5104 19.0387Z" fill="white"></path>
            <path d="M19.5109 7.78622C16.3326 7.78972 13.2856 9.09759 11.0382 11.4228C8.79087 13.7481 7.52682 16.9008 7.52344 20.1892C7.5272 23.4771 8.79149 26.6291 11.0389 28.9536C13.2863 31.2781 16.3331 32.5851 19.5109 32.5878C22.6881 32.5843 25.7342 31.277 27.981 28.9526C30.2278 26.6282 31.4917 23.4766 31.4954 20.1892C31.492 16.9013 30.2284 13.7491 27.9817 11.4239C25.7349 9.09871 22.6886 7.7905 19.5109 7.78622V7.78622ZM8.9166 21.0106L14.4154 21.1972C14.4296 21.2766 14.4495 21.3559 14.4679 21.4353L10.7131 23.1985C10.8552 23.6439 11.0295 24.0776 11.2343 24.496L15.0914 22.9899C15.1624 23.1074 15.2334 23.2206 15.3129 23.3337L12.4982 26.4444C12.7945 26.7996 13.1158 27.1316 13.4596 27.4377L16.4675 24.5254C16.574 24.6062 16.6862 24.6811 16.797 24.7546L15.3513 28.7498C15.757 28.9612 16.1771 29.1419 16.6081 29.2905L18.3123 25.4026C18.3889 25.4217 18.4642 25.4422 18.5423 25.4584L18.7227 31.1478C16.187 30.9497 13.8037 29.8182 12.0048 27.9586C10.2059 26.0989 9.11034 23.6341 8.9166 21.0106V21.0106ZM15.6807 20.1892C15.6807 19.137 16.0847 18.1279 16.8038 17.3839C17.5229 16.6399 18.4982 16.2219 19.5151 16.2219C20.5321 16.2219 21.5073 16.6399 22.2264 17.3839C22.9455 18.1279 23.3495 19.137 23.3495 20.1892C23.3495 21.2414 22.9455 22.2505 22.2264 22.9945C21.5073 23.7386 20.5321 24.1565 19.5151 24.1565C18.4982 24.1565 17.5229 23.7386 16.8038 22.9945C16.0847 22.2505 15.6807 21.2414 15.6807 20.1892V20.1892ZM20.3047 31.1478L20.4865 25.4584C20.5632 25.4422 20.6385 25.4231 20.7151 25.4026L22.4193 29.2905C22.8499 29.1419 23.2694 28.9612 23.6747 28.7498L22.2205 24.7531C22.3341 24.6796 22.4449 24.6062 22.5528 24.5239L25.5592 27.4362C25.9027 27.1298 26.224 26.7978 26.5207 26.4429L23.706 23.3322C23.7826 23.2191 23.8565 23.1059 23.9261 22.9884L27.7846 24.4901C27.9893 24.0714 28.1639 23.6378 28.3072 23.1926L24.5509 21.4294C24.568 21.35 24.5879 21.2707 24.6049 21.1913L30.1023 21.0047C29.9107 23.628 28.817 26.0935 27.0196 27.9543C25.2222 29.8151 22.84 30.9481 20.3047 31.1478V31.1478ZM24.6049 19.1768C24.5879 19.096 24.5666 19.0196 24.5495 18.9403L28.3072 17.177C28.1639 16.7314 27.9893 16.2972 27.7846 15.8781L23.9261 17.3798C23.8565 17.2622 23.7841 17.1491 23.706 17.0374L26.5207 13.9267C26.2241 13.5714 25.9027 13.2389 25.5592 12.932L22.5528 15.8443C22.4449 15.7635 22.3341 15.6885 22.2205 15.6165L23.6733 11.6228C23.268 11.4118 22.8484 11.2316 22.4179 11.0835L20.7137 14.9685C20.5845 14.9362 20.4538 14.9083 20.3218 14.8877L20.1797 10.6265C19.9568 10.6089 19.7296 10.5986 19.5023 10.5986C19.2751 10.5986 19.0465 10.6089 18.8221 10.6265L18.6801 14.8877C18.548 14.9083 18.4188 14.9362 18.2895 14.9685L16.5854 11.0835C16.1544 11.2316 15.7343 11.4118 15.3285 11.6228L16.7799 15.6165C16.6692 15.6885 16.557 15.7635 16.449 15.8443L13.4426 12.932C13.0991 13.2389 12.7778 13.5714 12.4811 13.9267L15.2959 17.0374C15.2192 17.1491 15.1453 17.2622 15.0743 17.3798L11.2328 15.8795C11.0286 16.2987 10.8544 16.7329 10.7117 17.1785L14.4679 18.9417C14.4495 19.0211 14.4282 19.0975 14.414 19.1783L8.91517 19.3664C9.11834 16.602 10.3223 14.0187 12.2863 12.1328C14.2504 10.2469 16.8299 9.19738 19.5094 9.19389C22.1885 9.19778 24.7676 10.2476 26.7311 12.1334C28.6946 14.0193 29.898 16.6023 30.1009 19.3664L24.6049 19.1768Z" fill="white"></path>
        </g>
    </symbol>
    <symbol fill="none" xmlns="http://www.w3.org/2000/svg" viewBox="0 0 99 94" id="mitsubishi-logo">
        <path d="M15.2212 57.3831L18.1424 62.1688L21.0481 57.3831V64.0718H23.2222V54.5541H20.3695L18.1424 58.4289L15.8608 54.5541H13.0625V64.0718H15.2212V57.3831Z" fill="black"></path>
        <path d="M27.2187 54.5541H25.0586V64.0718H27.2187V54.5541Z" fill="black"></path>
        <path d="M32.9373 64.0718V56.5384H35.5442V54.5541H28.1562V56.5384H30.7632V64.0718H32.9373Z" fill="black"></path>
        <path d="M39.89 56.3923C40.7711 56.4075 41.6506 56.4696 42.5249 56.5783V54.5954C41.6333 54.4795 40.7349 54.421 39.8356 54.4204C37.4185 54.4204 36.1953 55.1094 36.1953 57.0882C36.1953 58.6963 37.3235 59.2998 38.8483 59.9819C40.4108 60.693 40.8856 60.7867 40.8856 61.4839C40.8856 62.0875 40.3271 62.2349 39.21 62.2349C38.248 62.2289 37.2884 62.1367 36.3433 61.9593V63.9436C37.2901 64.1117 38.2495 64.2016 39.2114 64.2123C41.7918 64.2123 42.9815 63.3276 42.9815 61.4371C42.9815 59.6278 41.6773 59.038 40.0883 58.327C39.0285 57.8585 38.3219 57.5898 38.3219 57.0537C38.3219 56.5177 38.5858 56.3923 39.89 56.3923Z" fill="black"></path>
        <path d="M51.9781 54.5554H49.818V60.7742C49.818 61.8601 49.1533 62.2363 48.1201 62.2363C47.0868 62.2363 46.4361 61.8601 46.4361 60.7742V54.5554H44.2773V60.8555C44.2773 63.1609 45.7979 64.2068 48.1201 64.2068C50.4422 64.2068 51.9781 63.1609 51.9781 60.8555V54.5554Z" fill="black"></path>
        <path d="M59.5601 59.1C60.2945 58.8244 61.096 58.3889 61.096 57.0082C61.096 55.2651 60.0083 54.5554 58.0395 54.5554H53.8281V64.0745H58.1889C60.3211 64.0745 61.3404 63.0823 61.3404 61.4205C61.3404 59.8234 60.43 59.3535 59.5601 59.1ZM55.9883 56.3578H57.7281C58.5296 56.3578 58.9108 56.559 58.9108 57.3224C58.9108 57.9521 58.5966 58.4069 57.7281 58.4069H55.9896L55.9883 56.3578ZM57.8761 62.2831H55.9883V60.0907H57.971C58.7725 60.0907 59.0979 60.3994 59.0979 61.1366C59.0979 61.9675 58.746 62.2831 57.8761 62.2831Z" fill="black"></path>
        <path d="M64.8047 54.5541H62.6445V64.0718H64.8047V54.5541Z" fill="black"></path>
        <path d="M69.2449 62.2363C68.2828 62.2303 67.3233 62.1381 66.3782 61.9607V63.945C67.3246 64.1126 68.2834 64.202 69.2449 64.2123C71.8253 64.2123 73.015 63.3276 73.015 61.4371C73.015 59.6278 71.7108 59.038 70.1218 58.327C69.062 57.8585 68.3554 57.5898 68.3554 57.0537C68.3554 56.5177 68.6137 56.3978 69.9179 56.3978C70.7989 56.413 71.6785 56.4751 72.5528 56.5838V54.5954C71.6648 54.48 70.7702 54.4215 69.8746 54.4204C67.4576 54.4204 66.2344 55.1094 66.2344 57.0882C66.2344 58.6963 67.3626 59.2998 68.8874 59.9819C70.4499 60.693 70.9247 60.7867 70.9247 61.4839C70.9149 62.0888 70.3577 62.2363 69.2449 62.2363Z" fill="black"></path>
        <path d="M81.9171 64.0718V54.5541H79.7583V58.3077H76.3345V54.5541H74.1758V64.0718H76.3345V60.292H79.7583V64.0718H81.9171Z" fill="black"></path>
        <path d="M85.8476 54.5541H83.6875V64.0718H85.8476V54.5541Z" fill="black"></path>
        <path d="M31.1784 76.88H33.3511V67.3637H30.4984L28.2713 71.2358L25.9883 67.3637H23.1914V76.88H25.3501V70.1913L28.2713 74.977L31.1784 70.1913V76.88Z" fill="black"></path>
        <path d="M38.9878 77.0151C41.8265 77.0151 43.1447 75.5269 43.1447 72.1219C43.1447 68.7169 41.8265 67.2287 38.9878 67.2287C36.1491 67.2287 34.8281 68.7169 34.8281 72.1219C34.8281 75.5269 36.1491 77.0151 38.9878 77.0151ZM38.9878 69.2006C40.5629 69.2006 40.9036 70.1776 40.9036 72.1219C40.9036 74.0662 40.5629 75.0708 38.9878 75.0708C37.4127 75.0708 37.0734 74.0786 37.0734 72.1219C37.0734 70.1652 37.4127 69.2006 38.9878 69.2006Z" fill="black"></path>
        <path d="M43.4961 69.3466H46.1044V76.88H48.2785V69.3466H50.8869V67.3637H43.4961V69.3466Z" fill="black"></path>
        <path d="M59.5507 72.1219C59.5507 68.7169 58.2339 67.2287 55.3952 67.2287C52.5564 67.2287 51.2383 68.7169 51.2383 72.1219C51.2383 75.5269 52.5564 77.0151 55.3952 77.0151C58.2339 77.0151 59.5507 75.5269 59.5507 72.1219ZM53.4794 72.1219C53.4794 70.1776 53.8187 69.2006 55.3952 69.2006C56.9716 69.2006 57.3067 70.1776 57.3067 72.1219C57.3067 74.0662 56.966 75.0708 55.391 75.0708C53.8159 75.0708 53.4794 74.0786 53.4794 72.1219Z" fill="black"></path>
        <path d="M63.2067 73.475H64.1702L66.2074 76.88H68.7348L66.361 73.1402C67.5968 72.8467 68.3438 71.9 68.3438 70.4201C68.3438 68.1271 67.0257 67.3637 64.9605 67.3637H61.0508V76.88H63.2109L63.2067 73.475ZM63.2067 69.2033H64.8223C65.7997 69.2033 66.0999 69.6842 66.0999 70.4228C66.0999 71.1614 65.7997 71.6285 64.8223 71.6285H63.2067V69.2033Z" fill="black"></path>
        <path d="M72.4982 75.0446C71.5362 75.038 70.5768 74.9457 69.6316 74.769V76.7533C70.5783 76.9162 71.5372 77.001 72.4982 77.0068C75.0786 77.0068 76.2683 76.1221 76.2683 74.2329C76.2683 72.4237 74.9642 71.8339 73.3751 71.1229C72.3153 70.6543 71.6088 70.3856 71.6088 69.8496C71.6088 69.3136 71.8671 69.1937 73.1713 69.1937C74.0523 69.2082 74.9319 69.2703 75.8061 69.3797V67.4037C74.9145 67.2877 74.0162 67.2292 73.1168 67.2287C70.6998 67.2287 69.4766 67.9177 69.4766 69.8965C69.4766 71.5046 70.6048 72.1012 72.1296 72.7902C73.6921 73.5012 74.1668 73.5949 74.1668 74.2922C74.1682 74.8958 73.6111 75.0446 72.4982 75.0446Z" fill="black"></path>
        <path d="M58.5452 15.7902L49.3085 0L40.0703 15.7902L49.3085 31.5804L58.5452 15.7902Z" fill="#FF000A"></path>
        <path d="M77.023 47.3707L67.7849 31.5804H49.3086L58.5467 47.3707H77.023Z" fill="#FF000A"></path>
        <path d="M49.3068 31.5804H30.8319L21.5938 47.3707H40.0686L49.3068 31.5804Z" fill="#FF000A"></path>
        <path d="M90.1525 86.2158C88.3876 86.2158 87.4297 87.1088 87.4297 88.8629C87.4297 90.5854 88.3876 91.5086 90.1525 91.5086C91.9175 91.5086 92.8782 90.5854 92.8782 88.8629C92.8782 87.1088 91.9371 86.2158 90.1525 86.2158ZM90.1525 90.3787C89.1332 90.3787 88.7869 89.8482 88.7869 88.8533C88.7869 87.8239 89.1332 87.3265 90.1525 87.3265C91.1719 87.3265 91.5307 87.8239 91.5307 88.8533C91.5307 89.8427 91.1733 90.3787 90.1525 90.3787Z" fill="black"></path>
        <path d="M97.3169 86.2158C96.5895 86.2104 95.8703 86.3668 95.2126 86.6733V86.3206H93.9922V91.4053H95.3075V87.5966C95.7951 87.4466 96.301 87.3627 96.8114 87.3472C97.2526 87.3472 97.6841 87.5346 97.6841 88.1877V91.4053H98.998V88.1257C98.998 86.7767 98.1993 86.2158 97.3169 86.2158Z" fill="black"></path>
        <path d="M74.0301 86.2158C73.4334 86.2273 72.8443 86.3508 72.2944 86.5796V83.8237H70.9805V86.5796L70.9902 91.4025H72.2944V91.0608C72.6212 91.1986 73.0931 91.5059 74.0301 91.5059C75.4613 91.5059 76.3131 90.438 76.3131 88.8602C76.3131 87.2824 75.4599 86.2158 74.0301 86.2158ZM73.7354 90.3677C73.2505 90.3562 72.7694 90.2792 72.3056 90.1389V87.5649C72.7688 87.4221 73.2503 87.3455 73.7354 87.3375C74.65 87.3375 74.9921 87.9287 74.9921 88.8629C74.9921 89.7972 74.6291 90.3677 73.7354 90.3677Z" fill="black"></path>
        <path d="M48.5095 86.3206H47.2891V91.4053H48.6044V87.5966C49.2573 87.4123 49.935 87.3282 50.6137 87.3471V86.2158C49.8864 86.2106 49.1672 86.367 48.5095 86.6733V86.3206Z" fill="black"></path>
        <path d="M11.5273 84.6587L12.4433 85.5819L13.3677 84.6587L12.4433 83.7244L11.5273 84.6587Z" fill="black"></path>
        <path d="M16.7841 90.212C16.3317 89.5684 15.5959 88.4206 15.4897 86.3206H14.1758C14.2707 89.206 15.554 90.4917 16.153 91.4053H17.4097C18.0087 90.4917 19.2919 89.2005 19.3869 86.3206H18.0716C17.9724 88.4261 17.2324 89.5671 16.7841 90.212Z" fill="black"></path>
        <path d="M13.103 86.3192H11.7891V91.4053H13.103V86.3192Z" fill="black"></path>
        <path d="M8.69556 86.3206H7.47656V91.4053H8.79051V87.5966C9.44341 87.4125 10.1211 87.3284 10.7998 87.3471V86.2158C10.0725 86.2106 9.35333 86.367 8.69556 86.6733V86.3206Z" fill="black"></path>
        <path d="M44.5499 90.1293C44.0624 90.2793 43.5564 90.3632 43.046 90.3787C42.6048 90.3787 42.1733 90.1913 42.1733 89.5368V86.3206H40.8594V89.6001C40.8594 90.9492 41.6581 91.5086 42.542 91.5086C43.2687 91.514 43.9874 91.3581 44.6448 91.0525V91.4053H45.8652V86.3206H44.5499V90.1293Z" fill="black"></path>
        <path d="M31.0164 90.2437C30.6477 89.7242 29.62 88.2924 29.62 86.3206H28.3047C28.3899 88.998 29.62 90.336 30.2512 91.2496L28.799 93.2738L29.7457 94L31.9338 91.0112C32.1865 90.6694 33.6582 88.8533 33.6582 86.3261H32.3443C32.3415 88.3269 31.3375 89.7972 31.0164 90.2437Z" fill="black"></path>
        <path d="M84.6758 84.6587L85.5918 85.5819L86.5162 84.6587L85.5918 83.7244L84.6758 84.6587Z" fill="black"></path>
        <path d="M22.7484 86.2158C20.9597 86.2158 20.1289 87.0977 20.1289 88.8422C20.1289 90.6336 21.1496 91.5086 22.9788 91.5086C23.9674 91.5086 24.5148 91.4149 24.8304 91.3336V90.2643C24.251 90.3985 23.6577 90.4646 23.0626 90.4614C22.1173 90.4614 21.4959 90.1858 21.4429 89.2777H25.125C25.1348 89.1537 25.1348 88.9249 25.1348 88.7485C25.1348 87.1198 24.5986 86.2158 22.7484 86.2158ZM21.4429 88.4371C21.4959 87.6489 21.7905 87.2121 22.6996 87.2121C23.7733 87.2121 23.8459 87.7109 23.8571 88.4371H21.4429Z" fill="black"></path>
        <path d="M78.8179 86.3192H77.5039V91.4053H78.8179V86.3192Z" fill="black"></path>
        <path d="M77.2383 84.6587L78.1529 85.5819L79.0787 84.6587L78.1529 83.7244L77.2383 84.6587Z" fill="black"></path>
        <path d="M3.02865 84.0372H0V91.4053H2.99094C5.04076 91.4053 6.32399 90.2436 6.32399 87.7206C6.3198 85.1162 5.04774 84.0372 3.02865 84.0372ZM3.0077 90.1803H1.32372V85.2609H3.04959C4.30629 85.2609 4.94301 85.9981 4.94301 87.6902C4.94301 89.3824 4.28953 90.1803 3.0077 90.1803Z" fill="black"></path>
        <path d="M86.2529 86.3192H84.9375V91.4053H86.2529V86.3192Z" fill="black"></path>
        <path d="M82.0344 89.5781V87.3885H83.6988V86.3205H82.0372V84.9191H80.733V86.3205H79.7891V87.3885H80.7358V89.8798C80.7358 91.0842 81.4339 91.5086 82.766 91.5086C83.132 91.5086 83.4975 91.4815 83.8594 91.4273V90.256C83.5816 90.2923 83.3017 90.3098 83.0216 90.3084C82.3499 90.3056 82.0344 90.2023 82.0344 89.5781Z" fill="black"></path>
        <path d="M57.5385 84.0372H55.613L55.5292 84.2026C54.7612 85.728 53.457 87.5235 53.457 90.5234V91.3956H54.8045V90.6584C54.8021 90.2767 54.8231 89.8953 54.8673 89.5161H58.3903C58.4338 89.899 58.4548 90.2841 58.4531 90.6694V91.4053H59.7992V90.5964C59.7992 87.5965 58.495 85.666 57.6432 84.2122L57.5385 84.0372ZM55.0558 88.3751C55.4133 86.9117 56.0766 85.9981 56.5918 84.9495C57.1168 86.0188 57.801 86.942 58.1794 88.3751H55.0558Z" fill="black"></path>
        <path d="M37.0719 86.2158C35.3041 86.2158 34.3477 87.1088 34.3477 88.8629C34.3477 90.5854 35.3041 91.5086 37.0719 91.5086C38.8397 91.5086 39.7961 90.5854 39.7961 88.8629C39.7961 87.1088 38.8494 86.2158 37.0719 86.2158ZM37.0719 90.3787C36.0512 90.3787 35.7049 89.8482 35.7049 88.8533C35.7049 87.8239 36.0512 87.3265 37.0719 87.3265C38.0926 87.3265 38.4501 87.8239 38.4501 88.8533C38.4571 89.8427 38.0912 90.3787 37.0719 90.3787Z" fill="black"></path>
        <path d="M67.7721 86.2158C67.074 86.2158 66.0365 86.4239 65.538 86.745C65.2434 86.3826 64.7379 86.2158 64.2129 86.2158C63.477 86.2158 62.561 86.5066 62.2887 86.6733V86.3205H61.0781V91.4053H62.3935V87.6076C62.6979 87.4615 63.4128 87.3568 63.8443 87.3568C64.3288 87.3568 64.6653 87.5855 64.6653 88.229V91.4053H65.9793V88.043C65.9822 87.8968 65.9682 87.7507 65.9374 87.6076C66.2166 87.4505 66.9581 87.3471 67.3993 87.3568C67.8727 87.3692 68.2371 87.5855 68.2371 88.229V91.4053H69.5427V88.0513C69.5301 86.7353 68.758 86.2158 67.7721 86.2158Z" fill="black"></path>
    </symbol>
    <symbol fill="none" xmlns="http://www.w3.org/2000/svg" viewBox="0 0 111 34" id="ya-logo">
        <path d="M1.81366 17.4281L0 16.5746L1.81366 15.7172C1.81366 15.9978 1.78618 16.2862 1.78618 16.5746C1.78618 16.863 1.78618 17.1475 1.81366 17.4281ZM17.5556 31.3448L16.6919 33.1414L15.8322 31.3448C16.1149 31.3448 16.4054 31.372 16.6919 31.372C16.9785 31.372 17.269 31.372 17.5556 31.3448ZM31.5702 17.4281C31.5898 17.1475 31.5977 16.8591 31.5977 16.5746C31.5977 16.2901 31.5977 15.9978 31.5702 15.7172L33.3839 16.5746L31.5702 17.4281ZM16.6919 1.7732C16.9824 1.7732 17.269 1.7732 17.5556 1.80048L16.6919 0L15.8322 1.80048C16.1149 1.80048 16.4054 1.7732 16.6919 1.7732ZM30.259 18.7531L29.0813 19.0181L30.0745 19.7118C29.7349 21.1349 29.1662 22.4943 28.3904 23.7375L27.2127 23.5349L27.8605 24.5481C26.9968 25.7328 25.9486 26.7734 24.7553 27.6308L23.7032 26.9722L23.9112 28.1608C22.6592 28.9306 21.2897 29.4939 19.856 29.8288L19.1533 28.8467L18.8864 30.0158C17.4329 30.2496 15.951 30.2496 14.4975 30.0158L14.2305 28.8467L13.5278 29.8288C12.0942 29.4939 10.7247 28.9306 9.47264 28.1608L9.68069 26.9722L8.6561 27.6152C7.4636 26.7568 6.41555 25.7164 5.55089 24.5325L6.19862 23.5193L5.02093 23.7219C4.24352 22.4795 3.67473 21.1198 3.33682 19.6962L4.33001 19.0025L3.15231 18.7375C2.91672 17.2933 2.91672 15.8208 3.15231 14.3766L4.33001 14.1116L3.33682 13.4179C3.67546 11.9932 4.24418 10.6324 5.02093 9.38823L6.19862 9.59478L5.55089 8.58152C6.41555 7.39768 7.4636 6.35725 8.6561 5.49887L9.68069 6.13801L9.47264 4.96886C10.7247 4.19902 12.0942 3.63573 13.5278 3.30089L14.2305 4.28686L14.4975 3.11772C15.951 2.88392 17.4329 2.88392 18.8864 3.11772L19.1533 4.28686L19.856 3.30089C21.2897 3.63573 22.6592 4.19902 23.9112 4.96886L23.7032 6.13801L24.7278 5.49887C25.9211 6.35624 26.9693 7.39683 27.833 8.58152L27.1852 9.59478L28.3629 9.38823C29.1381 10.6332 29.7067 11.9938 30.047 13.4179L29.0696 14.1116L30.2473 14.3766C30.4829 15.8208 30.4829 17.2933 30.2473 18.7375L30.259 18.7531Z" fill="#003375"></path>
        <path d="M10.2082 29.891L10.3103 31.8824L11.8021 30.5457C11.2585 30.3581 10.7264 30.1395 10.2082 29.891ZM5.56809 26.3836L4.89289 28.2698L6.79683 27.5995C6.36312 27.2189 5.95281 26.8129 5.56809 26.3836ZM2.61992 21.4147L1.27734 22.8956L3.27944 22.9969C3.03075 22.4818 2.81058 21.9536 2.61992 21.4147ZM30.0996 22.9969L32.1017 22.8956L30.7591 21.4147C30.5684 21.9536 30.3483 22.4818 30.0996 22.9969ZM26.5861 27.5995L28.4822 28.2698L27.8109 26.3836C27.4255 26.811 27.0166 27.2169 26.5861 27.5995ZM21.5927 30.5457L23.0844 31.8824L23.1904 29.891C22.6706 30.1388 22.1372 30.3574 21.5927 30.5457ZM23.1904 3.26568L23.0844 1.27423L21.5927 2.61095C22.1379 2.79751 22.6714 3.01615 23.1904 3.26568ZM27.8266 6.75362L28.4979 4.8674L26.5979 5.53771C27.0294 5.91929 27.4383 6.32527 27.8227 6.75362H27.8266ZM30.7748 11.7225L32.1174 10.2416L30.1153 10.1402C30.364 10.6553 30.5841 11.1835 30.7748 11.7225ZM11.8021 2.61095L10.3103 1.27423L10.2082 3.26568C10.7256 3.01552 11.2579 2.79686 11.8021 2.61095ZM3.28336 10.1402L1.27734 10.2416L2.61992 11.7225C2.81022 11.1828 3.03174 10.6545 3.28336 10.1402ZM5.56809 6.75362L4.89289 4.8674L6.79291 5.53771C6.35825 5.91725 5.94788 6.32334 5.56417 6.75362H5.56809ZM16.6974 18.6828C17.116 18.6828 17.5253 18.5595 17.8733 18.3285C18.2214 18.0975 18.4926 17.7692 18.6526 17.3852C18.8126 17.0011 18.8543 16.5786 18.7723 16.171C18.6904 15.7634 18.4885 15.3891 18.1922 15.0955C17.8958 14.8019 17.5185 14.6022 17.1077 14.5216C16.697 14.4409 16.2715 14.4831 15.8849 14.6427C15.4983 14.8023 15.1681 15.0721 14.9361 15.4181C14.7041 15.764 14.5807 16.1705 14.5814 16.5861C14.5825 17.1426 14.8059 17.6758 15.2026 18.0689C15.5993 18.462 16.1369 18.6828 16.6974 18.6828ZM20.4267 18.8699C20.3679 18.9556 20.3129 19.0452 20.2501 19.131L22.6958 21.7226C22.4433 22.0142 22.169 22.2864 21.8753 22.5371L19.2608 20.1092C19.1745 20.1715 19.0881 20.23 18.9978 20.2845L20.2579 23.6127C19.9116 23.7854 19.5534 23.9338 19.1862 24.057L17.7063 20.8184C17.3757 20.8967 17.0372 20.9372 16.6974 20.9392C16.3576 20.9368 16.0191 20.8962 15.6885 20.8184L14.2085 24.057C13.8415 23.9331 13.4835 23.7847 13.1368 23.6127L14.3969 20.2845C14.3066 20.23 14.2203 20.1715 14.1339 20.1092L11.5233 22.5371C11.2284 22.2865 10.9528 22.0142 10.6989 21.7226L13.1446 19.131L12.9719 18.8699L9.61939 20.1208C9.44214 19.7772 9.29251 19.4201 9.17186 19.053L12.4341 17.5877C12.2718 16.9284 12.2718 16.24 12.4341 15.5807L9.16794 14.1114C9.28858 13.7444 9.43822 13.3873 9.61546 13.0436L12.968 14.2985C13.0229 14.2089 13.0818 14.1192 13.1407 14.0374L10.695 11.4419C10.9489 11.1503 11.2244 10.878 11.5194 10.6274L14.13 13.0553C14.2163 12.993 14.3027 12.9345 14.393 12.8799L13.1329 9.55177C13.4788 9.37815 13.837 9.22968 14.2046 9.1075L15.6845 12.346L15.9947 12.2837L16.1124 8.73338C16.3048 8.73338 16.505 8.71 16.6934 8.71C16.8819 8.71 17.086 8.71 17.2744 8.73338L17.3922 12.2837L17.7023 12.346L19.1823 9.1075C19.5502 9.22896 19.9084 9.37746 20.254 9.55177L18.9939 12.8799C19.0842 12.9345 19.1705 12.993 19.2569 13.0553L21.8675 10.604C22.1634 10.8536 22.439 11.1259 22.6919 11.4185L20.2462 14.014C20.3051 14.0959 20.3639 14.1855 20.4228 14.2751L23.7753 13.0202C23.9496 13.3648 24.0979 13.7217 24.2189 14.0881L20.9606 15.5534C21.1177 16.2133 21.1177 16.9005 20.9606 17.5604L24.2189 19.0257C24.0979 19.3921 23.9496 19.749 23.7753 20.0936L20.415 18.8582L20.4267 18.8699ZM16.6974 26.7187C18.7161 26.7187 20.6894 26.1244 22.3679 25.0111C24.0464 23.8977 25.3546 22.3152 26.1272 20.4637C26.8997 18.6122 27.1018 16.5749 26.708 14.6094C26.3141 12.6438 25.3421 10.8384 23.9146 9.4213C22.4872 8.00424 20.6685 7.0392 18.6886 6.64824C16.7087 6.25727 14.6565 6.45793 12.7914 7.22484C10.9264 7.99175 9.3323 9.29047 8.21077 10.9568C7.08924 12.6231 6.49063 14.5821 6.49063 16.5861C6.49063 19.2735 7.56598 21.8507 9.48011 23.751C11.3942 25.6512 13.9904 26.7187 16.6974 26.7187ZM16.6974 27.919C14.4384 27.9198 12.23 27.2555 10.3514 26.0101C8.47283 24.7647 7.00852 22.9941 6.1437 20.9224C5.27888 18.8507 5.0524 16.571 5.49291 14.3715C5.93342 12.172 7.02113 10.1516 8.61845 8.5659C10.2158 6.98019 12.2509 5.90038 14.4665 5.46307C16.6821 5.02576 18.9786 5.25059 21.0654 6.10913C23.1523 6.96767 24.9357 8.42134 26.1903 10.2863C27.4448 12.1512 28.114 14.3436 28.1132 16.5861C28.1101 19.5909 26.9063 22.4716 24.7661 24.5963C22.6259 26.7209 19.7241 27.9159 16.6974 27.919Z" fill="#FDBA4D"></path>
        <path d="M17.6375 16.5745C17.6375 16.7611 17.5817 16.9434 17.4773 17.0985C17.373 17.2536 17.2246 17.3745 17.051 17.4458C16.8774 17.5172 16.6864 17.5359 16.5021 17.4995C16.3178 17.4631 16.1485 17.3733 16.0157 17.2414C15.8828 17.1095 15.7923 16.9415 15.7557 16.7585C15.719 16.5756 15.7378 16.3859 15.8097 16.2136C15.8816 16.0413 16.0034 15.894 16.1596 15.7903C16.3159 15.6867 16.4995 15.6314 16.6874 15.6314C16.9394 15.6314 17.181 15.7308 17.3592 15.9076C17.5374 16.0845 17.6375 16.3244 17.6375 16.5745ZM16.6874 19.8247C16.039 19.8247 15.405 19.6338 14.8659 19.2761C14.3268 18.9183 13.9066 18.4099 13.6587 17.815C13.4107 17.2202 13.346 16.5657 13.4728 15.9343C13.5996 15.303 13.9122 14.7232 14.371 14.2682C14.8298 13.8133 15.4142 13.5037 16.0504 13.3786C16.6865 13.2534 17.3457 13.3184 17.9446 13.5653C18.5435 13.8122 19.0551 14.2299 19.4149 14.7656C19.7746 15.3012 19.9661 15.9308 19.9654 16.5745C19.9633 17.4366 19.6172 18.2627 19.0028 18.8719C18.3884 19.4811 17.5558 19.8237 16.6874 19.8247ZM17.3666 25.5692L17.5236 20.8926C18.3988 20.7269 19.2037 20.3039 19.8337 19.6785C20.4638 19.053 20.8899 18.254 21.0567 17.3851L25.7675 17.2292C25.6012 19.3818 24.6643 21.4041 23.1263 22.9303C21.5882 24.4564 19.5506 25.3856 17.3823 25.5497L17.3666 25.5692ZM7.62307 17.2487L12.3339 17.4046C12.5007 18.2735 12.9268 19.0725 13.5568 19.698C14.1869 20.3234 14.9917 20.7464 15.867 20.9121L16.024 25.5886C13.8557 25.4246 11.8181 24.4954 10.28 22.9692C8.74197 21.4431 7.80504 19.4207 7.63878 17.2682L7.62307 17.2487ZM16.6874 7.54872C18.9797 7.55099 21.1866 8.41197 22.8671 9.95959C24.5475 11.5072 25.5778 13.6274 25.7518 15.8964L21.041 15.7444C20.8476 14.7377 20.3067 13.8295 19.5113 13.1762C18.7159 12.523 17.7158 12.1655 16.6835 12.1655C15.6512 12.1655 14.6512 12.523 13.8558 13.1762C13.0604 13.8295 12.5194 14.7377 12.326 15.7444L7.61523 15.8964C7.78832 13.6277 8.81772 11.5076 10.4976 9.95988C12.1774 8.41219 14.3839 7.55106 16.6757 7.54872H16.6874ZM16.6874 6.37958C14.6596 6.37958 12.6773 6.97648 10.9911 8.09483C9.30497 9.21318 7.99071 10.8028 7.2145 12.6626C6.4383 14.5224 6.23501 16.5689 6.63034 18.5434C7.02566 20.5179 8.00186 22.3317 9.4355 23.7554C10.8691 25.1792 12.6958 26.149 14.6846 26.5422C16.6734 26.9354 18.735 26.7344 20.6087 25.9646C22.4824 25.1947 24.0841 23.8906 25.2113 22.2171C26.3385 20.5436 26.9405 18.576 26.9413 16.5628C26.9382 13.8637 25.857 11.2759 23.9348 9.36697C22.0126 7.45802 19.4063 6.3837 16.6874 6.37958Z" fill="white"></path>
        <path d="M62.9336 19.891H66.3882V17.6501H62.9336V19.891Z" fill="#FDBA4D"></path>
        <path d="M72.0007 17.6502L73.571 12.6657L75.1413 17.6502H72.0007ZM75.2158 9.82469H71.8986L66.7639 23.3088H70.2263L71.298 19.891H75.8282L76.896 23.3088H80.3506L75.2158 9.82469ZM104.698 21.3408C104.354 21.364 104.01 21.3017 103.696 21.1595C103.383 21.0172 103.111 20.7996 102.904 20.5263C102.648 20.1599 102.393 19.6728 102.393 17.9931C102.393 16.3134 102.648 15.8224 102.904 15.4561C103.128 15.2013 103.404 14.9972 103.714 14.8573C104.024 14.7174 104.361 14.645 104.702 14.645C105.042 14.645 105.379 14.7174 105.689 14.8573C105.999 14.9972 106.275 15.2013 106.499 15.4561C106.751 15.8224 107.002 16.3134 107.002 17.9931C107.002 19.6728 106.751 20.1599 106.499 20.5263C106.291 20.7997 106.017 21.0173 105.702 21.1594C105.388 21.3016 105.042 21.3639 104.698 21.3408ZM110.001 17.9931C110.001 16.6447 109.785 15.004 108.521 13.8076C107.427 12.9686 106.083 12.5135 104.7 12.5135C103.317 12.5135 101.973 12.9686 100.878 13.8076C99.6139 15.004 99.3979 16.6447 99.3979 17.9931C99.3979 19.3454 99.6139 20.9861 100.878 22.1826C101.973 23.0216 103.317 23.4767 104.7 23.4767C106.083 23.4767 107.427 23.0216 108.521 22.1826C109.785 20.9861 110.001 19.3454 110.001 17.9931ZM98.6913 14.7936H96.1789V23.2932H93.2582V14.7858H90.7497V12.7008H99.3194L98.6756 14.7858L98.6913 14.7936ZM85.7719 21.2239C85.9954 21.2443 86.2208 21.217 86.4327 21.1437C86.6447 21.0705 86.8384 20.9529 87.0007 20.7991C87.1934 20.5663 87.2901 20.2697 87.2716 19.969C87.291 19.7835 87.2575 19.5964 87.1749 19.4289C87.0923 19.2614 86.9639 19.1204 86.8044 19.022C86.4852 18.8619 86.1288 18.7892 85.7719 18.8115H84.0761V21.2239H85.7719ZM85.6385 16.785C86.068 16.8238 86.4985 16.7211 86.8633 16.4927C86.9516 16.4007 87.0198 16.2916 87.0638 16.1723C87.1077 16.0529 87.1263 15.9258 87.1185 15.799C87.1272 15.6576 87.1035 15.5161 87.0491 15.3851C86.9947 15.2541 86.911 15.1372 86.8044 15.043C86.4935 14.8431 86.1257 14.7488 85.7563 14.7741H84.0761V16.785H85.6385ZM86.5139 12.7086C87.4575 12.6514 88.3862 12.9633 89.1009 13.5776C89.3402 13.8118 89.5291 14.0918 89.656 14.4006C89.7828 14.7095 89.8451 15.0407 89.8389 15.3742C89.8574 15.9165 89.6853 16.4484 89.3522 16.8785C89.087 17.2345 88.7226 17.5055 88.304 17.658C88.7262 17.8 89.1159 18.0239 89.4503 18.3166C89.7204 18.5675 89.9331 18.873 90.074 19.2125C90.2148 19.5521 90.2806 19.9177 90.2668 20.2846C90.2979 20.78 90.1863 21.274 89.9451 21.7087C89.7039 22.1435 89.343 22.5011 88.9046 22.7398C88.053 23.1336 87.1189 23.3193 86.1802 23.2816H81.2614V12.7008L86.5139 12.7086ZM65.2172 12.7086L64.7147 14.8325H60.7694V23.2932H57.8644V12.7008L65.2172 12.7086ZM48.8707 21.0836C45.9225 21.0836 44.8587 19.1155 44.8508 16.5784C44.843 14.0414 45.9225 12.0772 48.8707 12.0772C51.8189 12.0772 52.8866 14.0258 52.8945 16.5784C52.9023 19.1311 51.8228 21.0836 48.8707 21.0836ZM56.1371 16.5473C56.1371 11.9564 53.6796 9.55579 48.8628 9.55579C44.5721 9.55579 42.1696 11.4732 41.6867 15.1404H40.0576V9.85976H37.1055V23.2854H40.0576V17.4397H41.6278C41.9262 21.4928 44.3523 23.605 48.8668 23.605C53.6836 23.605 56.1253 21.2005 56.141 16.6135C56.141 16.6135 56.141 16.6135 56.141 16.5862C56.141 16.559 56.141 16.5862 56.141 16.5629L56.1371 16.5473Z" fill="#003375"></path>
    </symbol>
    <symbol xmlns="http://www.w3.org/2000/svg" viewBox="0 0 27 21" id="burger">
        <path d="M1.00659 19.0811H11.5066M1.00659 1.08105H25.0066H1.00659ZM1.00659 10.0811H25.0066H1.00659Z" stroke-width="2" stroke-linecap="round" stroke-linejoin="round"></path>
    </symbol>
    <symbol xmlns="http://www.w3.org/2000/svg" viewBox="0 0 26 26" id="close">
        <path d="M24.1488 0.322754L25.4373 1.61121L1.72571 25.3209L0.437256 24.0334L24.1488 0.322754Z"></path>
        <path d="M1.72571 0.322754L25.4373 24.0325L24.1488 25.3218L0.437256 1.61212L1.72571 0.322754Z"></path>
    </symbol>
</svg>