<svg width="0" height="0" class="hidden">
    <symbol fill="none" xmlns="http://www.w3.org/2000/svg" viewBox="0 0 129 41" id="ya-logo">
        <g clip-path="url(#clip0_2816_15912)">
            <path d="M77.9714 21.2046H73.9453V23.9288H77.9714V21.2046Z" fill="#333333"></path>
            <path d="M105.001 22.3154C104.608 21.9624 104.154 21.6906 103.662 21.5146C104.153 21.3242 104.579 20.989 104.887 20.5507C105.277 20.0261 105.477 19.3778 105.456 18.7169C105.461 18.3113 105.388 17.9087 105.24 17.5332C105.091 17.1577 104.871 16.8171 104.592 16.532C104.048 15.9912 103.091 15.4725 101.569 15.4725H95.418V28.359H101.184C102.276 28.359 103.524 28.1929 104.365 27.6992C105.181 27.2305 105.954 26.3356 105.954 24.7134C105.958 23.7966 105.681 22.9737 105.001 22.3154ZM98.7241 17.994H100.684C101.069 17.994 101.569 18.0439 101.912 18.3261C102.036 18.4399 102.133 18.5813 102.196 18.7397C102.259 18.898 102.286 19.0691 102.276 19.24C102.286 19.395 102.264 19.5504 102.213 19.6963C102.161 19.8422 102.081 19.9756 101.978 20.0878C101.638 20.3935 101.049 20.4405 100.546 20.4405H98.7241V17.994ZM102.132 25.332C101.725 25.8243 101.045 25.8507 100.702 25.8507H98.7141V22.912H100.702C101.201 22.912 101.611 22.984 101.908 23.1721C102.317 23.4321 102.451 23.8068 102.451 24.3241C102.47 24.6869 102.358 25.0443 102.137 25.3262L102.132 25.332Z" fill="#333333"></path>
            <path d="M84.4987 11.9695L78.5 28.3869H82.546L83.7971 24.2285H89.0872L90.3369 28.3869H94.3701L88.3714 11.9695H84.4987ZM84.6137 21.5029L86.44 15.4329L88.2677 21.5029H84.6137Z" fill="#333333"></path>
            <path d="M57.6039 11.6463C52.5936 11.6463 49.7931 13.9796 49.225 18.4436H47.3235V12.018H43.8711V28.359H47.3235V21.2266H49.1498C49.4963 26.1564 52.3337 28.7292 57.6053 28.7292C63.229 28.7292 66.0821 25.8066 66.1006 20.2186V20.1613C66.0807 14.5718 63.2276 11.6463 57.6039 11.6463ZM57.6039 25.67C54.1614 25.67 52.9174 23.2749 52.9174 20.1892C52.9174 17.1035 54.1671 14.704 57.6039 14.704C61.0406 14.704 62.2903 17.0991 62.3045 20.1892C62.3187 23.2793 61.0506 25.67 57.6039 25.67Z" fill="#333333"></path>
            <path d="M76.6931 15.4725H68.1055V28.359H71.4968V18.0586H76.1051L76.6931 15.4725Z" fill="#333333"></path>
            <path d="M106.496 18.0116H109.432V28.359H112.838V18.0116H115.794L116.541 15.4725H106.496V18.0116Z" fill="#333333"></path>
            <path d="M127.274 16.8082C126.294 15.8663 124.65 15.2316 122.809 15.2316C120.969 15.2316 119.32 15.8663 118.344 16.8082C116.869 18.2658 116.617 20.2598 116.617 21.9055C116.617 23.5482 116.869 25.5466 118.344 27.0027C119.32 27.9417 120.966 28.5779 122.809 28.5779C124.652 28.5779 126.294 27.9417 127.274 27.0027C128.747 25.5466 128.998 23.5482 128.999 21.9055C128.998 20.2598 128.747 18.2658 127.274 16.8082ZM124.907 24.9941C124.338 25.886 123.332 25.9801 122.809 25.9801C122.286 25.9801 121.277 25.886 120.71 24.9941C120.413 24.5533 120.115 23.9508 120.115 21.9084C120.115 19.866 120.413 19.2635 120.71 18.8227C121.278 17.9264 122.282 17.8338 122.809 17.8338C123.336 17.8338 124.343 17.9264 124.907 18.8227C125.203 19.2635 125.496 19.8645 125.5 21.9084C125.504 23.9523 125.203 24.5489 124.907 24.9941Z" fill="#333333"></path>
            <path d="M35.1914 28.0371L37.5346 27.9122L35.9611 26.1078C35.741 26.7659 35.484 27.4101 35.1914 28.0371V28.0371Z" fill="#333333"></path>
            <path d="M35.3673 22.8429C35.5041 21.9654 35.5735 21.0781 35.5746 20.1892C35.5737 19.3003 35.5039 18.4129 35.3658 17.5355L33.977 17.2108L35.14 16.363C34.7437 14.6295 34.079 12.9737 33.1717 11.4597L31.7743 11.7095L32.5312 10.4723C31.522 9.02766 30.2961 7.75926 28.8999 6.71506L27.7042 7.49824L27.947 6.05384C26.4843 5.11407 24.8838 4.42627 23.208 4.01729L22.3886 5.21923L22.0747 3.78072C21.2271 3.63966 20.3699 3.56842 19.5114 3.56766C18.6514 3.56842 17.7929 3.63966 16.9438 3.78072L16.6328 5.21923L15.8119 4.01729C14.136 4.42731 12.5352 5.11504 11.0715 6.05384L11.3143 7.49824L10.12 6.71506C8.72443 7.76004 7.49865 9.02833 6.48868 10.4723L7.24419 11.7095L5.8482 11.4597C4.94037 12.9733 4.27564 14.6293 3.87988 16.363L5.04297 17.2108L3.65266 17.5355C3.5158 18.413 3.44646 19.3004 3.44531 20.1892C3.44646 21.0781 3.5158 21.9654 3.65266 22.8429L5.04297 23.1662L3.87988 24.014C4.27629 25.7478 4.94046 27.404 5.84678 28.9188L7.24419 28.6675L6.48868 29.9048C7.49821 31.3491 8.72405 32.6174 10.12 33.6619L11.3143 32.8788L11.0715 34.3246C12.5359 35.2631 14.1371 35.9508 15.8133 36.3612L16.6328 35.1578L16.9438 36.5948C17.7926 36.7383 18.6513 36.8106 19.5114 36.8108C20.37 36.8103 21.2272 36.7386 22.0747 36.5963L22.3886 35.1578L23.208 36.3612C24.8834 35.9508 26.4836 35.2631 27.947 34.3246L27.7042 32.8788L28.9014 33.6619C30.2981 32.6168 31.5249 31.348 32.5355 29.9033L31.7786 28.6661L33.176 28.9173C34.0807 27.4041 34.7439 25.7499 35.14 24.0184L33.977 23.1706L35.3673 22.8429ZM19.5114 32.5893C16.3337 32.5866 13.2868 31.2796 11.0394 28.9551C8.79202 26.6306 7.52772 23.4786 7.52396 20.1907C7.52735 16.9023 8.79139 13.7496 11.0387 11.4243C13.2861 9.09907 16.3332 7.7912 19.5114 7.7877C22.6891 7.79198 25.7355 9.10019 27.9822 11.4254C30.2289 13.7505 31.4926 16.9028 31.496 20.1907C31.4918 23.4778 30.2278 26.629 27.981 28.9531C25.7343 31.2772 22.6884 32.5843 19.5114 32.5878V32.5893Z" fill="#333333"></path>
            <path d="M19.5122 9.19242C16.8327 9.19591 14.2532 10.2455 12.2891 12.1313C10.3251 14.0172 9.12114 16.6005 8.91797 19.3649L14.4168 19.1768C14.431 19.096 14.4523 19.0196 14.4707 18.9403L10.7145 17.177C10.8572 16.7314 11.0314 16.2973 11.2356 15.8781L15.0927 17.3798C15.1638 17.2622 15.2348 17.1491 15.3143 17.0374L12.4996 13.9267C12.7962 13.5714 13.1175 13.2389 13.461 12.932L16.4674 15.8443C16.5754 15.7635 16.6876 15.6885 16.7983 15.6165L15.3526 11.6242C15.7584 11.4133 16.1785 11.2331 16.6095 11.085L18.3136 14.97C18.4429 14.9377 18.5721 14.9098 18.7042 14.8892L18.8462 10.628C19.0706 10.6104 19.2964 10.6001 19.5264 10.6001C19.7565 10.6001 19.9809 10.6104 20.2038 10.628L20.3458 14.8892C20.4779 14.9098 20.6086 14.9377 20.7378 14.97L22.442 11.085C22.8725 11.2331 23.2921 11.4133 23.6974 11.6242L22.2446 15.618C22.3582 15.69 22.469 15.7649 22.5769 15.8458L25.5833 12.9334C25.9268 13.2403 26.2482 13.5728 26.5448 13.9282L23.73 17.0389C23.8067 17.1506 23.8806 17.2637 23.9502 17.3812L27.8087 15.8795C28.0134 16.2987 28.188 16.7329 28.3313 17.1785L24.5736 18.9417C24.5907 19.0211 24.612 19.0975 24.629 19.1783L30.1264 19.3664C29.9236 16.598 28.7171 14.0113 26.7487 12.1245C24.7803 10.2377 22.1955 9.19041 19.5122 9.19242Z" fill="#333333"></path>
            <path d="M2.08619 20.1878C2.08619 19.8381 2.09897 19.4898 2.11743 19.1445L0 20.1863L2.11743 21.231C2.09897 20.8857 2.08619 20.5375 2.08619 20.1878Z" fill="#333333"></path>
            <path d="M1.48438 27.9122L3.82761 28.0371C3.53348 27.4104 3.27551 26.7662 3.05505 26.1078L1.48438 27.9122Z" fill="#333333"></path>
            <path d="M24.5523 21.4353L28.3086 23.1985C28.1653 23.6437 27.9907 24.0773 27.786 24.496L23.9275 22.9899C23.8579 23.1074 23.7855 23.2206 23.7074 23.3337L26.5221 26.4444C26.2254 26.7993 25.9041 27.1313 25.5606 27.4377L22.5542 24.5254C22.4463 24.6062 22.3355 24.6811 22.2219 24.7546L23.6747 28.7469C23.2694 28.9583 22.8498 29.139 22.4193 29.2876L20.7151 25.3997C20.6384 25.4202 20.5632 25.4393 20.4865 25.4555L20.3047 31.1449C22.8396 30.9456 25.2216 29.8134 27.0192 27.9535C28.8168 26.0936 29.911 23.629 30.1037 21.0062L24.6063 21.1928C24.5836 21.2766 24.5694 21.3559 24.5523 21.4353Z" fill="#333333"></path>
            <path d="M6.50302 32.1631L5.71484 34.4613L7.93453 33.6457C7.4304 33.1802 6.95244 32.6852 6.50302 32.1631Z" fill="#333333"></path>
            <path d="M31.0859 33.6457L33.3056 34.4613L32.5174 32.1631C32.0684 32.6856 31.5904 33.1806 31.0859 33.6457Z" fill="#333333"></path>
            <path d="M36.9389 20.1878C36.9389 20.5375 36.929 20.8857 36.9062 21.231L39.0265 20.1863L36.9062 19.1445C36.9233 19.4898 36.9389 19.8381 36.9389 20.1878Z" fill="#333333"></path>
            <path d="M26.9783 38.8385L27.099 36.4126C26.4931 36.7162 25.8705 36.9826 25.2344 37.2105L26.9783 38.8385Z" fill="#333333"></path>
            <path d="M18.3026 25.4026L16.5984 29.2906C16.1703 29.1416 15.7532 28.9609 15.3501 28.7498L16.7959 24.7531C16.6851 24.6797 16.5729 24.6062 16.4664 24.5239L13.4585 27.4362C13.1147 27.1302 12.7933 26.7982 12.4971 26.4429L15.3118 23.3322C15.2351 23.2191 15.1613 23.106 15.0903 22.9884L11.2317 24.4945C11.0269 24.0761 10.8527 23.6424 10.7105 23.1971L14.4654 21.4338C14.4469 21.3545 14.4271 21.2751 14.4129 21.1958L8.91406 21.0092C9.10726 23.6317 10.2017 26.096 11.9992 27.9558C13.7967 29.8156 16.1784 30.948 18.713 31.1479L18.5327 25.4584C18.4546 25.4423 18.3793 25.4217 18.3026 25.4026Z" fill="#333333"></path>
            <path d="M3.82761 12.3369L1.48438 12.4632L3.05505 14.2662C3.27551 13.6079 3.53348 12.9636 3.82761 12.3369V12.3369Z" fill="#333333"></path>
            <path d="M18.5 38.1818L19.5083 40.3755L20.5152 38.1818C20.1829 38.2023 19.8477 38.2156 19.5097 38.2156C19.1717 38.2156 18.8337 38.2023 18.5 38.1818Z" fill="#333333"></path>
            <path d="M12.0451 38.8385L13.7904 37.2105C13.1544 36.9823 12.5318 36.7159 11.9258 36.4126L12.0451 38.8385Z" fill="#333333"></path>
            <path d="M32.5174 8.21088L33.3056 5.91278L31.0859 6.72828C31.5904 7.19342 32.0684 7.68845 32.5174 8.21088V8.21088Z" fill="#333333"></path>
            <path d="M7.93453 6.72828L5.71484 5.91278L6.50302 8.21088C6.95245 7.68882 7.4304 7.19381 7.93453 6.72828V6.72828Z" fill="#333333"></path>
            <path d="M37.5346 12.4632L35.1914 12.3369C35.484 12.964 35.741 13.6081 35.9611 14.2662L37.5346 12.4632Z" fill="#333333"></path>
            <path d="M23.3406 20.1892C23.3406 19.137 22.9367 18.1279 22.2176 17.3839C21.4985 16.6399 20.5232 16.2219 19.5063 16.2219C18.4893 16.2219 17.514 16.6399 16.7949 17.3839C16.0759 18.1279 15.6719 19.137 15.6719 20.1892C15.6719 21.2414 16.0759 22.2505 16.7949 22.9946C17.514 23.7386 18.4893 24.1566 19.5063 24.1566C20.5232 24.1566 21.4985 23.7386 22.2176 22.9946C22.9367 22.2505 23.3406 21.2414 23.3406 20.1892ZM19.5063 21.3368C19.3604 21.337 19.216 21.3075 19.0812 21.2499C18.9464 21.1924 18.8238 21.1079 18.7206 21.0013C18.6173 20.8947 18.5354 20.7682 18.4794 20.6289C18.4234 20.4895 18.3945 20.3401 18.3943 20.1892C18.3941 20.0381 18.4227 19.8884 18.4786 19.7487C18.5344 19.6091 18.6163 19.4821 18.7196 19.3753C18.8228 19.2684 18.9455 19.1837 19.0805 19.1259C19.2155 19.0682 19.3602 19.0385 19.5063 19.0387C19.6521 19.0389 19.7965 19.0688 19.9311 19.1267C20.0658 19.1847 20.1881 19.2695 20.2911 19.3763C20.3941 19.4831 20.4758 19.6099 20.5314 19.7494C20.587 19.8889 20.6156 20.0383 20.6154 20.1892C20.615 20.4925 20.4988 20.7832 20.2921 20.9982C20.0854 21.2132 19.805 21.3349 19.5119 21.3368H19.5063Z" fill="#333333"></path>
            <path d="M26.9783 1.53696L25.2344 3.16356C25.8705 3.39143 26.4931 3.65784 27.099 3.96143L26.9783 1.53696Z" fill="#333333"></path>
            <path d="M12.044 1.53696L11.9219 3.96143C12.5288 3.65799 13.1524 3.39158 13.7894 3.16356L12.044 1.53696Z" fill="#333333"></path>
            <path d="M20.5152 2.19231L19.5083 0L18.5 2.19231C18.8337 2.17321 19.1703 2.15998 19.5097 2.15998C19.8491 2.15998 20.1786 2.17321 20.5152 2.19231Z" fill="#333333"></path>
            <path d="M19.5104 19.0387C19.3643 19.0385 19.2197 19.0681 19.0847 19.1259C18.9497 19.1836 18.827 19.2684 18.7237 19.3752C18.6204 19.4821 18.5385 19.609 18.4827 19.7487C18.4269 19.8884 18.3983 20.0381 18.3984 20.1892C18.3986 20.3401 18.4275 20.4895 18.4835 20.6288C18.5395 20.7682 18.6215 20.8947 18.7247 21.0013C18.828 21.1079 18.9505 21.1923 19.0853 21.2499C19.2201 21.3075 19.3646 21.337 19.5104 21.3368C19.8044 21.3364 20.0863 21.2154 20.2943 21.0003C20.5022 20.7851 20.6192 20.4935 20.6195 20.1892C20.6197 20.0383 20.5912 19.8889 20.5355 19.7494C20.4799 19.6099 20.3983 19.4831 20.2953 19.3763C20.1923 19.2695 20.07 19.1846 19.9353 19.1267C19.8006 19.0688 19.6562 19.0389 19.5104 19.0387Z" fill="white"></path>
            <path d="M19.5109 7.78622C16.3326 7.78972 13.2856 9.09759 11.0382 11.4228C8.79087 13.7481 7.52682 16.9008 7.52344 20.1892C7.5272 23.4771 8.79149 26.6291 11.0389 28.9536C13.2863 31.2781 16.3331 32.5851 19.5109 32.5878C22.6881 32.5843 25.7342 31.277 27.981 28.9526C30.2278 26.6282 31.4917 23.4766 31.4954 20.1892C31.492 16.9013 30.2284 13.7491 27.9817 11.4239C25.7349 9.09871 22.6886 7.7905 19.5109 7.78622V7.78622ZM8.9166 21.0106L14.4154 21.1972C14.4296 21.2766 14.4495 21.3559 14.4679 21.4353L10.7131 23.1985C10.8552 23.6439 11.0295 24.0776 11.2343 24.496L15.0914 22.9899C15.1624 23.1074 15.2334 23.2206 15.3129 23.3337L12.4982 26.4444C12.7945 26.7996 13.1158 27.1316 13.4596 27.4377L16.4675 24.5254C16.574 24.6062 16.6862 24.6811 16.797 24.7546L15.3513 28.7498C15.757 28.9612 16.1771 29.1419 16.6081 29.2905L18.3123 25.4026C18.3889 25.4217 18.4642 25.4422 18.5423 25.4584L18.7227 31.1478C16.187 30.9497 13.8037 29.8182 12.0048 27.9586C10.2059 26.0989 9.11034 23.6341 8.9166 21.0106V21.0106ZM15.6807 20.1892C15.6807 19.137 16.0847 18.1279 16.8038 17.3839C17.5229 16.6399 18.4982 16.2219 19.5151 16.2219C20.5321 16.2219 21.5073 16.6399 22.2264 17.3839C22.9455 18.1279 23.3495 19.137 23.3495 20.1892C23.3495 21.2414 22.9455 22.2505 22.2264 22.9945C21.5073 23.7386 20.5321 24.1565 19.5151 24.1565C18.4982 24.1565 17.5229 23.7386 16.8038 22.9945C16.0847 22.2505 15.6807 21.2414 15.6807 20.1892V20.1892ZM20.3047 31.1478L20.4865 25.4584C20.5632 25.4422 20.6385 25.4231 20.7151 25.4026L22.4193 29.2905C22.8499 29.1419 23.2694 28.9612 23.6747 28.7498L22.2205 24.7531C22.3341 24.6796 22.4449 24.6062 22.5528 24.5239L25.5592 27.4362C25.9027 27.1298 26.224 26.7978 26.5207 26.4429L23.706 23.3322C23.7826 23.2191 23.8565 23.1059 23.9261 22.9884L27.7846 24.4901C27.9893 24.0714 28.1639 23.6378 28.3072 23.1926L24.5509 21.4294C24.568 21.35 24.5879 21.2707 24.6049 21.1913L30.1023 21.0047C29.9107 23.628 28.817 26.0935 27.0196 27.9543C25.2222 29.8151 22.84 30.9481 20.3047 31.1478V31.1478ZM24.6049 19.1768C24.5879 19.096 24.5666 19.0196 24.5495 18.9403L28.3072 17.177C28.1639 16.7314 27.9893 16.2972 27.7846 15.8781L23.9261 17.3798C23.8565 17.2622 23.7841 17.1491 23.706 17.0374L26.5207 13.9267C26.2241 13.5714 25.9027 13.2389 25.5592 12.932L22.5528 15.8443C22.4449 15.7635 22.3341 15.6885 22.2205 15.6165L23.6733 11.6228C23.268 11.4118 22.8484 11.2316 22.4179 11.0835L20.7137 14.9685C20.5845 14.9362 20.4538 14.9083 20.3218 14.8877L20.1797 10.6265C19.9568 10.6089 19.7296 10.5986 19.5023 10.5986C19.2751 10.5986 19.0465 10.6089 18.8221 10.6265L18.6801 14.8877C18.548 14.9083 18.4188 14.9362 18.2895 14.9685L16.5854 11.0835C16.1544 11.2316 15.7343 11.4118 15.3285 11.6228L16.7799 15.6165C16.6692 15.6885 16.557 15.7635 16.449 15.8443L13.4426 12.932C13.0991 13.2389 12.7778 13.5714 12.4811 13.9267L15.2959 17.0374C15.2192 17.1491 15.1453 17.2622 15.0743 17.3798L11.2328 15.8795C11.0286 16.2987 10.8544 16.7329 10.7117 17.1785L14.4679 18.9417C14.4495 19.0211 14.4282 19.0975 14.414 19.1783L8.91517 19.3664C9.11834 16.602 10.3223 14.0187 12.2863 12.1328C14.2504 10.2469 16.8299 9.19738 19.5094 9.19389C22.1885 9.19778 24.7676 10.2476 26.7311 12.1334C28.6946 14.0193 29.898 16.6023 30.1009 19.3664L24.6049 19.1768Z" fill="white"></path>
        </g>
    </symbol>
    <symbol fill="none" xmlns="http://www.w3.org/2000/svg" viewBox="0 0 160 30" id="suzuki-logo">
        <path d="M11.59 6.60232L18.3105 11.146C19.6287 12.0569 21.1945 12.8098 23.5835 12.8098C27.2962 12.8098 30.6645 10.3668 30.6645 10.3668L15.3296 0C15.3296 0 13.6562 1.80063 8.40462 5.00175C2.88943 8.36083 0 9.34012 0 9.34012L19.8547 22.7606L18.9723 23.3292L12.354 18.854C11.0358 17.9431 9.47 17.1902 7.08097 17.1902C3.3683 17.1902 0 19.6332 0 19.6332L15.3349 30C15.3349 30 17.0083 28.1994 22.2599 24.9982C27.7751 21.6392 30.6645 20.6599 30.6645 20.6599L10.7076 7.17094L11.59 6.60232Z" fill="#DE0039"></path>
        <path d="M50.8844 12.8308C47.9735 12.4623 45.38 12.3886 45.31 11.3514C45.224 10.0456 47.3493 9.90876 48.0434 9.90876C49.2003 9.90876 51.0781 10.1667 51.514 11.8726H58.9501C58.9501 8.5925 55.7701 5.99686 48.0649 5.9758C39.4935 5.95474 38.0461 9.65603 38.0461 11.7568C38.0461 15.6529 41.1346 16.8006 47.8228 17.4904C50.3033 17.7431 51.8852 17.7378 51.8852 18.9488C51.8852 20.1913 49.9966 20.3177 49.2057 20.3177C48.4793 20.3177 46.4185 20.3229 45.7459 18.2748H37.6641C38.0138 22.1025 40.4836 24.3507 49.1949 24.3243C57.4004 24.3033 59.5527 21.0442 59.5527 18.5539C59.5527 16.153 57.8686 13.7048 50.8844 12.8308Z" fill="#00368F"></path>
        <path d="M83.8834 10.9144H93.7139L83.5391 20.2124V23.9189H104.201V19.4805H93.9184L104.234 10.2036V6.49176H83.8834V10.9144Z" fill="#00368F"></path>
        <path d="M159.998 6.49176H153.277V23.9189H159.998V6.49176Z" fill="#00368F"></path>
        <path d="M143.087 6.49176L135.937 12.4939V6.49176H129.211V23.9189H135.937V17.7431L142.576 23.9189H151.627L141.785 14.9842L151.944 6.49176H143.087Z" fill="#00368F"></path>
        <path d="M75.2125 13.7996C75.2125 14.0576 75.2125 14.4051 75.2125 16.5479C75.2125 18.6908 74.4161 20.1123 71.4406 20.1123C68.4651 20.1123 67.6688 18.6908 67.6688 16.5479C67.6688 14.4051 67.6688 14.0628 67.6688 13.7996C67.6688 13.5416 67.6688 6.49176 67.6688 6.49176H61.2227C61.2227 6.49176 61.2227 12.0042 61.2227 12.8414C61.2227 13.6785 61.2389 16.49 61.255 18.0642C61.2765 20.3071 61.8415 24.5876 71.4353 24.5876C81.029 24.5876 81.594 20.3071 81.6155 18.0642C81.6316 16.49 81.6478 13.6785 81.6478 12.8414C81.6478 12.0042 81.6478 6.49176 81.6478 6.49176H75.2017C75.2125 6.49176 75.2125 13.5416 75.2125 13.7996Z" fill="#00368F"></path>
        <path d="M120.451 13.7996C120.451 14.0576 120.451 14.4051 120.451 16.5479C120.451 18.6908 119.655 20.1123 116.679 20.1123C113.704 20.1123 112.907 18.6908 112.907 16.5479C112.907 14.4051 112.907 14.0628 112.907 13.7996C112.907 13.5416 112.907 6.49176 112.907 6.49176H106.461C106.461 6.49176 106.461 12.0042 106.461 12.8414C106.461 13.6785 106.477 16.49 106.493 18.0642C106.515 20.3071 107.08 24.5876 116.674 24.5876C126.267 24.5876 126.832 20.3071 126.854 18.0642C126.87 16.49 126.886 13.6785 126.886 12.8414C126.886 12.0042 126.886 6.49176 126.886 6.49176H120.44C120.451 6.49176 120.451 13.5416 120.451 13.7996Z" fill="#00368F"></path>
    </symbol>
    <symbol xmlns="http://www.w3.org/2000/svg" viewBox="0 0 9 13" id="marker">
        <path d="M4.5 0.40625C3.31481 0.40625 2.17817 0.877063 1.34012 1.71512C0.502063 2.55317 0.03125 3.68981 0.03125 4.875C0.03125 7.23531 4.0125 12.2281 4.18313 12.4434C4.22119 12.4909 4.26943 12.5292 4.32427 12.5555C4.37912 12.5818 4.43917 12.5955 4.5 12.5955C4.56083 12.5955 4.62088 12.5818 4.67573 12.5555C4.73057 12.5292 4.77881 12.4909 4.81688 12.4434C4.9875 12.2281 8.96875 7.23531 8.96875 4.875C8.96875 3.68981 8.49794 2.55317 7.65988 1.71512C6.82183 0.877063 5.68519 0.40625 4.5 0.40625V0.40625ZM4.5 6.09375C4.17861 6.09375 3.86443 5.99845 3.5972 5.81989C3.32997 5.64133 3.12169 5.38754 2.9987 5.09061C2.8757 4.79368 2.84352 4.46695 2.90622 4.15173C2.96892 3.83651 3.12369 3.54696 3.35095 3.3197C3.57821 3.09244 3.86776 2.93767 4.18298 2.87497C4.4982 2.81227 4.82493 2.84445 5.12186 2.96745C5.41879 3.09044 5.67258 3.29872 5.85114 3.56595C6.0297 3.83318 6.125 4.14736 6.125 4.46875C6.125 4.89973 5.95379 5.31305 5.64905 5.6178C5.3443 5.92255 4.93098 6.09375 4.5 6.09375Z"></path>
    </symbol>
    <symbol xmlns="http://www.w3.org/2000/svg" viewBox="0 0 12 12" id="phone">
        <path d="M4.09894 11.0526C4.09894 10.3124 4.21452 9.58738 4.44127 8.90021C4.55685 8.56484 4.46779 8.184 4.24294 7.96359L3.2141 6.60127C4.04841 5.03811 5.04821 4.03769 6.6 3.21475L7.9301 4.21579C8.1821 4.46779 8.55095 4.55812 8.89642 4.45012C9.588 4.22148 10.3137 4.10528 11.0526 4.10528C11.575 4.10528 12 3.68023 12 3.15791L12 0.947369C12 0.425043 11.575 -1.85792e-08 11.0526 -4.14108e-08C4.95853 -3.07792e-07 8.37324e-07 4.95853 5.70942e-07 11.0526C5.4811e-07 11.575 0.425044 12 0.94737 12L3.15157 12C3.6739 12 4.09894 11.575 4.09894 11.0526Z"></path>
    </symbol>
    <symbol xmlns="http://www.w3.org/2000/svg" viewBox="0 0 27 21" id="burger">
        <path d="M1.00659 19.0811H11.5066M1.00659 1.08105H25.0066H1.00659ZM1.00659 10.0811H25.0066H1.00659Z" stroke-width="2" stroke-linecap="round" stroke-linejoin="round"></path>
    </symbol>
    <symbol xmlns="http://www.w3.org/2000/svg" viewBox="0 0 26 26" id="close">
        <path d="M24.1488 0.322754L25.4373 1.61121L1.72571 25.3209L0.437256 24.0334L24.1488 0.322754Z"></path>
        <path d="M1.72571 0.322754L25.4373 24.0325L24.1488 25.3218L0.437256 1.61212L1.72571 0.322754Z"></path>
    </symbol>
    <symbol fill="none" xmlns="http://www.w3.org/2000/svg" viewBox="0 0 44 44" id="vw-logo">
        <path d="M22 41.9727C11.0613 41.9727 2.08934 32.9387 2.08934 22C2.07984 19.6174 2.50649 17.2532 3.34821 15.0242L14.9901 38.4631C15.1453 38.7736 15.3269 39.0157 15.6963 39.0157C16.0658 39.0157 16.2676 38.7658 16.4026 38.4631L21.7517 26.4549C21.8137 26.3323 21.8758 26.2097 21.9985 26.2097C22.1211 26.2097 22.1832 26.3323 22.2437 26.4549L27.5912 38.4693C27.7247 38.772 27.9281 39.0219 28.2975 39.0219C28.6669 39.0219 28.8501 38.7782 29.0038 38.4693L40.6456 15.0304C41.4886 17.2591 41.9158 19.6234 41.906 22.0062C41.906 32.9449 32.9341 41.979 21.9954 41.979L22 41.9727ZM21.9954 17.4892C21.8727 17.4892 21.8106 17.3665 21.7486 17.2439L15.4852 3.16503C19.6954 1.64794 24.3031 1.64794 28.5132 3.16503L22.2453 17.2377C22.1847 17.3603 22.1226 17.483 22 17.483L21.9954 17.4892ZM15.6358 31.9189C15.5132 31.9189 15.4511 31.7947 15.3905 31.672L5.25437 11.246C7.06334 8.45993 9.51953 6.15285 12.4133 4.52169L19.6949 20.7458C19.7284 20.8631 19.8025 20.9648 19.904 21.0324C20.0056 21.1001 20.1279 21.1295 20.2491 21.1152H23.751C23.8721 21.1292 23.9943 21.0997 24.0957 21.032C24.1972 20.9644 24.2714 20.863 24.3051 20.7458L31.5867 4.52169C34.4812 6.1546 36.9375 8.46387 38.7457 11.2522L28.6064 31.686C28.5443 31.8086 28.4838 31.9328 28.3596 31.9328C28.2354 31.9328 28.1764 31.8086 28.1143 31.686L24.3051 22.9593C24.2711 22.8424 24.1968 22.7413 24.0953 22.674C23.9939 22.6066 23.8719 22.5774 23.751 22.5914H20.2491C20.1281 22.5774 20.0061 22.6066 19.9047 22.674C19.8033 22.7413 19.729 22.8424 19.6949 22.9593L15.8857 31.686C15.8236 31.8086 15.7615 31.9328 15.6389 31.9328L15.6358 31.9189ZM22.0031 44.0077C26.3538 44.0071 30.6067 42.7165 34.224 40.2991C37.8413 37.8817 40.6606 34.446 42.3255 30.4264C43.9904 26.4069 44.4261 21.9839 43.5775 17.7167C42.7289 13.4496 40.6341 9.52981 37.558 6.45306C34.4819 3.3763 30.5626 1.2807 26.2956 0.431205C22.0286 -0.418295 17.6056 0.0164522 13.5856 1.68048C9.56571 3.34451 6.12943 6.1631 3.71124 9.77989C1.29305 13.3967 0.00154726 17.6493 1.23485e-05 22C-0.00305109 24.8899 0.563904 27.7521 1.66842 30.4226C2.77294 33.0932 4.39333 35.5197 6.43683 37.5632C8.48033 39.6067 10.9068 41.2271 13.5774 42.3316C16.2479 43.4361 19.1101 44.003 22 44" fill="#002F62"></path>
    </symbol>
    <symbol xmlns="http://www.w3.org/2000/svg" viewBox="0 0 34 13" id="model">
        <path d="M34 7.64875V9.5682C33.9885 9.7819 33.9228 9.98905 33.8091 10.1698C33.6955 10.3506 33.5377 10.4989 33.3509 10.6006C32.9531 10.8143 32.5319 10.9802 32.0959 11.095L31.4467 11.1968H31.014C30.8387 11.7022 30.5171 12.1428 30.0908 12.4619C29.6461 12.7734 29.1176 12.9404 28.5762 12.9404C28.0347 12.9404 27.5062 12.7734 27.0615 12.4619C26.6395 12.1386 26.3189 11.6993 26.1383 11.1968H8.55408C8.38998 11.7198 8.06702 12.1776 7.63086 12.5056C7.19205 12.8315 6.6613 13.0074 6.11624 13.0074C5.57117 13.0074 5.04042 12.8315 4.60162 12.5056C4.18032 12.1693 3.86055 11.721 3.67839 11.2114H3.40431C2.73726 11.2207 2.07079 11.1672 1.41363 11.0514C1.0424 10.9587 0.680282 10.8321 0.331749 10.6734L0 10.5134V8.09953L0.331749 7.50332L0.490493 7.00892C0.584328 6.66372 0.730269 6.33512 0.923229 6.03465C1.08199 5.69038 1.34443 5.4054 1.67327 5.22034C2.65622 4.77199 3.69454 4.45897 4.76027 4.28969C5.7985 4.05176 6.84808 3.86732 7.90494 3.73711L9.34745 3.57715L9.9966 3.03913C10.6427 2.61802 11.3122 2.23446 12.0017 1.89035C13.0367 1.37 14.1251 0.965279 15.2474 0.683411C16.7167 0.286881 18.2274 0.0672342 19.748 0.0290527C21.6954 0.0290527 23.6428 0.0290554 25.5901 0.145386C27.0327 0.247176 28.3165 0.392595 29.5426 0.581633L30.9851 0.843367V1.01788L30.6101 1.27961C31.0668 1.59019 31.4752 1.96755 31.8218 2.39931C32.2777 2.91995 32.6879 3.47945 33.0479 4.07156L33.322 4.66776V6.68901L34 7.64875Z"></path>
    </symbol>
    <symbol fill="none" xmlns="http://www.w3.org/2000/svg" viewBox="0 0 17 23" id="buyers">
        <path d="M9.88966 5.93268C9.69294 5.76674 9.44274 5.6746 9.18343 5.67259L9.70046 6.36618C9.76139 6.42382 9.80963 6.49314 9.84216 6.56983C9.8747 6.64653 9.89088 6.72896 9.88966 6.81204C9.8937 6.88958 9.88117 6.9671 9.85294 7.03962C9.82471 7.11214 9.78139 7.17804 9.72571 7.23315C9.61759 7.33626 9.47284 7.39401 9.32213 7.39416C9.24863 7.39465 9.17605 7.37807 9.1103 7.34578C9.04456 7.3135 8.98752 7.26643 8.94381 7.20839C8.62798 6.92231 8.35608 6.59271 8.13667 6.22992C8.04552 6.36054 7.98375 6.50873 7.95548 6.66463C7.92721 6.82053 7.93309 6.98058 7.97272 7.13408C8.0588 7.44 8.26118 7.70179 8.53809 7.86543C8.815 8.02906 9.1453 8.08204 9.46084 8.01344C9.62105 7.97665 9.77098 7.90533 9.89966 7.80465C10.0284 7.70397 10.1326 7.57645 10.2049 7.43132C10.3694 7.15034 10.4274 6.82134 10.3689 6.5024C10.262 6.27501 10.0969 6.07872 9.88966 5.93268ZM16.8259 6.34138C16.9752 7.03719 17.0304 7.74936 16.9898 8.45934C17.0078 9.4602 16.7784 10.4504 16.3214 11.3452C16.1034 11.6551 15.8163 11.9122 15.482 12.0967C15.1476 12.2813 14.7748 12.3886 14.3919 12.4103L14.2279 14.0328L13.4713 14.8751L13.9379 15.7544L13.4713 16.4976L13.9379 17.3769L13.1308 18.1325L13.61 19.0118L12.8029 19.8417L13.2821 20.6343L12.8029 21.4766V22.3064L12.0966 23.0124L11.2012 22.1701V13.2526C12.1694 12.6257 12.9662 11.7751 13.5217 10.7754C13.9606 10.1265 14.3085 9.42245 14.5558 8.68227C14.8428 7.98703 14.9087 7.22275 14.745 6.49C14.485 5.57551 13.9378 4.76496 13.1812 4.17391C13.7913 4.15572 14.4004 4.2352 14.9846 4.40924V4.03769C14.9942 3.64026 14.9209 3.24509 14.7691 2.87658C14.6172 2.50806 14.3902 2.17398 14.1019 1.89497C13.8197 1.60493 13.4784 1.37669 13.1003 1.22515C12.7221 1.07361 12.3156 1.0022 11.9074 1.0156C11.2213 1.02754 10.5583 1.26076 10.0204 1.67929C9.4826 2.09783 9.09987 2.67845 8.93119 3.3317C9.64074 3.60801 10.3208 3.95237 10.9616 4.35972C11.7439 4.78033 12.434 5.34853 12.9921 6.03174C13.1783 6.28219 13.3101 6.56751 13.3795 6.87002C13.449 7.17254 13.4544 7.48584 13.3956 7.79051C13.1838 8.66788 12.8259 9.50485 12.3362 10.2676C11.8126 11.1492 11.0926 11.9029 10.2302 12.4723C9.88141 12.6425 9.49722 12.731 9.10776 12.731C8.7183 12.731 8.33412 12.6425 7.98534 12.4723L6.93859 13.7851L5.85403 14.1072V15.0237L4.99648 15.4819V16.4109L3.86151 16.6957V17.7237L2.77688 18.0458V18.9747L1.91932 19.4329L1.45271 20.1389L0.405954 20.3619L0.078125 19.1233L5.12264 10.7135C4.76744 10.4669 4.47076 10.1477 4.25307 9.7778C4.03538 9.40794 3.90183 8.99618 3.86151 8.57081C3.97962 7.54388 4.37105 6.56562 4.99648 5.7345C5.3808 5.11102 5.84258 4.53688 6.37114 4.02529C6.71952 3.68325 7.15508 3.43942 7.63227 3.3193C7.82127 2.39311 8.33984 1.56329 9.09514 0.978449C9.85588 0.358197 10.8057 0.00512666 11.794 -0.0247796C12.3585 -0.0370742 12.9195 0.066755 13.4407 0.280059C13.962 0.493364 14.432 0.811424 14.8206 1.21378C15.2235 1.59535 15.5431 2.05347 15.7599 2.56025C15.9767 3.06703 16.0862 3.61187 16.0818 4.16155C16.0992 4.45442 16.0992 4.74804 16.0818 5.04091C16.467 5.38862 16.728 5.84899 16.8259 6.35378V6.34138Z" fill="#808890"></path>
    </symbol>
    <symbol xmlns="http://www.w3.org/2000/svg" viewBox="0 0 28 19" id="cars-model">
        <path d="M26.0987 8.72281C26.2073 8.61779 26.2931 8.49182 26.3509 8.35264C26.4087 8.21347 26.4372 8.06402 26.4348 7.91348C26.4163 7.59919 26.2824 7.3026 26.0584 7.07999C25.8344 6.85738 25.5359 6.72425 25.2197 6.7059H24.8835H24.6896L23.2806 7.52808L22.9962 9.01828H25.323C25.6072 9.00727 25.8799 8.90342 26.0987 8.72281ZM27.3914 4.77892H26.4606L26.6157 5.30563C26.9281 6.1451 27.1872 7.00322 27.3914 7.87494L27.5336 8.50442V11.9087C27.5231 12.0245 27.4925 12.1375 27.4431 12.2427C27.3585 12.5033 27.1847 12.726 26.9518 12.8722V14.5551L26.8485 14.7735L26.6157 14.8891H25.0387L24.8447 14.7735L24.7543 14.5551V13.2705C23.9787 13.2705 22.2981 13.2705 19.7127 13.2705V12.3969L19.1698 10.1359C19.3305 10.0668 19.4659 9.95016 19.5576 9.80192C19.7638 9.64967 19.9027 9.42412 19.9454 9.17243C20.5068 9.19543 21.0691 9.16965 21.6259 9.09535C21.8534 9.00029 22.0344 8.82044 22.1301 8.59434C22.275 8.37111 22.3881 8.12901 22.4662 7.87494L22.5696 7.4767H19.7386C19.5748 7.15817 19.3609 6.86762 19.1051 6.61598C18.5947 6.24687 17.9898 6.02865 17.36 5.9865L17.166 5.6011C16.8817 5.12578 16.649 4.76608 16.4939 4.54769H24.8319C24.5832 4.01993 24.307 3.50538 24.0045 3.00612C23.6555 2.38948 23.3323 1.87561 23.035 1.45168C22.1689 1.36175 20.7857 1.31037 18.9113 1.31037H17.9029H16.0027C15.0073 1.31037 14.3609 1.37461 14.0636 1.4003L13.9214 1.78568C13.7491 2.11113 13.6197 2.36806 13.5336 2.55648H13.0036C12.6158 2.55648 12.3055 2.55648 12.0728 2.55648C12.3862 1.7625 12.785 1.00446 13.2621 0.295499C13.469 0.0642619 15.2012 -0.0256779 18.433 1.51778e-05H20.2298C21.4727 -0.0435693 22.7167 0.0468934 23.9399 0.269801C24.2504 0.677617 24.5311 1.10692 24.7801 1.55445C25.2326 2.29955 25.6204 2.96757 25.9436 3.5842C26.2711 3.5842 26.5942 3.5842 26.9131 3.5842C27.1209 3.58734 27.3248 3.64022 27.5077 3.73836C27.6778 3.8697 27.8224 4.03077 27.9343 4.21367C27.9871 4.27435 28.0161 4.35187 28.0161 4.43206C28.0161 4.51226 27.9871 4.58979 27.9343 4.65047C27.7866 4.7285 27.6231 4.7724 27.456 4.77892H27.3914ZM16.4293 12.8209C16.5391 12.7122 16.6262 12.5831 16.6857 12.4409C16.7452 12.2987 16.7758 12.1462 16.7758 11.9922C16.7758 11.8383 16.7452 11.6858 16.6857 11.5436C16.6262 11.4014 16.5391 11.2723 16.4293 11.1636C16.3195 11.0488 16.187 10.9576 16.0402 10.8957C15.8935 10.8338 15.7355 10.8026 15.576 10.8039H15.1883H14.9943L13.7016 11.6261L13.4043 13.1934H15.7829C16.0537 13.1474 16.3028 13.017 16.4939 12.8209H16.4293ZM12.7838 11.8574C12.7838 11.7032 12.7838 11.6133 12.8872 11.6133H5.64808V11.9987C5.72525 12.2492 5.82025 12.4939 5.93244 12.7309C5.99136 12.8552 6.07986 12.9634 6.19021 13.0462C6.30055 13.129 6.42949 13.1839 6.56593 13.2062C8.30496 13.4117 10.0623 13.4117 11.8014 13.2062C12.2754 13.1463 12.6244 12.7138 12.8485 11.9087L12.7838 11.8574ZM5.11811 13.142L4.78199 11.6518L3.48928 10.8296C3.29946 10.7778 3.10427 10.7476 2.90755 10.7397C2.74813 10.7384 2.59015 10.7696 2.44338 10.8315C2.29661 10.8934 2.16414 10.9846 2.05432 11.0994C1.9415 11.208 1.8515 11.3376 1.78937 11.4809C1.72725 11.6243 1.69428 11.7784 1.6924 11.9344C1.68728 12.0861 1.7133 12.2372 1.76886 12.3786C1.82442 12.5199 1.90837 12.6486 2.01558 12.7566C2.12307 12.8728 2.25268 12.9667 2.39691 13.0329C2.54113 13.099 2.69714 13.1361 2.85587 13.142H5.11811ZM3.33417 7.88778L3.03679 8.56864H15.3046C15.1494 8.25176 14.878 7.75075 14.4902 7.0656C14.1024 6.38045 13.7792 5.8666 13.5207 5.52402C12.6417 5.4341 11.2714 5.38271 9.39696 5.38271H8.32399H6.47543C5.44127 5.38271 4.79491 5.44695 4.53637 5.47264C4.35539 5.94797 4.00636 6.77013 3.39879 7.95201L3.33417 7.88778ZM17.5539 7.88778H17.6573C17.775 8.02737 17.879 8.17795 17.9676 8.33741L17.89 8.65858H17.6961H16.6361L16.7783 9.13389C17.085 9.97522 17.344 10.833 17.5539 11.7032L17.6573 12.3198V15.8012V16.1352C17.5769 16.3979 17.402 16.622 17.166 16.7647V18.4476L17.0498 18.6403L16.83 18.7431H15.1366L14.891 18.6403L14.7875 18.4476V17.3043C13.4948 17.3685 11.6462 17.4071 9.0479 17.4071C6.44956 17.4071 4.51052 17.407 3.24367 17.3043V18.7045L3.15317 18.8973L2.90755 19H1.21411L1.02017 18.8973L0.916813 18.7045V17.0474C0.684025 16.9041 0.51338 16.6796 0.43844 16.4179L0.33508 16.0839V12.6024L0.477259 11.9087C0.632383 11.2921 0.890893 10.4314 1.25285 9.33944L1.44679 8.86413H0.37382C0.293515 8.88663 0.208508 8.88663 0.128203 8.86413C-0.00106763 8.76135 -0.00106763 8.62003 0.128203 8.42733C0.237506 8.2574 0.377812 8.10926 0.541878 7.99055C0.980748 7.75523 1.48075 7.65674 1.97676 7.70793L2.1707 7.36108C2.59222 6.34706 3.09359 5.36767 3.6702 4.43206C3.90289 4.20082 5.6265 4.08522 8.84102 4.08522L10.5862 4.18799C11.8456 4.15199 13.1054 4.23803 14.348 4.44492C14.653 4.85653 14.9335 5.28548 15.1883 5.72957C15.6407 6.46182 16.0285 7.12983 16.3517 7.70793C17.0239 7.66939 17.4376 7.78501 17.6056 8.05479L17.5539 7.88778Z"></path>
    </symbol>
    <symbol xmlns="http://www.w3.org/2000/svg" viewBox="0 0 22 22" id="service">
        <path d="M21.6249 7.33942C21.3295 8.04099 20.9051 8.68138 20.3738 9.22767C19.6479 9.96532 18.7121 10.4628 17.6931 10.6528C16.6841 10.853 15.6392 10.7729 14.6728 10.4212L3.68166 21.3766C3.5005 21.5685 3.28172 21.7214 3.03886 21.8256C2.79599 21.9298 2.53425 21.9831 2.26984 21.9823C2.01609 21.982 1.76532 21.9278 1.53421 21.8233C1.3031 21.7189 1.09695 21.5666 0.92947 21.3766L0.536237 21.0559C0.190776 20.668 0 20.1674 0 19.6487C0 19.13 0.190776 18.6293 0.536237 18.2414L11.5273 7.28593C11.1762 6.31632 11.1092 5.26715 11.3338 4.26093C11.5585 3.25472 12.0657 2.33297 12.7963 1.60333C13.3033 1.08282 13.9114 0.670681 14.5834 0.392007C15.2798 0.128506 16.0189 -0.00441943 16.7637 4.7938e-05L17.5143 0.730473L14.4941 3.741L15.2982 6.68021L18.1757 7.48185L21.196 4.47132L21.9287 5.14825C21.9963 5.89215 21.8924 6.64169 21.6249 7.33942Z"></path>
    </symbol>
    <symbol xmlns="http://www.w3.org/2000/svg" viewBox="0 0 17 23" id="specials-sale">
        <path d="M9.88966 5.93268C9.69294 5.76674 9.44274 5.6746 9.18343 5.67259L9.70046 6.36618C9.76139 6.42382 9.80963 6.49314 9.84216 6.56983C9.8747 6.64653 9.89088 6.72896 9.88966 6.81204C9.8937 6.88958 9.88117 6.9671 9.85294 7.03962C9.82471 7.11214 9.78139 7.17804 9.72571 7.23315C9.61759 7.33626 9.47284 7.39401 9.32213 7.39416C9.24863 7.39465 9.17605 7.37807 9.1103 7.34578C9.04456 7.3135 8.98752 7.26643 8.94381 7.20839C8.62798 6.92231 8.35608 6.59271 8.13667 6.22992C8.04552 6.36054 7.98375 6.50873 7.95548 6.66463C7.92721 6.82053 7.93309 6.98058 7.97272 7.13408C8.0588 7.44 8.26118 7.70179 8.53809 7.86543C8.815 8.02906 9.1453 8.08204 9.46084 8.01344C9.62105 7.97665 9.77098 7.90533 9.89966 7.80465C10.0284 7.70397 10.1326 7.57645 10.2049 7.43132C10.3694 7.15034 10.4274 6.82134 10.3689 6.5024C10.262 6.27501 10.0969 6.07872 9.88966 5.93268ZM16.8259 6.34138C16.9752 7.03719 17.0304 7.74936 16.9898 8.45934C17.0078 9.4602 16.7784 10.4504 16.3214 11.3452C16.1034 11.6551 15.8163 11.9122 15.482 12.0967C15.1476 12.2813 14.7748 12.3886 14.3919 12.4103L14.2279 14.0328L13.4713 14.8751L13.9379 15.7544L13.4713 16.4976L13.9379 17.3769L13.1308 18.1325L13.61 19.0118L12.8029 19.8417L13.2821 20.6343L12.8029 21.4766V22.3064L12.0966 23.0124L11.2012 22.1701V13.2526C12.1694 12.6257 12.9662 11.7751 13.5217 10.7754C13.9606 10.1265 14.3085 9.42245 14.5558 8.68227C14.8428 7.98703 14.9087 7.22275 14.745 6.49C14.485 5.57551 13.9378 4.76496 13.1812 4.17391C13.7913 4.15572 14.4004 4.2352 14.9846 4.40924V4.03769C14.9942 3.64026 14.9209 3.24509 14.7691 2.87658C14.6172 2.50806 14.3902 2.17398 14.1019 1.89497C13.8197 1.60493 13.4784 1.37669 13.1003 1.22515C12.7221 1.07361 12.3156 1.0022 11.9074 1.0156C11.2213 1.02754 10.5583 1.26076 10.0204 1.67929C9.4826 2.09783 9.09987 2.67845 8.93119 3.3317C9.64074 3.60801 10.3208 3.95237 10.9616 4.35972C11.7439 4.78033 12.434 5.34853 12.9921 6.03174C13.1783 6.28219 13.3101 6.56751 13.3795 6.87002C13.449 7.17254 13.4544 7.48584 13.3956 7.79051C13.1838 8.66788 12.8259 9.50485 12.3362 10.2676C11.8126 11.1492 11.0926 11.9029 10.2302 12.4723C9.88141 12.6425 9.49722 12.731 9.10776 12.731C8.7183 12.731 8.33412 12.6425 7.98534 12.4723L6.93859 13.7851L5.85403 14.1072V15.0237L4.99648 15.4819V16.4109L3.86151 16.6957V17.7237L2.77688 18.0458V18.9747L1.91932 19.4329L1.45271 20.1389L0.405954 20.3619L0.078125 19.1233L5.12264 10.7135C4.76744 10.4669 4.47076 10.1477 4.25307 9.7778C4.03538 9.40794 3.90183 8.99618 3.86151 8.57081C3.97962 7.54388 4.37105 6.56562 4.99648 5.7345C5.3808 5.11102 5.84258 4.53688 6.37114 4.02529C6.71952 3.68325 7.15508 3.43942 7.63227 3.3193C7.82127 2.39311 8.33984 1.56329 9.09514 0.978449C9.85588 0.358197 10.8057 0.00512666 11.794 -0.0247796C12.3585 -0.0370742 12.9195 0.066755 13.4407 0.280059C13.962 0.493364 14.432 0.811424 14.8206 1.21378C15.2235 1.59535 15.5431 2.05347 15.7599 2.56025C15.9767 3.06703 16.0862 3.61187 16.0818 4.16155C16.0992 4.45442 16.0992 4.74804 16.0818 5.04091C16.467 5.38862 16.728 5.84899 16.8259 6.35378V6.34138Z"></path>
    </symbol>
    <symbol xmlns="http://www.w3.org/2000/svg" viewBox="0 0 18 18" id="specials-service">
        <path d="M15.3459 4.20867C15.4457 4.11457 15.5244 4.0004 15.577 3.87366C15.6296 3.74692 15.6548 3.61048 15.651 3.47329C15.647 3.18592 15.5338 2.91087 15.3346 2.70397C15.1861 2.55735 14.9978 2.45772 14.7931 2.41754C14.5885 2.37737 14.3766 2.39841 14.1838 2.47803C13.991 2.55766 13.8258 2.69236 13.709 2.86532C13.5922 3.03828 13.5288 3.24184 13.5267 3.45064C13.5243 3.58868 13.5513 3.72567 13.6058 3.85246C13.6604 3.97926 13.7412 4.09297 13.8431 4.18606C13.9385 4.28872 14.0539 4.37077 14.1821 4.42719C14.3103 4.48361 14.4488 4.51319 14.5889 4.51413C14.7294 4.51903 14.8693 4.49438 14.9997 4.44176C15.1301 4.38915 15.2481 4.30975 15.3459 4.20867ZM11.2781 9.39031L10.555 8.66625L5.42504 13.8479L6.10298 14.572L11.2781 9.39031ZM4.28379 12.7052L10.9391 6.07542L10.216 5.36265L3.56061 12.0264L4.28379 12.7052ZM17.9787 1.0861C18.0125 1.19285 18.0125 1.30745 17.9787 1.4142L17.3007 7.81773L7.25555 17.785C7.21639 17.8381 7.16521 17.8811 7.1063 17.9105C7.0474 17.94 6.98237 17.9552 6.91651 17.9547C6.84421 17.9548 6.77273 17.9397 6.70658 17.9105C6.64042 17.8813 6.58109 17.8385 6.53237 17.785L0.17078 11.4155C0.114814 11.3849 0.0689527 11.3386 0.0388474 11.2824C0.00874209 11.2261 -0.00432734 11.1623 0.00126077 11.0987C0.000161662 11.0228 0.0146582 10.9475 0.043813 10.8774C0.0729678 10.8074 0.116187 10.7441 0.17078 10.6914L10.3403 0.667499L16.747 -0.0452659C16.9366 -0.0467514 17.1192 0.0264065 17.2555 0.158406L17.8883 0.803257L17.9787 1.0861Z"></path>
    </symbol>
    <symbol xmlns="http://www.w3.org/2000/svg" viewBox="0 0 21 21" id="test-drive">
        <path d="M6.02407 3.79257C4.71703 4.65663 3.69233 5.88948 3.07818 7.33675C3.02297 7.41705 2.9934 7.51234 2.9934 7.60998C2.9934 7.70763 3.02297 7.80301 3.07818 7.88331C3.13305 7.9604 3.20867 8.02004 3.29616 8.05526C3.38364 8.09047 3.47933 8.09978 3.57189 8.08204C5.80054 7.75108 8.05034 7.58504 10.3031 7.58522C12.6816 7.58466 15.0572 7.75066 17.4128 8.08204C17.5047 8.08631 17.5961 8.06543 17.6772 8.0217C17.7584 7.97796 17.8262 7.91296 17.8736 7.83358C17.917 7.75805 17.9397 7.67243 17.9397 7.58522C17.9397 7.498 17.917 7.41228 17.8736 7.33675C17.2949 5.88275 16.283 4.64467 14.9771 3.79257C13.6456 2.88818 12.074 2.40918 10.4677 2.41803C8.88207 2.41114 7.33201 2.89057 6.02407 3.79257ZM13.0845 12.9843C12.1325 14.3868 11.6961 16.0792 11.8502 17.7705C11.8531 17.8535 11.8736 17.935 11.9105 18.0092C11.9474 18.0835 11.9998 18.1489 12.064 18.2011C12.1356 18.2627 12.2205 18.3067 12.3119 18.3297C12.4033 18.3527 12.4987 18.354 12.5907 18.3336C13.9674 17.9679 15.2264 17.2488 16.2443 16.2469C17.2596 15.2546 17.9828 13.9995 18.3344 12.6199C18.3603 12.5309 18.3664 12.4373 18.3522 12.3456C18.3379 12.254 18.3038 12.1667 18.2521 12.0899C18.1978 12.0146 18.1258 11.954 18.0425 11.9135C17.9592 11.873 17.8673 11.854 17.7749 11.858C16.9546 11.7646 16.1265 11.7646 15.3062 11.858C14.4864 11.9465 13.7235 12.3216 13.1503 12.918L13.0845 12.9843ZM4.65805 16.1475C5.6252 17.1347 6.82587 17.8585 8.14717 18.2508C8.22463 18.2866 8.30877 18.305 8.39398 18.305C8.47918 18.305 8.56343 18.2866 8.64088 18.2508C8.71989 18.1992 8.78414 18.1277 8.82742 18.0435C8.8707 17.9593 8.89147 17.8652 8.88769 17.7705C8.89134 16.9798 8.80861 16.1912 8.64088 15.4188C8.49708 14.5516 8.13438 13.7362 7.58757 13.0505C6.98524 12.5505 6.27996 12.1916 5.52283 11.9997C4.76569 11.8078 3.97568 11.7877 3.20987 11.9409C3.12106 11.9332 3.03176 11.9489 2.95091 11.9867C2.87006 12.0245 2.80043 12.0829 2.74901 12.1562C2.69558 12.2322 2.65907 12.3189 2.64203 12.4103C2.62498 12.5018 2.62781 12.5958 2.65026 12.6861C3.02013 13.9912 3.71059 15.1817 4.65805 16.1475ZM15.7506 1.47402C17.3233 2.40517 18.6366 3.72114 19.5687 5.29972C20.506 6.88852 21.0006 8.70203 21.0006 10.5497C21.0006 12.3974 20.506 14.2109 19.5687 15.7997C18.6366 17.3782 17.3233 18.6942 15.7506 19.6254C14.1561 20.5576 12.3448 21.0487 10.5006 21.0487C8.65647 21.0487 6.84516 20.5576 5.25061 19.6254C3.6732 18.6947 2.35433 17.3789 1.41594 15.7997C0.488722 14.2074 0 12.3952 0 10.5497C0 8.70416 0.488722 6.892 1.41594 5.29972C2.35433 3.72044 3.6732 2.40468 5.25061 1.47402C6.84516 0.541743 8.65647 0.0506592 10.5006 0.0506592C12.3448 0.0506592 14.1561 0.541743 15.7506 1.47402Z"></path>
    </symbol>
    <symbol xmlns="http://www.w3.org/2000/svg" viewBox="0 0 21 18" id="business">
        <path d="M9.25857 12.0332C9.14642 11.9372 9.07135 11.8053 9.04622 11.6603V10.8647H11.857V11.6603C11.8596 11.7305 11.8463 11.8005 11.8182 11.865C11.7901 11.9295 11.7479 11.987 11.6946 12.0332C11.5814 12.1236 11.44 12.172 11.2949 12.1699H9.65834C9.51317 12.172 9.37181 12.1236 9.25857 12.0332ZM20.8642 6.79976V17.4904C20.8643 17.5615 20.8487 17.6318 20.8185 17.6962C20.7882 17.7607 20.7442 17.8177 20.6893 17.8633C20.581 17.9538 20.4435 18.0024 20.302 18H0.513777C0.445078 18.0057 0.37598 17.9964 0.311261 17.9728C0.246542 17.9492 0.187759 17.9118 0.139016 17.8633C0.0902724 17.8148 0.0527219 17.7563 0.0289889 17.6919C0.00525597 17.6275 -0.00406052 17.5587 0.00161568 17.4904V6.79976L2.71248 10.8647H7.63455V11.6603C7.63713 11.9214 7.69269 12.1793 7.79788 12.4186C7.90307 12.6578 8.0557 12.8734 8.24668 13.0525C8.42719 13.2452 8.64579 13.3988 8.88869 13.5036C9.13159 13.6084 9.39359 13.6623 9.65834 13.6617H11.2949C11.5657 13.6659 11.8345 13.6139 12.084 13.509C12.3335 13.4042 12.5583 13.2487 12.744 13.0525C12.9374 12.8753 13.0916 12.66 13.197 12.4204C13.3023 12.1807 13.3565 11.9219 13.3562 11.6603V10.8647H18.2782L20.8642 6.79976ZM13.0314 2.00143H8.03433V3.49312H13.0314V2.00143ZM17.5286 9.37297H3.66193L0.15152 4.18929V4.0028C0.145844 3.93444 0.155161 3.86568 0.178894 3.80128C0.202627 3.73688 0.240177 3.67839 0.28892 3.62988C0.337664 3.58138 0.396447 3.54402 0.461166 3.5204C0.525885 3.49678 0.594983 3.48748 0.663682 3.49312H6.01054V1.62848C6.00367 1.41374 6.03991 1.1998 6.11713 0.999158C6.19435 0.79852 6.31099 0.615253 6.46025 0.460009C6.59971 0.309482 6.77001 0.190499 6.95968 0.111147C7.14934 0.0317954 7.35395 -0.00610601 7.5596 3.21766e-05H13.556C13.7672 -0.00251352 13.9765 0.0393603 14.1703 0.122908C14.364 0.206455 14.5379 0.329809 14.6804 0.484857C14.8317 0.634698 14.9515 0.812961 15.033 1.00929C15.1145 1.20561 15.156 1.41607 15.1551 1.62848V3.49312H20.4519C20.5968 3.49308 20.7375 3.54123 20.8517 3.62988C20.9025 3.67808 20.943 3.73593 20.9709 3.79999C20.9988 3.86404 21.0135 3.93299 21.0141 4.0028V4.18929L17.5286 9.37297Z" ></path>
    </symbol>
    <symbol xmlns="http://www.w3.org/2000/svg" viewBox="0 0 32 7" id="more">
        <circle cx="3.5" cy="3.5" r="3.5"></circle>
        <circle cx="15.5469" cy="3.5" r="3.5"></circle>
        <circle cx="27.5859" cy="3.5" r="3.5"></circle>
    </symbol>
    <symbol xmlns="http://www.w3.org/2000/svg" viewBox="0 0 21 20" id="awards">
        <path d="M8.59789 1.8541C9.19659 0.0114827 11.8034 0.0114794 12.4021 1.8541L13.3064 4.63729C13.5742 5.46133 14.3421 6.01925 15.2085 6.01925H18.135C20.0724 6.01925 20.878 8.49848 19.3105 9.63729L16.943 11.3574C16.242 11.8667 15.9487 12.7694 16.2165 13.5935L17.1208 16.3766C17.7195 18.2193 15.6105 19.7515 14.0431 18.6127L11.6756 16.8926C10.9746 16.3833 10.0254 16.3833 9.32443 16.8926L6.95691 18.6127C5.38948 19.7515 3.28052 18.2193 3.87923 16.3766L4.78354 13.5935C5.05129 12.7694 4.75797 11.8667 4.057 11.3574L1.68947 9.63729C0.122046 8.49848 0.9276 6.01925 2.86505 6.01925H5.79146C6.65792 6.01925 7.42583 5.46133 7.69357 4.63729L8.59789 1.8541Z" ></path>
    </symbol>
    <symbol xmlns="http://www.w3.org/2000/svg" viewBox="0 0 20 20" id="contacts">
        <path d="M19.7495 9.76576C20.112 9.36703 20.077 8.75589 19.6713 8.4011L10.733 0.580074C10.3273 0.225284 9.67688 0.232716 9.27971 0.596829L0.311057 8.81809C-0.0861094 9.1822 -0.105603 9.79255 0.267898 10.1808L0.492755 10.415C0.8658 10.8032 1.46879 10.8495 1.8387 10.518L2.50897 9.9178V18.7055C2.50897 19.2447 2.94584 19.6812 3.48461 19.6812H6.98061C7.51938 19.6812 7.95625 19.2447 7.95625 18.7055V12.5577H12.4154V18.7055C12.4077 19.2443 12.7932 19.6808 13.332 19.6808H17.0368C17.5756 19.6808 18.0125 19.2443 18.0125 18.7051V10.0415C18.0125 10.0415 18.1976 10.2037 18.426 10.4045C18.654 10.6048 19.1329 10.4442 19.4954 10.0451L19.7495 9.76576Z"></path>
    </symbol>
    <symbol xmlns="http://www.w3.org/2000/svg" viewBox="0 0 24 24" id="credit-calc">
        <path d="M14.7537 16.8396C15.6047 16.343 16.3129 15.6292 16.8079 14.7692C17.3072 13.9059 17.5678 12.9219 17.562 11.9209C17.6003 10.908 17.3618 9.90393 16.8729 9.0198C16.3818 8.15674 15.6727 7.44207 14.8187 6.94947C13.9704 6.44007 13.0028 6.17133 12.017 6.17133C11.0312 6.17133 10.0635 6.44007 9.21523 6.94947C8.36423 7.44608 7.65614 8.15981 7.16112 9.0198C6.65875 9.8819 6.39799 10.8668 6.40704 11.8682C6.40125 12.8691 6.66178 13.8531 7.16112 14.7165C7.65945 15.5739 8.36678 16.2869 9.21523 16.7869C10.0662 17.2883 11.0329 17.5524 12.017 17.5524C13.0012 17.5524 13.9677 17.2883 14.8187 16.7869L14.7537 16.8396ZM23.9975 13.0022L23.4125 16.1275L20.0971 16.9715L18.797 18.7912L18.9401 22.2594C18.5241 22.4572 18.069 22.6945 17.5749 22.9846L16.2748 23.7495L13.4926 21.5736C12.7625 21.6456 12.029 21.6764 11.2955 21.666L8.69524 23.9868C7.65515 23.4989 6.68007 23.0506 5.77 22.6682L5.67898 19.2L4.20985 17.4726L0.894588 16.8264L0.0625 13.6615L2.66272 11.433L3.10471 9.2176L1.44061 6.19781L3.35173 3.56044L6.66707 4.29894C7.31713 4.00883 7.96718 3.67916 8.61724 3.30993L9.91734 0.0923462C11.0224 0.0923462 12.0885 0.0923462 13.0896 0.0923462L14.5977 3.20441L16.6519 4.10111L19.9672 3.20441L22.0214 5.68354L20.7212 8.79561L20.9683 9.89014C21.0983 10.3121 21.1892 10.655 21.2543 10.9187L23.9975 13.0022Z"></path>
    </symbol>
    <symbol xmlns="http://www.w3.org/2000/svg" viewBox="0 0 21 21" id="world-vw">
        <path d="M13.6833 0.496125C13.671 0.490875 13.6596 0.486486 13.6474 0.483C12.6534 0.169764 11.5964 0 10.5 0C5.78025 0 1.77975 3.13076 0.462 7.42436C0.457611 7.43925 0.454125 7.45324 0.450639 7.46812C0.160125 8.42887 0 9.44561 0 10.5C0 13.2125 1.04299 15.68 2.73701 17.5455C2.76765 17.5971 2.80703 17.6409 2.85514 17.6759C4.77225 19.7164 7.48564 21 10.5 21C15.8217 21 20.2204 17.0179 20.8985 11.879C20.909 11.8449 20.9125 11.8116 20.9142 11.7766C20.9659 11.3575 21 10.9331 21 10.5C21 5.82049 17.9209 1.848 13.6833 0.496125ZM10.5 20.125C7.77611 20.125 5.31739 18.9823 3.56475 17.157C3.63214 16.4876 3.80014 14.4498 3.47989 13.4313C3.32149 12.9281 2.97937 12.5851 2.6775 12.2832C2.46139 12.0671 2.25664 11.8632 2.14639 11.6261C1.89176 11.0845 1.5225 8.96175 1.3239 7.59937C2.55761 3.70564 6.20374 0.874986 10.5 0.874986C11.2271 0.874986 11.9324 0.962473 12.6131 1.11649C12.3541 1.43497 12.1485 1.79111 12.0164 2.06411C11.5071 1.87688 10.7923 1.66425 10.3941 1.7631C9.7344 1.92761 9.04751 2.77635 8.39475 3.68197C8.29676 3.81761 8.15936 4.09324 8.05526 4.31808C7.56263 4.28047 7.0665 4.5027 6.66401 4.9341C6.2694 5.35672 5.96925 6.01035 6.18889 6.51611C6.32363 6.82324 6.61853 6.99997 7.00001 6.99997C7.40078 6.99997 7.77701 6.78033 8.17601 6.54671C8.5269 6.34196 8.89001 6.12933 9.19365 6.12495C10.7748 6.09082 11.5815 6.48896 11.8195 6.85646C11.8843 6.95621 11.9061 7.0542 11.8851 7.15485C11.5675 7.21436 10.6671 7.12249 10.0538 7.06035C9.0195 6.95711 7.95026 6.84949 7.32637 7.01396C6.552 7.21785 6.10136 7.75158 5.32087 8.94772C4.97089 9.48499 5.06801 10.6059 5.28589 11.1099C5.43551 11.4572 5.96839 12.0811 6.42953 12.2281C6.80576 12.3462 7.29229 12.2797 7.80765 12.2089C8.19615 12.1538 8.78329 12.0741 8.95301 12.1809C9.35464 12.4381 9.62501 13.5205 9.62501 14.8715C9.61976 14.9441 9.51562 15.1558 9.45439 15.2828C9.29426 15.6082 9.12975 15.946 9.19714 16.275C9.46751 17.6059 10.4737 18.3785 11.3006 18.3785C11.3391 18.3785 11.3767 18.3767 11.4135 18.3732C12.6228 18.2656 14.6125 16.7081 14.8671 15.3956C14.9293 15.0727 14.9004 14.5871 14.8689 14.0735C14.84 13.5966 14.8077 13.0558 14.8654 12.7776C14.9232 12.4993 15.3808 11.6664 15.6862 11.1658C15.7956 10.9856 15.7623 10.7537 15.6048 10.6128C15.3309 10.3661 14.8978 9.95396 14.7919 9.80696C14.6922 9.66783 14.5259 9.34844 14.3606 9.00371C14.4918 9.0501 14.595 9.0921 14.6449 9.12269C15.1376 9.4272 16.317 10.7423 16.7309 11.2227C16.8333 11.3426 16.9908 11.3977 17.1474 11.3671C17.7984 11.2393 17.8824 10.5682 17.9367 10.1237C17.9568 9.96356 17.9936 9.66693 18.0408 9.61267C18.3978 9.53129 18.8598 10.254 19.2291 10.8403C19.4846 11.2463 19.7313 11.6278 20.0096 11.9078C19.3253 16.548 15.3274 20.125 10.5 20.125Z"></path>
    </symbol>
    <symbol xmlns="http://www.w3.org/2000/svg" viewBox="0 0 31 27" id="service-form">
        <path d="M15.4201 6.41935C15.4188 6.89988 15.5128 7.37579 15.6966 7.81903C15.8805 8.26227 16.1505 8.66381 16.4907 8.99996C16.8179 9.35099 17.2128 9.63076 17.6511 9.82197C18.0895 10.0132 18.5619 10.1118 19.0394 10.1118C19.5169 10.1118 19.9894 10.0132 20.4277 9.82197C20.8661 9.63076 21.261 9.35099 21.5882 8.99996C21.9317 8.66053 22.2046 8.2553 22.3909 7.808C22.5773 7.36071 22.6733 6.88036 22.6733 6.39514C22.6733 5.90991 22.5773 5.42957 22.3909 4.98227C22.2046 4.53498 21.9317 4.12975 21.5882 3.79031C21.2692 3.43945 20.8815 3.1593 20.4496 2.96772C20.0177 2.77613 19.5511 2.67729 19.0794 2.67741C18.109 2.67855 17.1784 3.06699 16.4907 3.75802C16.1291 4.09465 15.8456 4.50784 15.6606 4.9679C15.4755 5.42795 15.3934 5.92355 15.4201 6.41935ZM8.6448 16.4032C8.38254 16.1307 8.23392 15.767 8.22942 15.3871C8.22316 15.2118 8.25737 15.0374 8.32949 14.8778C8.4016 14.7183 8.50956 14.5779 8.6448 14.4677L13.7422 9.32256C13.1958 8.4126 12.9032 7.37048 12.8954 6.30644C12.8812 5.48436 13.0341 4.66806 13.3447 3.90795C13.6553 3.14785 14.1169 2.46009 14.7011 1.8871C15.2398 1.28722 15.9063 0.818514 16.6505 0.516171C17.4034 0.215824 18.206 0.0625229 19.0155 0.0645109C19.83 0.0501919 20.6387 0.204568 21.3917 0.518042C22.1448 0.831515 22.8262 1.29744 23.3938 1.8871C23.9481 2.48559 24.3919 3.17933 24.7042 3.93552C25.0189 4.6857 25.1818 5.49177 25.1835 6.30644C25.1988 7.12723 25.048 7.94256 24.7402 8.70246C24.4325 9.46236 23.9744 10.1508 23.3938 10.7258C22.8678 11.3219 22.2112 11.7858 21.4763 12.0807C20.7284 12.379 19.9314 12.5322 19.1273 12.5322C18.014 12.5539 16.9137 12.2874 15.9314 11.7581L13.5345 14.1774C11.7932 14.6076 10.1389 15.3389 8.6448 16.3387V16.4032ZM31.0159 22.1613V23.9839C31.0035 24.1818 30.9431 24.3735 30.84 24.5423C30.7369 24.711 30.5943 24.8515 30.4247 24.9516C30.0793 25.1323 29.7148 25.273 29.3381 25.371L28.7469 25.4839H28.3314C28.1661 25.9366 27.8714 26.3296 27.4846 26.6129C27.1002 26.9115 26.6272 27.0706 26.1422 27.0645C25.6488 27.0585 25.169 26.901 24.7665 26.6128C24.364 26.3247 24.058 25.9196 23.8892 25.4516H7.79795C7.63871 25.9032 7.34931 26.2964 6.96699 26.5806C6.57625 26.8727 6.10296 27.0303 5.61678 27.0303C5.13059 27.0303 4.6572 26.8727 4.26647 26.5806C3.8796 26.2973 3.58489 25.9043 3.41961 25.4516H3.24386C2.62121 25.4669 1.9989 25.4074 1.3902 25.2742C1.03869 25.2124 0.695466 25.1096 0.367495 24.9677L0 24.8548V22.7258L0.303612 22.129L0.431475 21.6452C0.591268 21.3226 0.751043 21.0161 0.910836 20.7419C1.05371 20.4188 1.30981 20.1603 1.62993 20.0161C2.49291 19.5667 3.42025 19.2565 4.37833 19.0967C5.2572 18.9032 6.24797 18.7419 7.31858 18.6129L8.6448 18.5L9.23613 17.9517C9.80117 17.5275 10.4058 17.1601 11.0417 16.8548C11.9972 16.3602 13.005 15.9761 14.0458 15.7097C15.3735 15.3428 16.7442 15.1583 18.1207 15.1613C19.9583 15.1613 21.7799 15.1613 23.5696 15.2903C24.8479 15.4032 26.0464 15.5484 27.1649 15.7097L28.4913 15.9516V16.0968L28.1877 16.4032L29.2104 17.4355C29.6177 17.8793 29.9766 18.3659 30.2809 18.8871L30.5846 19.4355V21.2419L31.0159 22.1613Z"></path>
    </symbol>
    <symbol xmlns="http://www.w3.org/2000/svg" viewBox="0 0 10 13" id="vw-arrow">
        <g clip-path="url(#clip0_2565_14319)">
            <path d="M5.00976 -0.0297099C5.20686 -0.0288859 5.39575 0.0487937 5.53569 0.186611L9.78811 4.44623C9.9112 4.58894 9.97549 4.77249 9.96819 4.96024C9.96089 5.14799 9.88252 5.32609 9.74872 5.45895C9.61491 5.5918 9.43554 5.66965 9.24645 5.67691C9.05736 5.68416 8.8725 5.62027 8.72878 5.49806L4.9722 1.80544L1.25318 5.49806C1.18334 5.56798 1.10023 5.62351 1.00868 5.66138C0.917123 5.69925 0.818917 5.71875 0.719734 5.71875C0.620552 5.71875 0.522346 5.69925 0.430792 5.66138C0.339237 5.62351 0.256129 5.56798 0.186285 5.49806C0.0463514 5.35829 -0.0321761 5.16925 -0.0321761 4.97217C-0.0321761 4.77509 0.0463513 4.586 0.186285 4.44623L4.43875 0.223947C4.50999 0.143424 4.59789 0.0790777 4.69642 0.0353093C4.79495 -0.00845912 4.90182 -0.0306425 5.00976 -0.0297099Z"></path>
        </g>
        <g clip-path="url(#clip1_2565_14319)">
            <path d="M5.00976 6.39876C5.20686 6.39958 5.39575 6.47726 5.53569 6.61508L9.78811 10.8747C9.9112 11.0174 9.97549 11.201 9.96819 11.3887C9.96089 11.5765 9.88252 11.7546 9.74872 11.8874C9.61491 12.0203 9.43554 12.0981 9.24645 12.1054C9.05736 12.1126 8.8725 12.0487 8.72878 11.9265L4.9722 8.23391L1.25318 11.9265C1.18334 11.9964 1.10023 12.052 1.00868 12.0898C0.917123 12.1277 0.818917 12.1472 0.719734 12.1472C0.620552 12.1472 0.522346 12.1277 0.430792 12.0898C0.339237 12.052 0.256129 11.9964 0.186285 11.9265C0.0463514 11.7868 -0.0321761 11.5977 -0.0321761 11.4006C-0.0321761 11.2036 0.0463513 11.0145 0.186285 10.8747L4.43875 6.65241C4.50999 6.57189 4.59789 6.50754 4.69642 6.46378C4.79495 6.42001 4.90182 6.39782 5.00976 6.39876Z"></path>
        </g>
    </symbol>
</svg>