<svg width="0" height="0" class="hidden">
    <symbol fill="none" xmlns="http://www.w3.org/2000/svg" viewBox="0 0 129 41" id="ya-logo-black">
        <g clip-path="url(#clip0_2816_15912)">
            <path d="M77.9714 21.2046H73.9453V23.9288H77.9714V21.2046Z" fill="#333333"></path>
            <path d="M105.001 22.3154C104.608 21.9624 104.154 21.6906 103.662 21.5146C104.153 21.3242 104.579 20.989 104.887 20.5507C105.277 20.0261 105.477 19.3778 105.456 18.7169C105.461 18.3113 105.388 17.9087 105.24 17.5332C105.091 17.1577 104.871 16.8171 104.592 16.532C104.048 15.9912 103.091 15.4725 101.569 15.4725H95.418V28.359H101.184C102.276 28.359 103.524 28.1929 104.365 27.6992C105.181 27.2305 105.954 26.3356 105.954 24.7134C105.958 23.7966 105.681 22.9737 105.001 22.3154ZM98.7241 17.994H100.684C101.069 17.994 101.569 18.0439 101.912 18.3261C102.036 18.4399 102.133 18.5813 102.196 18.7397C102.259 18.898 102.286 19.0691 102.276 19.24C102.286 19.395 102.264 19.5504 102.213 19.6963C102.161 19.8422 102.081 19.9756 101.978 20.0878C101.638 20.3935 101.049 20.4405 100.546 20.4405H98.7241V17.994ZM102.132 25.332C101.725 25.8243 101.045 25.8507 100.702 25.8507H98.7141V22.912H100.702C101.201 22.912 101.611 22.984 101.908 23.1721C102.317 23.4321 102.451 23.8068 102.451 24.3241C102.47 24.6869 102.358 25.0443 102.137 25.3262L102.132 25.332Z" fill="#333333"></path>
            <path d="M84.4987 11.9695L78.5 28.3869H82.546L83.7971 24.2285H89.0872L90.3369 28.3869H94.3701L88.3714 11.9695H84.4987ZM84.6137 21.5029L86.44 15.4329L88.2677 21.5029H84.6137Z" fill="#333333"></path>
            <path d="M57.6039 11.6463C52.5936 11.6463 49.7931 13.9796 49.225 18.4436H47.3235V12.018H43.8711V28.359H47.3235V21.2266H49.1498C49.4963 26.1564 52.3337 28.7292 57.6053 28.7292C63.229 28.7292 66.0821 25.8066 66.1006 20.2186V20.1613C66.0807 14.5718 63.2276 11.6463 57.6039 11.6463ZM57.6039 25.67C54.1614 25.67 52.9174 23.2749 52.9174 20.1892C52.9174 17.1035 54.1671 14.704 57.6039 14.704C61.0406 14.704 62.2903 17.0991 62.3045 20.1892C62.3187 23.2793 61.0506 25.67 57.6039 25.67Z" fill="#333333"></path>
            <path d="M76.6931 15.4725H68.1055V28.359H71.4968V18.0586H76.1051L76.6931 15.4725Z" fill="#333333"></path>
            <path d="M106.496 18.0116H109.432V28.359H112.838V18.0116H115.794L116.541 15.4725H106.496V18.0116Z" fill="#333333"></path>
            <path d="M127.274 16.8082C126.294 15.8663 124.65 15.2316 122.809 15.2316C120.969 15.2316 119.32 15.8663 118.344 16.8082C116.869 18.2658 116.617 20.2598 116.617 21.9055C116.617 23.5482 116.869 25.5466 118.344 27.0027C119.32 27.9417 120.966 28.5779 122.809 28.5779C124.652 28.5779 126.294 27.9417 127.274 27.0027C128.747 25.5466 128.998 23.5482 128.999 21.9055C128.998 20.2598 128.747 18.2658 127.274 16.8082ZM124.907 24.9941C124.338 25.886 123.332 25.9801 122.809 25.9801C122.286 25.9801 121.277 25.886 120.71 24.9941C120.413 24.5533 120.115 23.9508 120.115 21.9084C120.115 19.866 120.413 19.2635 120.71 18.8227C121.278 17.9264 122.282 17.8338 122.809 17.8338C123.336 17.8338 124.343 17.9264 124.907 18.8227C125.203 19.2635 125.496 19.8645 125.5 21.9084C125.504 23.9523 125.203 24.5489 124.907 24.9941Z" fill="#333333"></path>
            <path d="M35.1914 28.0371L37.5346 27.9122L35.9611 26.1078C35.741 26.7659 35.484 27.4101 35.1914 28.0371V28.0371Z" fill="#333333"></path>
            <path d="M35.3673 22.8429C35.5041 21.9654 35.5735 21.0781 35.5746 20.1892C35.5737 19.3003 35.5039 18.4129 35.3658 17.5355L33.977 17.2108L35.14 16.363C34.7437 14.6295 34.079 12.9737 33.1717 11.4597L31.7743 11.7095L32.5312 10.4723C31.522 9.02766 30.2961 7.75926 28.8999 6.71506L27.7042 7.49824L27.947 6.05384C26.4843 5.11407 24.8838 4.42627 23.208 4.01729L22.3886 5.21923L22.0747 3.78072C21.2271 3.63966 20.3699 3.56842 19.5114 3.56766C18.6514 3.56842 17.7929 3.63966 16.9438 3.78072L16.6328 5.21923L15.8119 4.01729C14.136 4.42731 12.5352 5.11504 11.0715 6.05384L11.3143 7.49824L10.12 6.71506C8.72443 7.76004 7.49865 9.02833 6.48868 10.4723L7.24419 11.7095L5.8482 11.4597C4.94037 12.9733 4.27564 14.6293 3.87988 16.363L5.04297 17.2108L3.65266 17.5355C3.5158 18.413 3.44646 19.3004 3.44531 20.1892C3.44646 21.0781 3.5158 21.9654 3.65266 22.8429L5.04297 23.1662L3.87988 24.014C4.27629 25.7478 4.94046 27.404 5.84678 28.9188L7.24419 28.6675L6.48868 29.9048C7.49821 31.3491 8.72405 32.6174 10.12 33.6619L11.3143 32.8788L11.0715 34.3246C12.5359 35.2631 14.1371 35.9508 15.8133 36.3612L16.6328 35.1578L16.9438 36.5948C17.7926 36.7383 18.6513 36.8106 19.5114 36.8108C20.37 36.8103 21.2272 36.7386 22.0747 36.5963L22.3886 35.1578L23.208 36.3612C24.8834 35.9508 26.4836 35.2631 27.947 34.3246L27.7042 32.8788L28.9014 33.6619C30.2981 32.6168 31.5249 31.348 32.5355 29.9033L31.7786 28.6661L33.176 28.9173C34.0807 27.4041 34.7439 25.7499 35.14 24.0184L33.977 23.1706L35.3673 22.8429ZM19.5114 32.5893C16.3337 32.5866 13.2868 31.2796 11.0394 28.9551C8.79202 26.6306 7.52772 23.4786 7.52396 20.1907C7.52735 16.9023 8.79139 13.7496 11.0387 11.4243C13.2861 9.09907 16.3332 7.7912 19.5114 7.7877C22.6891 7.79198 25.7355 9.10019 27.9822 11.4254C30.2289 13.7505 31.4926 16.9028 31.496 20.1907C31.4918 23.4778 30.2278 26.629 27.981 28.9531C25.7343 31.2772 22.6884 32.5843 19.5114 32.5878V32.5893Z" fill="#333333"></path>
            <path d="M19.5122 9.19242C16.8327 9.19591 14.2532 10.2455 12.2891 12.1313C10.3251 14.0172 9.12114 16.6005 8.91797 19.3649L14.4168 19.1768C14.431 19.096 14.4523 19.0196 14.4707 18.9403L10.7145 17.177C10.8572 16.7314 11.0314 16.2973 11.2356 15.8781L15.0927 17.3798C15.1638 17.2622 15.2348 17.1491 15.3143 17.0374L12.4996 13.9267C12.7962 13.5714 13.1175 13.2389 13.461 12.932L16.4674 15.8443C16.5754 15.7635 16.6876 15.6885 16.7983 15.6165L15.3526 11.6242C15.7584 11.4133 16.1785 11.2331 16.6095 11.085L18.3136 14.97C18.4429 14.9377 18.5721 14.9098 18.7042 14.8892L18.8462 10.628C19.0706 10.6104 19.2964 10.6001 19.5264 10.6001C19.7565 10.6001 19.9809 10.6104 20.2038 10.628L20.3458 14.8892C20.4779 14.9098 20.6086 14.9377 20.7378 14.97L22.442 11.085C22.8725 11.2331 23.2921 11.4133 23.6974 11.6242L22.2446 15.618C22.3582 15.69 22.469 15.7649 22.5769 15.8458L25.5833 12.9334C25.9268 13.2403 26.2482 13.5728 26.5448 13.9282L23.73 17.0389C23.8067 17.1506 23.8806 17.2637 23.9502 17.3812L27.8087 15.8795C28.0134 16.2987 28.188 16.7329 28.3313 17.1785L24.5736 18.9417C24.5907 19.0211 24.612 19.0975 24.629 19.1783L30.1264 19.3664C29.9236 16.598 28.7171 14.0113 26.7487 12.1245C24.7803 10.2377 22.1955 9.19041 19.5122 9.19242Z" fill="#333333"></path>
            <path d="M2.08619 20.1878C2.08619 19.8381 2.09897 19.4898 2.11743 19.1445L0 20.1863L2.11743 21.231C2.09897 20.8857 2.08619 20.5375 2.08619 20.1878Z" fill="#333333"></path>
            <path d="M1.48438 27.9122L3.82761 28.0371C3.53348 27.4104 3.27551 26.7662 3.05505 26.1078L1.48438 27.9122Z" fill="#333333"></path>
            <path d="M24.5523 21.4353L28.3086 23.1985C28.1653 23.6437 27.9907 24.0773 27.786 24.496L23.9275 22.9899C23.8579 23.1074 23.7855 23.2206 23.7074 23.3337L26.5221 26.4444C26.2254 26.7993 25.9041 27.1313 25.5606 27.4377L22.5542 24.5254C22.4463 24.6062 22.3355 24.6811 22.2219 24.7546L23.6747 28.7469C23.2694 28.9583 22.8498 29.139 22.4193 29.2876L20.7151 25.3997C20.6384 25.4202 20.5632 25.4393 20.4865 25.4555L20.3047 31.1449C22.8396 30.9456 25.2216 29.8134 27.0192 27.9535C28.8168 26.0936 29.911 23.629 30.1037 21.0062L24.6063 21.1928C24.5836 21.2766 24.5694 21.3559 24.5523 21.4353Z" fill="#333333"></path>
            <path d="M6.50302 32.1631L5.71484 34.4613L7.93453 33.6457C7.4304 33.1802 6.95244 32.6852 6.50302 32.1631Z" fill="#333333"></path>
            <path d="M31.0859 33.6457L33.3056 34.4613L32.5174 32.1631C32.0684 32.6856 31.5904 33.1806 31.0859 33.6457Z" fill="#333333"></path>
            <path d="M36.9389 20.1878C36.9389 20.5375 36.929 20.8857 36.9062 21.231L39.0265 20.1863L36.9062 19.1445C36.9233 19.4898 36.9389 19.8381 36.9389 20.1878Z" fill="#333333"></path>
            <path d="M26.9783 38.8385L27.099 36.4126C26.4931 36.7162 25.8705 36.9826 25.2344 37.2105L26.9783 38.8385Z" fill="#333333"></path>
            <path d="M18.3026 25.4026L16.5984 29.2906C16.1703 29.1416 15.7532 28.9609 15.3501 28.7498L16.7959 24.7531C16.6851 24.6797 16.5729 24.6062 16.4664 24.5239L13.4585 27.4362C13.1147 27.1302 12.7933 26.7982 12.4971 26.4429L15.3118 23.3322C15.2351 23.2191 15.1613 23.106 15.0903 22.9884L11.2317 24.4945C11.0269 24.0761 10.8527 23.6424 10.7105 23.1971L14.4654 21.4338C14.4469 21.3545 14.4271 21.2751 14.4129 21.1958L8.91406 21.0092C9.10726 23.6317 10.2017 26.096 11.9992 27.9558C13.7967 29.8156 16.1784 30.948 18.713 31.1479L18.5327 25.4584C18.4546 25.4423 18.3793 25.4217 18.3026 25.4026Z" fill="#333333"></path>
            <path d="M3.82761 12.3369L1.48438 12.4632L3.05505 14.2662C3.27551 13.6079 3.53348 12.9636 3.82761 12.3369V12.3369Z" fill="#333333"></path>
            <path d="M18.5 38.1818L19.5083 40.3755L20.5152 38.1818C20.1829 38.2023 19.8477 38.2156 19.5097 38.2156C19.1717 38.2156 18.8337 38.2023 18.5 38.1818Z" fill="#333333"></path>
            <path d="M12.0451 38.8385L13.7904 37.2105C13.1544 36.9823 12.5318 36.7159 11.9258 36.4126L12.0451 38.8385Z" fill="#333333"></path>
            <path d="M32.5174 8.21088L33.3056 5.91278L31.0859 6.72828C31.5904 7.19342 32.0684 7.68845 32.5174 8.21088V8.21088Z" fill="#333333"></path>
            <path d="M7.93453 6.72828L5.71484 5.91278L6.50302 8.21088C6.95245 7.68882 7.4304 7.19381 7.93453 6.72828V6.72828Z" fill="#333333"></path>
            <path d="M37.5346 12.4632L35.1914 12.3369C35.484 12.964 35.741 13.6081 35.9611 14.2662L37.5346 12.4632Z" fill="#333333"></path>
            <path d="M23.3406 20.1892C23.3406 19.137 22.9367 18.1279 22.2176 17.3839C21.4985 16.6399 20.5232 16.2219 19.5063 16.2219C18.4893 16.2219 17.514 16.6399 16.7949 17.3839C16.0759 18.1279 15.6719 19.137 15.6719 20.1892C15.6719 21.2414 16.0759 22.2505 16.7949 22.9946C17.514 23.7386 18.4893 24.1566 19.5063 24.1566C20.5232 24.1566 21.4985 23.7386 22.2176 22.9946C22.9367 22.2505 23.3406 21.2414 23.3406 20.1892ZM19.5063 21.3368C19.3604 21.337 19.216 21.3075 19.0812 21.2499C18.9464 21.1924 18.8238 21.1079 18.7206 21.0013C18.6173 20.8947 18.5354 20.7682 18.4794 20.6289C18.4234 20.4895 18.3945 20.3401 18.3943 20.1892C18.3941 20.0381 18.4227 19.8884 18.4786 19.7487C18.5344 19.6091 18.6163 19.4821 18.7196 19.3753C18.8228 19.2684 18.9455 19.1837 19.0805 19.1259C19.2155 19.0682 19.3602 19.0385 19.5063 19.0387C19.6521 19.0389 19.7965 19.0688 19.9311 19.1267C20.0658 19.1847 20.1881 19.2695 20.2911 19.3763C20.3941 19.4831 20.4758 19.6099 20.5314 19.7494C20.587 19.8889 20.6156 20.0383 20.6154 20.1892C20.615 20.4925 20.4988 20.7832 20.2921 20.9982C20.0854 21.2132 19.805 21.3349 19.5119 21.3368H19.5063Z" fill="#333333"></path>
            <path d="M26.9783 1.53696L25.2344 3.16356C25.8705 3.39143 26.4931 3.65784 27.099 3.96143L26.9783 1.53696Z" fill="#333333"></path>
            <path d="M12.044 1.53696L11.9219 3.96143C12.5288 3.65799 13.1524 3.39158 13.7894 3.16356L12.044 1.53696Z" fill="#333333"></path>
            <path d="M20.5152 2.19231L19.5083 0L18.5 2.19231C18.8337 2.17321 19.1703 2.15998 19.5097 2.15998C19.8491 2.15998 20.1786 2.17321 20.5152 2.19231Z" fill="#333333"></path>
            <path d="M19.5104 19.0387C19.3643 19.0385 19.2197 19.0681 19.0847 19.1259C18.9497 19.1836 18.827 19.2684 18.7237 19.3752C18.6204 19.4821 18.5385 19.609 18.4827 19.7487C18.4269 19.8884 18.3983 20.0381 18.3984 20.1892C18.3986 20.3401 18.4275 20.4895 18.4835 20.6288C18.5395 20.7682 18.6215 20.8947 18.7247 21.0013C18.828 21.1079 18.9505 21.1923 19.0853 21.2499C19.2201 21.3075 19.3646 21.337 19.5104 21.3368C19.8044 21.3364 20.0863 21.2154 20.2943 21.0003C20.5022 20.7851 20.6192 20.4935 20.6195 20.1892C20.6197 20.0383 20.5912 19.8889 20.5355 19.7494C20.4799 19.6099 20.3983 19.4831 20.2953 19.3763C20.1923 19.2695 20.07 19.1846 19.9353 19.1267C19.8006 19.0688 19.6562 19.0389 19.5104 19.0387Z" fill="white"></path>
            <path d="M19.5109 7.78622C16.3326 7.78972 13.2856 9.09759 11.0382 11.4228C8.79087 13.7481 7.52682 16.9008 7.52344 20.1892C7.5272 23.4771 8.79149 26.6291 11.0389 28.9536C13.2863 31.2781 16.3331 32.5851 19.5109 32.5878C22.6881 32.5843 25.7342 31.277 27.981 28.9526C30.2278 26.6282 31.4917 23.4766 31.4954 20.1892C31.492 16.9013 30.2284 13.7491 27.9817 11.4239C25.7349 9.09871 22.6886 7.7905 19.5109 7.78622V7.78622ZM8.9166 21.0106L14.4154 21.1972C14.4296 21.2766 14.4495 21.3559 14.4679 21.4353L10.7131 23.1985C10.8552 23.6439 11.0295 24.0776 11.2343 24.496L15.0914 22.9899C15.1624 23.1074 15.2334 23.2206 15.3129 23.3337L12.4982 26.4444C12.7945 26.7996 13.1158 27.1316 13.4596 27.4377L16.4675 24.5254C16.574 24.6062 16.6862 24.6811 16.797 24.7546L15.3513 28.7498C15.757 28.9612 16.1771 29.1419 16.6081 29.2905L18.3123 25.4026C18.3889 25.4217 18.4642 25.4422 18.5423 25.4584L18.7227 31.1478C16.187 30.9497 13.8037 29.8182 12.0048 27.9586C10.2059 26.0989 9.11034 23.6341 8.9166 21.0106V21.0106ZM15.6807 20.1892C15.6807 19.137 16.0847 18.1279 16.8038 17.3839C17.5229 16.6399 18.4982 16.2219 19.5151 16.2219C20.5321 16.2219 21.5073 16.6399 22.2264 17.3839C22.9455 18.1279 23.3495 19.137 23.3495 20.1892C23.3495 21.2414 22.9455 22.2505 22.2264 22.9945C21.5073 23.7386 20.5321 24.1565 19.5151 24.1565C18.4982 24.1565 17.5229 23.7386 16.8038 22.9945C16.0847 22.2505 15.6807 21.2414 15.6807 20.1892V20.1892ZM20.3047 31.1478L20.4865 25.4584C20.5632 25.4422 20.6385 25.4231 20.7151 25.4026L22.4193 29.2905C22.8499 29.1419 23.2694 28.9612 23.6747 28.7498L22.2205 24.7531C22.3341 24.6796 22.4449 24.6062 22.5528 24.5239L25.5592 27.4362C25.9027 27.1298 26.224 26.7978 26.5207 26.4429L23.706 23.3322C23.7826 23.2191 23.8565 23.1059 23.9261 22.9884L27.7846 24.4901C27.9893 24.0714 28.1639 23.6378 28.3072 23.1926L24.5509 21.4294C24.568 21.35 24.5879 21.2707 24.6049 21.1913L30.1023 21.0047C29.9107 23.628 28.817 26.0935 27.0196 27.9543C25.2222 29.8151 22.84 30.9481 20.3047 31.1478V31.1478ZM24.6049 19.1768C24.5879 19.096 24.5666 19.0196 24.5495 18.9403L28.3072 17.177C28.1639 16.7314 27.9893 16.2972 27.7846 15.8781L23.9261 17.3798C23.8565 17.2622 23.7841 17.1491 23.706 17.0374L26.5207 13.9267C26.2241 13.5714 25.9027 13.2389 25.5592 12.932L22.5528 15.8443C22.4449 15.7635 22.3341 15.6885 22.2205 15.6165L23.6733 11.6228C23.268 11.4118 22.8484 11.2316 22.4179 11.0835L20.7137 14.9685C20.5845 14.9362 20.4538 14.9083 20.3218 14.8877L20.1797 10.6265C19.9568 10.6089 19.7296 10.5986 19.5023 10.5986C19.2751 10.5986 19.0465 10.6089 18.8221 10.6265L18.6801 14.8877C18.548 14.9083 18.4188 14.9362 18.2895 14.9685L16.5854 11.0835C16.1544 11.2316 15.7343 11.4118 15.3285 11.6228L16.7799 15.6165C16.6692 15.6885 16.557 15.7635 16.449 15.8443L13.4426 12.932C13.0991 13.2389 12.7778 13.5714 12.4811 13.9267L15.2959 17.0374C15.2192 17.1491 15.1453 17.2622 15.0743 17.3798L11.2328 15.8795C11.0286 16.2987 10.8544 16.7329 10.7117 17.1785L14.4679 18.9417C14.4495 19.0211 14.4282 19.0975 14.414 19.1783L8.91517 19.3664C9.11834 16.602 10.3223 14.0187 12.2863 12.1328C14.2504 10.2469 16.8299 9.19738 19.5094 9.19389C22.1885 9.19778 24.7676 10.2476 26.7311 12.1334C28.6946 14.0193 29.898 16.6023 30.1009 19.3664L24.6049 19.1768Z" fill="white"></path>
        </g>
    </symbol>
    <symbol fill="none" xmlns="http://www.w3.org/2000/svg" viewBox="0 0 86 94" id="peugeot-logo">
        <g clip-path="url(#clip0_2929_5)">
            <path d="M23.126 57.329C22.8407 57.329 22.6886 57.2346 22.6505 57.0458C22.5554 56.5548 22.2702 54.8365 22.1751 54.3455C22.08 53.8545 22.1751 53.9112 22.4603 53.8357C23.6965 53.4391 25.7505 52.7404 27.4051 52.1551C27.5815 52.1096 27.7452 52.0247 27.8836 51.9069C28.022 51.7891 28.1315 51.6415 28.2038 51.4753C28.9075 50.3612 30.6191 47.3776 31.4179 45.8103C31.4745 45.7025 31.5041 45.5827 31.5041 45.461C31.5041 45.3394 31.4745 45.2195 31.4179 45.1117L31.0375 44.5074C30.8863 44.2738 30.6575 44.1002 30.3909 44.0164L25.4082 42.7891C25.1782 42.7235 24.9344 42.7235 24.7045 42.7891H24.5143C26.1308 43.3367 27.5002 43.8276 29.2498 44.4885C29.4148 44.5635 29.5442 44.6988 29.6112 44.8662L29.7633 45.3949C29.8105 45.4921 29.835 45.5986 29.835 45.7065C29.835 45.8144 29.8105 45.9209 29.7633 46.0181C28.9034 47.6432 27.8841 49.1801 26.7204 50.6066C26.5653 50.7872 26.3699 50.9294 26.1499 51.0221C25.1419 51.3809 23.3542 51.9851 22.5554 52.1739C22.4994 52.2021 22.4375 52.2168 22.3748 52.2168C22.312 52.2168 22.2501 52.2021 22.1941 52.1739C21.6235 51.7774 20.4444 50.6633 20.4444 50.6633C20.4444 50.6633 20.4444 51.8718 20.4444 52.4005C20.4352 52.4568 20.4352 52.5142 20.4444 52.5705C20.6536 53.0426 21.015 53.9301 21.1481 54.4588L21.2622 54.7987L22.0039 57.8955C22.0039 58.2543 22.2702 58.3676 22.5935 58.311C22.9168 58.2543 24.2671 57.8578 24.7996 57.6878C24.8828 57.6696 24.9569 57.6228 25.0088 57.5556L25.9216 56.7437L23.126 57.329Z"></path>
            <path d="M26.015 50.229C26.837 49.201 27.5929 48.1225 28.2782 47L22.9531 51.3998C23.847 51.1165 25.0261 50.72 25.7488 50.4556C25.8563 50.4051 25.9483 50.3268 26.015 50.229Z" fill="white"></path>
            <path d="M26.1513 32.5356H25.2004C25.1614 32.5397 25.1251 32.5569 25.0974 32.5844C25.0697 32.6119 25.0523 32.648 25.0482 32.6866L24.9531 33.8196H25.0672L26.0372 33.6119C26.1021 33.5937 26.1625 33.5626 26.2149 33.5204C26.2672 33.4782 26.3103 33.4258 26.3414 33.3664C26.403 33.2331 26.4348 33.0882 26.4348 32.9415C26.4348 32.7949 26.403 32.65 26.3414 32.5167C26.3115 32.5007 26.2773 32.4939 26.2435 32.4973C26.2096 32.5007 26.1775 32.514 26.1513 32.5356Z" fill="white"></path>
            <path d="M16.8125 46.679L18.2579 48.3785L18.6953 45.4516C18.3069 45.4965 17.9344 45.6308 17.6075 45.8439C17.2806 46.057 17.0084 46.3429 16.8125 46.679Z" fill="white"></path>
            <path d="M64.3007 46.358C62.1505 43.1963 59.7192 40.2324 57.0358 37.5018C56.9024 37.3575 56.7406 37.2418 56.5604 37.1619L55.9708 36.9164C55.9708 36.9164 57.0358 41.5806 57.5303 44.1298C57.5837 44.4607 57.7439 44.7655 57.9867 44.9984C59.3453 46.2817 60.5687 47.6989 61.6382 49.2282C62.0213 49.7912 62.2566 50.4403 62.3229 51.1165C62.5663 55.0015 62.4645 58.9002 62.0186 62.7674C62.0135 62.9804 61.9574 63.1892 61.8549 63.3763C61.7523 63.5635 61.6064 63.7237 61.429 63.8437C57.8346 66.714 51.9199 71.7935 49.3715 74.2861C49.1715 74.4686 48.9986 74.6784 48.858 74.9092C48.6005 75.3115 48.3656 75.7275 48.1543 76.1555C47.841 75.2232 47.5932 74.2705 47.4126 73.3042C47.3555 72.954 47.3555 72.5969 47.4126 72.2467C47.9957 69.6294 48.7194 67.0451 49.5807 64.5046C49.5897 64.4357 49.5897 64.3659 49.5807 64.2969V63.8437C48.0979 66.9592 46.7775 70.1483 45.6249 73.3986C45.558 73.5537 45.5234 73.7207 45.5234 73.8895C45.5234 74.0583 45.558 74.2253 45.6249 74.3805C45.9863 75.4191 47.0513 78.006 47.5267 79.0446C47.5267 79.0446 48.6869 76.9108 49.4286 75.8156C49.6194 75.5159 49.8496 75.2428 50.1132 75.0036C52.015 73.1153 59.299 67.2049 62.6462 64.7124C63.0138 64.4726 63.273 64.1001 63.3689 63.6738C64.8025 58.2375 65.2278 52.5875 64.6241 47C64.5728 46.7623 64.4615 46.5413 64.3007 46.358Z" fill="white"></path>
            <path d="M49.58 31.2515C49.7176 31.018 49.7649 30.7428 49.7132 30.4773C49.5991 29.8164 49.4279 29.0611 49.2948 28.589C49.2865 28.5355 49.2647 28.4849 49.2315 28.442C49.1982 28.399 49.1546 28.3652 49.1046 28.3435L48.0776 27.8525C47.9407 27.8147 47.7961 27.8147 47.6592 27.8525C45.2059 28.2869 42.6384 28.7778 40.6986 29.231C40.5439 29.2709 40.4089 29.3648 40.3182 29.4954L39.7096 30.5339C39.6829 30.562 39.668 30.5992 39.668 30.6378C39.668 30.6764 39.6829 30.7136 39.7096 30.7417L41.6114 31.0815C41.7661 31.1307 41.9323 31.1307 42.0869 31.0815C43.3231 30.5717 45.339 29.7975 46.8414 29.1932C46.9589 29.1557 47.0853 29.1557 47.2028 29.1932L47.8874 29.4198C47.9393 29.4332 47.9879 29.4569 48.0304 29.4893C48.0729 29.5217 48.1083 29.5623 48.1347 29.6087C48.3058 29.9297 48.515 30.2885 48.6291 30.5339C48.6644 30.6359 48.6724 30.7451 48.6524 30.851C48.6324 30.9569 48.585 31.0559 48.515 31.1382C48.0206 31.8558 47.1457 33.0265 46.6132 33.7441C46.5448 33.8197 46.4967 33.9113 46.4735 34.0104C46.4502 34.1094 46.4525 34.2126 46.4801 34.3106C46.8414 35.5002 47.6022 37.9739 48.0015 39.1635C48.0547 39.3006 48.1394 39.4234 48.2488 39.5223L48.8193 40.0321C48.8193 40.0321 47.9064 35.859 47.6972 34.6504C47.6594 34.5674 47.6399 34.4773 47.6399 34.3861C47.6399 34.2949 47.6594 34.2048 47.6972 34.1217C48.2868 33.3286 49.1616 32.0257 49.58 31.2515Z" fill="white"></path>
            <path d="M71.4128 34.7449C71.3923 34.6124 71.3424 34.4861 71.2667 34.3751C71.1911 34.2641 71.0916 34.1711 70.9754 34.1028C67.6542 31.735 64.1135 29.6864 60.4013 27.9847C60.0147 27.8431 59.5898 27.8431 59.2032 27.9847C57.8149 28.4946 55.5897 29.4198 53.2695 30.515L54.772 30.6472C54.9657 30.6937 55.1678 30.6937 55.3615 30.6472L58.3283 29.9297C58.5667 29.8757 58.8139 29.8731 59.0534 29.9219C59.2929 29.9708 59.5191 30.07 59.7167 30.2129C61.086 31.2326 63.2731 32.9887 64.6804 34.1406C64.9222 34.3503 65.1989 34.5164 65.4982 34.6316C67.6282 35.4813 68.5791 35.9156 69.0546 36.1611C69.2173 36.2464 69.3605 36.3642 69.4751 36.5072C69.5897 36.6503 69.6731 36.8153 69.7202 36.9919C70.2855 39.5417 70.6605 42.1294 70.8423 44.734C70.8819 45.1693 70.8234 45.608 70.6711 46.0181C69.8602 48.0466 68.8806 50.0047 67.7423 51.8718C67.6581 51.9992 67.5556 52.1137 67.438 52.2117L66.2399 53.1747C66.2033 53.2 66.1737 53.234 66.1537 53.2736C66.1338 53.3132 66.1242 53.3571 66.1258 53.4013C66.1258 54.3266 65.9356 56.0827 65.9356 56.0827C68.169 53.1452 70.0816 49.9802 71.641 46.6412C71.774 46.4237 71.8523 46.1775 71.8693 45.9236C72.2716 42.1954 72.1178 38.4286 71.4128 34.7449Z" fill="white"></path>
            <path d="M44.1593 80.3476C43.6839 79.2712 41.1735 73.3797 40.4888 71.1137C40.271 70.509 40.2121 69.8591 40.3177 69.2254C40.9991 63.9786 41.9641 58.772 43.2084 53.628C43.266 53.4371 43.266 53.2335 43.2084 53.0426C43.2084 52.5894 42.8471 51.0032 42.8471 51.0032C40.7323 56.1463 38.9536 61.4193 37.522 66.7895C37.3052 67.3486 37.3052 67.9677 37.522 68.5267C39.5385 73.2357 41.8506 77.8144 44.4446 82.2359L44.2734 80.8385C44.2649 80.6695 44.2262 80.5032 44.1593 80.3476Z" fill="white"></path>
            <path d="M40.2615 80.7818L39.0253 79.9699C38.8284 79.8493 38.6437 79.7102 38.4738 79.5545C34.3535 75.236 30.6479 70.5452 27.4052 65.5432C27.0896 65.0907 26.9417 64.5434 26.9868 63.9948C26.9868 63.2961 27.177 61.9176 27.3101 61.1057C27.3564 60.6327 27.5805 60.1944 27.9377 59.8783C29.1359 58.8019 31.0567 56.8947 32.0457 55.8939C32.404 55.553 32.7057 55.1579 32.9395 54.7232C33.8524 53.0237 36.7431 46.9622 37.599 44.4886C37.7586 44.1664 37.799 43.7987 37.7131 43.45C37.3895 41.8815 36.9832 40.331 36.4959 38.8047V39.9377C36.4866 40.013 36.4866 40.0891 36.4959 40.1643C36.6985 41.294 36.8255 42.4358 36.8763 43.5822C36.8933 43.8738 36.8203 44.1637 36.6671 44.413C33.5939 49.367 30.1212 54.0654 26.2832 58.462C25.9643 58.8184 25.7534 59.257 25.6746 59.7272C25.5034 60.5581 25.2942 62.4653 25.1611 63.9948C25.114 64.3277 25.1353 64.6665 25.2235 64.991C25.3117 65.3155 25.4652 65.619 25.6746 65.8831C29.0669 70.8065 32.94 75.3858 37.2376 79.5545C37.3873 79.6828 37.5536 79.7908 37.7321 79.8755C38.5499 80.3287 40.775 81.4239 40.775 81.4239L40.4327 80.8196C40.408 80.8024 40.3802 80.7902 40.3509 80.7838C40.3215 80.7773 40.2911 80.7766 40.2615 80.7818Z" fill="white"></path>
            <path d="M29.8954 31.4025L34.3647 30.0241C34.6292 29.9457 34.8536 29.7701 34.9923 29.5331L37.3125 25.5866C37.3259 25.5635 37.3329 25.5373 37.3328 25.5107C37.3328 25.4841 37.3256 25.4579 37.3121 25.4349C37.2986 25.4119 37.2792 25.3928 37.2559 25.3797C37.2326 25.3665 37.2062 25.3597 37.1793 25.36H35.1634C34.9737 25.3415 34.7826 25.3415 34.5929 25.36C32.6381 26.0438 30.732 26.8576 28.8874 27.7959C28.7228 27.8831 28.5799 28.0057 28.469 28.1547L26.377 30.7794C26.3013 30.8588 26.2109 30.9229 26.1108 30.9682L24.7225 31.5536C24.6582 31.5884 24.6053 31.6408 24.5703 31.7047V31.8369C24.5703 31.8369 27.4801 31.7424 28.3739 31.6669C28.8898 31.6386 29.4005 31.5498 29.8954 31.4025Z" fill="white"></path>
            <path d="M38.0174 21.81C43.6087 21.3945 50.0178 21.5078 51.5773 21.5456C51.8102 21.5463 52.0414 21.5845 52.262 21.6589L53.4031 22.0366C50.6074 22.1876 43.894 22.7919 41.0983 23.264L42.0492 23.3961H42.2584C44.2934 23.264 48.2491 23.1507 49.9988 23.1129C50.3712 23.1008 50.7417 23.1717 51.0828 23.3206C52.0908 23.6983 54.1257 24.6235 54.8865 25.039C55.2534 25.2416 55.6648 25.3519 56.0846 25.36C56.9975 25.36 58.3858 25.4922 59.4318 25.6055C59.7105 25.6277 59.982 25.7047 60.2306 25.8321C62.4236 26.9718 64.5507 28.2326 66.6016 29.6087C66.7055 29.6753 66.822 29.7203 66.944 29.7409L67.7998 29.9108C67.7998 29.9108 65.0421 27.1161 63.9962 26.1342C63.8393 26.0041 63.6742 25.8842 63.5017 25.7754C60.3079 23.9154 57.0197 22.22 53.6503 20.6959C53.3245 20.5566 52.9772 20.4736 52.6233 20.4504C46.6859 19.9925 40.7217 19.9925 34.7843 20.4504C34.6262 20.4554 34.4715 20.4974 34.3327 20.5729C34.1939 20.6483 34.075 20.7551 33.9855 20.8847C33.7954 21.1491 33.472 21.6589 33.2058 22.1121C33.0555 22.3301 32.8835 22.5326 32.6923 22.7163C31.7984 23.4717 30.315 24.718 29.3831 25.4166L29.193 25.5488L27.2911 26.814C27.2911 26.814 27.177 26.814 27.12 26.9839L26.6445 27.5693C30.4482 25.3977 35.507 22.6786 37.1996 21.9044C37.4666 21.8363 37.7417 21.8045 38.0174 21.81Z" fill="white"></path>
            <path d="M19.8364 34.1406C19.7932 34.2046 19.7343 34.2566 19.6652 34.2917C16.2039 36.7465 14.2641 38.3138 13.4843 38.9558L12.6095 39.8433C12.3623 40.0888 12.3052 40.1832 12.2862 40.3909C12.2672 40.5986 12.2862 40.7875 12.2862 40.9196C12.2692 40.9815 12.2692 41.0467 12.2862 41.1085L12.6665 41.5428H12.7806L14.6825 40.1643C14.7597 40.109 14.8245 40.0382 14.8726 39.9566C14.9867 39.7678 15.1199 39.5034 15.215 39.3335C15.2329 39.2838 15.2606 39.2381 15.2966 39.1992C15.3325 39.1603 15.3759 39.1289 15.4242 39.1069L15.9567 38.767C15.8318 39.3217 15.6601 39.8649 15.4432 40.3909C15.4313 40.4967 15.399 40.5993 15.3481 40.693C14.8346 41.2218 13.9217 42.2415 13.4463 42.8079C13.3814 42.8955 13.3464 43.0014 13.3464 43.1101C13.3464 43.2188 13.3814 43.3246 13.4463 43.4122C14.026 44.2168 14.6614 44.9803 15.3481 45.6971C15.4495 45.8306 15.5794 45.9403 15.7285 46.0181L16.1088 46.2069C16.1088 46.2069 16.5462 44.092 16.7364 43.4311C16.7679 43.3152 16.8306 43.2101 16.9177 43.1269C17.0048 43.0438 17.1131 42.9857 17.2309 42.959C19.4941 42.4114 24.4007 41.5994 24.4007 41.5994C23.498 40.6206 22.5458 39.6879 21.548 38.8047C21.4031 38.6805 21.2245 38.6017 21.0345 38.5781C20.4069 38.5781 18.3339 38.3704 18.3339 38.3704L18.6382 38.0305C18.7337 37.9214 18.8593 37.8426 18.9996 37.8039C21.548 36.9164 24.9523 35.6513 26.9301 34.8204C27.3129 34.691 27.6542 34.4629 27.9191 34.1595L28.5467 33.4608C28.5551 33.4431 28.5595 33.4238 28.5595 33.4042C28.5595 33.3846 28.5551 33.3652 28.5467 33.3475L28.6608 33.1398L27.4626 33.9895C27.213 34.191 26.9203 34.333 26.6068 34.405L23.7921 35.0281C23.6259 35.0857 23.4449 35.0857 23.2787 35.0281L22.7652 34.8204C22.7055 34.7932 22.6406 34.7792 22.575 34.7792C22.5093 34.7792 22.4445 34.7932 22.3848 34.8204L19.7983 35.4247C19.7983 35.4247 20.6542 34.6505 20.7302 34.6127C20.8189 34.5293 20.9323 34.4763 21.0535 34.4616L23.2026 33.6497C23.2665 33.6273 23.3222 33.5867 23.3628 33.533C23.4035 33.4792 23.4271 33.4146 23.4308 33.3475C23.4308 32.8377 23.621 31.8935 23.7161 31.4592C23.7218 31.3951 23.7419 31.333 23.7748 31.2774C23.8076 31.2219 23.8526 31.1744 23.9063 31.1382L26.0553 29.3632L26.4547 28.8911C25.4087 29.4954 23.5259 30.5906 22.6511 31.1949C22.2925 31.4103 21.9494 31.6501 21.6241 31.9124L21.491 32.0257L19.8364 34.1406Z" fill="white"></path>
            <path d="M18.2773 14.9365V9.00723C20.8258 8.78063 23.3742 8.5918 25.8846 8.44073V9.40377C23.6785 9.53595 21.4534 9.7059 19.2473 9.87585V11.3676C21.2125 11.204 23.1713 11.0529 25.1239 10.9144V11.8963C23.2221 12.0096 21.2061 12.1607 19.2473 12.3306V13.8791C21.4534 13.6902 23.6785 13.5392 25.8846 13.3881V14.37C23.3742 14.5211 20.8258 14.7099 18.2773 14.9365Z" fill="white"></path>
            <path d="M7.91016 16.0318V10.1025C9.81197 9.85699 11.923 9.63039 13.9389 9.42268C14.2285 9.37408 14.5242 9.37408 14.8137 9.42268C15.0412 9.4856 15.25 9.60221 15.4223 9.76257C15.5749 9.91956 15.6803 10.1158 15.7266 10.3291C15.7472 10.5237 15.7472 10.7199 15.7266 10.9144V11.6131C15.7454 11.8204 15.7454 12.029 15.7266 12.2363C15.6679 12.4562 15.5644 12.6619 15.4223 12.8405C15.2532 13.0354 15.0374 13.1848 14.7947 13.2748C14.5236 13.3925 14.2341 13.4628 13.9389 13.4825C12.2463 13.6525 10.5727 13.8413 8.88008 14.049V15.9373L7.91016 16.0318ZM8.88008 13.1049C10.6678 12.8783 12.4555 12.6895 14.2432 12.5006C14.3963 12.4868 14.539 12.4176 14.6442 12.3062C14.7494 12.1948 14.8097 12.049 14.8137 11.8964V10.8578C14.8142 10.7858 14.7993 10.7145 14.77 10.6487C14.7407 10.5828 14.6977 10.5238 14.6438 10.4757C14.5899 10.4275 14.5263 10.3912 14.4573 10.3692C14.3882 10.3472 14.3153 10.3399 14.2432 10.3479L8.88008 10.9522V13.1049Z" fill="white"></path>
            <path d="M62 14.4833C61.6851 14.4777 61.3721 14.4333 61.0681 14.3511C60.8105 14.2927 60.5698 14.1764 60.3645 14.0112C60.1671 13.856 60.0213 13.6455 59.9461 13.407C59.9149 13.1751 59.9149 12.9402 59.9461 12.7083V10.0647C59.9138 9.83921 59.9138 9.61034 59.9461 9.38488C60.0178 9.1549 60.1651 8.95544 60.3645 8.81839C60.5533 8.69587 60.7681 8.61832 60.9921 8.59179C61.302 8.56185 61.6141 8.56185 61.924 8.59179L65.8987 8.89392C66.2145 8.90565 66.5275 8.95639 66.8306 9.04498C67.0926 9.10172 67.3352 9.22539 67.5343 9.40376C67.7283 9.56981 67.8729 9.78526 67.9527 10.0269C67.9838 10.2588 67.9838 10.4937 67.9527 10.7256V13.3692C67.984 13.5947 67.984 13.8235 67.9527 14.049C67.876 14.2714 67.7293 14.4634 67.5343 14.5966C67.3231 14.7307 67.0809 14.8087 66.8306 14.8232C66.5212 14.8611 66.2082 14.8611 65.8987 14.8232L62 14.4833ZM61.4105 9.49818C61.3399 9.49297 61.269 9.5023 61.2023 9.52558C61.1355 9.54887 61.0743 9.5856 61.0225 9.63347C60.9707 9.68134 60.9295 9.73932 60.9013 9.80378C60.8732 9.86823 60.8587 9.93777 60.8589 10.008V12.8971C60.8629 13.0448 60.9213 13.1858 61.0229 13.2937C61.1245 13.4015 61.2624 13.4687 61.4105 13.4825H61.9049H62.019L65.9558 13.7846H66.4883C66.5595 13.7929 66.6317 13.7857 66.6998 13.7636C66.7679 13.7414 66.8303 13.7048 66.8828 13.6563C66.9353 13.6078 66.9765 13.5486 67.0036 13.4827C67.0307 13.4168 67.0431 13.3459 67.0398 13.2748V10.4801C67.0405 10.3292 66.9843 10.1835 66.8822 10.0717C66.7802 9.95984 66.6396 9.88999 66.4883 9.87584C64.7957 9.72477 63.1221 9.61147 61.4105 9.49818Z" fill="white"></path>
            <path d="M73.5814 15.5219V10.4801L70.082 10.1213V9.1394C72.7446 9.40377 75.4071 9.7059 78.0506 10.0269V11.0088C76.8905 10.8578 75.7304 10.7067 74.5513 10.5934V15.5408L73.5814 15.5219Z" fill="white"></path>
            <path d="M49.6758 13.9357V7.98755C52.2115 8.06308 54.7473 8.1575 57.283 8.27079V9.25272C55.0579 9.13942 52.8518 9.045 50.6267 8.98835V10.4801L56.5223 10.7067V11.6697C54.6205 11.5753 52.5856 11.4998 50.6267 11.462V13.0104C52.8518 13.0104 55.0579 13.1426 57.283 13.2559V14.2567C54.76 14.1057 52.2242 13.9987 49.6758 13.9357Z" fill="white"></path>
            <path d="M41.2315 13.8602C40.9154 13.8929 40.5967 13.8929 40.2806 13.8602C40.0293 13.8137 39.7899 13.7174 39.5769 13.5769C39.3862 13.4273 39.2467 13.2229 39.1776 12.9916C39.114 12.7705 39.0819 12.5417 39.0825 12.3118V9.61149C39.0661 9.37936 39.0963 9.14631 39.1714 8.92587C39.2465 8.70544 39.3649 8.50202 39.5199 8.32744C39.9633 8.01818 40.501 7.87135 41.0413 7.91201H46.7468V8.89393C44.7308 8.89393 42.7149 8.89393 40.68 8.89393C40.6059 8.89389 40.5326 8.90865 40.4644 8.93735C40.3963 8.96604 40.3346 9.00807 40.2831 9.06094C40.2316 9.11381 40.1914 9.17643 40.1649 9.24506C40.1383 9.3137 40.1259 9.38694 40.1285 9.46042V12.3684C40.1258 12.441 40.1382 12.5134 40.165 12.5811C40.1918 12.6487 40.2323 12.7101 40.2841 12.7615C40.3358 12.8129 40.3977 12.8532 40.4658 12.8797C40.5339 12.9063 40.6068 12.9187 40.68 12.916H46.1572V11.3676H42.9622V10.4046H47.1081V13.8791C45.1683 13.8413 43.1904 13.8413 41.2315 13.8602Z" fill="white"></path>
            <path d="M30.5618 14.1057C30.2519 14.1356 29.9398 14.1356 29.6299 14.1057C29.3785 14.0705 29.1381 13.9802 28.9262 13.8413C28.7289 13.7022 28.5821 13.5035 28.5078 13.2748C28.4766 13.0493 28.4766 12.8206 28.5078 12.595V8.28969H29.4778V12.6895C29.4776 12.7597 29.492 12.8292 29.5201 12.8937C29.5483 12.9581 29.5895 13.0161 29.6413 13.064C29.6931 13.1119 29.7543 13.1486 29.8211 13.1719C29.8878 13.1952 29.9587 13.2045 30.0293 13.1993C31.7029 13.1993 33.3574 13.0671 35.031 13.0293C35.1807 13.0197 35.3211 12.9538 35.4236 12.8451C35.526 12.7363 35.5829 12.5929 35.5826 12.444V8.02533H36.5715V12.3684C36.6046 12.5938 36.6046 12.8228 36.5715 13.0482C36.5034 13.2901 36.3562 13.5027 36.1531 13.6525C35.946 13.8109 35.7054 13.9206 35.4494 13.9735C35.1419 14.0303 34.8303 14.0619 34.5176 14.0679L30.5618 14.1057Z" fill="white"></path>
            <path d="M85.714 3.66333C57.4437 -1.22266 28.5358 -1.22266 0.265517 3.66333C0.056318 9.44155 -0.190918 18.3921 0.265517 25.9831C1.19741 42.9779 4.963 56.045 12.0948 67.3371C19.5873 78.994 30.3126 88.253 42.9802 94C55.6794 88.2706 66.4338 79.0093 73.9418 67.3371C81.0736 56.0072 84.8391 42.9213 85.752 25.9831C86.1704 18.3921 85.9232 9.44155 85.714 3.66333ZM84.1165 25.8887C83.2036 42.5814 79.5331 55.4219 72.5534 66.4685C65.3596 77.6639 55.1012 86.5918 42.9802 92.2061C30.8733 86.5859 20.6287 77.6585 13.4451 66.4685C6.44641 55.4219 2.77591 42.5814 1.86304 25.8887C1.55875 20.4693 1.55875 13.6336 1.86304 5.11733C29.0888 0.560298 56.8907 0.560298 84.1165 5.11733C84.4208 13.6336 84.4208 20.4693 84.1165 25.8887Z" fill="white"></path>
        </g>
    </symbol>
    <symbol fill="none" xmlns="http://www.w3.org/2000/svg" viewBox="0 0 111 34" id="ya-logo">
        <path d="M1.81366 17.4281L0 16.5746L1.81366 15.7172C1.81366 15.9978 1.78618 16.2862 1.78618 16.5746C1.78618 16.863 1.78618 17.1475 1.81366 17.4281ZM17.5556 31.3448L16.6919 33.1414L15.8322 31.3448C16.1149 31.3448 16.4054 31.372 16.6919 31.372C16.9785 31.372 17.269 31.372 17.5556 31.3448ZM31.5702 17.4281C31.5898 17.1475 31.5977 16.8591 31.5977 16.5746C31.5977 16.2901 31.5977 15.9978 31.5702 15.7172L33.3839 16.5746L31.5702 17.4281ZM16.6919 1.7732C16.9824 1.7732 17.269 1.7732 17.5556 1.80048L16.6919 0L15.8322 1.80048C16.1149 1.80048 16.4054 1.7732 16.6919 1.7732ZM30.259 18.7531L29.0813 19.0181L30.0745 19.7118C29.7349 21.1349 29.1662 22.4943 28.3904 23.7375L27.2127 23.5349L27.8605 24.5481C26.9968 25.7328 25.9486 26.7734 24.7553 27.6308L23.7032 26.9722L23.9112 28.1608C22.6592 28.9306 21.2897 29.4939 19.856 29.8288L19.1533 28.8467L18.8864 30.0158C17.4329 30.2496 15.951 30.2496 14.4975 30.0158L14.2305 28.8467L13.5278 29.8288C12.0942 29.4939 10.7247 28.9306 9.47264 28.1608L9.68069 26.9722L8.6561 27.6152C7.4636 26.7568 6.41555 25.7164 5.55089 24.5325L6.19862 23.5193L5.02093 23.7219C4.24352 22.4795 3.67473 21.1198 3.33682 19.6962L4.33001 19.0025L3.15231 18.7375C2.91672 17.2933 2.91672 15.8208 3.15231 14.3766L4.33001 14.1116L3.33682 13.4179C3.67546 11.9932 4.24418 10.6324 5.02093 9.38823L6.19862 9.59478L5.55089 8.58152C6.41555 7.39768 7.4636 6.35725 8.6561 5.49887L9.68069 6.13801L9.47264 4.96886C10.7247 4.19902 12.0942 3.63573 13.5278 3.30089L14.2305 4.28686L14.4975 3.11772C15.951 2.88392 17.4329 2.88392 18.8864 3.11772L19.1533 4.28686L19.856 3.30089C21.2897 3.63573 22.6592 4.19902 23.9112 4.96886L23.7032 6.13801L24.7278 5.49887C25.9211 6.35624 26.9693 7.39683 27.833 8.58152L27.1852 9.59478L28.3629 9.38823C29.1381 10.6332 29.7067 11.9938 30.047 13.4179L29.0696 14.1116L30.2473 14.3766C30.4829 15.8208 30.4829 17.2933 30.2473 18.7375L30.259 18.7531Z" fill="#003375"></path>
        <path d="M10.2082 29.891L10.3103 31.8824L11.8021 30.5457C11.2585 30.3581 10.7264 30.1395 10.2082 29.891ZM5.56809 26.3836L4.89289 28.2698L6.79683 27.5995C6.36312 27.2189 5.95281 26.8129 5.56809 26.3836ZM2.61992 21.4147L1.27734 22.8956L3.27944 22.9969C3.03075 22.4818 2.81058 21.9536 2.61992 21.4147ZM30.0996 22.9969L32.1017 22.8956L30.7591 21.4147C30.5684 21.9536 30.3483 22.4818 30.0996 22.9969ZM26.5861 27.5995L28.4822 28.2698L27.8109 26.3836C27.4255 26.811 27.0166 27.2169 26.5861 27.5995ZM21.5927 30.5457L23.0844 31.8824L23.1904 29.891C22.6706 30.1388 22.1372 30.3574 21.5927 30.5457ZM23.1904 3.26568L23.0844 1.27423L21.5927 2.61095C22.1379 2.79751 22.6714 3.01615 23.1904 3.26568ZM27.8266 6.75362L28.4979 4.8674L26.5979 5.53771C27.0294 5.91929 27.4383 6.32527 27.8227 6.75362H27.8266ZM30.7748 11.7225L32.1174 10.2416L30.1153 10.1402C30.364 10.6553 30.5841 11.1835 30.7748 11.7225ZM11.8021 2.61095L10.3103 1.27423L10.2082 3.26568C10.7256 3.01552 11.2579 2.79686 11.8021 2.61095ZM3.28336 10.1402L1.27734 10.2416L2.61992 11.7225C2.81022 11.1828 3.03174 10.6545 3.28336 10.1402ZM5.56809 6.75362L4.89289 4.8674L6.79291 5.53771C6.35825 5.91725 5.94788 6.32334 5.56417 6.75362H5.56809ZM16.6974 18.6828C17.116 18.6828 17.5253 18.5595 17.8733 18.3285C18.2214 18.0975 18.4926 17.7692 18.6526 17.3852C18.8126 17.0011 18.8543 16.5786 18.7723 16.171C18.6904 15.7634 18.4885 15.3891 18.1922 15.0955C17.8958 14.8019 17.5185 14.6022 17.1077 14.5216C16.697 14.4409 16.2715 14.4831 15.8849 14.6427C15.4983 14.8023 15.1681 15.0721 14.9361 15.4181C14.7041 15.764 14.5807 16.1705 14.5814 16.5861C14.5825 17.1426 14.8059 17.6758 15.2026 18.0689C15.5993 18.462 16.1369 18.6828 16.6974 18.6828ZM20.4267 18.8699C20.3679 18.9556 20.3129 19.0452 20.2501 19.131L22.6958 21.7226C22.4433 22.0142 22.169 22.2864 21.8753 22.5371L19.2608 20.1092C19.1745 20.1715 19.0881 20.23 18.9978 20.2845L20.2579 23.6127C19.9116 23.7854 19.5534 23.9338 19.1862 24.057L17.7063 20.8184C17.3757 20.8967 17.0372 20.9372 16.6974 20.9392C16.3576 20.9368 16.0191 20.8962 15.6885 20.8184L14.2085 24.057C13.8415 23.9331 13.4835 23.7847 13.1368 23.6127L14.3969 20.2845C14.3066 20.23 14.2203 20.1715 14.1339 20.1092L11.5233 22.5371C11.2284 22.2865 10.9528 22.0142 10.6989 21.7226L13.1446 19.131L12.9719 18.8699L9.61939 20.1208C9.44214 19.7772 9.29251 19.4201 9.17186 19.053L12.4341 17.5877C12.2718 16.9284 12.2718 16.24 12.4341 15.5807L9.16794 14.1114C9.28858 13.7444 9.43822 13.3873 9.61546 13.0436L12.968 14.2985C13.0229 14.2089 13.0818 14.1192 13.1407 14.0374L10.695 11.4419C10.9489 11.1503 11.2244 10.878 11.5194 10.6274L14.13 13.0553C14.2163 12.993 14.3027 12.9345 14.393 12.8799L13.1329 9.55177C13.4788 9.37815 13.837 9.22968 14.2046 9.1075L15.6845 12.346L15.9947 12.2837L16.1124 8.73338C16.3048 8.73338 16.505 8.71 16.6934 8.71C16.8819 8.71 17.086 8.71 17.2744 8.73338L17.3922 12.2837L17.7023 12.346L19.1823 9.1075C19.5502 9.22896 19.9084 9.37746 20.254 9.55177L18.9939 12.8799C19.0842 12.9345 19.1705 12.993 19.2569 13.0553L21.8675 10.604C22.1634 10.8536 22.439 11.1259 22.6919 11.4185L20.2462 14.014C20.3051 14.0959 20.3639 14.1855 20.4228 14.2751L23.7753 13.0202C23.9496 13.3648 24.0979 13.7217 24.2189 14.0881L20.9606 15.5534C21.1177 16.2133 21.1177 16.9005 20.9606 17.5604L24.2189 19.0257C24.0979 19.3921 23.9496 19.749 23.7753 20.0936L20.415 18.8582L20.4267 18.8699ZM16.6974 26.7187C18.7161 26.7187 20.6894 26.1244 22.3679 25.0111C24.0464 23.8977 25.3546 22.3152 26.1272 20.4637C26.8997 18.6122 27.1018 16.5749 26.708 14.6094C26.3141 12.6438 25.3421 10.8384 23.9146 9.4213C22.4872 8.00424 20.6685 7.0392 18.6886 6.64824C16.7087 6.25727 14.6565 6.45793 12.7914 7.22484C10.9264 7.99175 9.3323 9.29047 8.21077 10.9568C7.08924 12.6231 6.49063 14.5821 6.49063 16.5861C6.49063 19.2735 7.56598 21.8507 9.48011 23.751C11.3942 25.6512 13.9904 26.7187 16.6974 26.7187ZM16.6974 27.919C14.4384 27.9198 12.23 27.2555 10.3514 26.0101C8.47283 24.7647 7.00852 22.9941 6.1437 20.9224C5.27888 18.8507 5.0524 16.571 5.49291 14.3715C5.93342 12.172 7.02113 10.1516 8.61845 8.5659C10.2158 6.98019 12.2509 5.90038 14.4665 5.46307C16.6821 5.02576 18.9786 5.25059 21.0654 6.10913C23.1523 6.96767 24.9357 8.42134 26.1903 10.2863C27.4448 12.1512 28.114 14.3436 28.1132 16.5861C28.1101 19.5909 26.9063 22.4716 24.7661 24.5963C22.6259 26.7209 19.7241 27.9159 16.6974 27.919Z" fill="#FDBA4D"></path>
        <path d="M17.6375 16.5745C17.6375 16.7611 17.5817 16.9434 17.4773 17.0985C17.373 17.2536 17.2246 17.3745 17.051 17.4458C16.8774 17.5172 16.6864 17.5359 16.5021 17.4995C16.3178 17.4631 16.1485 17.3733 16.0157 17.2414C15.8828 17.1095 15.7923 16.9415 15.7557 16.7585C15.719 16.5756 15.7378 16.3859 15.8097 16.2136C15.8816 16.0413 16.0034 15.894 16.1596 15.7903C16.3159 15.6867 16.4995 15.6314 16.6874 15.6314C16.9394 15.6314 17.181 15.7308 17.3592 15.9076C17.5374 16.0845 17.6375 16.3244 17.6375 16.5745ZM16.6874 19.8247C16.039 19.8247 15.405 19.6338 14.8659 19.2761C14.3268 18.9183 13.9066 18.4099 13.6587 17.815C13.4107 17.2202 13.346 16.5657 13.4728 15.9343C13.5996 15.303 13.9122 14.7232 14.371 14.2682C14.8298 13.8133 15.4142 13.5037 16.0504 13.3786C16.6865 13.2534 17.3457 13.3184 17.9446 13.5653C18.5435 13.8122 19.0551 14.2299 19.4149 14.7656C19.7746 15.3012 19.9661 15.9308 19.9654 16.5745C19.9633 17.4366 19.6172 18.2627 19.0028 18.8719C18.3884 19.4811 17.5558 19.8237 16.6874 19.8247ZM17.3666 25.5692L17.5236 20.8926C18.3988 20.7269 19.2037 20.3039 19.8337 19.6785C20.4638 19.053 20.8899 18.254 21.0567 17.3851L25.7675 17.2292C25.6012 19.3818 24.6643 21.4041 23.1263 22.9303C21.5882 24.4564 19.5506 25.3856 17.3823 25.5497L17.3666 25.5692ZM7.62307 17.2487L12.3339 17.4046C12.5007 18.2735 12.9268 19.0725 13.5568 19.698C14.1869 20.3234 14.9917 20.7464 15.867 20.9121L16.024 25.5886C13.8557 25.4246 11.8181 24.4954 10.28 22.9692C8.74197 21.4431 7.80504 19.4207 7.63878 17.2682L7.62307 17.2487ZM16.6874 7.54872C18.9797 7.55099 21.1866 8.41197 22.8671 9.95959C24.5475 11.5072 25.5778 13.6274 25.7518 15.8964L21.041 15.7444C20.8476 14.7377 20.3067 13.8295 19.5113 13.1762C18.7159 12.523 17.7158 12.1655 16.6835 12.1655C15.6512 12.1655 14.6512 12.523 13.8558 13.1762C13.0604 13.8295 12.5194 14.7377 12.326 15.7444L7.61523 15.8964C7.78832 13.6277 8.81772 11.5076 10.4976 9.95988C12.1774 8.41219 14.3839 7.55106 16.6757 7.54872H16.6874ZM16.6874 6.37958C14.6596 6.37958 12.6773 6.97648 10.9911 8.09483C9.30497 9.21318 7.99071 10.8028 7.2145 12.6626C6.4383 14.5224 6.23501 16.5689 6.63034 18.5434C7.02566 20.5179 8.00186 22.3317 9.4355 23.7554C10.8691 25.1792 12.6958 26.149 14.6846 26.5422C16.6734 26.9354 18.735 26.7344 20.6087 25.9646C22.4824 25.1947 24.0841 23.8906 25.2113 22.2171C26.3385 20.5436 26.9405 18.576 26.9413 16.5628C26.9382 13.8637 25.857 11.2759 23.9348 9.36697C22.0126 7.45802 19.4063 6.3837 16.6874 6.37958Z" fill="white"></path>
        <path d="M62.9336 19.891H66.3882V17.6501H62.9336V19.891Z" fill="#FDBA4D"></path>
        <path d="M72.0007 17.6502L73.571 12.6657L75.1413 17.6502H72.0007ZM75.2158 9.82469H71.8986L66.7639 23.3088H70.2263L71.298 19.891H75.8282L76.896 23.3088H80.3506L75.2158 9.82469ZM104.698 21.3408C104.354 21.364 104.01 21.3017 103.696 21.1595C103.383 21.0172 103.111 20.7996 102.904 20.5263C102.648 20.1599 102.393 19.6728 102.393 17.9931C102.393 16.3134 102.648 15.8224 102.904 15.4561C103.128 15.2013 103.404 14.9972 103.714 14.8573C104.024 14.7174 104.361 14.645 104.702 14.645C105.042 14.645 105.379 14.7174 105.689 14.8573C105.999 14.9972 106.275 15.2013 106.499 15.4561C106.751 15.8224 107.002 16.3134 107.002 17.9931C107.002 19.6728 106.751 20.1599 106.499 20.5263C106.291 20.7997 106.017 21.0173 105.702 21.1594C105.388 21.3016 105.042 21.3639 104.698 21.3408ZM110.001 17.9931C110.001 16.6447 109.785 15.004 108.521 13.8076C107.427 12.9686 106.083 12.5135 104.7 12.5135C103.317 12.5135 101.973 12.9686 100.878 13.8076C99.6139 15.004 99.3979 16.6447 99.3979 17.9931C99.3979 19.3454 99.6139 20.9861 100.878 22.1826C101.973 23.0216 103.317 23.4767 104.7 23.4767C106.083 23.4767 107.427 23.0216 108.521 22.1826C109.785 20.9861 110.001 19.3454 110.001 17.9931ZM98.6913 14.7936H96.1789V23.2932H93.2582V14.7858H90.7497V12.7008H99.3194L98.6756 14.7858L98.6913 14.7936ZM85.7719 21.2239C85.9954 21.2443 86.2208 21.217 86.4327 21.1437C86.6447 21.0705 86.8384 20.9529 87.0007 20.7991C87.1934 20.5663 87.2901 20.2697 87.2716 19.969C87.291 19.7835 87.2575 19.5964 87.1749 19.4289C87.0923 19.2614 86.9639 19.1204 86.8044 19.022C86.4852 18.8619 86.1288 18.7892 85.7719 18.8115H84.0761V21.2239H85.7719ZM85.6385 16.785C86.068 16.8238 86.4985 16.7211 86.8633 16.4927C86.9516 16.4007 87.0198 16.2916 87.0638 16.1723C87.1077 16.0529 87.1263 15.9258 87.1185 15.799C87.1272 15.6576 87.1035 15.5161 87.0491 15.3851C86.9947 15.2541 86.911 15.1372 86.8044 15.043C86.4935 14.8431 86.1257 14.7488 85.7563 14.7741H84.0761V16.785H85.6385ZM86.5139 12.7086C87.4575 12.6514 88.3862 12.9633 89.1009 13.5776C89.3402 13.8118 89.5291 14.0918 89.656 14.4006C89.7828 14.7095 89.8451 15.0407 89.8389 15.3742C89.8574 15.9165 89.6853 16.4484 89.3522 16.8785C89.087 17.2345 88.7226 17.5055 88.304 17.658C88.7262 17.8 89.1159 18.0239 89.4503 18.3166C89.7204 18.5675 89.9331 18.873 90.074 19.2125C90.2148 19.5521 90.2806 19.9177 90.2668 20.2846C90.2979 20.78 90.1863 21.274 89.9451 21.7087C89.7039 22.1435 89.343 22.5011 88.9046 22.7398C88.053 23.1336 87.1189 23.3193 86.1802 23.2816H81.2614V12.7008L86.5139 12.7086ZM65.2172 12.7086L64.7147 14.8325H60.7694V23.2932H57.8644V12.7008L65.2172 12.7086ZM48.8707 21.0836C45.9225 21.0836 44.8587 19.1155 44.8508 16.5784C44.843 14.0414 45.9225 12.0772 48.8707 12.0772C51.8189 12.0772 52.8866 14.0258 52.8945 16.5784C52.9023 19.1311 51.8228 21.0836 48.8707 21.0836ZM56.1371 16.5473C56.1371 11.9564 53.6796 9.55579 48.8628 9.55579C44.5721 9.55579 42.1696 11.4732 41.6867 15.1404H40.0576V9.85976H37.1055V23.2854H40.0576V17.4397H41.6278C41.9262 21.4928 44.3523 23.605 48.8668 23.605C53.6836 23.605 56.1253 21.2005 56.141 16.6135C56.141 16.6135 56.141 16.6135 56.141 16.5862C56.141 16.559 56.141 16.5862 56.141 16.5629L56.1371 16.5473Z" fill="#003375"></path>
    </symbol>
    <symbol xmlns="http://www.w3.org/2000/svg" viewBox="0 0 27 21" id="burger">
        <path d="M1.00659 19.0811H11.5066M1.00659 1.08105H25.0066H1.00659ZM1.00659 10.0811H25.0066H1.00659Z" stroke-width="2" stroke-linecap="round" stroke-linejoin="round"></path>
    </symbol>
    <symbol xmlns="http://www.w3.org/2000/svg" viewBox="0 0 26 26" id="close">
        <path d="M24.1488 0.322754L25.4373 1.61121L1.72571 25.3209L0.437256 24.0334L24.1488 0.322754Z"></path>
        <path d="M1.72571 0.322754L25.4373 24.0325L24.1488 25.3218L0.437256 1.61212L1.72571 0.322754Z"></path>
    </symbol>
</svg>