<svg width="73" height="49" viewBox="0 0 73 49" fill="none" xmlns="http://www.w3.org/2000/svg">
<g clip-path="url(#clip0_2788_15497)">
<path d="M56.3954 29.3927C55.7916 28.7634 41.6269 14.0122 36.4985 14.0122C31.3701 14.0122 17.2028 28.7634 16.6016 29.3927C16.5425 29.4561 15.1602 30.9464 15.1602 32.6854C15.1602 34.039 15.2552 35.4 15.2552 35.4146C15.2552 35.4756 15.2912 36.0537 15.6303 36.2073C15.6854 36.2334 15.7461 36.2468 15.8076 36.2464C15.9605 36.235 16.1063 36.1807 16.2264 36.0903C16.378 35.961 30.81 23.9342 36.4985 23.9342C42.187 23.9342 56.619 35.961 56.7629 36.0829C56.8833 36.1787 57.0326 36.236 57.1894 36.2464C57.2501 36.2468 57.31 36.2334 57.3641 36.2073C57.7032 36.0537 57.7366 35.4756 57.7392 35.4122C57.7392 35.4122 57.8343 34.039 57.8343 32.6854C57.8343 30.9464 56.452 29.4561 56.3954 29.3927ZM56.5445 34.3366C52.8215 31.3244 41.7502 22.7464 36.5036 22.7464C31.2571 22.7464 20.1858 31.3195 16.4628 34.3342C16.4423 33.622 16.4191 33.1878 16.4191 32.5537C16.4224 31.7726 16.7416 31.0226 17.3107 30.4585C22.3232 26.1995 27.9936 22.6946 34.1244 20.0659C36.6527 19.0586 36.5088 19.2512 36.5088 15.2073C36.5704 15.2033 36.6322 15.2033 36.6938 15.2073C40.2497 15.5098 49.8154 24.2683 55.4756 30.1903C55.4756 30.1903 56.5959 31.4098 56.5959 32.6854C56.5959 33.2805 56.5779 33.8708 56.5547 34.3366" fill="black"/>
<path d="M47.4359 42.4317C45.6374 42.3951 43.8183 42.4317 43.8029 42.4317C41.6113 42.4317 39.8281 43.8732 39.8281 45.6464C39.8281 47.4195 41.6113 48.9098 43.8029 48.9098C43.8209 48.9098 45.6425 48.9439 47.4359 48.9098C49.6327 48.9098 51.4184 47.4464 51.4184 45.6464C51.4184 43.8927 49.6687 42.4756 47.4359 42.4317ZM46.2052 48.022C46.0613 48.022 45.5552 48.0366 45.0593 48.022C43.8003 48.022 42.436 47.1171 42.436 45.6561C42.436 44.1951 43.7695 43.3439 45.0542 43.3439C45.0696 43.3439 45.6939 43.3171 46.2104 43.3439C47.495 43.3439 48.8337 44.2073 48.8337 45.6561C48.8337 47.1049 47.4719 48.022 46.2104 48.022" fill="black"/>
<path d="M36.1573 48.8293H38.7497C38.7086 47.3146 37.0462 46.6854 36.8561 46.6195H36.8227V46.5317H36.8561C37.9686 46.2878 38.742 45.4878 38.742 44.5805C38.742 43.6049 37.7374 42.5512 36.1084 42.5512H29.8393C29.484 42.5499 29.1427 42.6825 28.8903 42.9198C28.6379 43.1571 28.495 43.4798 28.4929 43.8171V48.5951C28.4902 48.6278 28.495 48.6607 28.507 48.6914C28.5189 48.7222 28.5378 48.7501 28.5622 48.7733C28.5866 48.7965 28.616 48.8143 28.6484 48.8257C28.6808 48.837 28.7154 48.8416 28.7499 48.839H31.1034C31.1034 48.7585 31.1034 46.6049 31.1034 46.6049H33.3284C35.3017 46.6049 36.1187 47.9585 36.1778 48.8415L36.1573 48.8293ZM31.1034 45.4854V44.2293C31.1 44.1507 31.114 44.0723 31.1445 43.9992C31.1749 43.9261 31.2211 43.8599 31.2802 43.8047C31.3392 43.7496 31.4098 43.7068 31.4873 43.6791C31.5648 43.6514 31.6476 43.6394 31.7303 43.6439H35.1732C35.3048 43.6375 35.4363 43.6565 35.5599 43.6999C35.6835 43.7433 35.7965 43.81 35.892 43.8962C35.9875 43.9823 36.0636 44.086 36.1156 44.2009C36.1675 44.3158 36.1943 44.4396 36.1943 44.5646C36.1943 44.6897 36.1675 44.8135 36.1156 44.9284C36.0636 45.0433 35.9875 45.147 35.892 45.2331C35.7965 45.3192 35.6835 45.386 35.5599 45.4294C35.4363 45.4728 35.3048 45.4918 35.1732 45.4854H31.1034Z" fill="black"/>
<path d="M56.3778 15.3659C55.7766 14.739 41.6246 0 36.4988 0C31.373 0 17.2288 14.739 16.625 15.3659C16.5659 15.4293 15.1836 16.9171 15.1836 18.6561C15.1836 20.0073 15.2787 21.3683 15.2787 21.3829C15.2787 21.4439 15.3172 22.0171 15.6538 22.1756C15.7088 22.2017 15.7696 22.2151 15.8311 22.2146C15.9847 22.2046 16.1311 22.1492 16.2499 22.0561C16.4015 21.9293 30.818 9.91464 36.4988 9.91464C42.1796 9.91464 56.6013 21.9293 56.7452 22.0488C56.8655 22.1449 57.0149 22.2021 57.1717 22.2122C57.2322 22.2138 57.2922 22.2012 57.3464 22.1756C57.6856 22.0171 57.719 21.4439 57.719 21.3805C57.719 21.3805 57.8166 20.0073 57.8166 18.6561C57.8166 16.9171 56.4343 15.4293 56.3778 15.3659ZM56.5294 20.3049C52.8064 17.2951 41.748 8.72928 36.4885 8.72928C31.2291 8.72928 20.1861 17.2903 16.4631 20.3025C16.44 19.5927 16.4194 19.1585 16.4194 18.5244C16.4226 17.744 16.7418 16.9947 17.311 16.4317C25.3839 9.53171 33.8473 6.15366 34.1068 6.05122C36.6324 5.0439 36.4885 5.23415 36.4885 1.19513C36.5501 1.1911 36.6119 1.1911 36.6735 1.19513C40.2269 1.50001 49.7772 10.2488 55.4297 16.1634C55.4425 16.1634 56.5474 17.3829 56.5474 18.6561C56.5474 19.2512 56.5294 19.8415 56.5088 20.3049" fill="black"/>
<path d="M8.89392 44.639H11.4299C10.88 43.3195 9.35897 42.4171 7.60925 42.3829L6.83845 42.3683C5.61545 42.3439 5.05789 42.3342 3.98905 42.3829C2.73778 42.4439 1.949 42.7146 1.18076 43.3585C0.820673 43.6413 0.529615 43.9949 0.327758 44.395C0.125901 44.7951 0.0180722 45.2321 0.0117188 45.6756C0.0117188 47.4781 1.69977 48.8927 3.9428 48.9683C5.4844 49.0195 5.64371 49.022 7.65807 48.9683C9.52341 48.9171 10.862 48.1146 11.4401 46.7146H8.90419C8.85951 46.7124 8.8151 46.7224 8.77634 46.7437C8.73757 46.7649 8.70612 46.7963 8.6858 46.8342C8.44845 47.2101 8.11151 47.5206 7.70852 47.7345C7.30552 47.9485 6.85053 48.0585 6.38882 48.0537C5.87495 48.0756 5.24031 48.0537 5.24031 48.0537C3.95565 48.0537 2.61446 47.1707 2.61446 45.6927V45.6781C2.61446 44.2146 3.95565 43.3317 5.24546 43.3317C5.39191 43.3317 5.91092 43.3098 6.38882 43.3317C6.8482 43.3297 7.30048 43.4393 7.70257 43.6502C8.10466 43.8611 8.44317 44.1663 8.6858 44.5366C8.70864 44.5722 8.74069 44.6017 8.77892 44.6221C8.81716 44.6426 8.86028 44.6535 8.90419 44.6537" fill="black"/>
<path d="M23.6142 43.7732H27.1007V42.7683C27.1007 42.7036 27.0737 42.6416 27.0255 42.5959C26.9773 42.5501 26.912 42.5244 26.8438 42.5244H17.1163C17.0482 42.5244 16.9828 42.5501 16.9346 42.5959C16.8864 42.6416 16.8594 42.7036 16.8594 42.7683V43.7756H19.1718C19.5547 43.78 19.9208 43.9259 20.1923 44.1822C20.4638 44.4386 20.6194 44.7853 20.626 45.1488V48.5903C20.626 48.655 20.6531 48.717 20.7013 48.7627C20.7495 48.8085 20.8148 48.8342 20.8829 48.8342H23.239V44.1025C23.2397 44.0162 23.2763 43.9337 23.3408 43.8729C23.4053 43.8122 23.4925 43.7781 23.5833 43.7781" fill="black"/>
<path d="M61.7633 47.6951H55.6201C55.5746 47.6978 55.5291 47.6916 55.4863 47.6768C55.4435 47.6621 55.4044 47.6391 55.3713 47.6093C55.3383 47.5796 55.3121 47.5437 55.2943 47.5039C55.2765 47.4641 55.2676 47.4213 55.2681 47.3781V46.1756H60.5917V45.0707H55.2681V43.9732C55.2673 43.8937 55.2986 43.8169 55.3554 43.7586C55.3964 43.7218 55.445 43.6935 55.498 43.6755C55.5511 43.6575 55.6075 43.65 55.6637 43.6537H61.7659V42.7708C61.7682 42.7385 61.7632 42.7061 61.7512 42.6758C61.7393 42.6455 61.7206 42.618 61.6965 42.5951C61.6315 42.5446 61.5492 42.5185 61.4653 42.522H52.9171C52.849 42.522 52.7836 42.5477 52.7354 42.5934C52.6872 42.6391 52.6602 42.7012 52.6602 42.7659V47.5415C52.6595 47.7113 52.6945 47.8795 52.7631 48.0362C52.8318 48.193 52.9327 48.3352 53.06 48.4545C53.1874 48.5737 53.3385 48.6677 53.5045 48.7308C53.6706 48.7939 53.8482 48.8249 54.0271 48.822H61.509C61.5742 48.8211 61.6367 48.7967 61.6837 48.7537C61.7328 48.7106 61.7623 48.6511 61.7659 48.5878C61.7659 48.5878 61.7659 47.7683 61.7659 47.6903" fill="black"/>
<path d="M59.8552 40.2415C59.5792 40.0991 59.2701 40.0245 58.9559 40.0245C58.6418 40.0245 58.3327 40.0991 58.0567 40.2415C57.8177 40.3829 57.6276 40.5732 57.345 40.5732C57.0623 40.5732 56.8928 40.3829 56.6359 40.2415C56.3619 40.0916 56.0501 40.0157 55.734 40.022C55.4168 40.0134 55.1035 40.0894 54.8296 40.2415C54.7186 40.2829 54.6234 40.355 54.5562 40.4486C54.4891 40.5421 54.4531 40.6527 54.4531 40.7659C54.4531 40.879 54.4891 40.9896 54.5562 41.0832C54.6234 41.1767 54.7186 41.2489 54.8296 41.2903C55.1042 41.4404 55.4172 41.5155 55.734 41.5073C56.043 41.5166 56.3489 41.4476 56.6204 41.3073C56.8465 41.1756 57.088 40.9634 57.345 40.9634C57.6019 40.9634 57.8306 41.1561 58.0567 41.2903C58.3312 41.4383 58.6428 41.5133 58.9585 41.5073C59.2788 41.5176 59.5957 41.4424 59.8732 41.2903C59.9832 41.2479 60.0773 41.1754 60.1436 41.082C60.2099 40.9886 60.2453 40.8785 60.2453 40.7659C60.2453 40.6532 60.2099 40.5431 60.1436 40.4497C60.0773 40.3563 59.9832 40.2838 59.8732 40.2415" fill="black"/>
<path d="M70.7627 48.8268H72.9981V45.7415C72.9981 43.9366 71.2946 42.522 69.1261 42.522H63.4735C63.381 42.522 63.1652 42.5439 63.1652 42.7659V48.5952C63.1619 48.6263 63.1657 48.6577 63.1761 48.6874C63.1865 48.7171 63.2035 48.7444 63.2258 48.7674C63.2481 48.7904 63.2753 48.8087 63.3056 48.8211C63.3359 48.8334 63.3686 48.8396 63.4016 48.8391H65.7654C65.7654 48.7561 65.7654 43.961 65.7654 43.961C65.7632 43.9178 65.7705 43.8747 65.7867 43.8343C65.8029 43.794 65.8277 43.7572 65.8595 43.7263C65.8913 43.6954 65.9295 43.6711 65.9716 43.6548C66.0138 43.6385 66.059 43.6307 66.1045 43.6317H68.7073C69.4293 43.6317 70.5058 44.2561 70.5058 45.5829V48.5829C70.5058 48.6476 70.5329 48.7097 70.5811 48.7554C70.6292 48.8012 70.6946 48.8268 70.7627 48.8268Z" fill="black"/>
<path d="M12.8514 48.5878C12.8514 48.6525 12.8785 48.7145 12.9267 48.7603C12.9749 48.806 13.0402 48.8317 13.1084 48.8317H13.242L13.224 48.8464C13.2908 48.8317 13.5169 48.8317 14.3108 48.8317H15.4619V42.761C15.4619 42.6963 15.4348 42.6343 15.3866 42.5885C15.3385 42.5428 15.2731 42.5171 15.205 42.5171H13.1007C13.0325 42.5171 12.9672 42.5428 12.919 42.5885C12.8708 42.6343 12.8438 42.6963 12.8438 42.761L12.8514 48.5878Z" fill="black"/>
</g>
<defs>
<clipPath id="clip0_2788_15497">
<rect width="73" height="49" fill="white"/>
</clipPath>
</defs>
</svg>
