<svg width="99" height="94" viewBox="0 0 99 94" fill="none" xmlns="http://www.w3.org/2000/svg">
<path d="M15.2212 57.3831L18.1424 62.1688L21.0481 57.3831V64.0718H23.2222V54.5541H20.3695L18.1424 58.4289L15.8608 54.5541H13.0625V64.0718H15.2212V57.3831Z" fill="black"/>
<path d="M27.2187 54.5541H25.0586V64.0718H27.2187V54.5541Z" fill="black"/>
<path d="M32.9373 64.0718V56.5384H35.5442V54.5541H28.1562V56.5384H30.7632V64.0718H32.9373Z" fill="black"/>
<path d="M39.89 56.3923C40.7711 56.4075 41.6506 56.4696 42.5249 56.5783V54.5954C41.6333 54.4795 40.7349 54.421 39.8356 54.4204C37.4185 54.4204 36.1953 55.1094 36.1953 57.0882C36.1953 58.6963 37.3235 59.2998 38.8483 59.9819C40.4108 60.693 40.8856 60.7867 40.8856 61.4839C40.8856 62.0875 40.3271 62.2349 39.21 62.2349C38.248 62.2289 37.2884 62.1367 36.3433 61.9593V63.9436C37.2901 64.1117 38.2495 64.2016 39.2114 64.2123C41.7918 64.2123 42.9815 63.3276 42.9815 61.4371C42.9815 59.6278 41.6773 59.038 40.0883 58.327C39.0285 57.8585 38.3219 57.5898 38.3219 57.0537C38.3219 56.5177 38.5858 56.3923 39.89 56.3923Z" fill="black"/>
<path d="M51.9781 54.5554H49.818V60.7742C49.818 61.8601 49.1533 62.2363 48.1201 62.2363C47.0868 62.2363 46.4361 61.8601 46.4361 60.7742V54.5554H44.2773V60.8555C44.2773 63.1609 45.7979 64.2068 48.1201 64.2068C50.4422 64.2068 51.9781 63.1609 51.9781 60.8555V54.5554Z" fill="black"/>
<path d="M59.5601 59.1C60.2945 58.8244 61.096 58.3889 61.096 57.0082C61.096 55.2651 60.0083 54.5554 58.0395 54.5554H53.8281V64.0745H58.1889C60.3211 64.0745 61.3404 63.0823 61.3404 61.4205C61.3404 59.8234 60.43 59.3535 59.5601 59.1ZM55.9883 56.3578H57.7281C58.5296 56.3578 58.9108 56.559 58.9108 57.3224C58.9108 57.9521 58.5966 58.4069 57.7281 58.4069H55.9896L55.9883 56.3578ZM57.8761 62.2831H55.9883V60.0907H57.971C58.7725 60.0907 59.0979 60.3994 59.0979 61.1366C59.0979 61.9675 58.746 62.2831 57.8761 62.2831Z" fill="black"/>
<path d="M64.8047 54.5541H62.6445V64.0718H64.8047V54.5541Z" fill="black"/>
<path d="M69.2449 62.2363C68.2828 62.2303 67.3233 62.1381 66.3782 61.9607V63.945C67.3246 64.1126 68.2834 64.202 69.2449 64.2123C71.8253 64.2123 73.015 63.3276 73.015 61.4371C73.015 59.6278 71.7108 59.038 70.1218 58.327C69.062 57.8585 68.3554 57.5898 68.3554 57.0537C68.3554 56.5177 68.6137 56.3978 69.9179 56.3978C70.7989 56.413 71.6785 56.4751 72.5528 56.5838V54.5954C71.6648 54.48 70.7702 54.4215 69.8746 54.4204C67.4576 54.4204 66.2344 55.1094 66.2344 57.0882C66.2344 58.6963 67.3626 59.2998 68.8874 59.9819C70.4499 60.693 70.9247 60.7867 70.9247 61.4839C70.9149 62.0888 70.3577 62.2363 69.2449 62.2363Z" fill="black"/>
<path d="M81.9171 64.0718V54.5541H79.7583V58.3077H76.3345V54.5541H74.1758V64.0718H76.3345V60.292H79.7583V64.0718H81.9171Z" fill="black"/>
<path d="M85.8476 54.5541H83.6875V64.0718H85.8476V54.5541Z" fill="black"/>
<path d="M31.1784 76.88H33.3511V67.3637H30.4984L28.2713 71.2358L25.9883 67.3637H23.1914V76.88H25.3501V70.1913L28.2713 74.977L31.1784 70.1913V76.88Z" fill="black"/>
<path d="M38.9878 77.0151C41.8265 77.0151 43.1447 75.5269 43.1447 72.1219C43.1447 68.7169 41.8265 67.2287 38.9878 67.2287C36.1491 67.2287 34.8281 68.7169 34.8281 72.1219C34.8281 75.5269 36.1491 77.0151 38.9878 77.0151ZM38.9878 69.2006C40.5629 69.2006 40.9036 70.1776 40.9036 72.1219C40.9036 74.0662 40.5629 75.0708 38.9878 75.0708C37.4127 75.0708 37.0734 74.0786 37.0734 72.1219C37.0734 70.1652 37.4127 69.2006 38.9878 69.2006Z" fill="black"/>
<path d="M43.4961 69.3466H46.1044V76.88H48.2785V69.3466H50.8869V67.3637H43.4961V69.3466Z" fill="black"/>
<path d="M59.5507 72.1219C59.5507 68.7169 58.2339 67.2287 55.3952 67.2287C52.5564 67.2287 51.2383 68.7169 51.2383 72.1219C51.2383 75.5269 52.5564 77.0151 55.3952 77.0151C58.2339 77.0151 59.5507 75.5269 59.5507 72.1219ZM53.4794 72.1219C53.4794 70.1776 53.8187 69.2006 55.3952 69.2006C56.9716 69.2006 57.3067 70.1776 57.3067 72.1219C57.3067 74.0662 56.966 75.0708 55.391 75.0708C53.8159 75.0708 53.4794 74.0786 53.4794 72.1219Z" fill="black"/>
<path d="M63.2067 73.475H64.1702L66.2074 76.88H68.7348L66.361 73.1402C67.5968 72.8467 68.3438 71.9 68.3438 70.4201C68.3438 68.1271 67.0257 67.3637 64.9605 67.3637H61.0508V76.88H63.2109L63.2067 73.475ZM63.2067 69.2033H64.8223C65.7997 69.2033 66.0999 69.6842 66.0999 70.4228C66.0999 71.1614 65.7997 71.6285 64.8223 71.6285H63.2067V69.2033Z" fill="black"/>
<path d="M72.4982 75.0446C71.5362 75.038 70.5768 74.9457 69.6316 74.769V76.7533C70.5783 76.9162 71.5372 77.001 72.4982 77.0068C75.0786 77.0068 76.2683 76.1221 76.2683 74.2329C76.2683 72.4237 74.9642 71.8339 73.3751 71.1229C72.3153 70.6543 71.6088 70.3856 71.6088 69.8496C71.6088 69.3136 71.8671 69.1937 73.1713 69.1937C74.0523 69.2082 74.9319 69.2703 75.8061 69.3797V67.4037C74.9145 67.2877 74.0162 67.2292 73.1168 67.2287C70.6998 67.2287 69.4766 67.9177 69.4766 69.8965C69.4766 71.5046 70.6048 72.1012 72.1296 72.7902C73.6921 73.5012 74.1668 73.5949 74.1668 74.2922C74.1682 74.8958 73.6111 75.0446 72.4982 75.0446Z" fill="black"/>
<path d="M58.5452 15.7902L49.3085 0L40.0703 15.7902L49.3085 31.5804L58.5452 15.7902Z" fill="#FF000A"/>
<path d="M77.023 47.3707L67.7849 31.5804H49.3086L58.5467 47.3707H77.023Z" fill="#FF000A"/>
<path d="M49.3068 31.5804H30.8319L21.5938 47.3707H40.0686L49.3068 31.5804Z" fill="#FF000A"/>
<path d="M90.1525 86.2158C88.3876 86.2158 87.4297 87.1088 87.4297 88.8629C87.4297 90.5854 88.3876 91.5086 90.1525 91.5086C91.9175 91.5086 92.8782 90.5854 92.8782 88.8629C92.8782 87.1088 91.9371 86.2158 90.1525 86.2158ZM90.1525 90.3787C89.1332 90.3787 88.7869 89.8482 88.7869 88.8533C88.7869 87.8239 89.1332 87.3265 90.1525 87.3265C91.1719 87.3265 91.5307 87.8239 91.5307 88.8533C91.5307 89.8427 91.1733 90.3787 90.1525 90.3787Z" fill="black"/>
<path d="M97.3169 86.2158C96.5895 86.2104 95.8703 86.3668 95.2126 86.6733V86.3206H93.9922V91.4053H95.3075V87.5966C95.7951 87.4466 96.301 87.3627 96.8114 87.3472C97.2526 87.3472 97.6841 87.5346 97.6841 88.1877V91.4053H98.998V88.1257C98.998 86.7767 98.1993 86.2158 97.3169 86.2158Z" fill="black"/>
<path d="M74.0301 86.2158C73.4334 86.2273 72.8443 86.3508 72.2944 86.5796V83.8237H70.9805V86.5796L70.9902 91.4025H72.2944V91.0608C72.6212 91.1986 73.0931 91.5059 74.0301 91.5059C75.4613 91.5059 76.3131 90.438 76.3131 88.8602C76.3131 87.2824 75.4599 86.2158 74.0301 86.2158ZM73.7354 90.3677C73.2505 90.3562 72.7694 90.2792 72.3056 90.1389V87.5649C72.7688 87.4221 73.2503 87.3455 73.7354 87.3375C74.65 87.3375 74.9921 87.9287 74.9921 88.8629C74.9921 89.7972 74.6291 90.3677 73.7354 90.3677Z" fill="black"/>
<path d="M48.5095 86.3206H47.2891V91.4053H48.6044V87.5966C49.2573 87.4123 49.935 87.3282 50.6137 87.3471V86.2158C49.8864 86.2106 49.1672 86.367 48.5095 86.6733V86.3206Z" fill="black"/>
<path d="M11.5273 84.6587L12.4433 85.5819L13.3677 84.6587L12.4433 83.7244L11.5273 84.6587Z" fill="black"/>
<path d="M16.7841 90.212C16.3317 89.5684 15.5959 88.4206 15.4897 86.3206H14.1758C14.2707 89.206 15.554 90.4917 16.153 91.4053H17.4097C18.0087 90.4917 19.2919 89.2005 19.3869 86.3206H18.0716C17.9724 88.4261 17.2324 89.5671 16.7841 90.212Z" fill="black"/>
<path d="M13.103 86.3192H11.7891V91.4053H13.103V86.3192Z" fill="black"/>
<path d="M8.69556 86.3206H7.47656V91.4053H8.79051V87.5966C9.44341 87.4125 10.1211 87.3284 10.7998 87.3471V86.2158C10.0725 86.2106 9.35333 86.367 8.69556 86.6733V86.3206Z" fill="black"/>
<path d="M44.5499 90.1293C44.0624 90.2793 43.5564 90.3632 43.046 90.3787C42.6048 90.3787 42.1733 90.1913 42.1733 89.5368V86.3206H40.8594V89.6001C40.8594 90.9492 41.6581 91.5086 42.542 91.5086C43.2687 91.514 43.9874 91.3581 44.6448 91.0525V91.4053H45.8652V86.3206H44.5499V90.1293Z" fill="black"/>
<path d="M31.0164 90.2437C30.6477 89.7242 29.62 88.2924 29.62 86.3206H28.3047C28.3899 88.998 29.62 90.336 30.2512 91.2496L28.799 93.2738L29.7457 94L31.9338 91.0112C32.1865 90.6694 33.6582 88.8533 33.6582 86.3261H32.3443C32.3415 88.3269 31.3375 89.7972 31.0164 90.2437Z" fill="black"/>
<path d="M84.6758 84.6587L85.5918 85.5819L86.5162 84.6587L85.5918 83.7244L84.6758 84.6587Z" fill="black"/>
<path d="M22.7484 86.2158C20.9597 86.2158 20.1289 87.0977 20.1289 88.8422C20.1289 90.6336 21.1496 91.5086 22.9788 91.5086C23.9674 91.5086 24.5148 91.4149 24.8304 91.3336V90.2643C24.251 90.3985 23.6577 90.4646 23.0626 90.4614C22.1173 90.4614 21.4959 90.1858 21.4429 89.2777H25.125C25.1348 89.1537 25.1348 88.9249 25.1348 88.7485C25.1348 87.1198 24.5986 86.2158 22.7484 86.2158ZM21.4429 88.4371C21.4959 87.6489 21.7905 87.2121 22.6996 87.2121C23.7733 87.2121 23.8459 87.7109 23.8571 88.4371H21.4429Z" fill="black"/>
<path d="M78.8179 86.3192H77.5039V91.4053H78.8179V86.3192Z" fill="black"/>
<path d="M77.2383 84.6587L78.1529 85.5819L79.0787 84.6587L78.1529 83.7244L77.2383 84.6587Z" fill="black"/>
<path d="M3.02865 84.0372H0V91.4053H2.99094C5.04076 91.4053 6.32399 90.2436 6.32399 87.7206C6.3198 85.1162 5.04774 84.0372 3.02865 84.0372ZM3.0077 90.1803H1.32372V85.2609H3.04959C4.30629 85.2609 4.94301 85.9981 4.94301 87.6902C4.94301 89.3824 4.28953 90.1803 3.0077 90.1803Z" fill="black"/>
<path d="M86.2529 86.3192H84.9375V91.4053H86.2529V86.3192Z" fill="black"/>
<path d="M82.0344 89.5781V87.3885H83.6988V86.3205H82.0372V84.9191H80.733V86.3205H79.7891V87.3885H80.7358V89.8798C80.7358 91.0842 81.4339 91.5086 82.766 91.5086C83.132 91.5086 83.4975 91.4815 83.8594 91.4273V90.256C83.5816 90.2923 83.3017 90.3098 83.0216 90.3084C82.3499 90.3056 82.0344 90.2023 82.0344 89.5781Z" fill="black"/>
<path d="M57.5385 84.0372H55.613L55.5292 84.2026C54.7612 85.728 53.457 87.5235 53.457 90.5234V91.3956H54.8045V90.6584C54.8021 90.2767 54.8231 89.8953 54.8673 89.5161H58.3903C58.4338 89.899 58.4548 90.2841 58.4531 90.6694V91.4053H59.7992V90.5964C59.7992 87.5965 58.495 85.666 57.6432 84.2122L57.5385 84.0372ZM55.0558 88.3751C55.4133 86.9117 56.0766 85.9981 56.5918 84.9495C57.1168 86.0188 57.801 86.942 58.1794 88.3751H55.0558Z" fill="black"/>
<path d="M37.0719 86.2158C35.3041 86.2158 34.3477 87.1088 34.3477 88.8629C34.3477 90.5854 35.3041 91.5086 37.0719 91.5086C38.8397 91.5086 39.7961 90.5854 39.7961 88.8629C39.7961 87.1088 38.8494 86.2158 37.0719 86.2158ZM37.0719 90.3787C36.0512 90.3787 35.7049 89.8482 35.7049 88.8533C35.7049 87.8239 36.0512 87.3265 37.0719 87.3265C38.0926 87.3265 38.4501 87.8239 38.4501 88.8533C38.4571 89.8427 38.0912 90.3787 37.0719 90.3787Z" fill="black"/>
<path d="M67.7721 86.2158C67.074 86.2158 66.0365 86.4239 65.538 86.745C65.2434 86.3826 64.7379 86.2158 64.2129 86.2158C63.477 86.2158 62.561 86.5066 62.2887 86.6733V86.3205H61.0781V91.4053H62.3935V87.6076C62.6979 87.4615 63.4128 87.3568 63.8443 87.3568C64.3288 87.3568 64.6653 87.5855 64.6653 88.229V91.4053H65.9793V88.043C65.9822 87.8968 65.9682 87.7507 65.9374 87.6076C66.2166 87.4505 66.9581 87.3471 67.3993 87.3568C67.8727 87.3692 68.2371 87.5855 68.2371 88.229V91.4053H69.5427V88.0513C69.5301 86.7353 68.758 86.2158 67.7721 86.2158Z" fill="black"/>
</svg>
